<svg width="250" height="339" viewBox="0 0 250 339" fill="none" xmlns="http://www.w3.org/2000/svg">
<path d="M208.799 156.226C210.073 156.628 211.029 157.399 211.632 158.556C212.235 159.712 212.353 160.936 211.951 162.21C211.548 163.484 210.777 164.44 209.62 165.077C208.464 165.714 207.24 165.831 205.949 165.429C204.675 165.026 203.72 164.238 203.1 163.065C202.479 161.875 202.362 160.651 202.764 159.36C203.167 158.086 203.938 157.148 205.128 156.544C206.285 155.924 207.508 155.823 208.799 156.226Z" fill="#27AE60"/>
<path d="M238.236 276.45C238.236 281.328 234.28 285.284 229.402 285.284C224.524 285.284 220.568 281.328 220.568 276.45C220.568 271.572 224.524 267.616 229.402 267.616C234.28 267.616 238.236 271.572 238.236 276.45Z" stroke="#27AE60" stroke-width="2" stroke-miterlimit="10"/>
<path d="M162.803 9.83411C162.803 14.7122 158.846 18.6682 153.968 18.6682C149.09 18.6682 145.134 14.7122 145.134 9.83411C145.134 4.95607 149.09 1 153.968 1C158.846 1 162.803 4.95607 162.803 9.83411Z" stroke="#27AE60" stroke-width="2" stroke-miterlimit="10"/>
<path d="M23.8201 199.391C23.8201 204.269 19.864 208.225 14.986 208.225C10.1079 208.225 6.15186 204.269 6.15186 199.391C6.15186 194.513 10.1079 190.557 14.986 190.557C19.864 190.557 23.8201 194.513 23.8201 199.391Z" stroke="#27AE60" stroke-width="2" stroke-miterlimit="10"/>
<path d="M14.5503 266.107C14.5503 266.107 14.7347 251.557 29.1006 251.557C29.1006 251.557 14.5503 251.373 14.5503 237.007C14.5503 237.007 14.3659 251.557 0 251.557C0 251.557 14.5503 251.741 14.5503 266.107Z" fill="#F9CA24"/>
<path d="M234.884 240.175C234.884 240.175 235.068 225.625 249.434 225.625C249.434 225.625 234.884 225.44 234.884 211.074C234.884 211.074 234.699 225.625 220.334 225.625C220.317 225.608 234.884 225.792 234.884 240.175Z" fill="#F9CA24"/>
<path d="M119.488 31.1903C119.488 31.1903 119.588 22.6412 128.037 22.6412C128.037 22.6412 119.488 22.5406 119.488 14.092C119.488 14.092 119.387 22.6412 110.938 22.6412C110.955 22.6412 119.488 22.7585 119.488 31.1903Z" fill="#F9CA24"/>
<path d="M31.9339 88.3522C31.9339 88.3522 32.0345 79.803 40.483 79.803C40.483 79.803 31.9339 79.7025 31.9339 71.2539C31.9339 71.2539 31.8333 79.803 23.3848 79.803C23.3848 79.8198 31.9339 79.9204 31.9339 88.3522Z" fill="#F9CA24"/>
<path d="M128.786 65C105.459 65 83.9868 73.1871 67.1472 86.8605C45.0576 104.856 31 132.2 31 162.786C31 216.778 128.786 336.806 128.786 336.806C128.786 336.806 173.198 282.278 202.086 230.219C216.143 205.041 226.569 180.398 226.569 162.79C226.569 108.799 182.774 65 128.786 65ZM128.786 207.427C103.531 207.427 83.0594 187.037 83.0594 161.782C83.0594 155.601 84.2934 149.73 86.536 144.325C93.4115 127.718 109.708 116.058 128.786 116.058C154.042 116.058 174.514 136.526 174.514 161.782C174.514 183.642 159.222 201.793 138.751 206.271C135.584 207.043 132.185 207.427 128.786 207.427Z" fill="#CBECD9"/>
<path d="M129.806 338.458H105.947C106.194 337.601 107 336.131 109.638 335.702C113.321 335.104 119.701 332.965 121.124 328.258C121.168 328.106 121.209 327.951 121.246 327.792C122.376 322.76 130.593 329.333 130.593 329.333C130.593 329.333 130.615 329.536 130.652 329.88C130.844 331.716 131.324 337.612 129.806 338.458Z" fill="#A0462D"/>
<path d="M110.616 203.845C110.616 203.845 111.865 219.418 113.332 238.134C115.327 263.56 117.724 294.793 117.961 300.712C118.371 310.986 120.015 327.42 120.015 327.42C120.015 327.42 123.916 331.325 131.727 329.677C131.727 329.677 138.683 306.217 140.671 281.393C140.701 280.987 140.734 280.577 140.763 280.167C142.614 254.896 145.489 201.684 145.489 201.684L110.616 203.845Z" fill="#2D4559"/>
<path d="M110.616 203.845C110.616 203.845 111.865 219.417 113.332 238.134L140.671 281.397C140.701 280.99 140.734 280.58 140.763 280.17C142.614 254.9 145.489 201.688 145.489 201.688L110.616 203.845Z" fill="#36536B"/>
<path d="M116.313 205.693C116.313 205.693 138.809 262.09 153.602 288.59C168.395 315.095 173.017 322.491 173.017 322.491C173.017 322.491 181.492 319.1 182.261 316.791C182.261 316.791 176.604 265.625 166.699 253.152C161.102 246.103 154.526 224.956 154.219 217.559C153.913 210.163 152.217 195.525 152.217 195.525L116.313 205.693Z" fill="#2D4559"/>
<path d="M145.914 118.782C145.914 118.782 130.693 126.242 121.918 123.475C121.918 123.475 124.08 120.707 127.859 118.649C127.556 116.861 127.32 115.31 127.183 113.991C126.814 110.954 126.814 109.232 126.814 109.232L132.688 104.54L138.256 100.051C137.812 112.675 145.914 118.782 145.914 118.782Z" fill="#FF7955"/>
<path d="M153.935 198.414C153.968 199.36 151.977 200.439 151.101 200.845C144.588 203.749 138.514 205.774 131.628 206.446C123.492 207.289 113.875 205.434 110.569 205.5C110.233 205.5 109.926 205.364 109.656 205.127C109.42 204.957 109.25 195.001 109.42 182.48C109.42 181.974 109.42 181.468 109.453 180.961V180.791C109.52 175.896 109.69 170.768 109.926 165.637C110.399 154.365 111.275 143.495 112.76 137.488C114.548 130.402 118.597 125.71 122.277 122.3L125.314 119.599C128.351 120.209 131.557 120.039 134.764 118.454C138.274 116.732 142.116 114.8 142.722 115.273C147.311 118.683 150.359 126.419 152.01 136.206C152.956 141.844 153.429 148.154 153.396 154.767C153.396 157.198 153.329 159.696 153.193 162.16C152.383 175.527 153.193 187.135 153.665 193.852C153.802 195.813 153.902 197.332 153.935 198.414Z" fill="#5CC0F7"/>
<path d="M153.665 193.855C79.9191 193.756 140.066 138.877 140.066 138.877L152.014 136.21C152.96 141.848 153.433 148.158 153.399 154.771C153.399 157.202 153.333 159.699 153.196 162.164C152.383 175.53 153.192 187.139 153.665 193.855Z" fill="#016EB9"/>
<path d="M62.9452 193.5H108.798V147.648H62.9452L62.9452 193.5Z" fill="#F4B02E"/>
<path d="M106.888 193.5H127.88V147.648H106.888V193.5Z" fill="#FFBB38"/>
<path d="M101.909 171.248L99.1785 170.373C99.1785 170.373 97.2685 164.051 90.8105 166.881C90.8105 166.881 88.1874 168.271 89.3437 169.918C90.4964 171.562 90.2858 170.698 91.8671 173.066C93.4447 175.434 95.9421 176.561 97.9335 175.663L100.202 175.73L101.909 171.248Z" fill="#FF7955"/>
<path d="M145.918 118.768C145.918 118.768 162.618 145.328 144.828 176.018C139.276 185.598 97.3318 176.495 97.3318 176.495C97.3318 176.495 95.6951 173.543 100.073 170.428C100.073 170.428 128 165.703 131.329 164.909C134.281 164.207 132.311 137.063 135.688 129.19C139.061 121.313 145.918 118.768 145.918 118.768Z" fill="#5CC0F7"/>
<path d="M138.355 104.88C138.355 104.88 134.509 112.003 127.183 113.991C126.813 110.954 126.813 109.233 126.813 109.233L132.688 104.541L138.355 104.88Z" fill="#EF6343"/>
<path d="M124.135 109.025C124.135 109.025 138.655 111.438 140.018 102.372C141.381 93.3052 144.174 87.5122 134.96 85.5873C125.746 83.6625 123.422 86.8508 122.229 89.7658C121.039 92.6845 120.393 108.165 124.135 109.025Z" fill="#FF7955"/>
<path d="M139.922 103C139.922 103 139.63 90.856 126.4 88.9053C117.338 87.5715 118.091 81.0064 119.129 79.8057C119.129 79.8057 130.841 79.9017 137.883 81.6751C148.523 84.3573 141.496 101.193 139.922 103Z" fill="#131F2D"/>
<path d="M182.265 318.693L181.563 317.788L173.564 322.27C173.49 323.799 173.449 325.569 173.534 327.117C173.593 328.166 173.531 329.241 173.342 330.257C173.176 331.051 172.33 334.436 169.851 335.326C167.039 336.335 166.814 338.496 171.613 338.459C172.474 338.452 173.316 338.448 174.118 338.448C177.111 338.44 179.671 336.401 180.487 333.523C180.809 332.389 181.404 331.118 182.431 329.762C183.691 328.288 185.176 326.987 185.656 325.373C186.476 322.595 182.265 318.693 182.265 318.693Z" fill="#A0462D"/>
</svg>
