<svg width="299" height="386" viewBox="0 0 299 386" fill="none" xmlns="http://www.w3.org/2000/svg">
<path d="M210.032 29.48C209.935 29.48 209.818 29.48 209.72 29.48C208.081 20.2907 200.063 13.3255 190.425 13.3255C182.464 13.3255 175.616 18.0665 172.553 24.8756C168.924 21.8125 164.242 19.9785 159.13 19.9785C157.589 19.9785 156.087 20.1541 154.643 20.4663C149.726 8.46746 137.942 0 124.168 0C110.511 0 98.7849 8.31138 93.8098 20.1736C92.8928 20.0566 91.9563 19.9785 91.0003 19.9785C83.4888 19.9785 76.9139 23.9391 73.2264 29.9093C72.2314 29.6361 71.1974 29.48 70.1243 29.48C65.2467 29.48 61.091 32.5627 59.4717 36.8744H220.705C219.066 32.5627 214.91 29.48 210.032 29.48Z" fill="#27AE60" fill-opacity="0.24"/>
<path d="M192.005 83.3479C192.083 83.3479 192.142 83.3479 192.22 83.3479C193.371 76.8119 199.068 71.8563 205.935 71.8563C211.593 71.8563 216.451 75.2316 218.637 80.0701C221.212 77.9045 224.548 76.5973 228.177 76.5973C229.27 76.5973 230.343 76.7143 231.377 76.9485C234.869 68.4225 243.259 62.3938 253.033 62.3938C262.749 62.3938 271.061 68.3054 274.612 76.7339C275.255 76.6558 275.919 76.5973 276.602 76.5973C281.947 76.5973 286.61 79.4263 289.225 83.6405C289.927 83.4454 290.669 83.3283 291.429 83.3283C294.902 83.3283 297.848 85.5135 298.999 88.5766H184.416C185.586 85.533 188.532 83.3479 192.005 83.3479Z" fill="#27AE60" fill-opacity="0.24"/>
<path d="M71.5294 100.634C69.3052 100.634 67.1981 101.102 65.2666 101.941C61.9303 94.547 54.4969 89.3962 45.8539 89.3962C37.1718 89.3962 29.6994 94.6055 26.3826 102.078C24.3926 101.161 22.1879 100.634 19.8662 100.634C13.1937 100.634 7.5357 104.829 5.31152 110.721H86.0841C83.8599 104.829 78.2019 100.634 71.5294 100.634Z" fill="#27AE60" fill-opacity="0.24"/>
<path d="M277.87 287.796C277.87 292.576 273.988 296.458 269.207 296.458C264.427 296.458 260.545 292.576 260.545 287.796C260.545 283.016 264.427 279.133 269.207 279.133C273.988 279.133 277.87 283.016 277.87 287.796Z" fill="#F9CA24"/>
<path d="M253.307 282.313C253.307 282.313 258.574 273.807 268.856 273.807V301.277L253.307 282.313Z" fill="#5CC0F7"/>
<path d="M270.183 303.307C269.051 303.307 268.115 302.39 268.115 301.239V274.119C268.115 272.988 269.032 272.051 270.183 272.051C271.314 272.051 272.251 272.968 272.251 274.119V301.239C272.251 302.37 271.334 303.307 270.183 303.307Z" fill="#2D4559"/>
<path d="M173.802 299.385C173.802 299.385 182.113 283.425 179.597 271.153C177.08 258.881 169.919 256.969 169.919 256.969C169.919 256.969 220.061 256.969 225.914 256.969C231.767 256.969 243.941 282.82 243.941 282.82L173.802 299.385Z" fill="#5CC0F7"/>
<path d="M84.4956 340.757C87.7053 319.337 72.943 299.371 51.5231 296.161C30.1031 292.952 10.1367 307.714 6.927 329.134C3.71725 350.554 18.4796 370.52 39.8995 373.73C61.3195 376.94 81.2859 362.177 84.4956 340.757Z" fill="#2D4559"/>
<path d="M64.7002 335.127C64.5831 345.624 55.9791 354.052 45.463 353.955C34.947 353.857 26.5381 345.233 26.6356 334.717C26.7527 324.201 35.3567 315.792 45.8727 315.89C56.3888 316.007 64.8172 324.631 64.7002 335.127Z" fill="#5CC0F7"/>
<path d="M52.8774 335.01C52.8384 338.971 49.5802 342.17 45.6196 342.112C41.659 342.073 38.4593 338.815 38.5179 334.854C38.5569 330.893 41.8151 327.694 45.7757 327.752C49.7363 327.772 52.9165 331.03 52.8774 335.01Z" fill="#5CC0F7"/>
<path d="M46.1263 293.844C23.4358 293.59 4.86203 311.793 4.6084 334.484L86.7662 335.362C87.0003 312.691 68.8167 294.097 46.1263 293.844Z" fill="#5CC0F7"/>
<path d="M86.7666 335.361H2.28711V334.503C2.28711 332.844 3.63331 331.498 5.29169 331.498H86.7666V335.361Z" fill="#2D4559"/>
<path d="M243.02 371.488C263.151 363.501 272.996 340.706 265.008 320.575C257.021 300.444 234.226 290.599 214.094 298.587C193.963 306.574 184.119 329.369 192.106 349.5C200.094 369.632 222.889 379.476 243.02 371.488Z" fill="#2D4559"/>
<path d="M246.868 340.219C244 350.326 233.484 356.198 223.378 353.33C213.272 350.462 207.399 339.946 210.267 329.84C213.135 319.734 223.651 313.861 233.757 316.729C243.864 319.578 249.736 330.094 246.868 340.219Z" fill="#5CC0F7"/>
<path d="M235.474 336.981C234.401 340.805 230.421 343.01 226.597 341.937C222.773 340.844 220.568 336.883 221.641 333.059C222.714 329.235 226.694 327.031 230.519 328.104C234.343 329.196 236.567 333.157 235.474 336.981Z" fill="#5CC0F7"/>
<path d="M141.123 346.853C164.633 346.853 165.823 328.143 165.823 313.979C165.823 291.249 182.211 269.359 222.968 269.359C263.725 269.359 274.554 311.033 274.554 332.221H186.991V350.365C187.011 350.385 117.613 346.853 141.123 346.853Z" fill="#5CC0F7"/>
<path d="M74.9831 227.099C74.9831 227.099 80.8557 235.606 74.5344 252.346C69.8909 264.637 64.4476 266.549 60.0187 270.978C51.961 279.036 47.9028 291.6 47.9028 291.6C47.9028 291.6 75.0416 293.512 83.8993 315.481C92.757 337.45 89.5573 350.385 89.5573 350.385H117.769C117.769 350.385 97.615 333.84 88.8354 313.257C80.0558 292.674 83.6457 254.336 91.5278 238.767C99.41 223.178 88.2111 196.781 74.5539 196.781L74.9831 227.099Z" fill="#5CC0F7"/>
<path d="M74.5342 196.761C74.5342 196.761 77.7729 194.322 87.8792 199.375C97.9855 204.428 119.193 215.881 119.193 215.881C119.193 215.881 126.1 221.715 118.198 227.099C110.277 232.484 78.7484 245.771 87.5866 299.502C88.1524 303.014 89.4596 306.604 91.2155 310.155C101.088 330.211 121.808 342.639 144.166 342.776L187.03 343.069V350.385L106.394 350.404C106.394 350.404 78.2802 313.062 78.2802 284.655C78.2607 256.248 105.673 213.93 74.5342 196.761Z" fill="#5CC0F7"/>
<path d="M71.5098 224.543C68.5052 224.543 66.0859 222.124 66.0859 219.12V204.448C66.0859 201.443 68.5052 199.024 71.5098 199.024V224.543Z" fill="#F9CA24"/>
<path d="M73.1289 228.309C71.3339 228.309 69.8901 226.846 69.8901 225.07V199.414C69.8901 197.619 71.3534 196.176 73.1289 196.176C74.9238 196.176 76.3675 197.639 76.3675 199.414V225.051C76.3871 226.846 74.9238 228.309 73.1289 228.309Z" fill="#2D4559"/>
<path d="M119.856 216.427L89.186 199.902C91.1566 196.234 95.722 194.868 99.3899 196.839L116.793 206.204C120.461 208.194 121.846 212.759 119.856 216.427Z" fill="#F6E58D"/>
<path d="M110.784 214.71C110.784 218.32 107.857 221.227 104.267 221.227C100.658 221.227 97.751 218.3 97.751 214.71C97.751 211.101 100.678 208.194 104.267 208.194C107.857 208.174 110.784 211.101 110.784 214.71Z" fill="#2D4559"/>
<path d="M104.267 217.637C105.884 217.637 107.194 216.327 107.194 214.71C107.194 213.094 105.884 211.784 104.267 211.784C102.651 211.784 101.341 213.094 101.341 214.71C101.341 216.327 102.651 217.637 104.267 217.637Z" fill="#5CC0F7"/>
<path d="M266.652 325.86H239.942C238.85 325.86 237.972 324.982 237.972 323.89C237.972 322.797 238.85 321.919 239.942 321.919H266.652C267.744 321.919 268.622 322.797 268.622 323.89C268.622 324.982 267.744 325.86 266.652 325.86Z" fill="#2D4559"/>
<path d="M268.193 274.861H238.381C235.104 274.861 232.45 272.207 232.45 268.929V265.574C232.45 262.296 235.104 259.643 238.381 259.643H268.193C271.471 259.643 274.124 262.296 274.124 265.574V268.929C274.124 272.207 271.471 274.861 268.193 274.861Z" fill="#FFBB38"/>
<path d="M226.675 262.823H166.837C166.837 255.37 172.866 249.341 180.319 249.341H234.362V255.116C234.382 259.369 230.929 262.823 226.675 262.823Z" fill="#FFBB38"/>
<path d="M180.592 356.804H95.9755C92.4247 356.804 89.5566 353.936 89.5566 350.385H187.01C187.01 353.936 184.142 356.804 180.592 356.804Z" fill="#2D4559"/>
<path d="M272.661 338.542H186.777C184.884 338.542 183.362 337.001 183.362 335.128C183.362 333.235 184.904 331.713 186.777 331.713H272.661C274.553 331.713 276.075 333.255 276.075 335.128C276.075 337.02 274.534 338.542 272.661 338.542Z" fill="#2D4559"/>
<path d="M216.003 121.997C216.003 121.997 215.808 126.309 217.681 130.738C219.554 135.167 219.378 136.181 217.681 136.181C217.076 136.181 215.398 135.284 215.398 135.284C215.398 135.284 216.159 137.118 216.452 139.01C216.686 140.571 213.935 141.527 212.979 140.571C212.023 139.615 211.028 137.664 211.028 137.664C211.028 137.664 209.877 138.035 208.355 142.952L204.395 121.685L216.003 121.997Z" fill="#2D4559"/>
<path d="M183.186 121.744C183.186 121.744 184.298 127.772 183.694 129.684C183.089 131.596 182.445 132.787 183.186 134.25C183.947 135.713 185.254 141.956 185.547 144.122C185.84 146.288 189.469 147.146 191.186 147.146C192.903 147.146 194.112 151.419 194.112 151.419C194.112 151.419 201.858 150.97 209.096 148.902C209.096 148.902 207.379 137.469 207.945 131.343C208.491 125.217 200.902 115.5 183.186 121.744Z" fill="#FFC2BD"/>
<path d="M182.543 133.88V131.714C182.543 131.714 188.045 133.099 191.654 132.65C195.264 132.202 195.595 131.714 195.595 131.714C195.595 131.714 196.278 140.864 198.951 142.425C198.951 142.425 195.01 146.288 191.01 147.888C191.01 147.888 186.835 148.044 184.982 144.922C182.641 140.962 182.543 133.88 182.543 133.88Z" fill="#DFF9FB"/>
<path d="M194.931 133.196L194.307 132.592C194.307 132.592 197.37 129.08 198.482 128.377C199.516 127.734 200.102 128.124 200.102 128.124L199.165 128.67L194.931 133.196Z" fill="#DFF9FB"/>
<path d="M197.975 142.854L197.663 142.054C197.663 142.054 201.448 140.786 201.994 140.533C202.541 140.298 202.931 139.947 202.931 139.947C202.931 139.947 203.048 140.669 202.209 141.118C201.37 141.567 197.975 142.854 197.975 142.854Z" fill="#DFF9FB"/>
<path d="M203.263 146.541C201.097 146.541 199.263 144.922 198.99 142.776L196.317 121.978H210.209L207.536 142.776C207.263 144.941 205.429 146.541 203.263 146.541Z" fill="#2D4559"/>
<path d="M206.287 128.026H200.258C199.576 128.026 199.029 127.48 199.029 126.797V125.334C199.029 124.651 199.576 124.105 200.258 124.105H206.287C206.97 124.105 207.516 124.651 207.516 125.334V126.797C207.497 127.48 206.95 128.026 206.287 128.026Z" fill="#5CC0F7"/>
<path d="M205.799 135.264H200.727C200.083 135.264 199.556 134.738 199.556 134.094V132.533C199.556 131.889 200.083 131.362 200.727 131.362H205.799C206.443 131.362 206.97 131.889 206.97 132.533V134.094C206.99 134.738 206.443 135.264 205.799 135.264Z" fill="#5CC0F7"/>
<path d="M205.194 142.522H201.312C200.629 142.522 200.063 141.956 200.063 141.273V139.849C200.063 139.166 200.629 138.601 201.312 138.601H205.194C205.877 138.601 206.443 139.166 206.443 139.849V141.273C206.462 141.956 205.897 142.522 205.194 142.522Z" fill="#5CC0F7"/>
<path d="M216.706 122.329C216.706 112.554 208.784 104.633 199.01 104.633C189.235 104.633 181.314 112.554 181.314 122.329H216.706Z" fill="#FFBB38"/>
<path d="M174.915 122.622H199.029C199.556 122.622 199.615 122.115 199.478 121.607C198.561 118.388 196.727 111.287 187.421 108.262C187.421 108.262 184.065 110.818 180.651 118.993C180.651 118.993 176.905 120.398 174.661 121.686C174.232 121.939 174.407 122.622 174.915 122.622Z" fill="#2D4559"/>
<path d="M184.884 229.675L139.659 262.199C133.709 266.471 131.153 274.061 133.299 281.065L150.195 336.162L162.642 334.933L153.16 281.338C153.16 281.338 200.102 258.589 209.408 253.965C218.715 249.341 222.773 240.367 218.481 228.739L184.884 229.675Z" fill="#2D4559"/>
<path d="M211.71 155.224C211.71 155.224 211.574 148.239 208.628 147.985C205.682 147.712 193 149.936 189.839 153.682C189.839 153.682 189.43 154.014 189.839 155.224C189.839 155.224 181.996 162.872 180.65 168.842C179.304 174.812 180.318 182.597 181.196 188.899C182.074 195.2 184.884 204.995 184.611 213.52C184.338 222.046 183.128 229.695 183.128 229.695H219.554C219.554 229.695 215.593 212.057 216.939 201.19C218.285 190.323 220.9 179.182 219.554 170.598C218.227 161.994 211.71 155.224 211.71 155.224Z" fill="#FFBB38"/>
<path d="M124.324 204.253C124.324 204.253 116.091 204.78 114.316 204.624C112.54 204.448 107.741 203.668 103.682 204.487C99.6048 205.306 97.166 206.575 96.4442 210.613C95.7808 214.398 96.0539 216.232 97.5367 215.374C99.0195 214.535 98.8634 211.55 98.8634 211.55C98.8634 211.55 100.541 207.687 105.868 208.272C108.092 208.506 109.945 211.764 109.75 212.642C109.126 215.471 107.175 217.13 106.258 217.832C105.341 218.534 104.131 220.076 105.926 220.329C107.721 220.563 111.701 217.13 113.652 216.486C114.959 216.057 115.545 214.983 117.106 214.476C118.666 213.969 125.144 212.662 125.144 212.662L124.324 204.253Z" fill="#FFC2BD"/>
<path d="M152.497 338.054L128.675 350.346H163.813C163.813 350.346 161.531 341.703 161.687 338.191L152.497 338.054Z" fill="#2D4559"/>
<path d="M151.756 336.026L152.497 338.055L161.667 338.211L161.316 335.07L151.756 336.026Z" fill="#FFC2BD"/>
<path d="M251.493 231.001H216.179V155.145H251.493C259.199 155.145 265.462 161.389 265.462 169.115V217.051C265.443 224.758 259.199 231.001 251.493 231.001Z" fill="#2D4559"/>
<path d="M254.419 193.073C254.419 200.585 248.332 206.691 240.801 206.691C233.27 206.691 227.183 200.604 227.183 193.073C227.183 185.562 233.27 179.455 240.801 179.455C248.332 179.455 254.419 185.562 254.419 193.073Z" fill="white"/>
<path d="M243.553 178.558L233.993 194.341H243.104L239.221 207.608L249.269 190.069H239.846L243.553 178.558Z" fill="#FFBB38"/>
<path d="M217.583 216.408L214.5 212.389C211.359 208.448 207.477 204.487 203.731 200.663C191.146 187.825 178.114 174.539 191.439 159.984C196.18 154.794 212.959 155.243 216.256 155.38L216.081 159.574C208.667 159.262 197.058 160.062 194.541 162.813C184.63 173.661 192.532 183.24 206.735 197.717C210.559 201.619 214.52 205.658 217.817 209.794L220.919 213.852L217.583 216.408Z" fill="#2D4559"/>
<path d="M127.426 201.053L166.037 193.854L193.605 163.535C193.605 163.535 200.044 156.824 207.028 162.325C214.013 167.827 207.965 178.051 207.965 178.051L173.549 208.74L127.173 214.691L125.163 212.545L124.324 204.253L127.426 201.053Z" fill="#2D4559"/>
<path d="M104.443 283.621H85.5371V252.092H110.627L104.443 283.621Z" stroke="#5CC0F7" stroke-width="0.5387" stroke-miterlimit="10"/>
<path d="M92.2295 252.092V283.621" stroke="#5CC0F7" stroke-width="0.5387" stroke-miterlimit="10"/>
<path d="M98.9409 252.092V283.621" stroke="#5CC0F7" stroke-width="0.5387" stroke-miterlimit="10"/>
<path d="M105.652 252.092V277.319" stroke="#5CC0F7" stroke-width="0.5387" stroke-miterlimit="10"/>
<path d="M85.5371 259.292H109.203" stroke="#5CC0F7" stroke-width="0.5387" stroke-miterlimit="10"/>
<path d="M85.5371 266.549H107.798" stroke="#5CC0F7" stroke-width="0.5387" stroke-miterlimit="10"/>
<path d="M85.5371 273.788H106.374" stroke="#5CC0F7" stroke-width="0.5387" stroke-miterlimit="10"/>
<path d="M85.5371 281.026H104.95" stroke="#5CC0F7" stroke-width="0.5387" stroke-miterlimit="10"/>
<path d="M21.5638 190.128C21.5638 195.805 16.9594 200.41 11.2819 200.41C5.60442 200.41 1 195.805 1 190.128C1 184.45 5.60442 179.846 11.2819 179.846C16.9594 179.846 21.5638 184.45 21.5638 190.128Z" stroke="#27AE60" stroke-width="2" stroke-miterlimit="10"/>
<path d="M71.1586 157.858C71.1586 157.858 71.3732 140.923 88.0935 140.923C88.0935 140.923 71.1586 140.708 71.1586 123.988C71.1586 123.988 70.9439 140.923 54.2236 140.923C54.2236 140.903 71.1586 141.118 71.1586 157.858Z" fill="#F9CA24"/>
<path d="M17.3301 268.403C17.3301 268.403 17.4472 258.452 27.2804 258.452C27.2804 258.452 17.3301 258.335 17.3301 248.502C17.3301 248.502 17.2131 258.452 7.37988 258.452C7.37988 258.452 17.3301 258.569 17.3301 268.403Z" fill="#F9CA24"/>
<path d="M252.487 46.7076C252.487 46.7076 252.604 36.7574 262.438 36.7574C262.438 36.7574 252.487 36.6403 252.487 26.8071C252.487 26.8071 252.37 36.7574 242.537 36.7574C242.557 36.7574 252.487 36.8939 252.487 46.7076Z" fill="#F9CA24"/>
<path d="M283.119 239.118C283.119 239.118 283.236 229.168 293.069 229.168C293.069 229.168 283.119 229.051 283.119 219.218C283.119 219.218 283.002 229.168 273.168 229.168C273.168 229.168 283.119 229.285 283.119 239.118Z" fill="#F9CA24"/>
<path d="M27.2808 61.6131C27.2808 61.6131 27.3979 51.6629 37.2311 51.6629C37.2311 51.6629 27.2808 51.5458 27.2808 41.7126C27.2808 41.7126 27.1637 51.6629 17.3306 51.6629C17.3306 51.6824 27.2808 51.7995 27.2808 61.6131Z" fill="#F9CA24"/>
</svg>
