<svg width="280" height="378" viewBox="0 0 280 378" fill="none" xmlns="http://www.w3.org/2000/svg">
<path d="M172.237 316.585H60.9571C49.0838 316.585 39.4482 306.949 39.4482 295.076V74.1248C39.4482 62.2515 49.0838 52.616 60.9571 52.616H172.219C184.092 52.616 193.728 62.2515 193.728 74.1248V295.076C193.728 306.949 184.11 316.585 172.237 316.585Z" fill="#3EA2E5"/>
<path d="M170.24 307.042H63.0843C55.1687 307.042 48.7512 300.624 48.7512 292.709V76.4734C48.7512 68.5579 55.1687 62.1404 63.0843 62.1404H170.259C178.174 62.1404 184.592 68.5579 184.592 76.4734V292.709C184.573 300.624 178.156 307.042 170.24 307.042Z" fill="#FFF7E8"/>
<path d="M146.752 71.332H90.3446C85.1662 71.332 80.968 67.1338 80.968 61.9554V55.6118H156.11V61.9554C156.11 67.1338 151.912 71.332 146.752 71.332Z" fill="#3EA2E5"/>
<path d="M172.94 137.135H113.148V145.642H172.94V137.135Z" fill="#7ED6DF"/>
<path d="M172.959 149.858H129.664V158.366H172.959V149.858Z" fill="#7ED6DF"/>
<path d="M89.8824 165.135H65.6179C62.7143 165.135 60.3655 162.786 60.3655 159.883V135.618C60.3655 132.715 62.7143 130.366 65.6179 130.366H89.8824C92.786 130.366 95.1347 132.715 95.1347 135.618V159.883C95.1347 162.786 92.786 165.135 89.8824 165.135Z" fill="#7ED6DF"/>
<path d="M77.7497 136.081L67.5779 152.356C67.5779 152.356 70.0931 156.72 77.7497 156.72C85.4064 156.72 87.9216 152.356 87.9216 152.356L77.7497 136.081Z" fill="white"/>
<path d="M66.3757 155.056C66.3757 155.056 70.0931 159.421 77.7497 159.421C85.4063 159.421 89.1237 155.056 89.1237 155.056" stroke="white" stroke-width="0.9686" stroke-miterlimit="10" stroke-linecap="round" stroke-linejoin="round"/>
<path d="M172.94 178.173H113.148V186.681H172.94V178.173Z" fill="#7ED6DF"/>
<path d="M172.959 190.897H129.664V199.405H172.959V190.897Z" fill="#7ED6DF"/>
<path d="M89.8824 206.174H65.6179C62.7143 206.174 60.3655 203.825 60.3655 200.922V176.657C60.3655 173.754 62.7143 171.405 65.6179 171.405H89.8824C92.786 171.405 95.1347 173.754 95.1347 176.657V200.922C95.1347 203.825 92.786 206.174 89.8824 206.174Z" fill="#7ED6DF"/>
<path d="M172.94 96.0962H113.148V104.604H172.94V96.0962Z" fill="#7ED6DF"/>
<path d="M172.959 108.82H129.664V117.327H172.959V108.82Z" fill="#7ED6DF"/>
<path d="M89.8824 124.096H65.6179C62.7143 124.096 60.3655 121.748 60.3655 118.844V94.5795C60.3655 91.6759 62.7143 89.3271 65.6179 89.3271H89.8824C92.786 89.3271 95.1347 91.6759 95.1347 94.5795V118.844C95.1347 121.748 92.786 124.096 89.8824 124.096Z" fill="#7ED6DF"/>
<g clip-path="url(#clip0_173_74)">
<path d="M84.9793 105.848C84.9793 108.696 84.9802 111.545 84.9784 114.394C84.9775 115.971 84.0718 116.856 82.4597 116.857C79.225 116.858 75.9912 116.858 72.7565 116.857C71.1471 116.856 70.2414 115.97 70.2405 114.392C70.2405 108.665 70.2405 102.939 70.2414 97.2122C70.2414 95.6352 71.148 94.7504 72.76 94.7504C75.9939 94.7495 79.2286 94.7495 82.4624 94.7504C84.0727 94.7513 84.9775 95.6369 84.9784 97.2148C84.9802 100.093 84.9793 102.97 84.9793 105.848ZM72.519 110.184C75.9354 110.184 79.3092 110.184 82.6866 110.184C82.6866 105.769 82.6866 101.389 82.6866 97.0051C79.2817 97.0051 75.9097 97.0051 72.519 97.0051C72.519 101.412 72.519 105.78 72.519 110.184ZM77.6174 114.631C77.8381 114.631 78.0605 114.644 78.2803 114.628C78.9157 114.585 79.3021 114.173 79.3021 113.556C79.3021 112.97 78.875 112.486 78.2901 112.453C77.8496 112.428 77.4056 112.427 76.9652 112.453C76.4024 112.486 75.9238 113.005 75.9194 113.547C75.915 114.119 76.3501 114.58 76.9563 114.627C77.1743 114.645 77.3959 114.631 77.6174 114.631Z" fill="white"/>
</g>
<path d="M262.621 374.603L215.979 327.961L229.757 314.182L276.399 360.825C280.209 364.635 280.209 370.793 276.399 374.603C272.589 378.413 266.431 378.413 262.621 374.603Z" fill="#2D4559"/>
<path d="M210.153 332.954L205.03 327.831L229.646 303.215L234.769 308.338C238.061 311.63 238.061 316.956 234.769 320.248L222.064 332.954C218.772 336.246 213.427 336.246 210.153 332.954Z" fill="#F9CA24"/>
<path d="M91.0688 320.544C54.8755 284.351 54.8755 225.465 91.0688 189.272C127.262 153.079 186.148 153.079 222.341 189.272C258.534 225.465 258.534 284.351 222.341 320.544C186.148 356.719 127.262 356.719 91.0688 320.544ZM206.917 204.696C179.231 177.01 134.179 177.01 106.493 204.696C78.8071 232.382 78.8071 277.434 106.493 305.12C134.179 332.806 179.231 332.806 206.917 305.12C234.603 277.434 234.603 232.382 206.917 204.696Z" fill="#FFBB38"/>
<path d="M226.434 271.566C235.643 233.06 211.893 194.381 173.388 185.172C134.883 175.964 96.2033 199.713 86.9947 238.218C77.7861 276.723 101.536 315.403 140.041 324.612C178.546 333.82 217.225 310.071 226.434 271.566Z" fill="white"/>
<g clip-path="url(#clip1_173_74)">
<path d="M183.769 254.15C183.961 253.028 184.774 252.82 185.727 252.824C188.434 252.827 191.145 252.74 193.849 252.85C199.338 253.066 203.051 256.985 203.07 262.533C203.097 271.178 203.089 279.823 203.063 288.471C203.059 289.616 203.089 290.358 204.548 290.718C206.605 291.226 207.826 293.493 207.615 295.604C207.407 297.669 205.902 299.352 203.811 299.75C203.078 299.89 202.31 299.905 201.558 299.905C176.816 299.913 152.073 299.913 127.328 299.909C123.127 299.909 121.739 298.567 121.758 294.406C121.807 282.707 123.932 271.349 127.513 260.256C127.955 258.88 127.721 258.372 126.443 257.773C115.89 252.809 109.448 241.272 111.013 230.319C112.801 217.79 121.724 208.444 133.71 206.538C146.818 204.45 159.692 212.519 163.666 225.313C167.613 238.009 161.666 251.781 149.623 257.591C148.13 258.311 147.665 258.948 148.425 260.475C148.894 261.419 149.068 262.511 149.427 263.515C149.794 264.534 149.646 265.361 148.708 265.978C147.574 266.077 146.977 265.531 146.689 264.451C146.349 263.178 145.869 261.938 145.506 260.669C145.234 259.71 144.829 259.445 143.756 259.71C139.978 260.635 136.122 260.684 132.352 259.786C130.855 259.429 130.556 259.956 130.171 261.131C128.352 266.71 127.036 272.41 126.061 278.189C125.138 283.662 124.564 289.18 124.53 294.743C124.522 296.127 124.813 297.051 126.496 297.04C132.662 296.994 138.829 297.006 144.996 297.04C145.933 297.048 146.1 296.816 146.02 295.873C145.805 293.303 146.886 291.473 148.882 290.662C151.23 289.707 151.408 289.305 151.109 286.663C150.554 281.778 149.79 276.931 148.674 272.137C148.436 271.117 148.342 270.098 149.567 269.571C150.83 269.56 151.279 270.325 151.487 271.451C152.179 275.161 152.924 278.864 153.65 282.589C154.021 282.68 154.134 282.32 154.3 282.097C158.611 276.328 164.418 273.607 171.541 273.641C172.728 273.645 173.254 273.528 173.311 272.088C173.42 269.241 175.647 267.229 178.509 267.123C180.332 267.055 182.162 267.066 183.984 267.119C186.895 267.202 189.051 269.052 189.27 271.985C189.379 273.478 189.909 273.789 191.187 273.626C191.743 273.554 192.321 273.581 192.884 273.622C193.659 273.679 194.007 273.452 193.996 272.584C193.951 269.431 193.962 266.278 193.988 263.121C193.996 262.37 193.852 261.95 192.971 261.953C186.173 261.976 179.379 261.976 172.581 261.95C171.829 261.946 171.496 262.423 171.046 262.863C169.25 264.614 166.717 264.75 164.891 263.242C163.068 261.734 162.702 259.206 164.063 257.11C165.843 254.374 168.437 252.998 171.647 252.85C173.783 252.752 175.927 252.835 178.067 252.82C179.061 252.812 179.776 253.165 180.037 254.192C179.84 255.325 179.13 255.742 178.029 255.727C175.954 255.7 173.878 255.674 171.806 255.738C169.605 255.806 167.806 256.735 166.528 258.565C165.896 259.467 165.9 260.358 166.842 261.044C167.723 261.688 168.551 261.427 169.133 260.604C170.052 259.312 171.311 259.092 172.774 259.103C179.44 259.141 186.105 259.119 192.767 259.119C195.867 259.119 196.892 260.153 196.911 263.344C196.93 266.118 196.956 268.893 196.896 271.663C196.869 272.91 197.006 273.645 198.578 273.622C200.076 273.603 200.151 272.883 200.132 271.743C200.087 268.654 200.132 265.565 200.11 262.48C200.079 258.334 197.524 255.761 193.41 255.727C190.896 255.708 188.381 255.712 185.863 255.727C184.767 255.727 183.852 255.514 183.769 254.15ZM113.728 233.313C113.743 246.65 124.605 257.55 137.869 257.534C151.17 257.519 161.976 246.65 161.968 233.291C161.96 219.897 151.193 209.108 137.85 209.115C124.515 209.123 113.709 219.962 113.728 233.313ZM177.02 290.275C184.192 290.275 191.364 290.252 198.537 290.298C199.728 290.305 200.189 290.014 200.166 288.733C200.095 285.204 200.117 281.668 200.189 278.14C200.212 276.969 199.966 276.495 198.658 276.503C189.16 276.56 179.659 276.48 170.161 276.563C162.932 276.628 156.406 281.695 154.198 288.611C153.722 290.101 154.179 290.309 155.51 290.298C162.679 290.252 169.851 290.275 177.02 290.275ZM176.823 297.006C185.073 297.006 193.323 297.006 201.573 297.002C202.14 297.002 202.722 297.055 203.267 296.941C204.167 296.752 204.677 296.134 204.703 295.198C204.734 294.182 204.227 293.504 203.24 293.284C202.756 293.178 202.238 293.227 201.735 293.227C185.111 293.224 168.486 293.224 151.862 293.227C151.359 293.227 150.841 293.182 150.353 293.273C149.366 293.462 148.788 294.148 148.795 295.13C148.803 296.108 149.381 296.786 150.38 296.964C150.871 297.051 151.385 297.006 151.888 297.006C160.199 297.006 168.509 297.006 176.823 297.006ZM181.235 273.569C182.43 273.569 183.625 273.596 184.816 273.558C185.345 273.543 186.06 273.831 186.343 273.194C186.665 272.47 186.457 271.705 185.992 271.053C184.945 269.59 177.723 269.579 176.642 271.026C176.146 271.69 176.041 272.455 176.328 273.168C176.596 273.823 177.315 273.543 177.84 273.562C178.974 273.592 180.105 273.569 181.235 273.569Z" fill="#090808"/>
<path d="M149.571 269.568C148.342 270.098 148.44 271.114 148.678 272.133C149.794 276.924 150.557 281.771 151.113 286.66C151.416 289.301 151.234 289.703 148.886 290.658C146.89 291.469 145.809 293.3 146.024 295.869C146.104 296.813 145.937 297.04 145 297.036C138.833 296.999 132.666 296.991 126.5 297.036C124.817 297.048 124.526 296.123 124.534 294.74C124.564 289.176 125.139 283.662 126.065 278.186C127.04 272.41 128.352 266.71 130.175 261.128C130.557 259.953 130.859 259.426 132.356 259.782C136.13 260.68 139.982 260.631 143.759 259.706C144.833 259.445 145.234 259.71 145.51 260.665C145.873 261.935 146.349 263.17 146.693 264.447C146.984 265.528 147.582 266.077 148.712 265.975C148.996 267.172 149.283 268.37 149.571 269.568ZM143.434 281.665C143.446 278.504 140.984 276.029 137.835 276.037C134.697 276.048 132.228 278.561 132.266 281.706C132.3 284.776 134.723 287.198 137.786 287.224C140.958 287.255 143.423 284.829 143.434 281.665Z" fill="#7EB4F9"/>
<path d="M183.769 254.15C183.852 255.511 184.767 255.727 185.878 255.723C188.393 255.712 190.907 255.704 193.425 255.723C197.539 255.757 200.095 258.331 200.125 262.477C200.147 265.565 200.102 268.654 200.147 271.739C200.163 272.88 200.091 273.6 198.594 273.619C197.021 273.638 196.881 272.906 196.911 271.66C196.972 268.889 196.945 266.115 196.926 263.341C196.903 260.15 195.883 259.119 192.782 259.115C186.117 259.111 179.451 259.134 172.789 259.1C171.326 259.092 170.063 259.308 169.148 260.601C168.566 261.423 167.738 261.685 166.857 261.04C165.915 260.351 165.912 259.46 166.543 258.562C167.825 256.735 169.621 255.803 171.821 255.735C173.893 255.67 175.972 255.697 178.044 255.723C179.148 255.738 179.855 255.321 180.052 254.188C181.285 254.177 182.525 254.166 183.769 254.15Z" fill="#635C65"/>
<path d="M113.728 233.314C113.709 219.962 124.515 209.123 137.846 209.115C151.189 209.108 161.957 219.898 161.964 233.291C161.972 246.65 151.17 257.52 137.865 257.535C124.605 257.55 113.743 246.65 113.728 233.314ZM119.974 235.175C118.798 235.724 118.764 236.588 119.18 237.687C120.7 241.716 125.078 244.172 129.547 243.467C132.368 243.02 134.802 241.814 136.81 239.772C137.079 239.499 137.366 239.15 137.759 239.355C138.243 239.609 137.869 240.014 137.782 240.34C137.298 242.148 136.277 243.634 135.056 245.024C133.721 246.54 133.464 248.303 134.337 250.122C135.218 251.956 136.769 252.794 138.784 252.68C142.78 252.46 146.421 251.198 149.578 248.708C151.48 247.207 152.607 245.21 152.902 242.769C153.503 237.79 149.99 232.863 144.606 231.135C144.016 230.945 143.158 231.108 143.083 230.092C145.068 229.429 147.041 229.395 149.056 229.827C151.261 230.301 153.121 229.6 154.187 227.921C155.325 226.128 155.17 224.362 154.006 222.619C151.922 219.5 149.193 217.142 145.786 215.611C143.899 214.759 141.929 214.535 139.892 215.047C134.602 216.377 131.309 222.274 132.553 228.201C132.693 228.876 133.143 229.569 132.602 230.441C130.776 228.936 129.812 227.083 129.135 225.037C128.466 223.009 127.01 221.921 124.931 221.827C122.908 221.732 121.482 222.751 120.586 224.571C119.887 225.988 119.414 227.477 118.979 228.993C118.647 230.153 118.893 230.96 119.978 231.495C119.974 232.719 119.974 233.947 119.974 235.175Z" fill="#F7EFDF"/>
<path d="M177.02 290.275C169.848 290.275 162.675 290.253 155.503 290.294C154.172 290.302 153.718 290.093 154.191 288.608C156.399 281.691 162.925 276.624 170.154 276.56C179.651 276.476 189.153 276.56 198.65 276.499C199.959 276.492 200.208 276.965 200.182 278.136C200.11 281.665 200.087 285.201 200.159 288.729C200.185 290.01 199.72 290.302 198.529 290.294C191.365 290.249 184.192 290.275 177.02 290.275Z" fill="#DE636D"/>
<path d="M176.823 297.006C168.509 297.006 160.199 297.006 151.884 297.006C151.381 297.006 150.867 297.052 150.376 296.964C149.381 296.79 148.803 296.112 148.792 295.13C148.784 294.149 149.359 293.466 150.349 293.273C150.837 293.178 151.355 293.228 151.858 293.228C168.482 293.228 185.107 293.228 201.732 293.228C202.234 293.228 202.752 293.178 203.236 293.284C204.223 293.501 204.73 294.179 204.7 295.198C204.673 296.134 204.159 296.752 203.263 296.942C202.718 297.055 202.136 297.002 201.569 297.002C193.323 297.006 185.073 297.006 176.823 297.006Z" fill="#F7EFDF"/>
<path d="M181.236 273.57C180.105 273.57 178.975 273.596 177.844 273.558C177.315 273.539 176.596 273.82 176.332 273.164C176.041 272.448 176.146 271.686 176.646 271.023C177.723 269.579 184.948 269.587 185.996 271.049C186.461 271.701 186.672 272.467 186.347 273.191C186.064 273.827 185.349 273.539 184.82 273.555C183.621 273.592 182.43 273.57 181.236 273.57Z" fill="#635C65"/>
<path d="M143.434 281.665C143.423 284.829 140.958 287.255 137.786 287.224C134.723 287.198 132.303 284.776 132.265 281.706C132.231 278.561 134.7 276.048 137.835 276.037C140.984 276.025 143.446 278.5 143.434 281.665ZM140.633 281.543C140.576 280.077 139.219 278.811 137.763 278.864C136.285 278.921 135.033 280.262 135.09 281.729C135.147 283.199 136.508 284.477 137.948 284.42C139.408 284.363 140.689 282.987 140.633 281.543Z" fill="#090808"/>
<path d="M119.974 231.491C118.889 230.956 118.643 230.149 118.976 228.989C119.411 227.473 119.887 225.988 120.583 224.567C121.479 222.747 122.9 221.728 124.927 221.823C127.006 221.921 128.462 223.005 129.131 225.033C129.808 227.079 130.772 228.933 132.598 230.437C133.135 229.565 132.689 228.876 132.549 228.197C131.309 222.274 134.602 216.377 139.892 215.047C141.93 214.535 143.899 214.758 145.782 215.607C149.189 217.142 151.919 219.496 154.002 222.615C155.166 224.362 155.321 226.128 154.183 227.917C153.117 229.596 151.257 230.293 149.053 229.823C147.037 229.391 145.068 229.425 143.079 230.088C143.155 231.108 144.009 230.941 144.603 231.131C149.987 232.859 153.503 237.786 152.898 242.766C152.603 245.206 151.472 247.203 149.574 248.704C146.417 251.194 142.776 252.456 138.78 252.676C136.761 252.786 135.211 251.948 134.334 250.118C133.46 248.299 133.721 246.536 135.052 245.021C136.277 243.63 137.298 242.144 137.778 240.336C137.865 240.01 138.239 239.605 137.755 239.351C137.362 239.146 137.071 239.495 136.806 239.768C134.799 241.81 132.364 243.016 129.543 243.463C125.074 244.172 120.692 241.716 119.176 237.683C118.76 236.584 118.794 235.72 119.97 235.171C120.813 235.144 121.35 235.523 121.743 236.289C123.951 240.598 127.339 241.803 131.706 239.878C134.133 238.809 134.167 238.642 132.852 236.467C132.47 235.838 132.243 235.095 132.039 234.379C131.918 233.95 131.869 233.552 131.472 233.253C128.984 231.377 127.358 228.895 126.428 225.935C126.197 225.203 125.71 224.76 124.953 224.669C124.084 224.567 123.528 225.04 123.165 225.772C122.549 227.011 122.038 228.288 121.785 229.656C121.596 230.687 121.12 231.426 119.974 231.491ZM150.195 241.435C149.956 238.582 148.368 236.459 145.926 234.86C144.644 234.022 143.642 233.598 143.257 235.709C143.113 236.486 142.519 237.183 141.854 237.676C141.234 238.131 141.041 238.722 140.928 239.43C140.489 242.171 139.298 244.558 137.445 246.616C136.874 247.249 136.447 247.897 136.874 248.814C137.347 249.826 138.198 249.818 139.101 249.762C142.19 249.576 144.973 248.53 147.476 246.734C149.219 245.479 150.077 243.728 150.195 241.435ZM135.139 225.745C135.268 226.329 135.082 227.716 135.691 227.58C137.498 227.182 139.347 228.178 140.825 227.739C144.005 226.799 147.049 226.484 150.297 227.064C151.639 227.307 152.569 225.81 151.847 224.627C149.813 221.296 147.06 218.677 143.162 217.836C138.818 216.896 135.211 220.527 135.139 225.745ZM137.937 236.402C139.623 236.353 141.026 234.886 140.981 233.223C140.931 231.521 139.51 230.195 137.774 230.236C136.054 230.274 134.67 231.707 134.734 233.386C134.799 235.076 136.258 236.448 137.937 236.402Z" fill="#090808"/>
<path d="M119.974 231.491C121.123 231.426 121.6 230.687 121.785 229.668C122.038 228.296 122.549 227.019 123.165 225.783C123.528 225.052 124.084 224.578 124.953 224.68C125.713 224.768 126.201 225.215 126.428 225.946C127.358 228.906 128.984 231.388 131.472 233.264C131.869 233.564 131.918 233.962 132.039 234.39C132.243 235.106 132.47 235.845 132.852 236.478C134.167 238.657 134.133 238.82 131.706 239.889C127.339 241.814 123.951 240.609 121.743 236.3C121.35 235.535 120.813 235.156 119.97 235.182C119.974 233.947 119.974 232.719 119.974 231.491Z" fill="#7EB4F9"/>
<path d="M140.633 281.543C140.689 282.987 139.408 284.363 137.952 284.424C136.511 284.481 135.15 283.2 135.094 281.733C135.037 280.266 136.288 278.921 137.767 278.868C139.219 278.811 140.572 280.073 140.633 281.543Z" fill="#F7EFDF"/>
<path d="M150.194 241.435C150.077 243.725 149.219 245.479 147.476 246.73C144.977 248.526 142.19 249.572 139.101 249.758C138.194 249.811 137.343 249.822 136.874 248.811C136.447 247.893 136.874 247.245 137.445 246.612C139.298 244.554 140.485 242.167 140.927 239.427C141.041 238.718 141.234 238.127 141.854 237.672C142.519 237.183 143.113 236.486 143.256 235.705C143.646 233.594 144.648 234.019 145.926 234.856C148.368 236.463 149.952 238.582 150.194 241.435Z" fill="#7EB4F9"/>
<path d="M135.139 225.745C135.215 220.531 138.818 216.896 143.166 217.836C147.064 218.677 149.817 221.296 151.851 224.627C152.573 225.81 151.643 227.307 150.301 227.064C147.057 226.484 144.009 226.799 140.829 227.739C139.351 228.179 137.502 227.182 135.695 227.58C135.079 227.716 135.268 226.329 135.139 225.745Z" fill="#7EB4F9"/>
<path d="M137.937 236.402C136.258 236.452 134.795 235.076 134.735 233.386C134.67 231.707 136.054 230.274 137.774 230.236C139.51 230.198 140.935 231.521 140.981 233.223C141.026 234.887 139.623 236.353 137.937 236.402Z" fill="#DE636D"/>
</g>
<path d="M274.827 182.397L225.225 232.017L190.789 197.581L201.719 186.651L225.225 210.157L263.915 171.467L274.827 182.397Z" fill="#27AE60"/>
<path d="M263.95 257.755C263.95 263.136 259.586 267.501 254.204 267.501C248.822 267.501 244.458 263.136 244.458 257.755C244.458 252.373 248.822 248.008 254.204 248.008C259.586 248.008 263.95 252.373 263.95 257.755Z" stroke="#56C37F" stroke-width="2" stroke-miterlimit="10"/>
<path d="M213.72 25.2628C213.72 30.6447 209.355 35.0093 203.974 35.0093C198.592 35.0093 194.227 30.6447 194.227 25.2628C194.227 19.881 198.592 15.5164 203.974 15.5164C209.374 15.5164 213.72 19.881 213.72 25.2628Z" stroke="#56C37F" stroke-width="2" stroke-miterlimit="10"/>
<path d="M20.8431 200.977C20.8431 206.359 16.4784 210.723 11.0966 210.723C5.71475 210.723 1.3501 206.359 1.3501 200.977C1.3501 195.595 5.71475 191.23 11.0966 191.23C16.4784 191.23 20.8431 195.595 20.8431 200.977Z" stroke="#56C37F" stroke-width="2" stroke-miterlimit="10"/>
<path d="M23.3953 339.333C23.3953 339.333 23.5988 323.28 39.4483 323.28C39.4483 323.28 23.3953 323.077 23.3953 307.227C23.3953 307.227 23.1919 323.28 7.34229 323.28C7.34229 323.28 23.3953 323.484 23.3953 339.333Z" fill="#F9CA24"/>
<path d="M60.3653 32.1061C60.3653 32.1061 60.5687 16.053 76.4183 16.053C76.4183 16.053 60.3653 15.8496 60.3653 0C60.3653 0 60.1618 16.053 44.3123 16.053C44.3123 16.053 60.3653 16.2565 60.3653 32.1061Z" fill="#F9CA24"/>
<path d="M247.823 143.127C247.823 143.127 248.026 127.074 263.876 127.074C263.876 127.074 247.823 126.871 247.823 111.021C247.823 111.021 247.62 127.074 231.77 127.074C231.77 127.074 247.823 127.278 247.823 143.127Z" fill="#F9CA24"/>
<path d="M9.43208 109.042C9.43208 109.042 9.54305 99.6098 18.8642 99.6098C18.8642 99.6098 9.43208 99.4988 9.43208 90.1777C9.43208 90.1777 9.32111 99.6098 0 99.6098C0 99.6098 9.43208 99.7208 9.43208 109.042Z" fill="#F9CA24"/>
<defs>
<clipPath id="clip0_173_74">
<rect width="14.7388" height="22.1082" fill="white" transform="translate(70.2405 94.7495)"/>
</clipPath>
<clipPath id="clip1_173_74">
<rect width="96.855" height="93.6967" fill="white" transform="translate(110.779 206.208)"/>
</clipPath>
</defs>
</svg>
