<svg width="276" height="355" viewBox="0 0 276 355" fill="none" xmlns="http://www.w3.org/2000/svg">
<path d="M76.9213 94.4137L16.5205 154.814L47.2961 185.59L107.697 125.189L76.9213 94.4137Z" fill="#FFBE76"/>
<path d="M98.3031 123.29L78.8353 103.823C77.8117 104.846 76.1482 104.846 75.1246 103.823L25.916 153.031C26.9397 154.055 26.9397 155.718 25.916 156.742L45.3837 176.21C46.4074 175.186 48.0708 175.186 49.0945 176.21L98.3031 127.001C97.2794 125.977 97.2794 124.314 98.3031 123.29Z" fill="#F6E58D"/>
<path d="M69.7689 132.357C74.0098 136.598 74.0098 143.453 69.7689 147.676C65.5281 151.917 58.6732 151.917 54.4507 147.676C50.2098 143.435 50.2098 136.58 54.4507 132.357C58.6732 128.117 65.5464 128.117 69.7689 132.357Z" fill="#FFBE76"/>
<path d="M48.8755 163.505L47.5411 162.189C46.7733 162.939 45.7497 163.487 44.9636 163.615L44.397 162.427C45.183 162.262 46.1152 161.842 46.8464 161.111C47.7787 160.179 47.8701 159.009 47.1206 158.259C46.4077 157.546 45.4389 157.601 44.0862 158.186C42.2217 158.99 40.7959 159.228 39.6443 158.076C38.5658 156.98 38.511 155.389 39.5163 153.982L38.2002 152.666L39.0045 151.861L40.2841 153.141C41.1066 152.373 41.8378 152.044 42.4411 151.898L42.9712 153.086C42.5325 153.214 41.7099 153.452 40.869 154.293C39.8636 155.298 40.083 156.285 40.6131 156.815C41.2894 157.491 42.1303 157.345 43.7389 156.687C45.64 155.883 47.0109 155.883 48.1626 157.053C49.2045 158.095 49.4421 159.776 48.3271 161.348L49.698 162.719L48.8755 163.505Z" fill="#FFBE76"/>
<path d="M83.0766 129.304L81.7422 127.988C80.9745 128.738 79.9508 129.286 79.1648 129.414L78.5981 128.226C79.3842 128.061 80.3164 127.641 81.0476 126.91C81.9799 125.978 82.0713 124.808 81.3218 124.058C80.6089 123.345 79.6401 123.4 78.2874 123.985C76.4229 124.789 74.9971 125.027 73.8455 123.875C72.767 122.779 72.7121 121.188 73.7175 119.781L72.4014 118.465L73.2057 117.66L74.4852 118.94C75.3078 118.172 76.039 117.843 76.6422 117.697L77.1723 118.885C76.7336 119.013 75.911 119.251 75.0702 120.092C74.0648 121.097 74.2842 122.084 74.8143 122.614C75.4906 123.291 76.3315 123.144 77.9401 122.486C79.8412 121.682 81.2121 121.682 82.3637 122.852C83.4057 123.894 83.6433 125.575 82.5282 127.147L83.8992 128.518L83.0766 129.304Z" fill="#FFBE76"/>
<path d="M48.949 33.9215C48.949 40.3011 43.7759 45.4925 37.3781 45.4925C30.9985 45.4925 25.8071 40.3194 25.8071 33.9215C25.8071 27.542 30.9802 22.3506 37.3781 22.3506C43.7759 22.3689 48.949 27.542 48.949 33.9215Z" fill="#F0932B"/>
<path d="M51.8182 33.9215C51.8182 40.3011 46.6451 45.4925 40.2472 45.4925C33.8677 45.4925 28.6763 40.3194 28.6763 33.9215C28.6763 27.542 33.8494 22.3506 40.2472 22.3506C46.6451 22.3689 51.8182 27.542 51.8182 33.9215Z" fill="#F9CA24"/>
<path d="M40.2658 41.1415C44.2536 41.1415 47.4863 37.9088 47.4863 33.9211C47.4863 29.9334 44.2536 26.7007 40.2658 26.7007C36.2781 26.7007 33.0454 29.9334 33.0454 33.9211C33.0454 37.9088 36.2781 41.1415 40.2658 41.1415Z" fill="#F0932B"/>
<path d="M39.2066 38.1806V37.0656C38.5668 37.0473 37.9088 36.8645 37.5249 36.572L37.7808 35.8226C38.183 36.0968 38.7496 36.2978 39.3711 36.2978C40.1572 36.2978 40.6873 35.8409 40.6873 35.2194C40.6873 34.6161 40.2486 34.2323 39.4443 33.9032C38.3109 33.4645 37.6163 32.9527 37.6163 31.9839C37.6163 31.0699 38.2744 30.3753 39.2797 30.2108V29.0957H39.9744V30.1742C40.6324 30.1925 41.0894 30.3753 41.4184 30.5581L41.1443 31.2892C40.9066 31.1613 40.4679 30.9054 39.755 30.9054C38.8959 30.9054 38.5851 31.4172 38.5851 31.8559C38.5851 32.4226 38.9873 32.7151 39.9561 33.1172C41.0894 33.5742 41.6744 34.1591 41.6744 35.1462C41.6744 36.0237 41.0711 36.828 39.9195 37.029V38.1806H39.2066Z" fill="#F9CA24"/>
<path d="M259.292 144.019C258.761 145.756 257.994 147.236 257.007 148.461C256.02 149.686 254.923 150.783 253.735 151.752C252.528 152.72 251.267 153.616 249.951 154.42C248.616 155.225 247.373 156.065 246.185 156.979C245.015 157.875 243.955 158.881 243.004 159.959C242.767 160.233 242.529 160.544 242.31 160.836C241.177 162.5 239.129 163.268 237.21 162.664L236.698 162.5C233.846 161.622 232.549 158.186 234.267 155.755C234.285 155.736 234.285 155.718 234.303 155.718C235.327 154.274 236.424 153.013 237.612 151.953C238.782 150.892 239.988 149.96 241.25 149.156C242.493 148.352 243.681 147.547 244.778 146.725C245.874 145.902 246.861 145.025 247.739 144.074C248.616 143.124 249.256 141.954 249.695 140.564C249.914 139.852 250.024 139.102 250.024 138.334C250.024 137.567 249.878 136.835 249.585 136.141C249.293 135.446 248.836 134.806 248.196 134.24C247.556 133.673 246.697 133.216 245.655 132.905C245.326 132.796 244.906 132.704 244.449 132.613C243.973 132.521 243.461 132.448 242.895 132.375C242.145 132.247 241.177 132.192 239.97 132.229C238.782 132.247 237.612 132.32 236.46 132.448H236.424C234.267 132.704 232.402 130.931 232.549 128.756L232.64 127.421C232.75 125.831 233.92 124.515 235.51 124.241C235.62 124.222 235.729 124.204 235.857 124.186C237.082 123.985 238.416 123.857 239.879 123.82C241.341 123.766 242.877 123.82 244.467 123.93C246.057 124.058 247.629 124.35 249.165 124.826C251.047 125.411 252.784 126.27 254.374 127.421C255.965 128.573 257.299 130.163 258.359 132.174C258.871 133.234 259.273 134.386 259.584 135.629C259.84 136.707 259.968 137.969 260.004 139.395C260.041 140.857 259.803 142.392 259.292 144.019Z" fill="#27AE60"/>
<path d="M231.689 170.269C233.078 170.708 234.12 171.548 234.778 172.81C235.436 174.071 235.564 175.405 235.126 176.795C234.687 178.184 233.846 179.226 232.585 179.921C231.323 180.615 229.989 180.743 228.581 180.304C227.192 179.866 226.15 179.007 225.474 177.727C224.798 176.429 224.67 175.095 225.108 173.687C225.547 172.298 226.388 171.274 227.686 170.616C228.947 169.94 230.281 169.83 231.689 170.269Z" fill="#27AE60"/>
<path d="M173.031 186.592L218.492 210.027C227.997 214.926 232.439 226.058 228.93 236.148L192.169 341.768H62.1104L81.1211 192.954L130.586 179.134L173.031 186.592Z" fill="#5CC0F7"/>
<path d="M181.402 151.441C181.402 151.441 204.16 137.786 211.82 123.948C219.46 110.111 218.93 97.1686 207.816 92.4342C207.816 92.4342 205.422 82.9654 197.05 78.5966C188.678 74.2278 179.94 76.2203 176.851 73.131C173.762 70.0418 169.923 68.2138 166.651 68.2138C163.379 68.2138 161.368 72.5826 161.368 75.6719C161.368 75.6719 151.168 66.2031 147.896 61.2859C144.624 56.3687 135.685 49.0751 131.134 53.645C126.582 58.1966 120.751 83.8794 142.613 97.5342C164.457 111.189 181.402 151.441 181.402 151.441Z" fill="#2D4559"/>
<path d="M142.613 97.5344C142.613 97.5344 126.764 128.5 128.592 143.983C130.42 159.466 140.62 162.006 140.62 162.006C140.62 162.006 136.617 176.575 130.603 179.134C130.603 179.134 125.503 196.792 143.709 201.527C161.916 206.261 173.03 186.592 173.03 186.592C173.03 186.592 171.019 178.586 175.223 167.655C179.409 156.724 181.42 151.441 181.42 151.441L176.868 141.606L179.062 136.324C179.062 136.324 191.456 137.055 195.093 129.03C198.731 121.024 198.182 111.719 186.538 115.558L189.81 104.992C189.774 105.011 169.739 112.103 142.613 97.5344Z" fill="#FFC2BD"/>
<path opacity="0.1" d="M128.446 137.969C128.446 137.969 130.512 156.541 140.968 158.552C151.442 160.562 165.188 150.454 165.188 150.454C165.188 150.454 155.445 200.54 133.308 198.438C111.172 196.335 128.446 137.969 128.446 137.969Z" fill="black"/>
<path d="M186.685 215.675L142.156 252.289V191.911H118.119L109.29 289.488C108.028 303.472 123.639 312.593 135.192 304.605L219.351 255.597C228.564 249.748 234.23 226.551 226.699 216.845C220.521 208.893 208.529 199.845 186.685 215.675Z" fill="#3EA2E5"/>
<path d="M141.334 196.975C141.334 196.975 141.882 183.046 145.703 178.129C149.523 173.211 165.481 159.648 162.373 154.84C159.851 150.947 155.957 162.134 142.156 160.909C128.355 159.685 126.856 133.453 126.856 133.453C126.856 133.453 124.882 128.262 122.414 132.978C119.947 137.694 121.592 152.373 121.592 152.373C121.592 152.373 115.45 150.179 115.103 159.611C115.103 159.611 108.686 160.781 110.258 167.6C110.258 167.6 104.994 168.148 105.963 173.54C106.913 178.933 116.894 186.647 119.014 196.975H141.334Z" fill="#FFC2BD"/>
<path d="M160.417 319.137C160.417 319.137 176.449 319.137 182.097 319.137C187.745 319.137 210.686 314.092 212.88 316.268C215.073 318.461 198.859 324.822 198.859 324.822C198.859 324.822 226.169 333.926 225.273 338.112C224.359 342.298 198.677 332.28 198.677 332.28C198.677 332.28 224.359 343.943 222.897 347.215C221.435 350.487 197.58 338.843 197.58 338.843C197.58 338.843 218.163 350.871 216.883 353.594C215.603 356.318 194.125 345.588 194.125 345.588C194.125 345.588 205.586 353.284 204.691 354.179C203.795 355.075 196.319 353.412 187.928 349.774C179.556 346.136 161.112 339.007 155.226 339.007L160.417 319.137Z" fill="#FFC2BD"/>
<path d="M84.4841 192.424C90.3335 192.533 98.1024 197.286 102.8 218.728C105.506 231.121 103.787 244.1 97.9561 255.378L76.6604 296.599L161.386 316.999L155.189 340.671L55.8949 328.003C46.7368 326.778 40.5766 318.004 42.5142 308.974C48.6013 280.732 61.7626 224.248 74.7045 198.584C76.6056 194.891 80.3346 192.351 84.4841 192.424Z" fill="#3EA2E5"/>
<path d="M181.531 10.6333C181.531 15.9527 177.217 20.2667 171.898 20.2667C166.579 20.2667 162.265 15.9527 162.265 10.6333C162.265 5.31398 166.579 1 171.898 1C177.217 1 181.531 5.31398 181.531 10.6333Z" stroke="#27AE60" stroke-width="2" stroke-miterlimit="10"/>
<path d="M15.8667 245.733C15.8667 245.733 16.0677 229.867 31.7333 229.867C31.7333 229.867 15.8667 229.666 15.8667 214C15.8667 214 15.6656 229.867 0 229.867C0 229.867 15.8667 230.068 15.8667 245.733Z" fill="#F9CA24"/>
<path d="M260.134 261.813C260.134 261.813 260.335 245.946 276 245.946C276 245.946 260.134 245.745 260.134 230.08C260.134 230.08 259.933 245.946 244.267 245.946C244.249 245.928 260.134 246.129 260.134 261.813Z" fill="#F9CA24"/>
<path d="M134.298 33.9218C134.298 33.9218 134.407 24.5992 143.62 24.5992C143.62 24.5992 134.298 24.4895 134.298 15.2766C134.298 15.2766 134.188 24.5992 124.975 24.5992C124.993 24.5992 134.298 24.7271 134.298 33.9218Z" fill="#F9CA24"/>
<path d="M38.8231 96.255C38.8231 96.255 38.9327 86.9324 48.1456 86.9324C48.1456 86.9324 38.8231 86.8228 38.8231 77.6099C38.8231 77.6099 38.7134 86.9324 29.5005 86.9324C29.5005 86.9507 38.8231 87.0604 38.8231 96.255Z" fill="#F9CA24"/>
</svg>
