<svg width="20" height="23" viewBox="0 0 20 23" fill="none" xmlns="http://www.w3.org/2000/svg">
<path d="M9.84265 0C5.90728 0 2.625 3.17008 2.625 7.21765C2.625 8.7575 3.08772 10.1306 3.97575 11.4173L9.2903 19.7101C9.54812 20.1133 10.1377 20.1125 10.395 19.7101L15.7326 11.3891C16.6015 10.1607 17.0603 8.71835 17.0603 7.21765C17.0603 3.23784 13.8225 0 9.84265 0ZM9.84265 10.4984C8.03373 10.4984 6.5619 9.02656 6.5619 7.21765C6.5619 5.40873 8.03373 3.9369 9.84265 3.9369C11.6516 3.9369 13.1234 5.40873 13.1234 7.21765C13.1234 9.02656 11.6516 10.4984 9.84265 10.4984Z" fill="#FF5200"/>
<path d="M14.9718 15.0778L11.6678 20.2433C10.8126 21.5767 8.86716 21.5723 8.01605 20.2445L4.70669 15.0791C1.79496 15.7523 0 16.9856 0 18.4593C0 21.0167 5.07107 22.3962 9.84225 22.3962C14.6134 22.3962 19.6845 21.0167 19.6845 18.4593C19.6845 16.9845 17.887 15.7506 14.9718 15.0778Z" fill="#FF5200"/>
</svg>
