<svg xmlns="http://www.w3.org/2000/svg" data-name="Layer 1" viewBox="0 0 512 512"><path fill="#fddd5a" d="M281 459.532h141.94V504.5l81.56-81.56-81.56-81.561v44.969H281"/><path fill="#fed030" d="M422.94 341.379v30l51.56 51.561-51.56 51.56v30l81.56-81.56-81.56-81.561z"/><path fill="#fddd5a" d="M231 125.652H89.06v44.969L7.5 89.06 89.06 7.5v44.968H231"/><circle cx="256" cy="256" r="155" fill="#fff"/><path fill="#e1e1e3" d="M256 101a156.241 156.241 0 0 0-22.5 1.631 155.012 155.012 0 0 1 0 306.738A155.005 155.005 0 1 0 256 101Z"/><path fill="#8b8893" d="M256 418.5c-89.602 0-162.5-72.897-162.5-162.5S166.398 93.5 256 93.5 418.5 166.397 418.5 256 345.603 418.5 256 418.5Zm0-310c-81.332 0-147.5 66.168-147.5 147.5S174.668 403.5 256 403.5 403.5 337.332 403.5 256 337.332 108.5 256 108.5Z"/><path fill="#aeadb3" d="m178.18 207.315 71.254-62.036a10 10 0 0 1 13.132 0l71.253 62.036Z"/><path fill="#8b8893" d="M262.566 145.279a10 10 0 0 0-13.132 0L241 152.62l62.82 54.694h30zm-84.385 62.036h155.638v20a10 10 0 0 1-10 10H188.181a10 10 0 0 1-10-10v-20z"/><path fill="#787681" d="M303.82 207.315v20a10 10 0 0 1-10 10h30a10 10 0 0 0 10-10v-20Z"/><path fill="#8b8893" d="M333.82 340.033H178.18l7.779-23.181a10 10 0 0 1 9.48-6.82h121.122a10 10 0 0 1 9.48 6.82Z"/><path fill="#787681" d="M326.041 316.852a10 10 0 0 0-9.48-6.82h-30a10 10 0 0 1 9.48 6.82l7.778 23.18h30Z"/><circle cx="256" cy="180" r="7.5" fill="#3c3b41"/><path fill="#3c3b41" d="M256 172.5a7.5 7.5 0 1 0 7.5 7.5 7.5 7.5 0 0 0-7.5-7.5Zm253.803 245.137-81.56-81.56a7.5 7.5 0 0 0-12.803 5.303v37.47h-53.183A162.183 162.183 0 0 0 418.5 256c0-89.602-72.897-162.5-162.5-162.5a161.517 161.517 0 0 0-85.945 24.65H89.06a7.5 7.5 0 0 0-7.5 7.5v26.864L18.106 89.06 81.56 25.607V52.47a7.5 7.5 0 0 0 7.5 7.5h134.83a7.5 7.5 0 0 0 0-15H96.56V7.5a7.5 7.5 0 0 0-12.803-5.304l-81.56 81.56a7.5 7.5 0 0 0 0 10.607l81.56 81.561a7.5 7.5 0 0 0 12.803-5.304v-37.47h53.183A162.183 162.183 0 0 0 93.5 256c0 89.603 72.897 162.5 162.5 162.5a161.517 161.517 0 0 0 85.945-24.65h80.995a7.5 7.5 0 0 0 7.5-7.5v-26.863l63.454 63.454-63.454 63.453V459.53a7.5 7.5 0 0 0-7.5-7.5H288.11a7.5 7.5 0 0 0 0 15h127.33v37.47a7.5 7.5 0 0 0 12.803 5.304l81.56-81.56a7.5 7.5 0 0 0 0-10.607ZM256 403.5c-81.332 0-147.5-66.168-147.5-147.5S174.668 108.5 256 108.5 403.5 174.668 403.5 256 337.332 403.5 256 403.5Zm85.282-196.93a7.45 7.45 0 0 0-.176-1.005 7.47 7.47 0 0 0-.049-.188 7.446 7.446 0 0 0-.787-1.874 7.272 7.272 0 0 0-.107-.175 7.503 7.503 0 0 0-.59-.82c-.023-.028-.05-.053-.073-.08a7.55 7.55 0 0 0-.674-.685c-.03-.027-.052-.058-.082-.084l-71.253-62.037a17.57 17.57 0 0 0-22.982 0l-71.253 62.037c-.03.026-.053.057-.082.084a7.55 7.55 0 0 0-.674.685c-.024.027-.05.052-.073.08a7.504 7.504 0 0 0-.59.82 7.351 7.351 0 0 0-.107.175 7.445 7.445 0 0 0-.787 1.874 7.513 7.513 0 0 0-.049.188 7.451 7.451 0 0 0-.176 1.005c-.001.014 0 .028-.002.042a7.57 7.57 0 0 0-.035.704v20a17.52 17.52 0 0 0 17.5 17.5h.319v59.157a17.476 17.476 0 0 0-9.652 10.493l-7.778 23.182a7.5 7.5 0 0 0 7.11 9.885h155.64a7.5 7.5 0 0 0 7.11-9.885l-7.778-23.183a17.476 17.476 0 0 0-9.652-10.492v-59.157h.32a17.52 17.52 0 0 0 17.5-17.5v-20a7.57 7.57 0 0 0-.036-.704c-.001-.014 0-.028-.002-.042Zm-86.924-55.635a2.511 2.511 0 0 1 3.284 0l56.142 48.88H198.216Zm-65.75 181.598 4.46-13.295a2.498 2.498 0 0 1 2.371-1.705h121.122a2.498 2.498 0 0 1 2.37 1.704l4.461 13.296Zm14.892-30v-57.717h15v57.717Zm30 0v-57.717h15v57.717Zm30 0v-57.717h15v57.717Zm30 0v-57.717h15v57.717Zm32.82-75.217a2.503 2.503 0 0 1-2.5 2.5H188.18a2.503 2.503 0 0 1-2.5-2.5v-12.5h140.64Z"/></svg>