<svg width="41" height="26" viewBox="0 0 41 26" fill="none" xmlns="http://www.w3.org/2000/svg">
<path d="M29.1468 8.73697C29.3133 9.07404 29.2511 9.38607 28.934 9.5835C27.9888 10.171 27.6437 10.9847 27.752 12.0489C27.7972 12.4929 27.757 12.96 27.6406 13.4319C27.9326 13.3587 28.1022 13.1468 28.3139 13.0052C29.5511 12.1809 30.9308 11.8322 32.4219 11.8448C32.9065 11.8486 33.2707 12.0634 33.4403 12.5093C33.5045 12.6778 33.5708 12.7086 33.7534 12.6884C37.778 12.255 41.1515 15.2482 40.9959 19.1062C40.8765 22.0589 38.4142 24.6216 35.3839 24.9472C32.1399 25.2948 29.1839 23.4169 28.3561 20.4805C28.342 20.4314 28.332 20.3803 28.3189 20.3312C28.1193 19.6157 28.1203 19.607 27.3587 19.5194C26.5259 19.4231 25.69 19.346 24.7659 19.2516C25.0047 19.5791 25.2666 19.7986 25.5154 20.0279C25.5927 20.0982 25.669 20.181 25.7623 20.2224C26.7797 20.6702 26.7185 21.5283 26.6533 22.3816C26.6202 22.8072 26.3834 22.9729 25.8446 22.9738C23.5769 22.9758 21.3082 22.9767 19.0405 22.9719C18.7465 22.971 18.4766 22.9478 18.2859 23.2483C18.1786 23.4178 17.9398 23.4082 17.7351 23.4082C15.6139 23.4063 13.4917 23.4313 11.3715 23.388C10.928 23.3793 10.648 23.5122 10.3239 23.7472C6.56922 26.464 1.18396 24.5446 0.149453 20.1319C0.117344 19.9941 0.15748 19.8227 0.00195312 19.7226C0.00195312 19.1332 0.00195312 18.5438 0.00195312 17.9544C0.188586 17.6558 0.178552 17.3053 0.285916 16.9836C0.59095 16.0687 1.08864 15.2655 1.76894 14.5538C0.849827 14.184 0.626069 13.5446 1.12877 12.7346C1.68064 11.8476 2.54758 11.3372 3.51386 10.9568C3.62423 10.9135 3.73661 10.874 3.84699 10.8297C3.87007 10.8201 3.88712 10.797 3.92425 10.7642C3.67641 10.6332 3.44864 10.4724 3.19277 10.3848C1.95257 9.95717 1.60539 8.83135 1.0766 7.87215C0.858858 7.47826 1.00234 6.98999 1.26223 6.59224C2.85663 4.15282 4.94973 2.30568 7.8927 1.47552C8.78071 1.22513 9.68779 1.10956 10.6129 1.10378C10.931 1.10186 11.1668 1.21261 11.2661 1.50249C11.3605 1.77792 11.2421 2.00328 11.0083 2.17278C10.3811 2.62638 9.75301 3.07805 9.07571 3.56536C9.69983 3.79071 10.2718 4.02185 10.7634 4.39359C10.8989 4.49663 10.9882 4.40033 11.0755 4.32906C11.8551 3.69537 12.8304 3.43438 13.7375 3.04434C14.1068 2.88544 14.3777 3.05012 14.5784 3.35252C14.6506 3.77916 14.4359 4.02377 14.0385 4.17401C13.581 4.34736 13.1295 4.53708 12.6789 4.7268C11.8652 5.06965 11.2712 5.62437 10.8979 6.40541C10.7594 6.69626 10.8096 6.87442 11.0705 7.08051C11.4989 7.41855 12.0368 7.69109 12.2485 8.20248C12.398 8.56362 12.6348 8.6763 12.9719 8.74083C13.1274 8.77068 13.277 8.83424 13.4315 8.86891C13.9743 8.99122 14.4941 9.2368 15.053 9.25895C15.932 9.29362 16.8129 9.26665 17.6929 9.27051C17.8324 9.27147 17.9488 9.24162 18.0612 9.15783C19.5512 8.05898 21.0423 6.9611 22.5373 5.86899C22.6929 5.75535 22.7119 5.65808 22.6387 5.48666C22.0296 4.05363 20.4041 2.99234 18.7906 2.96633C18.0582 2.95478 17.3668 3.13102 16.6775 3.32459C16.2671 3.44016 15.9119 3.42475 15.6861 3.01449C15.6851 2.49444 15.7865 2.35094 16.2932 2.22285C17.0518 2.03121 17.8043 1.80874 18.602 1.81644C20.4543 1.83474 21.9554 2.53488 23.0681 3.96021C23.2738 4.22312 23.3631 4.21157 23.5618 3.9631C24.0565 3.34482 24.7529 3.03953 25.5315 2.89507C26.4596 2.72364 27.3908 2.5657 28.32 2.40102C28.8668 2.30375 29.4107 2.31242 29.9334 2.5031C30.2033 2.6023 30.2495 2.5137 30.2304 2.27968C30.2144 2.07647 30.2214 1.87038 30.2284 1.66524C30.2445 1.19335 30.391 1.01614 30.8776 0.950656C32.5924 0.719522 34.3093 0.499945 36.0251 0.277479C36.6984 0.189841 37.3746 0.118575 38.0449 0.0184168C38.3851 -0.0326253 38.672 0.0184168 38.8236 0.329484C38.966 0.622254 38.8386 0.867833 38.5978 1.07971C36.0321 3.33711 33.4694 5.59741 30.9067 7.85866C30.6378 8.09558 30.3508 8.13217 30.0328 7.96075C29.7127 7.52641 29.7337 7.32513 30.1672 6.94183C32.1028 5.23337 34.0403 3.5278 35.9769 1.82126C36.1084 1.70473 36.2378 1.58627 36.3682 1.46782C34.7608 1.60457 33.1935 1.81067 31.6242 2.00713C31.4054 2.03506 31.4265 2.167 31.4265 2.30953C31.4275 2.91144 31.4255 3.51335 31.4265 4.11623C31.4275 4.49471 31.2298 4.71332 30.8465 4.78073C30.4923 4.84237 30.1391 4.91556 29.7829 4.95312C29.5742 4.97527 29.4458 5.06387 29.3284 5.21796C28.4414 6.38711 27.5483 7.55145 26.6603 8.71964C26.6122 8.7832 26.5108 8.83809 26.573 8.95173C26.8118 8.95173 27.0537 8.93922 27.2925 8.95463C27.6497 8.97678 27.9517 8.93055 28.2306 8.66089C28.5146 8.38835 28.7745 8.44035 29.1468 8.73697ZM7.85156 6.54506C8.08034 6.29755 8.30209 6.04234 8.5409 5.80254C8.83289 5.50881 9.12087 5.49147 9.46202 5.72935C9.55634 5.7958 9.64364 5.87188 9.75301 5.95855C9.81522 5.8478 9.85536 5.73609 9.93061 5.65326C10.1453 5.41732 10.0299 5.29501 9.79615 5.16596C9.31051 4.89726 8.81082 4.67191 8.24991 4.59101C7.96796 4.39744 7.76427 4.48893 7.59269 4.74606C7.2144 5.3133 7.14015 5.90751 7.40405 6.5335C7.44719 6.63462 7.47328 6.7916 7.59971 6.79641C7.73617 6.80219 7.81143 6.67122 7.85156 6.54506ZM28.913 14.0453C28.7293 14.1195 28.5949 14.2543 28.4243 14.4026C28.9993 14.6704 29.5531 14.9131 30.092 15.1846C30.399 15.3397 30.5846 15.2973 30.6789 14.9699C31.1616 14.3391 31.6432 13.7083 32.169 13.0207C30.9117 13.0467 29.8491 13.3616 28.913 14.0453ZM4.56944 11.8515C3.64831 12.1077 2.7874 12.4553 2.22549 13.2605C2.15826 13.2816 2.13619 13.3115 2.20342 13.3596C3.65132 13.3616 5.09923 13.3645 6.54714 13.3664C6.69063 13.4415 6.80401 13.4117 6.86923 13.2662C6.93044 13.1276 6.92141 13.0014 6.78996 12.8887C6.44379 12.5931 6.08257 12.3099 5.7685 11.9854C5.39223 11.5953 5.0009 11.6348 4.56944 11.8515ZM26.5931 14.8601C26.3633 14.6396 26.1677 14.6578 25.9268 14.8794C25.2556 15.4967 24.5712 16.1015 23.8709 16.688C23.625 16.8941 23.7143 17.1031 23.7836 17.3101C23.8528 17.5172 24.0455 17.3968 24.1889 17.3968C24.4689 17.3968 24.7478 17.3968 25.0278 17.3968C24.9315 16.791 25.1803 16.5098 25.8064 16.5657C26.5489 16.6321 27.2985 16.6832 28.025 16.8315C28.8869 17.0067 29.8521 16.7689 30.6047 17.3997C30.6278 17.4189 30.683 17.4045 30.7221 17.4045C31.1566 17.4045 31.591 17.4045 32.0245 17.4045C32.0305 17.3833 32.0376 17.3612 32.0436 17.34C30.2284 16.5146 28.4103 15.6874 26.5931 14.8601ZM37.4037 17.4055C38.0309 17.4083 38.658 17.3997 39.2851 17.4199C39.5861 17.4295 39.5751 17.3294 39.4898 17.1098C39.1005 16.1073 38.4613 15.2848 37.5402 14.6877C36.2759 13.8691 34.8962 13.5706 33.3942 13.9519C33.1664 13.9587 32.9416 13.9693 32.7891 14.1715C32.4309 14.6482 32.0777 15.1288 31.7104 15.5988C31.5609 15.7894 31.6141 15.8819 31.8208 15.9695C32.174 16.1188 32.5252 16.2739 32.8674 16.4443C33.0349 16.5271 33.1644 16.4857 33.3169 16.4174C34.5631 15.8626 35.8826 16.1333 36.7295 17.1454C36.9231 17.3785 37.1148 17.47 37.4037 17.4055ZM3.11551 14.9497C0.786613 16.7997 0.551817 20.0134 2.58672 22.215C4.51124 24.2981 7.9228 24.3876 10.0922 22.4114C10.4032 22.1716 10.5878 21.9222 10.5377 21.4763C10.4694 20.8811 10.3882 20.2869 10.327 19.6898C10.2918 19.3441 10.4022 19.0879 10.7464 18.9463C11.2852 18.9723 11.4377 19.112 11.527 19.6263C11.6555 20.3726 11.7367 21.1238 11.7377 21.8789C11.7377 22.214 11.8652 22.266 12.1772 22.2602C13.284 22.2419 14.3907 22.2525 15.4975 22.2525C15.8637 22.2525 16.229 22.2525 16.6614 22.2525C16.5129 22.0647 16.4126 21.9337 16.3082 21.8066C15.8898 21.2943 15.8908 21.144 16.3373 20.6423C17.2815 19.582 18.2107 18.5082 19.186 17.4748C19.5392 17.1011 19.6676 16.7207 19.6325 16.2373C19.6174 16.0283 19.5522 15.9561 19.3505 15.9195C18.6371 15.7894 17.9689 15.539 17.3698 15.1452C16.3674 14.4855 15.6048 13.689 15.7814 12.3966C15.7824 12.386 15.7473 12.3706 15.7142 12.3465C14.1981 13.4656 12.6789 14.5885 11.1588 15.7095C10.5076 16.1901 10.5066 16.1891 10.7825 16.9297C10.9471 17.3698 10.8909 17.5355 10.4905 17.8022C10.0871 17.8985 9.82927 17.7502 9.67976 17.3814C9.44497 16.8026 9.2182 16.219 8.84794 15.6286C8.71549 16.036 8.60411 16.3846 8.48973 16.7313C8.43956 16.8835 8.49575 16.9981 8.59809 17.1146C9.06367 17.6491 9.25532 18.2664 9.2202 18.9627C9.15799 20.2051 8.14054 21.3078 6.88529 21.4715C5.48253 21.6545 4.19015 20.8792 3.77675 19.606C3.3774 18.3781 3.93328 16.947 5.15241 16.4703C5.84376 16.1997 6.13474 15.7943 6.25515 15.1644C6.27622 15.0517 6.31335 14.94 6.36151 14.8351C6.46587 14.6049 6.37255 14.5423 6.13775 14.5452C5.48454 14.5529 4.83032 14.5712 4.17911 14.5394C3.74163 14.5211 3.40248 14.6501 3.11551 14.9497ZM5.81064 10.5841C5.88389 10.6303 5.91801 10.6506 5.94911 10.6727C7.54753 11.8274 8.85296 13.2306 9.81522 14.9169C9.97376 15.1943 10.0811 15.0508 10.2266 14.9429C11.8431 13.7497 13.4626 12.5584 15.0761 11.3603C15.2386 11.239 15.5446 11.1485 15.5145 10.9636C15.4734 10.7112 15.1784 10.5928 14.9296 10.4917C14.8804 10.4714 14.8312 10.4503 14.7801 10.4368C13.9593 10.2172 13.1375 10.0034 12.3187 9.77804C12.1782 9.73952 12.0799 9.74337 11.9555 9.83486C11.2099 10.3838 10.5808 10.3626 9.86539 9.78574C9.65869 9.61913 9.47306 9.4246 9.16903 9.27917C9.16903 9.6095 9.18207 9.89072 9.16602 10.171C9.14394 10.5427 8.90814 10.7796 8.58505 10.7854C8.24791 10.7912 7.99706 10.5408 7.98401 10.1527C7.96996 9.75589 7.96996 9.35911 7.98201 8.96233C7.99003 8.70616 7.90173 8.55881 7.6559 8.4182C6.53911 7.78258 5.99226 6.82723 6.06852 5.57429C6.12471 4.64783 6.58928 3.92458 7.34585 3.366C7.67396 3.12428 8.00709 2.88833 8.36631 2.62926C8.20877 2.55896 8.13653 2.60134 8.06127 2.62252C6.77391 2.98849 5.65411 3.64048 4.64469 4.47737C3.72959 5.23626 2.966 6.12035 2.33587 7.10941C2.10007 7.47826 2.16027 7.57938 2.59173 7.58034C3.13859 7.58131 3.68544 7.58708 4.23229 7.57842C4.58348 7.57264 4.84136 7.70072 5.03802 7.9829C5.40025 8.50391 5.78155 9.01337 6.14879 9.53246C6.47389 9.99184 6.39161 10.2808 5.81064 10.5841ZM26.4606 10.1999C26.4446 10.1064 26.3884 10.1103 26.3362 10.1103C25.6429 10.1093 24.9495 10.1141 24.2562 10.1064C24.0916 10.1045 23.9843 10.1854 23.8699 10.275C23.2387 10.7661 22.6076 11.2583 21.9704 11.7427C21.5861 12.0345 21.3433 12.0191 20.9881 11.6868C20.6058 11.3295 20.2305 10.9665 19.8573 10.6005C19.7389 10.484 19.6164 10.4214 19.4388 10.4233C18.6251 10.431 17.8123 10.431 16.9986 10.4242C16.7578 10.4223 16.6805 10.4763 16.7989 10.7103C17.0748 11.2573 17.129 11.8322 16.9986 12.4293C16.9063 12.8521 16.9925 13.2325 17.3056 13.5696C17.9448 14.2563 18.7425 14.6424 19.6756 14.8071C19.9727 14.8601 20.3329 14.7975 20.5496 15.0132C20.7663 15.2289 20.8697 15.1259 21.0242 14.9882C21.6814 14.4084 22.3427 13.8325 23.0009 13.2527C24.1598 12.2329 25.3158 11.2111 26.4606 10.1999ZM27.7821 5.29019C26.8891 5.43947 26.0934 5.56852 25.2997 5.7072C25.0027 5.7592 24.6816 5.7332 24.4237 5.92388C22.9337 7.02177 21.4446 8.12254 19.9235 9.2445C20.2666 9.32733 20.4683 9.54979 20.6821 9.75685C20.9078 9.97546 21.1426 10.1844 21.3584 10.4108C21.4898 10.5494 21.5831 10.5735 21.7437 10.4368C22.0828 10.1488 22.4711 9.91094 22.7912 9.60565C23.326 9.09619 23.9291 8.82461 24.6906 8.95077C24.9264 8.99026 25.0499 8.87084 25.1763 8.7023C25.7061 7.99638 26.2479 7.29913 26.7847 6.59899C27.0978 6.19161 27.4089 5.78039 27.7821 5.29019ZM30.9158 22.3411C32.7781 24.3867 36.5288 24.2778 38.2035 22.3411C35.7893 22.3411 33.3791 22.3411 30.9158 22.3411ZM26.5901 11.6801C26.4285 11.8082 26.3453 11.8688 26.269 11.9362C24.9415 13.1054 23.614 14.2746 22.2875 15.4447C21.845 15.8347 21.4075 16.2286 20.963 16.6167C20.7102 16.8372 20.8105 17.1213 20.8476 17.3669C20.8637 17.4709 21.1135 17.4237 21.252 17.4026C21.3333 17.39 21.4115 17.3159 21.4788 17.2562C23.1033 15.8289 24.7248 14.3997 26.3483 12.9715C26.4376 12.8926 26.5209 12.8194 26.5259 12.6865C26.5389 12.3821 26.564 12.0788 26.5901 11.6801ZM5.40828 17.6963C4.79721 18.2626 4.7049 19.0455 5.11228 19.6436C5.52869 20.2561 6.33643 20.5036 7.04282 20.234C7.75323 19.9633 8.11445 19.2863 7.96495 18.4561C7.87263 18.7287 7.79838 18.9723 7.70707 19.2102C7.56058 19.5926 7.30371 19.7428 6.90134 19.6436C6.45182 19.5328 6.00731 19.399 5.57083 19.2497C5.21061 19.1264 5.08117 18.85 5.1775 18.4831C5.2377 18.252 5.31195 18.0218 5.40828 17.6963ZM29.8792 3.76856C28.9742 3.26296 25.1422 3.93999 24.5542 4.65746C26.3142 4.36373 28.043 4.07578 29.8792 3.76856ZM9.11585 7.00347C8.97136 7.0574 8.90513 7.17201 8.83189 7.27409C8.75462 7.38195 8.864 7.43685 8.92922 7.49078C9.5132 7.9752 10.1002 8.45672 10.6872 8.93825C10.8297 9.05575 10.9932 9.13279 11.1427 8.97196C11.3023 8.8015 11.1738 8.66763 11.0344 8.55303C10.4584 8.07921 9.88245 7.60538 9.30449 7.13252C9.24529 7.0834 9.17605 7.04488 9.11585 7.00347ZM7.84253 14.1214C7.41308 15.4485 6.99365 16.7361 6.58527 18.0266C6.55718 18.1152 6.41871 18.2635 6.58828 18.3223C6.78896 18.3916 6.77291 18.1865 6.80602 18.0825C7.18932 16.9018 7.56359 15.7182 7.94588 14.5375C7.99304 14.3959 8.04422 14.2678 7.84253 14.1214ZM3.02922 8.75335C3.26903 9.28495 3.86806 9.51416 4.4982 9.35044C4.28949 8.56266 3.63728 8.74564 3.02922 8.75335Z" fill="#020202"/>
<path d="M15.6852 3.01341C15.912 3.42368 16.2662 3.43908 16.6766 3.32352C17.3669 3.12994 18.0582 2.9537 18.7897 2.96526C20.4032 2.99126 22.0277 4.05255 22.6378 5.48558C22.711 5.65701 22.692 5.75427 22.5364 5.86792C21.0414 6.96002 19.5503 8.05791 18.0602 9.15676C17.9479 9.23958 17.8315 9.26943 17.692 9.26943C16.812 9.26558 15.931 9.29255 15.052 9.25788C14.4931 9.23573 13.9744 8.99015 13.4305 8.86784C13.275 8.83317 13.1265 8.76961 12.971 8.73975C12.6338 8.67523 12.397 8.56255 12.2475 8.2014C12.0358 7.68906 11.498 7.41748 11.0695 7.07944C10.8087 6.87335 10.7585 6.69518 10.897 6.40434C11.2702 5.6233 11.8642 5.06858 12.678 4.72573C13.1285 4.53601 13.58 4.34628 14.0376 4.17293C14.4349 4.0227 14.6497 3.77808 14.5774 3.35145C14.9477 3.23973 15.3159 3.12609 15.6852 3.01341ZM15.0621 5.92666C15.053 5.44995 14.6707 4.97998 14.3005 4.98961C13.9955 4.99731 13.7165 5.27275 13.7175 5.56455C13.7185 6.0403 14.0908 6.50931 14.4681 6.51124C14.8122 6.51124 15.0691 6.25892 15.0621 5.92666ZM13.7085 6.47464C13.7175 6.00274 13.3503 5.52025 12.977 5.50966C12.674 5.50195 12.386 5.76294 12.3699 6.0586C12.3449 6.5305 12.7402 7.04092 13.1275 7.0361C13.4516 7.03322 13.7025 6.79053 13.7085 6.47464ZM15.8056 5.98926C16.1488 5.99793 16.4177 5.74753 16.4177 5.42009C16.4177 4.94338 16.0494 4.48111 15.6691 4.48015C15.3501 4.48015 15.0791 4.72766 15.0701 5.02813C15.0551 5.47788 15.4404 5.98059 15.8056 5.98926Z" fill="#049FEB"/>
<path d="M29.1466 8.7368C28.7734 8.43921 28.5145 8.38721 28.2325 8.65975C27.9546 8.92845 27.6516 8.97564 27.2944 8.95349C27.0555 8.93808 26.8137 8.9506 26.5749 8.9506C26.5127 8.83792 26.613 8.78206 26.6622 8.7185C27.5502 7.55031 28.4432 6.38597 29.3303 5.21682C29.4477 5.06273 29.5761 4.97413 29.7848 4.95198C30.142 4.91442 30.4952 4.84123 30.8484 4.77959C31.2317 4.71218 31.4284 4.49356 31.4284 4.11508C31.4274 3.51317 31.4294 2.91126 31.4284 2.30839C31.4284 2.16585 31.4073 2.03392 31.626 2.00599C33.1954 1.80856 34.7627 1.60247 36.3701 1.46667C36.2397 1.58417 36.1102 1.70359 35.9788 1.82012C34.0422 3.52665 32.1037 5.23223 30.1691 6.94069C29.7356 7.32399 29.7136 7.52527 30.0346 7.95961C29.6453 8.1214 29.4155 8.44981 29.1466 8.7368Z" fill="#DAEEF8"/>
<path d="M5.81055 10.584C6.39252 10.2806 6.4738 9.99169 6.1497 9.53424C5.78245 9.01611 5.40216 8.50665 5.03893 7.98468C4.84227 7.7025 4.58439 7.57441 4.2332 7.58019C3.68635 7.58886 3.13949 7.58404 2.59264 7.58212C2.16118 7.58116 2.10097 7.48003 2.33677 7.11118C2.96791 6.12212 3.7305 5.23804 4.6456 4.47915C5.65502 3.64225 6.77482 2.99026 8.06218 2.6243C8.13744 2.60311 8.20968 2.56074 8.36722 2.63104C8.008 2.8901 7.67487 3.12509 7.34676 3.36778C6.59019 3.92635 6.12562 4.64961 6.06943 5.57607C5.99317 6.82997 6.53902 7.78436 7.65681 8.41998C7.90365 8.56058 7.99094 8.70793 7.98291 8.96411C7.97087 9.36089 7.97087 9.75767 7.98492 10.1544C7.99797 10.5426 8.24781 10.793 8.58596 10.7872C8.90906 10.7814 9.14486 10.5445 9.16693 10.1727C9.18399 9.89346 9.16994 9.61128 9.16994 9.28095C9.47397 9.42637 9.6596 9.62091 9.8663 9.78752C10.5817 10.3634 11.2099 10.3846 11.9564 9.83664C12.0808 9.74515 12.1781 9.74129 12.3196 9.77982C13.1384 10.0052 13.9602 10.2199 14.781 10.4385C14.8321 10.452 14.8813 10.4732 14.9305 10.4934C15.1793 10.5946 15.4753 10.7121 15.5155 10.9653C15.5456 11.1502 15.2395 11.2408 15.077 11.3621C13.4635 12.5602 11.845 13.7515 10.2275 14.9447C10.082 15.0526 9.97367 15.196 9.81613 14.9187C8.85487 13.2324 7.54945 11.8292 5.95002 10.6745C5.91691 10.6504 5.88279 10.6312 5.81055 10.584Z" fill="#049FEB"/>
<path d="M10.4914 17.803C10.8918 17.5362 10.947 17.3706 10.7834 16.9305C10.5075 16.1909 10.5075 16.1909 11.1597 15.7103C12.6798 14.5883 14.199 13.4664 15.7151 12.3473C15.7472 12.3704 15.7834 12.3858 15.7824 12.3974C15.6048 13.6898 16.3683 14.4862 17.3707 15.1459C17.9698 15.5408 18.638 15.7912 19.3515 15.9202C19.5531 15.9568 19.6184 16.0291 19.6334 16.238C19.6685 16.7215 19.5391 17.1009 19.1869 17.4756C18.2116 18.5089 17.2834 19.5827 16.3382 20.6431C15.8917 21.1448 15.8907 21.2951 16.3091 21.8074C16.4135 21.9355 16.5138 22.0655 16.6623 22.2533C16.2299 22.2533 15.8646 22.2533 15.4984 22.2533C14.3916 22.2533 13.2849 22.2417 12.1781 22.261C11.8661 22.2658 11.7397 22.2148 11.7387 21.8796C11.7376 21.1246 11.6564 20.3734 11.5279 19.627C11.4396 19.1137 11.2861 18.9731 10.7473 18.9471C10.7232 18.5523 10.4774 18.2046 10.4914 17.803ZM15.4904 18.1911C15.4813 18.1314 15.4813 18.0775 15.4643 18.0303C15.1773 17.2492 14.9004 16.4644 14.5943 15.691C14.4739 15.3886 14.194 15.274 13.8719 15.3761C13.5729 15.4714 13.3832 15.7151 13.4796 16.0031C13.7595 16.84 14.0726 17.6672 14.4047 18.4858C14.505 18.7324 14.7659 18.8161 15.0459 18.7439C15.3429 18.6688 15.4783 18.4685 15.4904 18.1911ZM12.3939 15.4734C11.9845 15.483 11.7176 15.8133 11.854 16.2236C12.1129 16.9998 12.4029 17.7674 12.7049 18.5292C12.8304 18.847 13.1585 18.9635 13.4595 18.8556C13.7525 18.7497 13.918 18.4473 13.8077 18.1333C13.5408 17.3725 13.2578 16.6165 12.9718 15.8615C12.8785 15.6111 12.6849 15.4686 12.3939 15.4734ZM15.6489 15.2211C15.2987 15.2095 15.0077 15.5918 15.1582 16.0281C15.4181 16.7774 15.7001 17.5208 15.9921 18.2595C16.1195 18.5821 16.4306 18.7179 16.7276 18.6264C17.0386 18.5311 17.2273 18.2104 17.1129 17.8849C16.846 17.1241 16.556 16.3709 16.27 15.6159C16.1797 15.3761 15.9931 15.2471 15.6489 15.2211Z" fill="#DAEEF8"/>
<path d="M10.0922 22.4112C7.92386 24.3874 4.51129 24.2979 2.58677 22.2148C0.552873 20.0123 0.786666 16.7995 3.11556 14.9495C3.91628 14.9495 4.71699 14.9475 5.5167 14.9543C5.62206 14.9553 5.77458 14.8907 5.81772 15.0554C5.87191 15.2596 5.51169 15.8413 5.29395 15.9183C4.0999 16.3411 3.23296 17.5266 3.20687 18.7487C3.16774 20.5545 4.82737 22.1291 6.83216 21.8758C7.91684 21.739 8.7015 21.218 9.25638 20.3272C9.47312 19.9786 9.57045 19.5962 9.7049 19.211C10.03 20.2627 10.1283 21.3297 10.0922 22.4112Z" fill="#608AA8"/>
<path d="M26.4605 10.1997C25.3156 11.2109 24.1597 12.2327 23.0018 13.2535C22.3446 13.8333 21.6823 14.4082 21.0251 14.9889C20.8696 15.1257 20.7672 15.2297 20.5505 15.014C20.3328 14.7983 19.9735 14.8609 19.6765 14.8079C18.7434 14.6422 17.9447 14.2561 17.3065 13.5704C16.9934 13.2343 16.9071 12.8538 16.9995 12.4301C17.1299 11.834 17.0767 11.259 16.7998 10.711C16.6814 10.477 16.7586 10.4231 16.9995 10.425C17.8132 10.4318 18.626 10.4318 19.4397 10.4241C19.6173 10.4221 19.7397 10.4857 19.8581 10.6013C20.2314 10.9672 20.6067 11.3303 20.989 11.6876C21.3442 12.0198 21.587 12.0353 21.9713 11.7434C22.6085 11.259 23.2386 10.7669 23.8707 10.2757C23.9861 10.1862 24.0925 10.1053 24.2571 10.1072C24.9504 10.114 25.6438 10.1101 26.3371 10.1111C26.3883 10.1101 26.4445 10.1062 26.4605 10.1997ZM19.3023 12.8346C19.3073 12.5332 19.0404 12.2712 18.7253 12.2664C18.3841 12.2606 18.1022 12.5197 18.1012 12.8365C18.1012 13.1379 18.3671 13.3999 18.6832 13.4115C19.0133 13.4221 19.2972 13.1582 19.3023 12.8346ZM19.3013 11.4882C19.3053 11.1627 19.0293 10.8931 18.6952 10.8969C18.3791 10.9008 18.1112 11.155 18.1002 11.4613C18.0891 11.7781 18.3661 12.041 18.7072 12.0391C19.0344 12.0372 19.2972 11.7926 19.3013 11.4882Z" fill="#375E80"/>
<path d="M27.782 5.29004C27.4087 5.78024 27.0977 6.1905 26.7846 6.5998C26.2478 7.3009 25.7059 7.99719 25.1761 8.70311C25.0497 8.87165 24.9263 8.99107 24.6905 8.95158C23.9299 8.82542 23.3269 9.097 22.7911 9.60646C22.471 9.91079 22.0827 10.1496 21.7435 10.4376C21.582 10.5743 21.4896 10.5493 21.3582 10.4116C21.1425 10.1853 20.9067 9.97531 20.6819 9.75766C20.4672 9.5506 20.2655 9.32814 19.9233 9.24532C21.4445 8.12239 22.9335 7.02258 24.4236 5.92469C24.6815 5.73401 25.0026 5.76001 25.2996 5.70801C26.0943 5.56836 26.8889 5.44028 27.782 5.29004Z" fill="#DAEEF8"/>
<path d="M33.393 13.9528C34.8961 13.5704 36.2758 13.87 37.5391 14.6886C38.4602 15.2847 39.0994 16.1071 39.4887 17.1106C39.574 17.3302 39.5851 17.4304 39.284 17.4207C38.6579 17.4005 38.0298 17.4092 37.4027 17.4063C36.8568 16.1774 35.1008 15.3097 33.5024 15.9001C33.1472 16.0311 32.8833 16.0051 32.5692 15.8442C32.3054 15.7094 32.209 15.6352 32.4318 15.3463C32.778 14.9004 33.2004 14.4969 33.393 13.9528Z" fill="#608AA8"/>
<path d="M10.0919 22.4113C10.129 21.3298 10.0307 20.2627 9.70458 19.211C9.57012 19.5963 9.47379 19.9796 9.25606 20.3272C8.70117 21.218 7.91651 21.7391 6.83184 21.8758C4.82804 22.1281 3.16841 20.5535 3.20654 18.7488C3.23263 17.5267 4.09957 16.3411 5.29362 15.9183C5.51236 15.8413 5.87158 15.2596 5.8174 15.0554C5.77425 14.8908 5.62173 14.9553 5.51638 14.9543C4.71566 14.9485 3.91595 14.9505 3.11523 14.9495C3.4012 14.651 3.74136 14.521 4.17784 14.5421C4.82905 14.573 5.48326 14.5556 6.13648 14.5479C6.37127 14.545 6.46459 14.6076 6.36024 14.8378C6.31308 14.9428 6.27595 15.0545 6.25388 15.1672C6.13347 15.797 5.84248 16.2024 5.15114 16.4731C3.93301 16.9498 3.37712 18.3809 3.77547 19.6088C4.18887 20.8819 5.48126 21.6572 6.88401 21.4742C8.13927 21.3105 9.15672 20.2088 9.21893 18.9655C9.25405 18.2692 9.0624 17.6518 8.59682 17.1174C8.49548 17.0008 8.43929 16.8853 8.48845 16.7341C8.60284 16.3864 8.71522 16.0387 8.84667 15.6314C9.21692 16.2217 9.44369 16.8053 9.67849 17.3841C9.82799 17.753 10.0859 17.9013 10.4892 17.805C10.4752 18.2056 10.722 18.5533 10.7431 18.9472C10.3989 19.0887 10.2886 19.3449 10.3247 19.6906C10.3859 20.2868 10.4672 20.8819 10.5354 21.4771C10.5876 21.922 10.4019 22.1715 10.0919 22.4113Z" fill="#375E80"/>
<path d="M30.9155 22.3409C33.3779 22.3409 35.788 22.3409 38.2032 22.3409C36.5286 24.2776 32.7788 24.3865 30.9155 22.3409Z" fill="#608AA8"/>
<path d="M26.593 14.86C28.4101 15.6873 30.2283 16.5145 32.0454 17.3418C32.0394 17.363 32.0324 17.3851 32.0264 17.4063C31.5919 17.4063 31.1574 17.4063 30.724 17.4063C30.6838 17.4063 30.6296 17.4208 30.6066 17.4015C29.854 16.7707 28.8887 17.0086 28.0268 16.8333C27.3004 16.685 26.5508 16.6339 25.8083 16.5675C25.1832 16.5116 24.9333 16.7928 25.0297 17.3986C24.7497 17.3986 24.4698 17.3986 24.1908 17.3986C24.1748 17.1501 24.2229 16.944 24.4387 16.7601C25.1661 16.137 25.8755 15.4946 26.593 14.86Z" fill="#DAEEF8"/>
<path d="M26.59 11.6799C26.5639 12.0786 26.5388 12.382 26.5257 12.6863C26.5197 12.8183 26.4374 12.8924 26.3481 12.9714C24.7246 14.3996 23.1032 15.8288 21.4786 17.256C21.4114 17.3148 21.3342 17.3899 21.2519 17.4024C21.1134 17.4236 20.8636 17.4708 20.8475 17.3668C20.8104 17.1212 20.71 16.8371 20.9629 16.6166C21.4074 16.2284 21.8449 15.8346 22.2874 15.4445C23.6139 14.2744 24.9414 13.1053 26.2689 11.9361C26.3451 11.8687 26.4284 11.808 26.59 11.6799Z" fill="#608AA8"/>
<path d="M2.2252 13.2593C2.78811 12.4542 3.64903 12.1065 4.56915 11.8503C4.86515 12.1364 5.24745 12.3116 5.57154 12.562C5.90467 12.8201 6.30001 13.0089 6.54685 13.3643C5.09894 13.3623 3.65103 13.3595 2.20312 13.3575C2.21115 13.3257 2.21818 13.293 2.2252 13.2593Z" fill="#DAEEF8"/>
<path d="M33.3928 13.9528C33.2002 14.4969 32.7777 14.9004 32.4326 15.3453C32.2098 15.6333 32.3061 15.7075 32.57 15.8432C32.8841 16.0041 33.148 16.031 33.5032 15.8991C35.1016 15.3087 36.8565 16.1765 37.4034 17.4053C37.1154 17.4689 36.9228 17.3774 36.7281 17.1453C35.8812 16.1331 34.5618 15.8625 33.3155 16.4172C33.163 16.4846 33.0326 16.527 32.866 16.4442C32.5239 16.2737 32.1727 16.1187 31.8195 15.9694C31.6138 15.8827 31.5596 15.7893 31.7091 15.5986C32.0774 15.1287 32.4305 14.6481 32.7878 14.1714C32.9403 13.9701 33.165 13.9595 33.3928 13.9528Z" fill="#375E80"/>
<path d="M28.9126 14.0452C29.8498 13.3614 30.9114 13.0465 32.1687 13.0215C31.6429 13.7091 31.1602 14.3399 30.6786 14.9707C30.1719 14.7348 29.6642 14.4998 29.1574 14.2619C29.0551 14.2128 28.9276 14.1868 28.9126 14.0452Z" fill="#DAEEF8"/>
<path d="M5.40808 17.6962C5.31175 18.0217 5.2375 18.2509 5.17729 18.4839C5.08097 18.8509 5.2094 19.1273 5.57063 19.2505C6.00811 19.3998 6.45262 19.5337 6.90114 19.6444C7.3035 19.7436 7.56037 19.5924 7.70687 19.2111C7.79818 18.9732 7.87243 18.7295 7.96474 18.457C8.11425 19.2862 7.75303 19.9632 7.04262 20.2348C6.33622 20.5035 5.52848 20.2569 5.11207 19.6444C4.70469 19.0454 4.797 18.2634 5.40808 17.6962Z" fill="#DAEEF8"/>
<path d="M8.24859 4.59082C8.80849 4.67172 9.30818 4.89707 9.79483 5.16577C10.0286 5.29482 10.144 5.41712 9.92929 5.65307C9.85403 5.7359 9.8149 5.84761 9.75169 5.95836C9.64332 5.87169 9.55602 5.79561 9.4607 5.72915C9.11954 5.49128 8.83157 5.50861 8.53957 5.80235C8.30077 6.04215 8.07901 6.29639 7.85024 6.54486C7.54621 5.83413 7.68367 5.21007 8.24257 4.66498C8.25662 4.65053 8.24758 4.61586 8.24859 4.59082Z" fill="#DAEEF8"/>
<path d="M29.8793 3.76845C28.043 4.07471 26.3142 4.36362 24.5542 4.65736C25.1422 3.94084 28.9732 3.26381 29.8793 3.76845Z" fill="#375E80"/>
<path d="M26.5929 14.8599C25.8765 15.4946 25.1661 16.137 24.4376 16.7581C24.2219 16.9421 24.1727 17.1482 24.1898 17.3966C24.0463 17.3966 23.8526 17.517 23.7834 17.31C23.7141 17.1029 23.6238 16.8939 23.8707 16.6878C24.571 16.1013 25.2554 15.4965 25.9266 14.8792C26.1675 14.6587 26.3631 14.6394 26.5929 14.8599Z" fill="#608AA8"/>
<path d="M9.11568 7.0033C9.17689 7.04471 9.24512 7.08323 9.30533 7.13235C9.88228 7.60521 10.4592 8.07903 11.0352 8.55285C11.1747 8.66746 11.3021 8.80132 11.1436 8.97179C10.994 9.13262 10.8305 9.05461 10.688 8.93808C10.101 8.45655 9.51403 7.97502 8.93006 7.4906C8.86484 7.43667 8.75546 7.38178 8.83273 7.27391C8.90397 7.17183 8.9712 7.05723 9.11568 7.0033Z" fill="#608AA8"/>
<path d="M6.54704 13.3653C6.3002 13.0099 5.90486 12.8212 5.57173 12.5631C5.24864 12.3127 4.86534 12.1374 4.56934 11.8514C4.99979 11.6357 5.39212 11.5952 5.7684 11.9843C6.08246 12.3088 6.44369 12.592 6.78986 12.8876C6.9213 12.9994 6.93034 13.1255 6.86913 13.2652C6.80491 13.4106 6.69052 13.4395 6.54704 13.3653Z" fill="#608AA8"/>
<path d="M7.84251 14.1213C8.04419 14.2677 7.99302 14.3958 7.94686 14.5364C7.56457 15.7171 7.1893 16.9007 6.807 18.0814C6.77288 18.1854 6.78894 18.3906 6.58926 18.3212C6.41969 18.2625 6.55816 18.1142 6.58625 18.0256C6.99363 16.7351 7.41305 15.4475 7.84251 14.1213Z" fill="#608AA8"/>
<path d="M8.2487 4.59086C8.2477 4.6159 8.25673 4.65153 8.24268 4.66501C7.68379 5.21011 7.54632 5.83513 7.85035 6.5449C7.81022 6.67203 7.73596 6.80204 7.5975 6.79722C7.47107 6.79241 7.44498 6.63543 7.40183 6.53431C7.13794 5.90832 7.21119 5.31412 7.59047 4.74687C7.76406 4.48781 7.96675 4.39728 8.2487 4.59086Z" fill="#608AA8"/>
<path d="M28.913 14.0452C28.9281 14.1867 29.0555 14.2127 29.1578 14.2609C29.6645 14.4988 30.1713 14.7338 30.679 14.9697C30.5837 15.2962 30.399 15.3395 30.091 15.1845C29.5532 14.9129 28.9993 14.6702 28.4233 14.4025C28.5949 14.2542 28.7284 14.1203 28.913 14.0452Z" fill="#608AA8"/>
<path d="M3.0293 8.75314C3.63836 8.74448 4.29057 8.56246 4.49828 9.35024C3.86814 9.51396 3.26811 9.28571 3.0293 8.75314Z" fill="#375E80"/>
<path d="M2.2252 13.2593C2.21817 13.292 2.21115 13.3248 2.20413 13.3585C2.13589 13.3103 2.15797 13.2805 2.2252 13.2593Z" fill="#608AA8"/>
<path d="M15.0618 5.92666C15.0689 6.25892 14.811 6.51124 14.4678 6.51027C14.0916 6.50931 13.7183 6.03934 13.7173 5.56359C13.7163 5.27178 13.9962 4.99731 14.3003 4.98864C14.6705 4.97998 15.0528 5.44995 15.0618 5.92666Z" fill="#020202"/>
<path d="M13.7083 6.4746C13.7023 6.78952 13.4514 7.03318 13.1283 7.03703C12.741 7.04184 12.3457 6.53142 12.3708 6.05953C12.3868 5.76291 12.6748 5.50192 12.9778 5.51059C13.3501 5.52022 13.7173 6.00271 13.7083 6.4746Z" fill="#020202"/>
<path d="M15.8052 5.98921C15.441 5.98055 15.0547 5.47687 15.0687 5.02808C15.0778 4.72761 15.3487 4.4801 15.6678 4.4801C16.048 4.4801 16.4163 4.94333 16.4163 5.42005C16.4173 5.74749 16.1484 5.99788 15.8052 5.98921Z" fill="#020202"/>
<path d="M15.4903 18.1912C15.4782 18.4686 15.3428 18.6689 15.0457 18.744C14.7658 18.8153 14.5039 18.7324 14.4046 18.4859C14.0724 17.6673 13.7594 16.84 13.4794 16.0031C13.3831 15.7152 13.5717 15.4706 13.8718 15.3762C14.1939 15.2741 14.4738 15.3887 14.5942 15.6911C14.9003 16.4654 15.1782 17.2493 15.4642 18.0304C15.4812 18.0776 15.4802 18.1315 15.4903 18.1912Z" fill="#020202"/>
<path d="M12.3946 15.4725C12.6846 15.4686 12.8783 15.6112 12.9726 15.8606C13.2586 16.6156 13.5415 17.3716 13.8084 18.1325C13.9188 18.4464 13.7533 18.7488 13.4603 18.8547C13.1592 18.9636 12.8311 18.847 12.7057 18.5283C12.4037 17.7665 12.1137 16.9989 11.8548 16.2227C11.7173 15.8134 11.9842 15.4821 12.3946 15.4725Z" fill="#020202"/>
<path d="M15.649 15.2211C15.9931 15.248 16.1798 15.3771 16.2701 15.615C16.556 16.37 16.846 17.1231 17.1129 17.8839C17.2273 18.2095 17.0387 18.5301 16.7276 18.6255C16.4306 18.717 16.1196 18.5802 15.9921 18.2586C15.7001 17.5199 15.4182 16.7774 15.1583 16.0272C15.0078 15.5919 15.2988 15.2095 15.649 15.2211Z" fill="#020202"/>
<path d="M19.3023 12.8347C19.2972 13.1582 19.0133 13.4221 18.6832 13.4115C18.3671 13.4009 18.1012 13.138 18.1012 12.8366C18.1022 12.5188 18.3842 12.2607 18.7253 12.2665C19.0404 12.2713 19.3063 12.5332 19.3023 12.8347Z" fill="#020202"/>
<path d="M19.3015 11.4883C19.2975 11.7926 19.0346 12.0373 18.7085 12.0392C18.3673 12.0421 18.0904 11.7782 18.1014 11.4613C18.1124 11.1551 18.3803 10.9008 18.6964 10.897C19.0285 10.8941 19.3055 11.1638 19.3015 11.4883Z" fill="#020202"/>
</svg>
