<svg width="18" height="19" viewBox="0 0 18 19" fill="none" xmlns="http://www.w3.org/2000/svg">
<path d="M10.6491 9.61505L17.6579 2.70231C18.114 2.25266 18.114 1.52565 17.6579 1.076C17.202 0.626358 16.4649 0.626358 16.0089 1.076L8.99989 7.98874L1.99106 1.076C1.53493 0.626358 0.798002 0.626358 0.342092 1.076C-0.114031 1.52565 -0.114031 2.25266 0.342092 2.70231L7.35093 9.61505L0.342092 16.5278C-0.114031 16.9774 -0.114031 17.7044 0.342092 18.1541C0.5693 18.3784 0.868044 18.4911 1.16657 18.4911C1.4651 18.4911 1.76363 18.3784 1.99106 18.1541L8.99989 11.2414L16.0089 18.1541C16.2364 18.3784 16.5349 18.4911 16.8334 18.4911C17.132 18.4911 17.4305 18.3784 17.6579 18.1541C18.114 17.7044 18.114 16.9774 17.6579 16.5278L10.6491 9.61505Z" fill="#EF262C"/>
</svg>
