<svg width="50" height="39" viewBox="0 0 50 39" fill="none" xmlns="http://www.w3.org/2000/svg">
<g clip-path="url(#clip0_3709_437)">
<path d="M26.6839 11.0585C26.7547 10.4025 26.5111 10.193 25.8262 10.1994C21.4253 10.2353 17.0224 10.2269 12.6194 10.2099C11.7305 10.2057 11.0206 10.5146 10.3982 11.1537C7.14853 14.4758 3.89264 17.7937 0.615929 21.0883C0.153778 21.5538 -0.00651932 22.032 -0.000274658 22.6732C0.0247078 25.4197 0.00597382 28.1684 0.0122185 30.915C0.0163803 32.9358 0.95734 33.943 2.9267 33.8816C3.84268 33.8541 4.27152 34.07 4.5713 35.0391C5.34572 37.5529 7.5295 38.977 10.342 38.9791C20.3241 38.9854 30.3062 38.9812 40.2903 38.9812C43.2361 38.9812 46.1838 38.9579 49.1295 38.9981C49.8145 39.0066 49.9831 38.814 49.9872 38.1306C49.9914 37.4344 49.7957 37.2651 49.1233 37.2715C45.2845 37.3053 41.4457 37.2884 37.4487 37.2884C38.194 36.3362 38.7894 35.4454 38.9684 34.3577C39.0371 33.9366 39.2973 33.8901 39.6408 33.9007C40.0905 33.9155 40.5443 33.9261 40.9919 33.888C42.2306 33.7843 43.2444 32.8194 43.2735 31.5625C43.3297 29.1333 43.2714 26.702 43.3131 24.2708C43.3256 23.4984 42.7864 23.8391 42.472 23.7164C41.8017 23.6571 41.5019 23.9259 41.6248 24.6389C41.6685 24.8992 41.6123 25.1764 41.5998 25.4473C41.6102 27.3495 41.6206 29.2518 41.6352 31.1541C41.6393 31.7783 41.3708 32.2692 40.74 32.1761C40.1113 32.083 39.2307 32.7729 38.8956 31.499C38.194 28.835 35.9332 27.1422 33.3039 27.1443C30.6726 27.1464 28.468 28.8371 27.7206 31.5138C27.5645 32.0703 27.35 32.2269 26.8088 32.2227C23.3759 32.1994 19.941 32.1994 16.5082 32.2227C15.9669 32.2269 15.7525 32.0703 15.5964 31.5138C14.8511 28.8456 12.6382 27.1464 10.011 27.1443C7.37961 27.1422 5.12505 28.8307 4.41933 31.499C4.08208 32.775 3.20358 32.083 2.57488 32.1761C1.9441 32.2714 1.67555 31.7783 1.67971 31.1541C1.69221 29.2518 1.70262 27.3495 1.71302 25.4473C1.52358 24.7194 1.85042 24.5797 2.51242 24.5839C6.28668 24.6114 10.063 24.6051 13.8373 24.5945C15.2071 24.5903 15.817 23.9809 15.8254 22.6118C15.8399 20.2884 15.8378 17.9651 15.8254 15.6417C15.817 14.1944 15.2321 13.6146 13.7915 13.6019C12.7131 13.5913 11.6327 13.5998 10.4877 13.5998C11.3308 12.2434 12.3613 11.7821 13.806 11.8752C15.842 12.0064 17.8926 11.9451 19.9348 11.89C20.678 11.871 20.8487 12.0995 20.8403 12.8274C20.8029 16.3125 20.8091 19.7975 20.8383 23.2805C20.8424 23.8158 20.4053 24.6262 21.6293 24.6368C22.7972 24.6474 22.4787 23.9195 22.4808 23.3334C22.4954 19.8145 22.5058 16.2934 22.4725 12.7745C22.4662 12.0974 22.6286 11.8414 23.326 11.8943C24.1524 11.9556 24.9914 11.8583 25.8179 11.9239C26.5111 11.9831 26.7484 11.7102 26.6839 11.0585ZM7.92503 22.9081C6.12638 22.9081 4.32565 22.9186 2.527 22.8975C2.2522 22.8954 1.86083 23.0985 1.70886 22.7155C1.56522 22.3558 1.91912 22.1611 2.12938 21.9453C4.15702 19.8779 6.19091 17.8191 8.2144 15.7475C8.49335 15.4619 8.75982 15.2735 9.19283 15.282C10.6459 15.3116 12.099 15.3158 13.5521 15.2799C14.0746 15.2672 14.1766 15.4619 14.1724 15.9464C14.1495 18.0201 14.1391 20.0959 14.1766 22.1696C14.187 22.7769 14.0017 22.9292 13.4251 22.9186C11.5931 22.8848 9.75908 22.9081 7.92503 22.9081ZM33.3268 28.8307C35.6376 28.8392 37.482 30.7288 37.4695 33.0754C37.4571 35.4221 35.6001 37.2926 33.2893 37.2863C30.9848 37.2799 29.1383 35.3882 29.1466 33.0395C29.1591 30.6949 31.0161 28.8223 33.3268 28.8307ZM5.84118 33.0691C5.83285 30.7246 7.68147 28.8371 9.99015 28.8307C12.3009 28.8244 14.1558 30.6992 14.162 33.0458C14.1683 35.3946 12.3197 37.2842 10.0151 37.2863C7.70436 37.2905 5.84951 35.4157 5.84118 33.0691ZM29.1341 37.2186C24.0942 37.2186 19.1791 37.2186 14.1745 37.2186C14.8553 36.4103 15.4048 35.6231 15.5735 34.6878C15.6984 33.9959 16.0169 33.8901 16.6206 33.8943C19.839 33.9197 23.0574 33.9324 26.2738 33.888C27.1211 33.8753 27.6873 33.943 27.8434 34.9798C27.9663 35.8114 28.5367 36.4843 29.1341 37.2186Z" fill="#020202"/>
<path d="M41.6004 25.4495C41.6108 25.1787 41.6691 24.9015 41.6254 24.6412C41.5046 23.9281 41.8044 23.6594 42.4727 23.7186C42.4643 23.014 42.4539 22.3073 42.4456 21.6026C40.8843 21.9518 39.3188 22.2268 37.7137 21.9708C32.2054 21.0927 28.6892 17.0194 28.2875 11.0586C27.7524 11.0586 27.2195 11.0586 26.6845 11.0586C26.749 11.7124 26.5117 11.9833 25.8185 11.9283C24.992 11.8606 24.1531 11.96 23.3266 11.8986C22.6292 11.8457 22.4668 12.1018 22.4731 12.7789C22.5043 16.2978 22.4939 19.8188 22.4814 23.3377C22.4793 23.9239 22.7978 24.6518 21.63 24.6412C20.4038 24.6306 20.843 23.8202 20.8389 23.2848C20.8077 19.7998 20.8014 16.3147 20.841 12.8318C20.8493 12.1039 20.6786 11.8733 19.9354 11.8944C17.8932 11.9494 15.8426 12.0108 13.8067 11.8796C12.364 11.7865 11.3314 12.2478 10.4883 13.6041C11.6333 13.6041 12.7116 13.5957 13.7921 13.6063C15.2348 13.619 15.8197 14.1987 15.826 15.6461C15.8385 17.9695 15.8405 20.2928 15.826 22.6162C15.8176 23.9852 15.2077 24.5968 13.8379 24.5989C10.0636 24.6095 6.2873 24.6179 2.51305 24.5883C1.85104 24.5841 1.5242 24.7258 1.71365 25.4516C15.0078 25.4495 28.3041 25.4495 41.6004 25.4495Z" fill="#6298DE"/>
<path d="M28.2872 11.0584C28.6911 17.0213 32.2072 21.0925 37.7135 21.9707C39.3185 22.2267 40.8861 21.9516 42.4454 21.6025C45.5472 20.3752 47.96 18.3692 49.1632 15.1423C50.7891 10.7812 50.0563 6.76719 46.8712 3.43237C43.6507 0.0594707 39.6454 -0.852526 35.3257 0.808535C31.0102 2.46748 28.7265 5.85308 28.3268 10.5337C28.3101 10.7072 28.2997 10.8828 28.2872 11.0584ZM48.291 10.9928C48.3076 16.1665 44.2211 20.3583 39.1541 20.3646C34.1224 20.371 30.0089 16.2299 29.986 11.1325C29.961 5.96523 34.0412 1.77978 39.1208 1.76073C44.1337 1.74169 48.2764 5.91233 48.291 10.9928Z" fill="#070705"/>
<path d="M47.9541 31.3681C48.3018 31.3681 48.6557 31.3194 48.9929 31.3786C49.8589 31.5289 50.0026 31.1141 49.9838 30.3397C49.9713 29.743 49.7569 29.652 49.2573 29.6689C48.3226 29.7007 47.3816 29.7324 46.4511 29.6626C45.6121 29.597 45.8369 30.1492 45.7891 30.6021C45.7287 31.1649 45.864 31.4548 46.4989 31.3829C46.9798 31.3236 47.469 31.3681 47.9541 31.3681Z" fill="black"/>
<path d="M47.1027 27.9841C47.7147 27.9757 48.4433 28.2508 48.3288 27.0785C48.2664 26.4373 48.1456 26.1834 47.5107 26.2871C47.3088 26.321 47.0964 26.285 46.8883 26.2935C46.3553 26.3146 45.7766 26.0565 45.7537 27.087C45.7308 28.1386 46.27 28.0138 46.8945 27.9841C46.9632 27.9799 47.0319 27.9841 47.1027 27.9841Z" fill="black"/>
<path d="M47.4453 23.6381C47.6806 22.762 47.0498 22.9673 46.546 22.8932C45.6925 22.7663 45.8465 23.308 45.7778 23.837C45.6654 24.7045 46.19 24.5522 46.7105 24.6178C47.5536 24.7236 47.5161 24.2305 47.4453 23.6381Z" fill="black"/>
<path d="M41.6004 25.4492C28.3042 25.4492 15.0079 25.4492 1.7116 25.4492C1.70119 27.3515 1.69078 29.2538 1.6783 31.1561C1.67413 31.7803 1.94268 32.2712 2.57345 32.1781C3.20215 32.085 4.08274 32.7748 4.4179 31.501C5.12362 28.8306 7.37818 27.1441 10.0095 27.1463C12.6367 27.1484 14.8476 28.8454 15.5949 31.5158C15.7511 32.0723 15.9655 32.2289 16.5068 32.2247C19.9396 32.2014 23.3745 32.2014 26.8074 32.2247C27.3507 32.2289 27.563 32.0702 27.7192 31.5158C28.4686 28.8412 30.6732 27.1505 33.3025 27.1463C35.9318 27.1441 38.1926 28.8369 38.8941 31.501C39.2293 32.7748 40.1099 32.085 40.7386 32.1781C41.3694 32.2712 41.6379 31.7803 41.6337 31.1561C41.6213 29.2559 41.6108 27.3536 41.6004 25.4492ZM16.5796 26.2914C16.8898 26.2914 17.2062 26.3295 17.5081 26.2829C18.2201 26.1729 18.3554 26.503 18.347 27.1589C18.3387 27.7578 18.2554 28.0709 17.5685 27.9948C16.9897 27.9292 16.3943 27.9313 15.8156 27.9948C15.1016 28.0731 14.9933 27.7641 14.9725 27.1145C14.9475 26.3781 15.2285 26.2046 15.8593 26.285C16.0946 26.3168 16.3381 26.2914 16.5796 26.2914Z" fill="#8CB6E7"/>
<path d="M7.92563 22.9079C9.75968 22.9079 11.5937 22.8846 13.4278 22.9206C14.0044 22.9312 14.1897 22.7788 14.1793 22.1715C14.1418 20.0978 14.1522 18.022 14.1751 15.9484C14.1814 15.4659 14.0794 15.2691 13.5547 15.2818C12.1017 15.3178 10.6486 15.3114 9.19552 15.2839C8.76459 15.2755 8.49604 15.4638 8.21708 15.7495C6.1936 17.821 4.15971 19.8799 2.13206 21.9472C1.9218 22.1631 1.5679 22.3577 1.71154 22.7174C1.86351 23.0983 2.25489 22.8952 2.52968 22.8994C4.32625 22.9164 6.1249 22.9079 7.92563 22.9079Z" fill="#E4E4E5"/>
<path d="M33.3268 28.8306C31.0161 28.8221 29.157 30.6948 29.1487 33.0414C29.1404 35.3902 30.9869 37.2819 33.2914 37.2882C35.6022 37.2946 37.4591 35.4219 37.4716 33.0774C37.482 30.7286 35.6376 28.8391 33.3268 28.8306ZM32.4983 33.0689C32.3401 32.3516 32.6711 32.1866 33.3268 32.195C33.9222 32.2035 34.1866 32.3199 34.1616 32.9991C34.1387 33.6043 34.0929 33.9619 33.3435 33.9259C32.721 33.8963 32.3297 33.8138 32.4983 33.0689Z" fill="#75737C"/>
<path d="M5.84125 33.0689C5.84958 35.4156 7.70443 37.2904 10.0152 37.2861C12.3197 37.284 14.1683 35.3923 14.1621 33.0457C14.1558 30.699 12.3031 28.8242 9.99022 28.8306C7.67945 28.8369 5.83084 30.7244 5.84125 33.0689ZM10.0235 32.2331C10.775 32.0554 10.8333 32.487 10.8521 33.1028C10.8729 33.7566 10.6543 33.9238 10.0339 33.9238C9.39275 33.9238 9.13461 33.7778 9.1471 33.0647C9.15751 32.3855 9.33238 32.0808 10.0235 32.2331Z" fill="#75737D"/>
<path d="M48.291 10.9929C48.2764 5.9124 44.1337 1.74176 39.1208 1.76081C34.0412 1.77985 29.961 5.9653 29.9859 11.1326C30.0088 16.23 34.1224 20.371 39.1541 20.3647C44.2211 20.3583 48.3076 16.1665 48.291 10.9929ZM39.1249 3.45572C43.1074 3.44938 45.924 7.38302 44.6187 11.1939C43.6507 14.0146 41.7771 16.2321 39.7828 18.3524C39.3768 18.784 38.9147 18.7988 38.5087 18.3693C36.4873 16.2279 34.5846 13.9828 33.629 11.1178C32.3717 7.35128 35.1945 3.46207 39.1249 3.45572Z" fill="#EECF3C"/>
<path d="M16.5798 26.2918C16.3383 26.2918 16.0948 26.3172 15.8575 26.2875C15.2267 26.2071 14.9456 26.3806 14.9706 27.117C14.9935 27.7666 15.0997 28.0756 15.8137 27.9973C16.3925 27.9338 16.9879 27.9338 17.5666 27.9973C18.2536 28.0734 18.3368 27.7603 18.3452 27.1614C18.3556 26.5076 18.2182 26.1754 17.5062 26.2854C17.2064 26.332 16.89 26.2918 16.5798 26.2918Z" fill="black"/>
<path d="M32.4989 33.069C32.3302 33.8139 32.7216 33.8964 33.3441 33.926C34.0935 33.962 34.1393 33.6044 34.1622 32.9992C34.1893 32.32 33.9228 32.2015 33.3274 32.1951C32.6716 32.1867 32.3406 32.3517 32.4989 33.069Z" fill="black"/>
<path d="M10.0239 32.2332C9.33271 32.0787 9.15784 32.3855 9.14743 33.0648C9.13703 33.7779 9.39309 33.9239 10.0343 33.9239C10.6546 33.9239 10.8711 33.7567 10.8524 33.1029C10.8337 32.4871 10.7754 32.0554 10.0239 32.2332Z" fill="black"/>
<path d="M39.1247 3.45557C35.1944 3.46192 32.3715 7.35113 33.6289 11.1176C34.5865 13.9827 36.4871 16.2278 38.5085 18.3691C38.9145 18.7987 39.3766 18.7839 39.7826 18.3522C41.7748 16.232 43.6505 14.0144 44.6185 11.1938C45.9238 7.38287 43.1072 3.44923 39.1247 3.45557ZM34.9716 9.28939C35.0924 7.57543 35.8522 6.28043 37.4073 5.53349C38.9291 4.80558 40.7319 5.07855 41.9476 6.26351C43.1717 7.45905 43.6359 8.92332 43.0718 10.5907C42.3369 12.7617 40.9151 14.499 39.4828 16.2235C39.1851 16.5811 39.004 16.4732 38.7563 16.1791C37.4697 14.6513 36.2477 13.0791 35.4358 11.2276C35.1673 10.6161 34.955 9.98132 34.9716 9.28939Z" fill="#070603"/>
<path d="M34.9715 9.28964C34.9549 9.98158 35.1672 10.6164 35.4337 11.2279C36.2477 13.0794 37.4697 14.6516 38.7541 16.1793C39.0019 16.4735 39.183 16.5835 39.4807 16.2238C40.9129 14.4992 42.3369 12.7641 43.0696 10.591C43.6338 8.92146 43.1696 7.45719 41.9455 6.26376C40.7297 5.0788 38.9269 4.80584 37.4051 5.53374C35.8542 6.28069 35.0923 7.5778 34.9715 9.28964ZM39.1726 11.8987C37.8069 11.9219 36.6536 10.773 36.6495 9.38275C36.6453 8.03062 37.7216 6.89222 39.0477 6.84355C40.4112 6.79276 41.5895 7.92059 41.6228 9.30657C41.6582 10.6968 40.5424 11.8754 39.1726 11.8987Z" fill="#D85F44"/>
<path d="M39.1729 11.8986C40.5427 11.8753 41.6586 10.6967 41.6252 9.30647C41.5899 7.91838 40.4137 6.79267 39.0501 6.84345C37.724 6.89212 36.6477 8.03053 36.6519 9.38265C36.654 10.7729 37.8052 11.9219 39.1729 11.8986ZM38.2986 9.29166C38.386 8.90232 38.6046 8.55318 39.0959 8.5426C39.6288 8.53202 39.9578 8.84095 39.9494 9.38265C39.9411 9.92223 39.6038 10.2333 39.073 10.1994C38.5963 10.1698 38.3485 9.84394 38.2986 9.29166Z" fill="#050302"/>
<path d="M38.2982 9.29176C38.3482 9.84615 38.5959 10.172 39.0726 10.2016C39.6035 10.2334 39.9407 9.92444 39.9491 9.38486C39.9574 8.84316 39.6264 8.53211 39.0955 8.54481C38.6042 8.55116 38.3857 8.9003 38.2982 9.29176Z" fill="#DA9A3C"/>
</g>
<defs>
<clipPath id="clip0_3709_437">
<rect width="50" height="39" rx="4" transform="matrix(-1 0 0 1 50 0)" fill="white"/>
</clipPath>
</defs>
</svg>
