<svg width="33" height="33" viewBox="0 0 33 33" fill="none" xmlns="http://www.w3.org/2000/svg">
<path d="M32.9947 6.89454C32.9947 8.15956 32.9973 9.42588 32.9935 10.6909C32.9922 11.4046 32.7924 11.6081 32.0898 11.6094C30.3508 11.6133 28.613 11.6171 26.874 11.6042C26.5517 11.6017 26.3429 11.6815 26.125 11.9508C25.0834 13.2403 23.7904 14.0841 22.0553 14.0235C21.7382 14.0119 21.6002 14.2283 21.4249 14.4035C19.4642 16.3577 17.5086 18.3171 15.5504 20.2713C14.9458 20.8755 14.7112 20.8768 14.1169 20.2829C10.2006 16.3732 6.28292 12.4609 2.36787 8.54732C1.74651 7.9264 1.74651 7.73961 2.364 7.12255C4.59418 4.89266 6.82564 2.66276 9.05839 0.435442C9.64494 -0.149407 9.83702 -0.145542 10.4377 0.449612C10.9869 0.993238 11.5425 1.52913 12.0724 2.09079C12.2979 2.3304 12.4862 2.37163 12.7981 2.24409C13.5291 1.9478 14.2883 1.72365 15.0219 1.43381C16.5598 0.827058 18.0668 0.886316 19.566 1.56649C20.8693 2.15907 22.1326 2.82765 23.3702 3.54261C23.7608 3.76805 24.1553 3.99091 24.5923 4.09268C24.9726 4.18156 25.4186 4.40442 25.5462 3.71265C25.5926 3.46016 25.9162 3.38416 26.1869 3.38158C26.4654 3.37901 26.7451 3.37643 27.0235 3.38158C27.4838 3.3906 27.9569 3.49366 27.9027 2.72846C27.8795 2.40512 28.2057 2.19772 28.5898 2.20029C29.8132 2.20931 31.0366 2.20287 32.2599 2.20416C32.8104 2.20545 33.0012 2.51848 32.9973 3.0299C32.9896 4.32069 32.9947 5.60762 32.9947 6.89454ZM25.3799 8.39402C25.3902 7.55926 25.3941 6.72321 25.4134 5.88845C25.4186 5.66043 25.3606 5.52131 25.1092 5.50198C23.7969 5.40408 22.7475 4.67237 21.6441 4.06691C20.9879 3.7075 20.3111 3.38545 19.6459 3.0415C17.1721 1.76488 16.1589 2.31881 13.4375 3.48593C14.0357 4.06949 14.6403 4.61827 15.1946 5.21213C15.5878 5.63467 16.0351 5.90519 16.5856 6.0688C17.7935 6.42692 18.9846 6.83915 20.1925 7.19985C20.6218 7.32867 20.8551 7.56183 20.8822 8.00498C20.6269 8.52413 20.2557 8.59627 19.713 8.41721C17.9082 7.82205 16.0918 7.26168 14.2742 6.70904C13.6502 6.51967 13.0688 6.77216 12.7994 7.30161C12.5055 7.87616 12.6512 8.38114 13.0882 8.81913C13.3357 9.06647 13.6464 9.19915 13.9777 9.30994C15.4769 9.81105 16.9684 10.3315 18.4677 10.8326C18.8222 10.9511 19.1032 11.125 19.3559 11.4162C21.0034 13.3098 23.8729 13.0908 25.2433 10.9872C25.3516 10.821 25.4199 10.6548 25.4134 10.4513C25.3954 9.76468 25.3902 9.07935 25.3799 8.39402ZM13.5355 5.32678C13.1127 4.921 12.7698 4.626 12.4694 4.29364C12.2451 4.04501 12.0775 4.01796 11.7759 4.19445C10.702 4.82438 9.48509 5.0627 8.39965 4.47914C7.40445 3.94324 6.87076 4.25628 6.31773 4.99443C6.27905 5.04595 6.23265 5.09362 6.18108 5.13098C5.92455 5.31519 5.92068 5.49941 6.08182 5.78024C6.85787 7.13157 6.85787 8.50867 6.09729 9.86387C5.92455 10.1718 5.97869 10.3315 6.20944 10.5608C8.19082 12.5227 10.1619 14.495 12.1278 16.4711C12.3289 16.6734 12.463 16.7507 12.7607 16.5793C14.1324 15.7871 15.5233 15.8 16.9078 16.5742C17.0135 16.6334 17.1979 16.7391 17.2353 16.7043C17.7058 16.2676 18.1673 15.8206 18.6043 15.3504C18.7281 15.2177 18.5244 15.0914 18.4599 14.9729C18.1802 14.4602 17.8463 13.8805 17.9572 13.3446C18.2279 12.0384 17.4183 11.764 16.4747 11.5295C16.4541 11.5244 16.4347 11.5128 16.4154 11.5038C16.0132 11.2989 15.8185 11.4033 15.629 11.8464C14.9677 13.3949 13.2635 14.3121 11.7204 14.0158C10.0111 13.6886 8.72709 12.3385 8.63685 10.7746C8.52857 8.88998 9.49411 7.40854 11.2009 6.86491C11.3878 6.80565 11.5838 6.78633 11.6921 6.60212C12.084 5.94513 12.6795 5.5651 13.5355 5.32678ZM29.1558 6.91129C29.1558 7.38277 29.1441 7.85555 29.1583 8.32703C29.179 8.96598 28.8863 9.80848 29.2627 10.1898C29.6701 10.602 30.5235 10.2658 31.1771 10.3289C31.5922 10.3688 31.725 10.2362 31.7159 9.8059C31.6889 8.36954 31.7095 6.9319 31.703 5.49425C31.7005 4.85401 31.9286 3.97159 31.6012 3.63536C31.19 3.21283 30.3056 3.55807 29.6301 3.49108C29.1983 3.44857 29.139 3.65082 29.1467 4.01538C29.1699 4.98026 29.1558 5.94513 29.1558 6.91129ZM9.92468 10.061C9.91437 11.4664 10.586 12.3604 11.6663 12.6554C12.7246 12.944 13.7972 12.4802 14.3554 11.5424C14.6261 11.0877 14.6106 10.8519 14.0447 10.7025C12.8162 10.3779 11.7746 9.8059 11.4175 8.4507C11.3517 8.1995 11.2099 8.25232 11.0346 8.36439C10.3101 8.82557 9.95304 9.48771 9.92468 10.061ZM27.8512 7.49356C27.8512 6.7026 27.8305 5.91163 27.8602 5.12067C27.8744 4.72905 27.7094 4.63501 27.3729 4.68268C27.097 4.72261 26.7038 4.51521 26.7116 5.08589C26.7322 6.71033 26.7283 8.33476 26.7129 9.9592C26.7077 10.5067 27.0932 10.2838 27.3394 10.3109C27.6049 10.3392 27.886 10.3972 27.8628 9.92828C27.8215 9.11928 27.8512 8.30642 27.8512 7.49356ZM11.2306 3.00414C10.7703 2.57516 10.3617 2.20158 9.96335 1.81769C9.82284 1.68243 9.72745 1.61802 9.54568 1.7842C9.12285 2.17066 8.67424 2.52879 8.15988 2.96163C9.30204 3.5542 10.2031 3.56193 11.2306 3.00414ZM5.30706 7.81175C5.31093 7.81175 5.31479 7.81175 5.31866 7.81175C5.3135 7.72672 5.30964 7.64041 5.30448 7.55539C5.28128 7.16893 5.25936 6.68327 4.93064 6.53384C4.69988 6.42821 4.45753 6.89067 4.23322 7.10967C3.49843 7.82463 3.49456 7.84009 4.23064 8.54732C4.46397 8.77146 4.69473 9.26485 4.96802 9.12186C5.26323 8.96856 5.30448 8.46358 5.30706 8.06939C5.30706 7.98308 5.30706 7.89677 5.30706 7.81175ZM16.2066 17.6885C15.281 17.1938 14.3709 17.1719 13.4375 17.7078C14.8336 19.3052 14.8336 19.3052 16.1717 17.7774C16.1846 17.7632 16.1872 17.7387 16.2066 17.6885ZM19.2914 13.1926C19.3391 13.8187 19.3391 13.8187 19.6498 14.276C20.4246 13.5791 20.4645 13.7594 19.2914 13.1926Z" fill="#070B08"/>
<path d="M0.0039447 26.996C0.0039447 25.7735 0.00136646 24.551 0.00523382 23.3284C0.00652294 22.5452 0.150904 22.4022 0.951447 22.4009C2.62601 22.3971 4.29929 22.388 5.97256 22.4074C6.39024 22.4125 6.67255 22.3069 6.94843 21.9629C8.99168 19.4097 12.2738 19.2757 14.5516 21.6447C14.7618 21.8637 15.008 21.9462 15.2658 22.0351C16.6362 22.5053 18.0052 22.9845 19.3833 23.4328C20.2547 23.7162 20.9843 24.1671 21.3788 25.0186C21.5451 25.3767 21.7604 25.2646 22.0079 25.1976C23.551 24.7777 25.0863 24.3229 26.641 23.9519C27.9546 23.6376 29.1032 24.2276 29.6163 25.3703C30.1216 26.4962 29.7478 27.7393 28.6804 28.5496C28.2627 28.8665 27.787 29.0468 27.3049 29.2194C24.095 30.3737 20.8864 31.5292 17.6739 32.6757C16.3229 33.1575 14.9796 33.0905 13.6699 32.5224C12.297 31.9273 10.9808 31.22 9.68136 30.4793C9.33072 30.2783 8.96976 30.0684 8.58561 29.9614C8.16278 29.8442 7.60588 29.4552 7.42669 30.3196C7.3777 30.5553 7.06058 30.5811 6.81565 30.5811C6.5372 30.5811 6.25746 30.5914 5.97901 30.5798C5.50204 30.5605 5.056 30.4935 5.10241 31.2445C5.12561 31.6194 4.75564 31.8075 4.36761 31.8087C3.16615 31.8126 1.9634 31.8203 0.761946 31.8049C0.247588 31.7984 -0.00507913 31.5176 7.73432e-05 30.983C0.0129685 29.6561 0.0039447 28.3254 0.0039447 26.996ZM12.1113 26.0311C12.3421 25.4282 12.7714 25.4102 13.3102 25.5867C14.9306 26.1148 16.5588 26.6237 18.1857 27.1351C18.4487 27.2176 18.7181 27.3 18.9901 27.3322C19.5367 27.3979 19.9518 27.1583 20.2083 26.6791C20.47 26.1909 20.3656 25.7258 20.0394 25.3033C19.7648 24.9464 19.3626 24.7893 18.9579 24.6514C17.505 24.1568 16.0496 23.6685 14.5916 23.188C14.1971 23.0579 13.8839 22.8582 13.599 22.5349C11.9515 20.6644 9.05227 20.9298 7.72705 23.0463C7.63037 23.1996 7.58396 23.3503 7.58654 23.5268C7.59814 24.1903 7.60588 24.8524 7.6149 25.5158C7.60588 26.3738 7.59299 27.2304 7.59299 28.0884C7.59299 28.2378 7.50919 28.4633 7.78764 28.4787C9.43127 28.5728 10.6624 29.6278 12.0572 30.3015C12.7701 30.6455 13.4727 31.0101 14.1959 31.3295C15.1962 31.7714 16.2198 31.8152 17.2601 31.439C20.4751 30.2771 23.6928 29.1228 26.9117 27.9699C27.3165 27.8256 27.7187 27.6839 28.0449 27.3902C28.5205 26.9625 28.652 26.348 28.371 25.8224C28.0668 25.253 27.5601 25.0443 26.962 25.1976C25.2642 25.6331 23.5781 26.1084 21.8867 26.5657C21.6547 26.6288 21.5709 26.7899 21.4794 27.0037C20.8928 28.3782 19.6566 28.9438 18.2205 28.4993C16.4247 27.9441 14.6354 27.3631 12.8384 26.8118C12.4259 26.6855 12.1565 26.4755 12.1113 26.0311ZM3.84294 27.1119C3.84294 26.1252 3.83263 25.1384 3.8481 24.1516C3.85325 23.8334 3.78235 23.6788 3.42398 23.6943C2.84516 23.7188 2.26506 23.7072 1.68496 23.6982C1.44131 23.6943 1.28533 23.7201 1.28662 24.0344C1.29693 26.0723 1.29564 28.1103 1.28791 30.1482C1.28662 30.4291 1.38717 30.5244 1.66304 30.5167C2.22123 30.5012 2.78071 30.4909 3.33761 30.5192C3.73336 30.5399 3.8597 30.4033 3.85067 30.0078C3.82747 29.043 3.84294 28.0768 3.84294 27.1119ZM5.14882 26.491C5.14882 27.2833 5.17847 28.0768 5.1385 28.8665C5.11272 29.374 5.42598 29.2761 5.70958 29.2774C6.00221 29.2787 6.30129 29.3599 6.29226 28.86C6.26519 27.2768 6.26519 25.6923 6.29226 24.1091C6.30129 23.5977 5.98545 23.7059 5.70443 23.702C5.41824 23.6982 5.11014 23.608 5.13721 24.1155C5.18104 24.9052 5.14882 25.6988 5.14882 26.491Z" fill="#070B08"/>
<path d="M13.5334 5.3271C12.6774 5.56542 12.0818 5.94416 11.6912 6.60243C11.5829 6.78665 11.3857 6.80597 11.2001 6.86523C9.49328 7.41014 8.52773 8.8903 8.63601 10.775C8.72625 12.3388 10.0102 13.6889 11.7196 14.0161C13.2627 14.3111 14.9669 13.3952 15.6282 11.8467C15.8177 11.4036 16.0124 11.2993 16.4146 11.5041C16.4339 11.5144 16.4532 11.5247 16.4739 11.5298C17.4175 11.7643 18.2258 12.0387 17.9563 13.3449C17.8455 13.8795 18.1794 14.4605 18.4591 14.9732C18.5236 15.0918 18.7272 15.218 18.6035 15.3507C18.1665 15.8209 17.705 16.2679 17.2344 16.7046C17.1971 16.7394 17.0127 16.6337 16.907 16.5745C15.5225 15.8003 14.1302 15.7874 12.7599 16.5796C12.4621 16.751 12.3281 16.6737 12.1269 16.4714C10.1585 14.494 8.18869 12.5218 6.20732 10.5598C5.97527 10.3305 5.92242 10.1721 6.09516 9.8629C6.85574 8.5077 6.85574 7.1306 6.07969 5.77926C5.91855 5.49972 5.92371 5.31422 6.17895 5.13001C6.23052 5.09265 6.27693 5.04498 6.3156 4.99345C6.86863 4.25531 7.40362 3.94227 8.39753 4.47817C9.48297 5.06302 10.6999 4.82341 11.7737 4.19347C12.0754 4.0157 12.2443 4.04404 12.4673 4.29267C12.7676 4.62631 13.1105 4.92131 13.5334 5.3271Z" fill="#49BCA4"/>
<path d="M25.3795 8.39357C25.3898 9.0789 25.3962 9.76552 25.413 10.4508C25.4181 10.6557 25.3511 10.8206 25.2428 10.9867C23.8725 13.0904 21.0016 13.3094 19.3554 11.4157C19.1028 11.1246 18.8217 10.9507 18.4672 10.8322C16.968 10.331 15.4765 9.81061 13.9772 9.30949C13.6459 9.19871 13.3352 9.06602 13.0877 8.81868C12.6507 8.38069 12.505 7.877 12.799 7.30117C13.0697 6.77171 13.6498 6.51923 14.2737 6.70859C16.0914 7.26124 17.9077 7.82161 19.7125 8.41676C20.2552 8.59582 20.6252 8.52368 20.8817 8.00453C21.302 8.01742 21.7222 8.0303 22.1438 8.04447C22.109 8.0741 22.0755 8.10373 22.0407 8.13464C22.0007 8.1836 21.962 8.23255 21.9221 8.2815C21.8189 8.75041 21.886 9.18582 22.4313 9.25024C22.9585 9.31336 23.1712 8.94493 23.1635 8.44639C23.3646 8.15783 23.6791 8.22739 23.9241 8.28021C24.4088 8.38456 24.8909 8.391 25.3795 8.39357Z" fill="#FBD9A9"/>
<path d="M25.3789 8.39429C24.8916 8.39171 24.4082 8.38527 23.9235 8.28092C23.6786 8.22811 23.364 8.15854 23.1629 8.4471C22.9412 8.01426 22.5944 7.89575 22.1432 8.04518C21.723 8.0323 21.3027 8.01942 20.8812 8.00525C20.8541 7.5621 20.6208 7.32894 20.1915 7.20011C18.9849 6.83941 17.7925 6.42719 16.5845 6.06906C16.0341 5.90546 15.5868 5.63494 15.1936 5.2124C14.6393 4.61725 14.0347 4.06976 13.4365 3.4862C16.1579 2.31908 17.1711 1.76514 19.6449 3.04176C20.3101 3.38572 20.9869 3.70648 21.6431 4.06718C22.7465 4.67264 23.7959 5.40306 25.1082 5.50225C25.3596 5.52157 25.4176 5.65941 25.4124 5.88871C25.3931 6.72347 25.3879 7.55824 25.3789 8.39429Z" fill="#E8BE91"/>
<path d="M29.1561 6.91136C29.1561 5.94649 29.169 4.98033 29.1497 4.01546C29.1419 3.6509 29.2 3.44865 29.6331 3.49116C30.3086 3.55814 31.1929 3.2129 31.6042 3.63544C31.9303 3.97166 31.7034 4.85409 31.706 5.49433C31.7125 6.93197 31.6905 8.36833 31.7189 9.80598C31.7266 10.2362 31.5939 10.3689 31.18 10.329C30.5252 10.2659 29.6731 10.6021 29.2657 10.1899C28.8893 9.80984 29.1819 8.96606 29.1613 8.32711C29.1445 7.85433 29.1561 7.38285 29.1561 6.91136Z" fill="#3686C4"/>
<path d="M9.92398 10.0608C9.95363 9.48751 10.3107 8.82537 11.0339 8.3629C11.2079 8.25082 11.3497 8.19801 11.4168 8.44921C11.7751 9.8057 12.8155 10.3777 14.044 10.701C14.6099 10.8504 14.6254 11.0862 14.3547 11.5409C13.7952 12.4787 12.7227 12.9438 11.6656 12.6539C10.584 12.3589 9.91237 11.4662 9.92398 10.0608Z" fill="#E8BE91"/>
<path d="M27.8506 7.4934C27.8506 8.30627 27.8209 9.11913 27.8622 9.92941C27.8854 10.3983 27.6044 10.3416 27.3388 10.312C27.0926 10.285 26.7071 10.5078 26.7123 9.96033C26.7278 8.3359 26.7304 6.71146 26.711 5.08702C26.7046 4.51634 27.0965 4.72246 27.3723 4.68381C27.7088 4.63615 27.8738 4.7289 27.8596 5.1218C27.83 5.91148 27.8506 6.70244 27.8506 7.4934Z" fill="#F7FAFC"/>
<path d="M11.2299 3.00413C10.2024 3.56193 9.30134 3.5542 8.15918 2.96162C8.67354 2.52878 9.12215 2.17066 9.54498 1.7842C9.72675 1.61931 9.82214 1.68243 9.96266 1.81769C10.361 2.20158 10.7696 2.57516 11.2299 3.00413Z" fill="#49BCA4"/>
<path d="M5.3064 7.81174C5.3064 7.89677 5.3064 7.98308 5.3064 8.0681C5.30382 8.46229 5.26257 8.96727 4.96736 9.12057C4.69406 9.26356 4.46331 8.76889 4.22998 8.54602C3.4939 7.84008 3.49776 7.82463 4.23256 7.10838C4.45687 6.88938 4.69793 6.42691 4.92997 6.53255C5.2587 6.68198 5.28061 7.16893 5.30382 7.5541C5.30897 7.63912 5.31284 7.72543 5.318 7.81046C5.31413 7.81174 5.31026 7.81174 5.3064 7.81174Z" fill="#49BCA4"/>
<path d="M16.2055 17.6887C16.1862 17.7389 16.1836 17.7634 16.1707 17.7788C14.8326 19.3054 14.8326 19.3054 13.4365 17.7093C14.3698 17.1734 15.28 17.194 16.2055 17.6887Z" fill="#49BCA4"/>
<path d="M19.291 13.1929C20.4628 13.7584 20.4242 13.5793 19.6494 14.2763C19.3387 13.8189 19.3387 13.8189 19.291 13.1929Z" fill="#49BCA4"/>
<path d="M12.1106 26.0308C12.157 26.4752 12.4264 26.6852 12.8389 26.8127C14.636 27.3641 16.4253 27.9451 18.221 28.5003C19.6584 28.9447 20.8934 28.3792 21.4799 27.0047C21.5714 26.7908 21.6552 26.6285 21.8873 26.5667C23.5786 26.1094 25.266 25.634 26.9625 25.1986C27.5594 25.0453 28.066 25.254 28.3715 25.8234C28.6526 26.3503 28.5211 26.9635 28.0454 27.3911C27.7192 27.6849 27.317 27.8253 26.9123 27.9708C23.6933 29.1225 20.4757 30.278 17.2606 31.44C16.2203 31.8162 15.1967 31.7724 14.1964 31.3305C13.4732 31.011 12.7693 30.6465 12.0577 30.3025C10.6629 29.6288 9.43051 28.5737 7.78818 28.4797C7.51102 28.4642 7.59352 28.2388 7.59352 28.0894C7.59352 27.2314 7.60641 26.3747 7.61544 25.5168C8.38762 25.6031 9.16109 25.6881 9.93327 25.7744C10.2388 26.0488 10.5701 26.1145 10.9362 25.8994C11.3281 25.9419 11.7187 25.9857 12.1106 26.0308Z" fill="#E8BE91"/>
<path d="M12.1115 26.031C11.7209 25.9872 11.329 25.9421 10.9384 25.8984C11.1975 25.4591 11.253 25.0443 10.718 24.7802C10.5066 24.6758 10.2629 24.7235 10.067 24.9013C9.78336 25.1589 9.82203 25.4591 9.93419 25.7734C9.16201 25.6871 8.38854 25.6021 7.61635 25.5158C7.60733 24.8523 7.59959 24.1902 7.58799 23.5268C7.58541 23.3503 7.63182 23.1995 7.72851 23.0462C9.05372 20.9297 11.9529 20.6643 13.6004 22.5348C13.884 22.8582 14.1986 23.0578 14.5931 23.188C16.0511 23.6685 17.5052 24.1567 18.9593 24.6514C19.3641 24.7892 19.7663 24.9476 20.0409 25.3032C20.367 25.727 20.4702 26.1908 20.2098 26.679C19.9532 27.1569 19.5394 27.3965 18.9915 27.3321C18.7195 27.2999 18.4501 27.2175 18.1871 27.135C16.5603 26.6236 14.9334 26.1161 13.3117 25.5866C12.7715 25.4101 12.3423 25.4282 12.1115 26.031Z" fill="#FBD9A9"/>
<path d="M3.84344 27.1116C3.84344 28.0764 3.82668 29.0426 3.85117 30.0075C3.86149 30.4029 3.73515 30.5395 3.3381 30.5189C2.78121 30.4905 2.22173 30.5008 1.66354 30.5163C1.38767 30.524 1.28712 30.4287 1.28841 30.1479C1.29614 28.1099 1.29872 26.072 1.28712 24.034C1.28583 23.721 1.44181 23.6939 1.68545 23.6978C2.26556 23.7068 2.84566 23.7184 3.42448 23.6939C3.78156 23.6785 3.85375 23.8331 3.8486 24.1512C3.83442 25.138 3.84344 26.1248 3.84344 27.1116Z" fill="#3686C4"/>
<path d="M5.14916 26.4909C5.14916 25.6986 5.18139 24.9051 5.13756 24.1154C5.1092 23.6079 5.4173 23.698 5.70478 23.7019C5.98709 23.7058 6.30164 23.5963 6.29261 24.109C6.26554 25.6922 6.26554 27.2767 6.29261 28.8599C6.30164 29.361 6.00127 29.2786 5.70993 29.2773C5.42504 29.276 5.11307 29.3739 5.13885 28.8663C5.17881 28.0767 5.14916 27.2831 5.14916 26.4909Z" fill="#F7FAFC"/>
<path d="M22.1422 8.04347C22.5934 7.89403 22.9402 8.01255 23.1619 8.44539C23.1697 8.94393 22.957 9.31236 22.4297 9.24923C21.8844 9.18353 21.8174 8.74812 21.9205 8.2805C21.9605 8.23155 21.9992 8.18259 22.0391 8.13364C22.0739 8.10401 22.1087 8.07438 22.1422 8.04347Z" fill="#070B08"/>
<path d="M22.0395 8.13379C21.9995 8.18274 21.9609 8.23169 21.9209 8.28065C21.9609 8.23169 22.0008 8.18274 22.0395 8.13379Z" fill="#E8BE91"/>
<path d="M9.93378 25.772C9.82163 25.4576 9.78296 25.1575 10.0666 24.8999C10.2625 24.7221 10.5049 24.6744 10.7176 24.7788C11.2526 25.0428 11.1958 25.4576 10.938 25.8969C10.5706 26.1121 10.2393 26.0477 9.93378 25.772Z" fill="#070B08"/>
</svg>
