<svg width="35" height="39" viewBox="0 0 35 39" fill="none" xmlns="http://www.w3.org/2000/svg">
<path d="M17.2161 38.9999C12.4862 38.9999 7.7578 38.9999 3.0279 38.9999C1.84619 38.9999 1.70115 38.8597 1.70115 37.7059C1.69962 33.6698 1.69046 29.6352 1.71336 25.599C1.71641 25.029 1.67214 24.7394 0.969827 24.7775C0.0873593 24.8263 -0.225626 24.2791 0.166751 23.4926C0.989675 21.8388 1.84924 20.2018 2.66606 18.545C2.93629 17.9947 3.35463 17.8865 3.90884 17.888C7.49367 17.9017 11.08 17.8941 14.6649 17.8941C19.9536 17.8941 25.2423 17.9063 30.531 17.8804C31.2653 17.8774 31.6898 18.1075 32.0089 18.7827C32.7325 20.3161 33.5387 21.8098 34.3066 23.3219C34.7998 24.2943 34.525 24.8141 33.4608 24.7805C32.8577 24.7607 32.8364 25.0153 32.8394 25.4862C32.8547 29.5467 32.8486 33.6088 32.8486 37.6693C32.8486 38.8765 32.7219 38.9999 31.4806 38.9999C26.7263 38.9999 21.9704 38.9999 17.2161 38.9999ZM16.5092 22.2344C16.5092 22.1937 16.4818 22.1583 16.4422 22.1489C16.4029 22.1395 16.3619 22.1581 16.3432 22.1939C16.0786 22.6998 15.7757 23.1922 15.5687 23.7212C15.2466 24.5443 14.7214 24.8339 13.819 24.8202C10.4892 24.7668 7.15931 24.8064 3.82945 24.7912C3.39585 24.7897 3.21111 24.8552 3.21416 25.3582C3.23707 29.2145 3.23249 33.0723 3.21722 36.9285C3.21569 37.3523 3.32562 37.4833 3.76227 37.4818C7.82956 37.465 11.8969 37.4666 15.9641 37.4818C16.3886 37.4833 16.529 37.3751 16.5184 36.9377C16.4893 35.796 16.5184 34.6544 16.5046 33.5128C16.497 32.9579 16.6665 32.5068 17.2695 32.5037C17.8711 32.5007 18.0512 32.9473 18.0436 33.5036C18.0298 34.6193 18.0634 35.7366 18.0283 36.8523C18.0131 37.3431 18.1444 37.4864 18.6512 37.4833C22.6681 37.462 26.6835 37.462 30.7004 37.4818C31.192 37.4849 31.3356 37.3629 31.3325 36.8584C31.3111 33.0524 31.3081 29.2465 31.334 25.4405C31.3371 24.8887 31.1646 24.782 30.65 24.7851C27.2698 24.808 23.888 24.7805 20.5078 24.8095C19.7963 24.8156 19.3703 24.5763 19.0925 23.9254C18.8583 23.3773 18.068 23.5503 18.0541 24.1462C18.039 24.79 18.0398 25.4262 18.0436 26.0624C18.0466 26.6142 17.9764 27.1309 17.2802 27.1339C16.5855 27.137 16.5046 26.6263 16.5077 26.07C16.5152 24.7944 16.5094 23.5145 16.5092 22.2344ZM8.06774 23.2716C9.87084 23.2716 11.6739 23.2548 13.477 23.2837C13.9244 23.2914 14.161 23.1496 14.3488 22.7518C14.7916 21.8144 15.2634 20.8892 15.755 19.9762C15.9855 19.5479 15.926 19.4183 15.4237 19.4199C11.7671 19.4321 8.11049 19.4321 4.45389 19.4183C4.06304 19.4168 3.86151 19.5555 3.69815 19.8924C3.23554 20.848 2.75614 21.7976 2.25536 22.7335C2.0294 23.1557 2.07673 23.2868 2.58361 23.2822C4.41114 23.2578 6.2402 23.2716 8.06774 23.2716ZM26.4011 23.2716C28.2546 23.2716 30.1096 23.2594 31.9631 23.2792C32.4532 23.2837 32.5341 23.1725 32.3005 22.7366C31.786 21.7793 31.302 20.8038 30.8195 19.8299C30.6821 19.5509 30.5126 19.4183 30.1798 19.4199C26.4713 19.4305 22.7643 19.429 19.0558 19.4229C18.6558 19.4229 18.5566 19.5159 18.7627 19.9C19.2879 20.8816 19.8039 21.8693 20.2742 22.8783C20.4574 23.27 20.7261 23.2776 21.0681 23.2761C22.8468 23.267 24.6239 23.2716 26.4011 23.2716Z" fill="#070706"/>
<path d="M25.0974 7.81163C25.102 12.1435 21.5889 15.669 17.2697 15.6659C12.9505 15.6644 9.43899 12.1328 9.4512 7.80248C9.46189 3.49657 12.9414 0.0106939 17.2407 2.44274e-05C21.5874 -0.0106451 25.0929 3.47524 25.0974 7.81163ZM23.5661 7.82382C23.5661 4.33489 20.7569 1.52272 17.2728 1.52424C13.7918 1.52424 10.981 4.34251 10.9841 7.82992C10.9856 11.3097 13.8116 14.1417 17.2789 14.1402C20.7477 14.1371 23.5646 11.3082 23.5661 7.82382Z" fill="#060605"/>
<path d="M29.165 5.06775C29.04 5.13315 28.884 5.10808 28.7493 5.06611C28.5151 4.99317 28.3364 4.85584 28.2612 4.59372C28.1604 4.24315 28.2261 3.9063 28.5528 3.72797C29.707 3.09999 30.8704 2.48573 32.0445 1.89738C32.3835 1.7282 32.7025 1.89891 32.8964 2.2007C33.1132 2.53603 33.1132 2.96434 32.7789 3.15486C31.5956 3.83009 30.3742 4.43825 29.165 5.06775Z" fill="#080808"/>
<path d="M5.97075 4.99384C5.72572 5.12654 5.41168 5.12383 5.16352 4.99708C4.08716 4.43769 3.01079 3.87678 1.94511 3.29758C1.52526 3.06894 1.40006 2.6757 1.61839 2.26263C1.83519 1.85109 2.20924 1.72458 2.65048 1.95474C3.74822 2.52937 4.84749 3.09943 5.93759 3.68625C6.29791 3.87983 6.39715 4.21363 6.28722 4.59773C6.23248 4.78858 6.12136 4.91228 5.97075 4.99384Z" fill="#070707"/>
<path d="M2.40308 13.785C2.31146 13.8242 2.20433 13.8007 2.1082 13.7745C1.85533 13.7054 1.65153 13.5656 1.56795 13.2896C1.46413 12.9451 1.52367 12.6052 1.85498 12.4254C3.00921 11.7989 4.1726 11.1846 5.34515 10.5933C5.68715 10.421 6.00777 10.5887 6.20014 10.8874C6.41236 11.2151 6.42762 11.6282 6.08563 11.8416C4.90697 12.5763 3.66877 13.2088 2.40308 13.785Z" fill="#080808"/>
<path d="M33.0163 13.0046C33.0422 13.5655 32.5216 13.9771 31.9918 13.7225C30.83 13.1662 29.6956 12.5535 28.5658 11.9331C28.1704 11.7167 28.1139 11.3082 28.3169 10.9393C28.52 10.572 28.8727 10.4135 29.2864 10.6269C30.4101 11.2045 31.5308 11.7898 32.6438 12.3858C32.8743 12.5077 33.0239 12.7181 33.0163 13.0046Z" fill="#070707"/>
<path d="M3.92009 8.58006C3.38725 8.58006 2.85288 8.59073 2.32005 8.57701C1.84828 8.56482 1.54292 8.33009 1.53529 7.83624C1.52766 7.33782 1.84675 7.07718 2.3002 7.06499C3.39183 7.03603 4.48499 7.03603 5.5751 7.06651C6.03313 7.08023 6.34153 7.35612 6.32168 7.85301C6.30336 8.34686 5.99038 8.57092 5.51861 8.58006C4.98577 8.58921 4.45293 8.58006 3.92009 8.58006Z" fill="#080808"/>
<path d="M30.6383 8.58276C30.1054 8.58276 29.5711 8.58886 29.0382 8.57971C28.5695 8.57209 28.2474 8.35718 28.2275 7.86181C28.2061 7.32223 28.5497 7.06921 29.0397 7.05854C30.081 7.03416 31.1222 7.03721 32.1635 7.0555C32.646 7.06464 33.0139 7.2826 33.0124 7.82675C33.0108 8.36785 32.6597 8.57666 32.162 8.58276C31.6551 8.58733 31.1467 8.58276 30.6383 8.58276Z" fill="#090909"/>
<path d="M16.4375 22.1485C16.4804 22.1569 16.5095 22.1955 16.5095 22.2392C16.5097 23.5177 16.5154 24.7975 16.5064 26.0759C16.5034 26.6307 16.5828 27.1428 17.279 27.1398C17.9752 27.1367 18.0469 26.62 18.0424 26.0683C18.0386 25.4321 18.0378 24.7959 18.0528 24.1521C18.0667 23.5578 18.8577 23.3846 19.0912 23.9313C19.3691 24.5806 19.7951 24.8215 20.5065 24.8154C23.8868 24.7864 27.2686 24.8138 30.6488 24.791C31.1633 24.7879 31.3374 24.8931 31.3328 25.4464C31.3068 29.2524 31.3099 33.0583 31.3313 36.8643C31.3343 37.3673 31.1923 37.4892 30.6992 37.4877C26.6823 37.4679 22.6669 37.4664 18.65 37.4892C18.1431 37.4923 18.0118 37.349 18.0271 36.8582C18.0637 35.7425 18.0286 34.6252 18.0424 33.5095C18.05 32.9531 17.8698 32.5066 17.2683 32.5096C16.6652 32.5126 16.4957 32.9638 16.5034 33.5186C16.5186 34.6603 16.4881 35.8034 16.5171 36.9435C16.5278 37.381 16.3873 37.4892 15.9629 37.4877C11.8956 37.4724 7.82832 37.4724 3.76103 37.4877C3.32438 37.4892 3.21445 37.3581 3.21598 36.9344C3.23125 33.0781 3.23583 29.2203 3.21293 25.3641C3.20987 24.8596 3.39461 24.794 3.82821 24.7971C7.15808 24.8123 10.4879 24.7742 13.8178 24.826C14.7201 24.8397 15.2453 24.5501 15.5675 23.7271C15.775 23.1966 16.0777 22.7029 16.344 22.1955C16.362 22.1613 16.3996 22.141 16.4375 22.1485ZM8.59018 33.3068C7.88176 33.3068 7.17334 33.2976 6.46493 33.3098C6.00079 33.3174 5.67712 33.5323 5.6588 34.0277C5.63895 34.5658 5.98094 34.8203 6.46798 34.8279C7.85886 34.8493 9.25126 34.8462 10.6421 34.831C11.1261 34.8264 11.488 34.5993 11.4864 34.0613C11.4849 33.5232 11.1338 33.3129 10.6376 33.3068C9.95663 33.2991 9.27417 33.3052 8.59018 33.3068ZM17.7148 29.2119C17.4365 29.0408 17.0543 29.0413 16.7912 29.235C16.6212 29.3601 16.5194 29.5555 16.5248 29.8376C16.5324 30.3163 16.8393 30.5952 17.3019 30.5845C17.7263 30.5738 18.0133 30.2995 18.0271 29.859C18.0358 29.5542 17.9259 29.3416 17.7148 29.2119Z" fill="#F2D27E"/>
<path d="M8.06707 23.2718C6.23802 23.2718 4.41048 23.2596 2.58142 23.2794C2.07454 23.2855 2.02721 23.1529 2.25317 22.7307C2.75548 21.7948 3.23335 20.8453 3.69596 19.8896C3.85932 19.5527 4.06086 19.414 4.45171 19.4155C8.1083 19.4308 11.7649 19.4308 15.4215 19.4171C15.9238 19.4155 15.9849 19.5451 15.7528 19.9734C15.2612 20.8864 14.7879 21.8101 14.3466 22.749C14.1588 23.1483 13.9222 23.2886 13.4749 23.281C11.6748 23.255 9.87018 23.2718 8.06707 23.2718Z" fill="#F6ECD4"/>
<path d="M26.4011 23.2712C24.624 23.2712 22.8453 23.2666 21.0681 23.2742C20.7261 23.2758 20.4574 23.2697 20.2742 22.8764C19.804 21.8674 19.2879 20.8797 18.7627 19.8981C18.5566 19.514 18.6559 19.4195 19.0559 19.421C22.7644 19.4271 26.4713 19.4287 30.1798 19.418C30.5111 19.4165 30.6806 19.5491 30.8196 19.828C31.302 20.8035 31.786 21.7775 32.3005 22.7347C32.5356 23.1706 32.4532 23.2834 31.9631 23.2773C30.1096 23.259 28.2561 23.2712 26.4011 23.2712Z" fill="#F6ECD4"/>
<path d="M23.5664 7.824C23.5664 11.3084 20.7495 14.1373 17.2792 14.1403C13.8119 14.1434 10.9859 11.3099 10.9844 7.83009C10.9813 4.34269 13.7921 1.52441 17.2716 1.52441C20.7572 1.52289 23.5664 4.33507 23.5664 7.824ZM14.7943 7.76738C14.519 7.61559 14.1628 7.592 13.9047 7.77136C13.8007 7.84365 13.7192 7.94219 13.6654 8.07092C13.5112 8.43826 13.6089 8.76444 13.9173 9.02356C14.499 9.51435 15.0776 10.0097 15.6624 10.4959C16.2822 11.0111 16.6227 10.9959 17.1372 10.3877C18.2853 9.0327 19.4182 7.66548 20.5617 6.3074C20.9144 5.88977 21.2106 5.43555 20.6839 4.99201C20.119 4.51645 19.7205 4.92037 19.3556 5.36087C18.5312 6.3577 17.6441 7.30881 16.8807 8.34985C16.4059 8.99764 16.0838 8.97173 15.5677 8.44435C15.3316 8.20233 15.0941 7.93271 14.7943 7.76738Z" fill="#CEE063"/>
<path d="M8.58985 33.3055C9.27232 33.3055 9.9563 33.2994 10.6388 33.3071C11.135 33.3116 11.4861 33.5235 11.4876 34.0615C11.4892 34.5996 11.1273 34.8252 10.6433 34.8313C9.25247 34.8465 7.86006 34.8496 6.46918 34.8282C5.98215 34.8206 5.64015 34.5661 5.66 34.028C5.67832 33.5326 6.00199 33.3177 6.46613 33.3101C7.17302 33.2979 7.88144 33.3071 8.58985 33.3055Z" fill="#090805"/>
<path d="M16.7904 29.2363C17.0537 29.0418 17.4368 29.0411 17.7155 29.2128C17.926 29.3424 18.0356 29.5545 18.0269 29.8579C18.0132 30.2984 17.7262 30.5728 17.3017 30.5834C16.8376 30.5956 16.5322 30.3167 16.5246 29.8366C16.5193 29.556 16.621 29.3613 16.7904 29.2363Z" fill="#0E0D08"/>
<path d="M13.897 7.77681C14.1579 7.59052 14.5226 7.61446 14.8025 7.77074C15.0985 7.936 15.3341 8.20214 15.5691 8.44191C16.0836 8.96929 16.4073 8.9952 16.8821 8.34741C17.6455 7.30637 18.5325 6.35526 19.357 5.35842C19.7219 4.91792 20.1219 4.51248 20.6853 4.98956C21.212 5.43311 20.9158 5.88732 20.5631 6.30496C19.4181 7.66303 18.2867 9.03178 17.1386 10.3853C16.6241 10.9934 16.2821 11.0087 15.6637 10.4935C15.079 10.0058 14.5004 9.51191 13.9187 9.02111C13.6103 8.76199 13.5125 8.43581 13.6667 8.06847C13.7186 7.94435 13.7969 7.84831 13.897 7.77681Z" fill="#060703"/>
</svg>
