<svg width="43" height="39" viewBox="0 0 43 39" fill="none" xmlns="http://www.w3.org/2000/svg">
<g clip-path="url(#clip0_4515_4683)">
<path d="M29.7427 1.48531C29.605 0.716305 30.1863 0.571084 30.7274 0.407711C35.3515 -0.986737 40.3151 1.29554 42.2423 5.69836C44.1478 10.0533 42.3465 15.1856 38.1072 17.4975C37.1696 18.0091 36.1664 18.3293 35.1247 18.552C34.2778 18.5917 33.4326 18.6329 32.5858 18.6725C29.9427 18.2814 27.6995 17.1774 26.0293 15.0799C25.7806 14.7681 25.5706 14.8968 25.3135 15.0271C23.2031 16.0882 21.091 17.146 18.9755 18.1956C18.6815 18.3408 18.4966 18.4926 18.4983 18.8672C18.5202 24.9038 18.5269 30.9404 18.537 36.9769C18.379 37.8416 18.8579 37.4885 19.2158 37.3103C23.8114 35.0131 28.3952 32.6946 33.0025 30.4238C34.056 29.9057 34.5349 29.1845 34.5097 28.026C34.466 25.8609 34.4996 23.6958 34.4963 21.5291C34.4946 21.0422 34.5063 20.5752 35.1264 20.4399C35.6372 20.534 35.78 20.8591 35.7766 21.336C35.7649 23.7272 35.7917 26.1184 35.7615 28.5096C35.7464 29.7258 35.1818 30.6862 34.0627 31.2506C29.1462 33.7276 24.2213 36.1914 19.2965 38.6519C18.3639 39.1173 17.4045 39.1123 16.4736 38.647C11.547 36.1881 6.62212 33.726 1.7073 31.2473C0.591597 30.6846 0.0186224 29.7258 0.0152618 28.5046C-0.00154096 22.6496 -0.00154096 16.7962 0.0135815 10.9412C0.0169421 9.68863 0.618482 8.7249 1.74595 8.12751C6.58515 5.56305 11.4328 3.01343 16.2753 0.452268C17.3776 -0.130265 18.4496 -0.113763 19.5468 0.477021C21.4573 1.50347 23.3896 2.48866 25.295 3.5217C25.7134 3.74944 25.9672 3.76264 26.2444 3.34678C26.441 3.05304 26.7367 2.82366 26.977 2.55632C27.3702 2.11735 27.8003 2.02164 28.2994 2.38304C28.4372 2.88801 28.1347 3.18836 27.8037 3.5085C25.2094 6.02676 24.5372 9.66718 26.0697 12.8158C27.6189 15.9991 30.9374 17.7533 34.6105 17.3259C34.7466 17.3424 34.8777 17.3457 34.9701 17.222L34.96 17.2335C35.2339 17.1923 35.5162 17.1774 35.7817 17.1048C39.8009 15.9942 42.3684 11.9528 41.6206 7.92453C41.0023 4.59766 38.2231 1.84342 35.0928 1.45561L35.0474 1.47706C34.9566 1.44406 34.8642 1.4094 34.7735 1.3764C33.441 1.08431 32.1388 1.26088 30.8685 1.68169C30.4182 1.83681 30.0687 1.81371 29.7427 1.48531ZM24.8783 5.31881C25.2984 4.8914 24.9523 4.72473 24.6112 4.5465C22.7007 3.54481 20.7953 2.53156 18.8781 1.54307C18.4983 1.34669 18.0984 1.10081 17.6313 1.33514C17.2398 1.29719 16.939 1.51667 16.6215 1.68334C12.0494 4.09434 7.4757 6.50863 2.90366 8.92457C2.6533 9.05659 2.4147 9.21336 2.06352 9.42129C3.85806 10.3223 5.51481 11.1623 7.17997 11.9907C10.5893 13.6855 14.0036 15.3753 17.4145 17.0668C17.6985 17.3424 17.9993 17.3012 18.3269 17.1361C20.434 16.08 22.5444 15.0304 24.6515 13.9759C24.8918 13.8555 25.2312 13.7548 24.8901 13.3951C23.7173 10.7035 23.7122 8.01199 24.8783 5.31881ZM15.4486 17.5619C10.9303 15.2879 6.40704 13.0205 1.89717 10.7316C1.24691 10.4015 1.27211 10.7646 1.27211 11.1936C1.27379 16.9035 1.27379 22.6149 1.27379 28.3247C1.27379 29.2406 1.68882 29.8743 2.53064 30.2869C4.52849 31.2671 6.50786 32.2803 8.50067 33.2688C10.8144 34.4174 13.1332 35.5544 15.4486 36.6964C15.7611 36.8697 16.067 37.0545 16.3862 37.2162C17.27 37.6634 17.2734 37.6585 17.2734 36.6502C17.2734 31.1912 17.1978 25.7289 17.3221 20.2732C17.3557 18.7385 16.8769 17.9316 15.4486 17.5619Z" fill="#060606"/>
<path d="M34.6074 17.3293C30.9343 17.7567 27.6158 16.0025 26.0665 12.8192C24.5341 9.67053 25.2062 6.02846 27.8006 3.51185C28.1316 3.19006 28.4341 2.89136 28.2963 2.38639C28.6794 1.93093 29.2053 1.69989 29.743 1.48701C30.069 1.81541 30.4185 1.83851 30.8654 1.68999C32.134 1.26918 33.4362 1.09261 34.7704 1.3847C34.8611 1.4177 34.9535 1.45236 35.0443 1.48536C35.0443 1.48536 35.0896 1.46391 35.0913 1.46391C35.8122 2.14546 36.6893 2.62568 37.4 3.33693C40.6312 6.57304 40.6245 12.1409 37.3832 15.3935C36.6506 16.1279 35.713 16.5586 34.9586 17.2402L34.9687 17.2286C34.8258 17.1906 34.7015 17.2088 34.6074 17.3293ZM38.4032 6.3123C38.3427 5.67366 37.9999 5.04657 37.237 4.70662C36.4389 4.35017 35.708 4.50364 35.0695 5.07462C34.5553 5.53504 34.0916 6.34366 33.5438 6.39811C32.9019 6.46412 32.4953 5.54494 31.9559 5.08453C31.0704 4.32707 29.9547 4.33037 29.1717 5.11423C28.387 5.89809 28.3904 6.99055 29.1952 7.84372C29.575 8.24638 29.9715 8.63418 30.3798 9.00878C30.647 9.25467 30.6369 9.4428 30.3748 9.68373C29.9463 10.0781 29.5246 10.4808 29.1331 10.9082C28.3887 11.7218 28.4173 12.8307 29.1767 13.5783C29.9278 14.3176 31.0738 14.3522 31.9022 13.6443C32.218 13.3737 32.5356 13.0948 32.7893 12.7713C33.2665 12.1591 33.6832 12.0667 34.1924 12.7449C34.4545 13.0948 34.8006 13.3902 35.1384 13.674C35.9382 14.3456 37.0673 14.306 37.8016 13.6047C38.5577 12.8819 38.6014 11.7383 37.8923 10.928C37.6924 10.7003 37.4622 10.4973 37.2454 10.2828C36.2927 9.34543 36.286 9.33883 37.2606 8.39655C37.8235 7.85197 38.4048 7.32885 38.4032 6.3123Z" fill="#D84854"/>
<path d="M32.5857 18.6742C33.4325 18.6346 34.2777 18.5933 35.1246 18.5537C35.1246 19.1825 35.1263 19.8128 35.1263 20.4416C34.5079 20.5769 34.4962 21.0439 34.4962 21.5307C34.4995 23.6958 34.4659 25.8626 34.5096 28.0277C34.5331 29.1862 34.0542 29.9057 33.0024 30.4255C28.3934 32.6962 23.8096 35.0148 19.2157 37.3119C18.8578 37.4918 18.3789 37.8433 18.5369 36.9786C18.5638 36.9736 18.594 36.9753 18.6192 36.9637C22.8955 35 27.0492 32.7985 31.2499 30.6879C32.1169 30.2522 32.6092 29.4535 32.5991 28.3908C32.5672 25.153 32.5857 21.9136 32.5857 18.6742Z" fill="#8CB6E7"/>
<path d="M15.4471 36.6981C13.13 35.5562 10.8113 34.4191 8.4992 33.2706C6.50639 32.2804 4.52702 31.2672 2.52917 30.2886C1.68735 29.876 1.27232 29.2424 1.27232 28.3265C1.27232 22.6167 1.27232 16.9052 1.27064 11.1954C1.27064 10.7663 1.24543 10.4033 1.8957 10.7333C6.40557 13.0239 10.9289 15.2896 15.4471 17.5636C15.4471 23.9402 15.4471 30.3183 15.4471 36.6981Z" fill="#8CB6E7"/>
<path d="M32.5857 18.6742C32.5857 21.9136 32.5672 25.153 32.5975 28.3908C32.6076 29.4535 32.1152 30.2522 31.2482 30.6879C27.0475 32.7985 22.8939 35 18.6176 36.9637C18.5924 36.9753 18.5621 36.9736 18.5352 36.9786C18.5252 30.942 18.5184 24.9055 18.4966 18.8689C18.4949 18.4943 18.6797 18.3425 18.9738 18.1973C21.0893 17.1477 23.2014 16.0883 25.3118 15.0288C25.5689 14.8984 25.7789 14.7697 26.0276 15.0816C27.6995 17.1807 29.9426 18.2831 32.5857 18.6742Z" fill="#8CB6E7"/>
<path d="M17.4162 17.0652C14.0035 15.3737 10.5909 13.6855 7.17992 11.9891C5.51645 11.1623 3.85801 10.3223 2.06348 9.41964C2.41465 9.21171 2.65157 9.05494 2.90362 8.92292C7.47565 6.50863 12.0494 4.09433 16.6231 1.68334C16.939 1.51667 17.2414 1.29719 17.6329 1.33514C17.7069 1.52822 17.8665 1.62558 18.0446 1.718C20.3247 2.91607 22.6015 4.11744 24.8783 5.31881C23.7122 8.01199 23.7155 10.7035 24.8917 13.3918C24.6078 13.5007 24.3137 13.5881 24.0432 13.7218C21.8269 14.8225 19.572 15.8506 17.4162 17.0652Z" fill="#6298DE"/>
<path d="M15.4468 36.6981C15.4468 30.32 15.4485 23.9402 15.4485 17.562C16.8767 17.9333 17.3556 18.7386 17.3203 20.2733C17.1959 25.7307 17.2716 31.1913 17.2716 36.6503C17.2716 37.6602 17.2682 37.6635 16.3844 37.2163C16.0651 37.0562 15.7576 36.8714 15.4468 36.6981Z" fill="#8CB6E7"/>
<path d="M34.9565 17.2384C35.711 16.5569 36.6503 16.1278 37.3812 15.3918C40.6208 12.1392 40.6292 6.56964 37.398 3.33517C36.6872 2.62392 35.8101 2.14205 35.0893 1.46216C38.2196 1.84831 40.9988 4.60256 41.6172 7.92943C42.3649 11.9577 39.7974 15.9991 35.7782 17.1097C35.5127 17.1823 35.2304 17.1955 34.9565 17.2384Z" fill="#D42E3B"/>
<path d="M24.8782 5.3188C22.5997 4.11743 20.3229 2.91441 18.0445 1.71799C17.8664 1.62557 17.7067 1.52821 17.6328 1.33513C18.0999 1.1008 18.4998 1.34668 18.8796 1.54306C20.7968 2.5332 22.7005 3.5448 24.6127 4.54649C24.9538 4.72637 25.2982 4.89139 24.8782 5.3188Z" fill="#6298DE"/>
<path d="M17.4165 17.0651C19.574 15.8505 21.8272 14.8224 24.0435 13.7234C24.314 13.5897 24.6081 13.5022 24.8921 13.3933C25.2315 13.7531 24.8921 13.8537 24.6535 13.9742C22.5464 15.0303 20.436 16.0782 18.3289 17.1344C18.0012 17.2994 17.7005 17.3407 17.4165 17.0651Z" fill="#6298DE"/>
<path d="M34.6074 17.3293C34.7015 17.2088 34.8259 17.1907 34.967 17.2253C34.8746 17.3491 34.7435 17.3475 34.6074 17.3293Z" fill="#D42E3B"/>
<path d="M35.0424 1.48372C34.9517 1.45072 34.861 1.41606 34.7686 1.38306C34.861 1.41606 34.9517 1.44907 35.0424 1.48372Z" fill="#D42E3B"/>
<path d="M38.4032 6.31233C38.4049 7.32887 37.8235 7.852 37.2606 8.39657C36.2861 9.33886 36.2928 9.34381 37.2455 10.2828C37.4623 10.4957 37.6925 10.7003 37.8924 10.928C38.5998 11.7383 38.5561 12.8819 37.8017 13.6047C37.0674 14.3061 35.9399 14.3457 35.1384 13.674C34.799 13.3902 34.4546 13.0931 34.1924 12.7449C33.6833 12.0667 33.2666 12.1608 32.7894 12.7713C32.5374 13.0948 32.2181 13.3753 31.9022 13.6443C31.0738 14.3539 29.9279 14.3176 29.1768 13.5783C28.4173 12.8308 28.3871 11.7218 29.1331 10.9082C29.5246 10.4808 29.9464 10.0765 30.3748 9.68376C30.637 9.44282 30.6487 9.2547 30.3799 9.00881C29.9716 8.63421 29.575 8.2464 29.1953 7.84374C28.3904 6.98892 28.3871 5.89812 29.1718 5.11426C29.9548 4.33204 31.0705 4.32874 31.956 5.08455C32.4937 5.54497 32.9003 6.4625 33.5438 6.39814C34.0933 6.34203 34.5554 5.53507 35.0695 5.07465C35.708 4.50367 36.439 4.3502 37.2371 4.70665C37.9999 5.04495 38.3444 5.67369 38.4032 6.31233ZM37.1262 12.2697C37.1632 11.9578 36.9716 11.7565 36.7717 11.5601C36.2188 11.0155 35.6744 10.4643 35.1099 9.93294C34.6764 9.52203 34.6831 9.15073 35.1166 8.74312C35.6812 8.21175 36.2222 7.65727 36.7784 7.11599C37.1363 6.76779 37.3312 6.37999 36.9027 5.98228C36.481 5.59117 36.0911 5.79415 35.7417 6.144C35.2325 6.65227 34.6932 7.13414 34.2059 7.66222C33.727 8.18039 33.3103 8.22 32.8146 7.68367C32.3072 7.13579 31.7543 6.63082 31.22 6.1077C30.8588 5.75455 30.4538 5.60273 30.0606 6.02189C29.701 6.40639 29.8758 6.77439 30.2085 7.09949C30.7243 7.60116 31.2116 8.13584 31.756 8.60615C32.371 9.13753 32.3273 9.58309 31.7342 10.0947C31.2318 10.527 30.7831 11.0221 30.3043 11.4825C29.938 11.8357 29.6406 12.2235 30.0774 12.6822C30.5244 13.1492 30.926 12.8704 31.2906 12.5073C31.7997 11.999 32.3324 11.5122 32.8264 10.9891C33.2851 10.5039 33.6917 10.4808 34.1639 10.9742C34.7167 11.5551 35.3048 12.103 35.8811 12.6624C36.118 12.8935 36.3986 12.9958 36.7179 12.8456C36.9548 12.7317 37.1094 12.542 37.1262 12.2697Z" fill="#080606"/>
<path d="M37.1258 12.2695C37.109 12.5434 36.9544 12.7315 36.7141 12.8438C36.3948 12.9939 36.1142 12.8916 35.8773 12.6606C35.301 12.1011 34.7146 11.5516 34.1601 10.9724C33.6896 10.479 33.2813 10.5004 32.8226 10.9872C32.3286 11.5104 31.7976 11.9972 31.2868 12.5055C30.9222 12.8685 30.5206 13.1474 30.0736 12.6804C29.6351 12.2233 29.9342 11.8338 30.3005 11.4807C30.7794 11.0202 31.2263 10.5252 31.7304 10.0928C32.3235 9.58124 32.3689 9.13568 31.7522 8.6043C31.2078 8.13399 30.7205 7.60096 30.2047 7.09764C29.872 6.77254 29.6956 6.40454 30.0568 6.02003C30.45 5.60087 30.855 5.75105 31.2162 6.10585C31.7506 6.62897 32.3034 7.13394 32.8108 7.68182C33.3065 8.21815 33.7249 8.17854 34.2021 7.66037C34.6894 7.13229 35.2287 6.65042 35.7379 6.14215C36.0874 5.7923 36.4789 5.58932 36.8989 5.98043C37.3274 6.37814 37.1325 6.76594 36.7746 7.11414C36.2184 7.65542 35.6774 8.2099 35.1128 8.74127C34.6793 9.14888 34.6726 9.52183 35.1061 9.93109C35.669 10.4641 36.2151 11.0153 36.7679 11.5582C36.9712 11.7563 37.1611 11.9576 37.1258 12.2695Z" fill="#EAE8EA"/>
</g>
<defs>
<clipPath id="clip0_4515_4683">
<rect width="43" height="39" fill="white"/>
</clipPath>
</defs>
</svg>
