<svg width="25" height="31" viewBox="0 0 25 31" fill="none" xmlns="http://www.w3.org/2000/svg">
<path d="M22.5962 3.84615H17.3077V2.88462C17.3077 1.29147 16.0162 0 14.4231 0H10.5769C8.98377 0 7.69231 1.29147 7.69231 2.88462V3.84615H2.40385C1.07626 3.84615 0 4.92242 0 6.25V8.17308C0 8.70415 0.430469 9.13462 0.961538 9.13462H24.0385C24.5695 9.13462 25 8.70415 25 8.17308V6.25C25 4.92242 23.9237 3.84615 22.5962 3.84615ZM9.61538 2.88462C9.61538 2.35457 10.0469 1.92308 10.5769 1.92308H14.4231C14.9531 1.92308 15.3846 2.35457 15.3846 2.88462V3.84615H9.61538V2.88462Z" fill="#FFBB38"/>
<path d="M1.82488 11.0576C1.65331 11.0576 1.51659 11.201 1.52476 11.3724L2.31803 28.0216C2.39135 29.5624 3.65697 30.7692 5.19904 30.7692H19.8012C21.3433 30.7692 22.6089 29.5624 22.6822 28.0216L23.4755 11.3724C23.4837 11.201 23.3469 11.0576 23.1754 11.0576H1.82488ZM16.3463 13.4615C16.3463 12.9302 16.7766 12.4999 17.3078 12.4999C17.8391 12.4999 18.2694 12.9302 18.2694 13.4615V25.9615C18.2694 26.4927 17.8391 26.923 17.3078 26.923C16.7766 26.923 16.3463 26.4927 16.3463 25.9615V13.4615ZM11.5386 13.4615C11.5386 12.9302 11.9689 12.4999 12.5001 12.4999C13.0314 12.4999 13.4617 12.9302 13.4617 13.4615V25.9615C13.4617 26.4927 13.0314 26.923 12.5001 26.923C11.9689 26.923 11.5386 26.4927 11.5386 25.9615V13.4615ZM6.73089 13.4615C6.73089 12.9302 7.16118 12.4999 7.69243 12.4999C8.22368 12.4999 8.65397 12.9302 8.65397 13.4615V25.9615C8.65397 26.4927 8.22368 26.923 7.69243 26.923C7.16118 26.923 6.73089 26.4927 6.73089 25.9615V13.4615Z" fill="#FFBB38"/>
</svg>
