<svg width="39" height="39" viewBox="0 0 39 39" fill="none" xmlns="http://www.w3.org/2000/svg">
<g clip-path="url(#clip0_3719_340)">
<path d="M34.4426 30.9517C34.5614 31.4224 34.374 31.6997 33.9411 31.9129C32.8741 32.4385 31.8391 33.0281 30.7706 33.549C28.9155 34.4539 26.8212 33.8659 25.8472 32.0622C25.1704 30.807 23.9434 30.4505 22.8291 29.899C22.3718 29.6736 22.5517 30.19 22.5502 30.3576C22.5319 32.2846 22.538 34.2132 22.538 36.1403C22.538 36.3429 22.5456 36.5471 22.5349 36.7497C22.4755 38.0643 21.5548 38.989 20.2394 38.9921C14.249 39.0027 8.25862 39.0043 2.26824 38.9906C0.865908 38.9875 0.00164621 38.0156 0.000121942 36.5059C0.00164621 25.8011 0.00164621 15.0964 0.00164621 4.39312C0.00164621 3.7335 -0.0029266 3.07387 0.00317048 2.41425C0.0168889 0.916771 0.922306 0.0255943 2.43591 0.0134073C2.79106 0.0103606 3.14927 0.0408281 3.50137 0.00579042C3.98761 -0.0414343 4.27265 0.158128 4.39612 0.616665C4.23455 1.06758 3.89921 1.21535 3.44193 1.19098C3.08829 1.1727 2.73162 1.17879 2.37646 1.19098C1.52134 1.2184 1.20734 1.54288 1.18143 2.4112C1.17381 2.63971 1.20582 2.87126 1.17381 3.0952C1.08083 3.74416 1.36587 3.90107 1.98472 3.89497C4.19187 3.8706 6.39901 3.91173 8.60616 3.91021C12.0297 3.90868 15.4547 3.89193 18.8782 3.88126C19.5519 4.01227 20.2333 3.91021 20.9101 3.9422C21.2256 3.95743 21.3338 3.81728 21.3674 3.50042C21.5777 1.51393 21.2195 1.1011 19.2456 1.1209C19.023 1.12243 18.7898 1.07368 18.581 1.20317C18.2761 1.19707 17.9728 1.18641 17.6679 1.18641C14.2703 1.18793 10.8682 1.18793 7.46753 1.18946C6.99653 1.18946 6.52858 1.1986 6.38682 0.601431C6.48132 0.153558 6.76026 0.00579042 7.21145 0.0073138C11.5754 0.0179774 15.9379 0.00274366 20.3019 0.0210242C21.6509 0.0271177 22.5365 1.01884 22.538 2.46909C22.5441 6.98134 22.541 11.4936 22.541 16.0058C22.541 16.248 22.541 16.4887 22.541 16.8589C23.3824 16.0119 24.2345 15.5442 25.332 15.8215C25.6216 15.8946 25.6612 15.6874 25.7542 15.5092C26.3273 14.3895 27.251 13.8929 28.4948 14.0361C28.8195 14.0727 28.9765 14.0239 29.1274 13.7055C29.5862 12.7397 30.4093 12.2994 31.458 12.2949C32.5235 12.2888 33.275 12.8067 33.7749 13.739C35.5659 17.0844 37.3539 20.4297 38.174 24.1864C38.2807 24.6723 38.5413 25.1248 38.7303 25.5924C39.4041 27.2621 38.7882 29.2029 37.3036 30.1306C36.9469 30.353 36.6146 30.4444 36.2732 30.1214C36.104 29.6553 36.3144 29.3933 36.6985 29.1267C37.8264 28.3421 38.1404 27.1006 37.5917 25.8423C37.3996 25.402 37.1603 24.9679 37.0612 24.5063C36.2732 20.8151 34.5066 17.5399 32.743 14.2646C32.1379 13.1404 30.9779 13.1129 30.2051 14.1793C29.952 14.5282 29.9749 14.877 30.1776 15.2441C30.4581 15.7545 30.7081 16.28 30.9916 16.7888C31.1943 17.1529 31.333 17.5262 30.8849 17.7684C30.3987 18.0319 30.1487 17.6922 29.952 17.2931C29.7173 16.8163 29.4673 16.3471 29.2158 15.8794C28.8363 15.1741 28.1229 14.9638 27.4263 15.3447C26.7496 15.7149 26.5346 16.3867 26.8837 17.0661C27.1382 17.5612 27.3989 18.0532 27.6641 18.5423C27.8577 18.9002 28.0147 19.2598 27.5483 19.5172C27.0331 19.8021 26.8227 19.4334 26.6276 19.048C26.4096 18.6199 26.1795 18.198 25.9539 17.7729C25.4936 16.9031 24.8671 16.6685 24.1019 17.0798C23.3763 17.4698 23.1629 18.2269 23.5638 19.0206C23.8153 19.5172 24.0882 20.0032 24.3336 20.5028C24.4814 20.8029 24.4875 21.1152 24.1537 21.2965C23.8153 21.4793 23.5166 21.4062 23.323 21.0467C23.227 20.8685 23.1309 20.6902 23.0364 20.5105C21.5335 17.6419 20.0306 14.7719 18.5292 11.9018C18.1984 11.2696 17.7167 10.9375 16.9805 11.1234C16.3418 11.2834 15.8525 11.9354 15.8693 12.5889C15.88 12.9834 16.0751 13.3125 16.2519 13.6492C17.9545 16.8985 19.6571 20.1494 21.3582 23.4003C21.5213 23.7111 21.7606 24.0234 21.4359 24.3661C21.0854 24.7363 20.7378 24.5032 20.4025 24.328C19.4834 23.8482 18.5764 23.3394 17.6451 22.8839C16.8494 22.4939 16.0309 22.8549 15.7367 23.673C15.4532 24.4621 15.7367 25.0806 16.6147 25.5163C19.2898 26.8462 21.9618 28.1822 24.6491 29.4832C25.5957 29.9417 26.3456 30.5556 26.838 31.5001C27.1382 32.0775 27.6062 32.5025 28.2769 32.6457C29.0116 32.9351 29.7112 32.8194 30.3926 32.4629C31.4016 31.9343 32.4198 31.4239 33.4198 30.877C33.7993 30.6653 34.1209 30.6348 34.4426 30.9517ZM10.7508 17.1499C8.13973 17.45 6.25116 19.5279 6.25116 22.1024C6.25116 24.6997 8.17326 26.7959 10.8179 27.0793C12.1486 27.2331 13.3162 26.8279 14.374 26.0418C14.7063 25.7951 14.8602 25.5818 14.6636 25.1034C14.1301 23.807 14.595 22.5807 15.8464 21.8724C16.1742 21.6865 16.2473 21.5296 16.1879 21.1686C15.7763 18.6763 13.2659 16.8086 10.7508 17.1499ZM18.895 32.6198C13.2399 32.6106 7.58489 32.6015 1.93137 32.5939C1.82925 32.5939 1.72865 32.6015 1.62652 32.5939C1.3049 32.568 1.17381 32.7081 1.17686 33.0341C1.18905 34.3016 1.16924 35.569 1.19667 36.835C1.20887 37.426 1.56707 37.752 2.15849 37.8099C2.20879 37.8145 2.25909 37.8176 2.31092 37.8176C7.73732 37.8084 13.1637 37.7993 18.5901 37.7901C19.1465 37.7978 19.7044 37.8236 20.2607 37.8099C20.9604 37.7932 21.3353 37.4154 21.3506 36.7146C21.3643 36.1068 21.3795 35.4974 21.3491 34.8911C21.311 34.1432 21.6935 33.1347 21.1829 32.7188C20.6586 32.2938 19.6769 32.5969 18.895 32.6198ZM18.8889 7.40941C19.6754 7.65467 20.0214 8.18633 19.9787 9.00743C19.9498 9.56194 20.0443 10.1317 19.9604 10.6755C19.7227 12.2111 20.5869 13.3399 21.2972 14.548C21.3674 11.4905 21.3643 8.44378 21.3719 5.39703C21.3735 5.06645 21.1982 5.03598 20.9406 5.04208C20.2577 5.05883 19.5748 5.06341 18.8919 5.07407C13.1576 5.06645 7.42332 5.0695 1.68901 5.03598C1.03967 5.03294 1.15857 5.39855 1.15857 5.76264C1.15704 14.0803 1.16314 22.3979 1.14485 30.714C1.14333 31.2716 1.26527 31.4376 1.84754 31.4316C5.17197 31.4011 8.49489 31.4209 11.8193 31.4148C14.1774 31.4102 16.5369 31.3919 18.895 31.3798C19.145 31.3919 19.3965 31.4148 19.6465 31.4148C21.5487 31.4194 21.5411 31.4194 21.3689 29.4847C21.3445 29.215 21.2439 29.0795 21.0183 28.9789C20.3095 28.6651 19.6038 28.3437 18.8965 28.0253C18.0902 27.6094 17.2549 27.2377 16.4866 26.7609C15.9577 26.4333 15.6361 26.4516 15.1377 26.869C13.0738 28.5981 10.1579 28.7306 7.91566 27.2773C5.71309 25.8514 4.63848 23.1642 5.27105 20.6643C6.00118 17.7775 8.52232 15.8642 11.4703 15.9586C14.3923 16.0531 16.79 18.137 17.3494 21.0695C17.3829 21.2417 17.3661 21.5174 17.4637 21.5662C18.0704 21.8739 18.7029 22.1298 19.3172 22.3994C19.4132 22.2243 19.3401 22.1496 19.2943 22.0613C18.0322 19.6193 16.7625 17.1819 15.5279 14.7277C15.2992 14.2737 15.0233 14.1488 14.531 14.1519C11.0557 14.1747 7.5788 14.1686 4.10346 14.161C3.04866 14.1595 2.55937 13.6781 2.54718 12.6361C2.53346 11.4951 2.54261 10.3541 2.54413 9.21309C2.54718 7.79482 2.9313 7.40941 4.34887 7.40941C9.19757 7.40941 14.0432 7.40941 18.8889 7.40941ZM3.67819 10.7334C3.67819 11.291 3.69648 11.8485 3.67209 12.4046C3.6538 12.8144 3.76964 12.9941 4.2193 12.9926C7.53917 12.9789 10.8606 12.9819 14.1804 12.9911C14.5279 12.9926 14.6331 12.8997 14.6621 12.5264C14.8206 10.4851 16.4744 9.4553 18.3691 10.182C18.4956 10.2307 18.6968 10.415 18.7578 10.2566C18.9316 9.80111 18.8584 9.30601 18.8096 8.83377C18.7669 8.4255 18.3889 8.55499 18.1359 8.55346C13.5478 8.54737 8.95979 8.55499 4.37173 8.53975C3.86262 8.53823 3.62027 8.65705 3.66752 9.21309C3.71172 9.71732 3.67819 10.2277 3.67819 10.7334Z" fill="#151516"/>
<path d="M6.38692 0.601562C6.52868 1.20025 6.99663 1.18959 7.46763 1.18959C10.8698 1.18806 14.2705 1.18806 17.6726 1.18959C17.9775 1.18959 18.2808 1.20025 18.5857 1.20634C19.1146 2.05182 18.8463 2.98413 18.8798 3.88444C15.4563 3.89511 12.0313 3.91034 8.60778 3.91339C6.40064 3.91491 4.1935 3.87226 1.98635 3.89815C1.3675 3.90577 1.08246 3.74734 1.17544 3.09838C1.20745 2.87444 1.17544 2.64289 1.18306 2.41438C1.20897 1.54453 1.5245 1.22158 2.37809 1.19416C2.73324 1.18197 3.08992 1.17588 3.44355 1.19416C3.90084 1.21853 4.23465 1.06924 4.39775 0.619843C5.05928 0.612226 5.72234 0.607656 6.38692 0.601562Z" fill="#6147C8"/>
<path d="M30.2022 14.1782C30.975 13.1134 32.135 13.1393 32.7401 14.2635C34.5052 17.5388 36.2718 20.814 37.0584 24.5052C37.1574 24.9683 37.3967 25.4024 37.5888 25.8412C38.1375 27.0995 37.8251 28.341 36.6956 29.1256C36.3115 29.3922 36.1011 29.6542 36.2703 30.1203C35.6606 30.3976 35.0509 30.6733 34.4412 30.9506C34.1211 30.6337 33.7979 30.6642 33.4154 30.8744C32.417 31.4213 31.3972 31.9316 30.3881 32.4603C29.7068 32.8167 29.0087 32.9325 28.2725 32.6431C30.065 31.694 31.8758 30.78 33.6425 29.7852C34.7064 29.185 35.3862 28.306 35.371 26.967C35.3603 25.9463 34.7156 25.1694 34.5174 24.2325C34.1013 22.2689 33.4336 20.3844 32.574 18.5777C31.8606 17.0726 31.1183 15.5767 30.2022 14.1782Z" fill="#F5E684"/>
<path d="M18.8976 31.3815C16.5396 31.3937 14.18 31.4135 11.8219 31.4165C8.49751 31.4226 5.17307 31.4028 1.85016 31.4333C1.26789 31.4394 1.14595 31.2718 1.14747 30.7158C1.16424 22.3981 1.15814 14.0805 1.15967 5.76283C1.15967 5.39874 1.04078 5.0316 1.69012 5.03618C7.42442 5.06969 13.1587 5.06664 18.893 5.07426C18.8915 5.85271 18.8915 6.63115 18.89 7.4096C14.0443 7.4096 9.19868 7.40807 4.35302 7.4096C2.93392 7.4096 2.5498 7.79654 2.54828 9.21328C2.54676 10.3543 2.53761 11.4953 2.55133 12.6363C2.56352 13.6783 3.05281 14.1597 4.10761 14.1612C7.58295 14.1673 11.0598 14.1749 14.5351 14.1521C15.026 14.149 15.3034 14.2739 15.532 14.7279C16.7682 17.1821 18.0379 19.6195 19.2985 22.0614C19.3442 22.1513 19.4159 22.2244 19.3214 22.3996C18.7071 22.13 18.0745 21.8741 17.4678 21.5663C17.3703 21.5176 17.3855 21.2419 17.3535 21.0697C16.7941 18.1372 14.3964 16.0517 11.4744 15.9588C8.52647 15.8643 6.00533 17.7777 5.2752 20.6645C4.64263 23.1644 5.71724 25.8516 7.91981 27.2775C10.162 28.7308 13.0779 28.5983 15.1418 26.8692C15.6402 26.4518 15.9619 26.4335 16.4908 26.7611C17.2605 27.2379 18.0943 27.6096 18.9007 28.0255C18.8976 29.1452 18.8976 30.2633 18.8976 31.3815Z" fill="#E4F1FD"/>
<path d="M30.2018 14.1781C31.1179 15.5766 31.8587 17.0725 32.5735 18.5776C33.4332 20.3859 34.1009 22.2688 34.517 24.2324C34.7151 25.1693 35.3599 25.9462 35.3706 26.9669C35.3843 28.3059 34.706 29.1849 33.6421 29.7851C31.8754 30.7799 30.0646 31.6954 28.272 32.643C27.6029 32.4998 27.1334 32.0747 26.8331 31.4974C26.3408 30.5529 25.5909 29.9375 24.6443 29.4804C21.9555 28.1795 19.2834 26.8435 16.6099 25.5136C15.7319 25.0779 15.4484 24.4594 15.7319 23.6703C16.0245 22.8537 16.8431 22.4927 17.6403 22.8812C18.5716 23.3367 19.4785 23.8455 20.3977 24.3253C20.733 24.5005 21.0805 24.7336 21.4311 24.3634C21.7558 24.0206 21.5165 23.7084 21.3534 23.3976C19.6523 20.1467 17.9497 16.8958 16.2471 13.6464C16.0703 13.3098 15.8752 12.9792 15.8645 12.5862C15.8477 11.9311 16.337 11.2806 16.9757 11.1207C17.7119 10.9348 18.1936 11.2669 18.5243 11.8991C20.0257 14.7692 21.5287 17.6377 23.0316 20.5077C23.1261 20.6875 23.2221 20.8657 23.3182 21.044C23.5117 21.4035 23.812 21.4766 24.1489 21.2938C24.4842 21.1125 24.4766 20.8002 24.3288 20.5001C24.0834 20.0005 23.8105 19.5145 23.559 19.0179C23.1581 18.2242 23.3715 17.4656 24.0971 17.0771C24.8623 16.6658 25.4887 16.9004 25.9491 17.7702C26.1747 18.1953 26.4048 18.6172 26.6228 19.0453C26.8179 19.4307 27.0282 19.7994 27.5434 19.5145C28.0099 19.257 27.8544 18.8975 27.6593 18.5395C27.3941 18.0505 27.1334 17.5585 26.8789 17.0634C26.5298 16.3824 26.7447 15.7106 27.4215 15.342C28.1181 14.9611 28.8299 15.1713 29.211 15.8767C29.4625 16.3444 29.7125 16.8136 29.9472 17.2904C30.1439 17.691 30.3938 18.0292 30.8801 17.7657C31.3282 17.5234 31.1895 17.1502 30.9868 16.7861C30.7033 16.2773 30.4533 15.7502 30.1728 15.2414C29.9731 14.8758 29.9487 14.527 30.2018 14.1781Z" fill="#F8EFAB"/>
<path d="M18.5891 37.7906C13.1627 37.7997 7.73629 37.8089 2.30989 37.818C2.25959 37.818 2.20776 37.8149 2.15746 37.8104C1.56605 37.751 1.20784 37.4265 1.19565 36.8354C1.16821 35.5695 1.18803 34.302 1.17583 33.0346C1.17278 32.7086 1.30387 32.5684 1.62549 32.5943C1.72609 32.6019 1.82822 32.5943 1.93035 32.5943C7.58539 32.6035 13.2404 32.6126 18.894 32.6202C18.894 33.9105 18.8802 35.1993 18.9031 36.4896C18.9138 36.9619 18.8299 37.3899 18.5891 37.7906ZM11.2284 36.7318C11.8122 36.7318 12.3975 36.7486 12.9798 36.7273C13.8395 36.6968 14.4065 36.127 14.4446 35.2892C14.4827 34.4681 13.9386 33.7384 13.1261 33.7018C11.8854 33.6455 10.637 33.6439 9.39623 33.7049C8.57617 33.7445 8.05639 34.4528 8.09145 35.2953C8.12498 36.1331 8.68896 36.6983 9.5517 36.7288C10.1111 36.7471 10.6705 36.7318 11.2284 36.7318Z" fill="#6147C8"/>
<path d="M3.67805 10.7336C3.67805 10.2263 3.71159 9.71747 3.66891 9.21475C3.62166 8.65872 3.86249 8.5399 4.37312 8.54142C8.96118 8.55666 13.5492 8.54904 18.1373 8.55513C18.3903 8.55513 18.7699 8.42717 18.811 8.83543C18.8598 9.30768 18.933 9.80278 18.7592 10.2583C18.6982 10.4167 18.497 10.2324 18.3705 10.1836C16.4758 9.45697 14.822 10.4868 14.6635 12.5281C14.6345 12.9013 14.5293 12.9943 14.1818 12.9927C10.8619 12.9836 7.54056 12.9805 4.2207 12.9943C3.77104 12.9958 3.65519 12.8145 3.67348 12.4062C3.69635 11.8487 3.67805 11.2911 3.67805 10.7336Z" fill="#DE73A2"/>
<path d="M10.8177 27.0793C8.17461 26.7959 6.25098 24.6998 6.25098 22.1024C6.25098 19.5279 8.13955 17.45 10.7506 17.1499C11.9792 17.7608 12.7992 18.7555 13.3968 19.959C12.7093 20.6643 12.0234 21.3742 11.3314 22.075C10.9396 22.4711 10.5845 23.0956 10.1287 23.187C9.56931 23.2967 9.29342 22.5152 8.859 22.1603C8.56634 21.9211 8.29198 21.8038 7.98865 22.0841C7.64111 22.4056 7.77525 22.7133 8.06181 22.9981C8.49318 23.4262 8.94284 23.8406 9.34677 24.293C9.82539 24.8277 10.2324 24.8292 10.7369 24.3022C11.6667 23.3348 12.6407 22.4101 13.5964 21.4687C13.8357 22.1603 13.7672 22.8565 13.601 23.545C13.2184 25.1446 12.1636 26.2292 10.8177 27.0793Z" fill="#D4E983"/>
<path d="M13.3981 19.9593C12.8006 18.7558 11.9805 17.761 10.752 17.1502C13.267 16.8089 15.7759 18.6766 16.1875 21.1704C16.2469 21.5314 16.1738 21.6883 15.8461 21.8742C14.5946 22.581 14.1282 23.8073 14.6632 25.1052C14.8599 25.5836 14.7059 25.7969 14.3736 26.0436C13.3158 26.8297 12.1497 27.2349 10.8175 27.0811C12.1634 26.231 13.2182 25.1464 13.6039 23.5438C13.77 22.8552 13.8386 22.159 13.5993 21.4674C13.9255 21.1262 14.2547 20.788 14.5748 20.4407C14.7897 20.2076 14.8157 19.9471 14.5962 19.7033C14.3599 19.4413 14.0871 19.4109 13.802 19.6302C13.6618 19.7353 13.5307 19.8496 13.3981 19.9593Z" fill="#BADE3C"/>
<path d="M18.8887 7.40947C18.8902 6.63102 18.8902 5.85258 18.8917 5.07413C19.5746 5.06499 20.2575 5.0589 20.9403 5.04214C21.1979 5.03604 21.3717 5.06804 21.3717 5.39709C21.3641 8.44384 21.3671 11.4906 21.297 14.548C20.5867 13.34 19.7224 12.2096 19.9602 10.6756C20.0441 10.1317 19.9511 9.56352 19.9785 9.00749C20.0227 8.18639 19.6752 7.65473 18.8887 7.40947Z" fill="#C7D9EA"/>
<path d="M18.5889 37.7901C18.8297 37.3895 18.9135 36.9599 18.9044 36.4876C18.8815 35.1989 18.8952 33.9085 18.8952 32.6182C19.6772 32.5954 20.6588 32.2922 21.1817 32.7173C21.6923 33.1331 21.3097 34.1431 21.3478 34.8896C21.3783 35.4959 21.363 36.1053 21.3493 36.7131C21.3326 37.4138 20.9591 37.7916 20.2595 37.8084C19.7031 37.8236 19.1468 37.7993 18.5889 37.7901Z" fill="#5639C9"/>
<path d="M18.8801 3.88321C18.8466 2.98442 19.1149 2.05059 18.5859 1.20512C18.7948 1.07715 19.0265 1.1259 19.2505 1.12285C21.2229 1.10305 21.5827 1.51588 21.3723 3.50237C21.3388 3.81923 21.229 3.95938 20.915 3.94415C20.2352 3.91216 19.5538 4.01575 18.8801 3.88321Z" fill="#4E35AF"/>
<path d="M18.8984 31.3813C18.8984 30.2632 18.8984 29.145 18.8984 28.0269C19.6057 28.3452 20.3114 28.6667 21.0202 28.9805C21.2458 29.081 21.3464 29.2166 21.3708 29.4863C21.543 31.4209 21.5507 31.4209 19.6484 31.4164C19.3984 31.4164 19.1484 31.3935 18.8984 31.3813Z" fill="#D2E8FC"/>
<path d="M11.2278 36.7315C10.6699 36.7315 10.1105 36.7467 9.55261 36.7284C8.68987 36.698 8.12589 36.1328 8.09236 35.2949C8.05882 34.4525 8.57707 33.7441 9.39713 33.7045C10.6379 33.6451 11.8863 33.6466 13.127 33.7015C13.9395 33.738 14.4836 34.4677 14.4455 35.2888C14.4074 36.1282 13.8404 36.6964 12.9807 36.7269C12.3969 36.7467 11.8116 36.7315 11.2278 36.7315ZM11.2781 35.6148C11.2781 35.6133 11.2781 35.6118 11.2781 35.6118C11.8101 35.6118 12.3405 35.6209 12.8709 35.6087C13.1301 35.6027 13.3023 35.4716 13.2901 35.1837C13.2795 34.9141 13.0889 34.8532 12.8709 34.8532C11.8085 34.8486 10.7461 34.8516 9.68369 34.8486C9.42609 34.8486 9.2127 34.9293 9.22032 35.2188C9.22794 35.4869 9.42304 35.6133 9.68369 35.6148C10.2157 35.6179 10.7476 35.6148 11.2781 35.6148Z" fill="#121215"/>
<path d="M13.3989 19.9595C13.5331 19.8498 13.6626 19.7355 13.7998 19.6304C14.0848 19.411 14.3592 19.443 14.5939 19.7035C14.8134 19.9473 14.7875 20.2078 14.5726 20.4408C14.2525 20.7882 13.9233 21.1264 13.5971 21.4676C12.6414 22.409 11.6658 23.3337 10.7375 24.3011C10.233 24.8266 9.82603 24.8266 9.34741 24.2919C8.94195 23.8395 8.49382 23.4267 8.06245 22.9971C7.77589 22.7122 7.64023 22.4045 7.98928 22.083C8.29261 21.8043 8.56698 21.9216 8.85964 22.1592C9.29406 22.5142 9.57148 23.2972 10.1294 23.186C10.5866 23.0961 10.9418 22.4715 11.332 22.0739C12.024 21.3747 12.71 20.6663 13.3989 19.9595Z" fill="#121310"/>
<path d="M11.2787 35.615C10.7467 35.615 10.2163 35.618 9.68428 35.6134C9.42363 35.6119 9.22852 35.4855 9.2209 35.2174C9.21328 34.9279 9.42515 34.8457 9.68428 34.8472C10.7467 34.8487 11.8091 34.8472 12.8715 34.8518C13.0895 34.8533 13.2785 34.9142 13.2907 35.1823C13.3029 35.4702 13.1307 35.6013 12.8715 35.6074C12.3411 35.6195 11.8091 35.6104 11.2787 35.6104C11.2787 35.6134 11.2787 35.615 11.2787 35.615Z" fill="#85CAE6"/>
</g>
<defs>
<clipPath id="clip0_3719_340">
<rect width="39" height="39" rx="4" fill="white"/>
</clipPath>
</defs>
</svg>
