<svg width="16" height="14" viewBox="0 0 16 14" fill="none" xmlns="http://www.w3.org/2000/svg">
<path d="M9.96676 8.15394C7.08337 10.8814 7.13204 10.8897 6.97793 13.8025C1.65726 13.6954 0.752913 14.4411 0.854297 11.8991C0.923239 10.9432 0.635306 10.0533 1.17062 9.46412C3.77012 7.81609 7.01849 7.46177 9.96676 8.15394Z" fill="#378FFF"/>
<path d="M10.6686 3.44477C10.4212 8.1334 4.01773 7.9068 3.86768 3.44065C4.111 -1.24386 10.5347 -1.05022 10.6686 3.44477Z" fill="#378FFF"/>
<path d="M15.3644 7.96894C15.2103 9.61285 11.3739 12.4186 10.794 13.3168C10.1695 13.8936 9.35841 13.7947 8.54328 13.9472C7.33883 14.2191 7.61054 13.3951 7.70787 12.6493C7.74436 10.6635 8.9407 10.2267 9.84911 9.15552C10.9441 8.17907 11.7633 6.88537 13.0529 6.18496C14.1722 5.81827 15.4009 6.75764 15.3644 7.96894ZM8.65683 12.9377C10.4047 13.0119 11.2036 11.335 12.3594 10.338C13.061 9.52221 15.77 7.57754 13.5273 7.10785C12.2134 7.71762 11.4064 9.1926 10.2871 10.1196C8.8231 11.5328 8.77038 11.5658 8.65683 12.9377Z" fill="#378FFF"/>
<path d="M11.2524 13.8021C12.0027 13.0399 12.7327 12.2983 13.4707 11.5485C13.6573 13.7486 13.0287 13.8681 11.2524 13.8021Z" fill="#378FFF"/>
</svg>
