<svg width="38" height="36" viewBox="0 0 38 36" fill="none" xmlns="http://www.w3.org/2000/svg">
<path d="M27.8901 18.3885C27.9409 18.0227 28.1674 17.8811 28.519 17.8851C29.5543 17.889 30.5896 17.8851 31.6249 17.889C33.7305 17.8969 35.2542 19.4309 35.262 21.5627C35.2698 23.6238 35.262 25.6848 35.262 27.742C35.262 29.1462 35.2659 30.5543 35.2581 31.9585C35.2581 32.1787 35.2815 32.281 35.5393 32.3282C36.3246 32.4698 36.7543 33.0244 37.0043 33.7481C37.0043 34.0156 37.0043 34.2831 37.0043 34.5466C36.9106 34.5702 36.9262 34.6607 36.9028 34.7197C36.5707 35.5221 35.9769 35.9311 35.1135 35.9311C32.3671 35.9351 29.6246 35.9311 26.8782 35.9311C19.9205 35.9311 12.9588 35.9193 6.001 35.9469C5.01261 35.9508 4.14923 35.3136 4.15314 34.11C4.16486 30.9673 4.58288 27.8836 5.24701 24.8234C5.57908 23.3013 5.97756 21.7948 6.49324 20.3198C6.57137 20.0956 6.50886 20.0209 6.30572 19.9265C2.80534 18.3295 0.703551 15.6116 0.113644 11.7806C-0.726291 6.34079 3.18819 1.00327 8.59893 0.137944C14.1464 -0.750986 19.2368 2.73787 20.4401 8.25238C21.4675 12.9684 18.9672 17.8733 14.5019 19.8596C14.1933 19.9973 14.1269 20.1192 14.248 20.4378C14.4472 20.9531 14.5957 21.4919 14.7598 22.0229C14.9082 22.4989 14.8574 22.6326 14.4589 22.9079C13.9901 22.9001 13.8768 22.8135 13.7362 22.3691C13.5565 21.8066 13.3651 21.2441 13.1971 20.6777C13.1346 20.4614 13.0486 20.3867 12.8181 20.4457C11.1656 20.8626 9.51309 20.8626 7.85667 20.4496C7.69259 20.4103 7.5832 20.4181 7.53241 20.6109C7.45819 20.8901 7.36833 21.1655 7.28629 21.4447C7.25504 21.5234 7.21597 21.5981 7.19253 21.6768C6.45026 24.1351 5.92286 26.6406 5.58298 29.1855C5.3603 30.8414 5.22357 32.5052 5.25092 34.1808C5.25873 34.6646 5.4189 34.8416 5.86036 34.8416C8.34891 34.8455 10.8414 34.8416 13.3299 34.8416C13.3885 34.8416 13.4471 34.8298 13.5057 34.8259C13.3182 33.6223 13.4627 33.1857 14.2558 32.5485C14.5293 32.4187 14.7988 32.2928 15.1114 32.2889C15.2051 32.2889 15.2911 32.2653 15.2989 32.163C15.3301 31.8523 15.4786 31.5691 15.4434 31.2387C15.2403 29.1776 14.9082 27.1402 14.4394 25.1263C14.3456 24.7251 14.4628 24.4734 14.8144 24.3042C15.3028 24.3436 15.4083 24.4458 15.5294 24.9965C15.8497 26.4597 16.1271 27.9347 16.3224 29.4136C16.4006 29.4451 16.4201 29.394 16.4435 29.3586C18.0492 27.0458 20.2525 25.8854 23.0536 25.8736C23.2958 25.8736 23.581 25.9523 23.7646 25.8461C23.9756 25.7242 23.831 25.4056 23.8662 25.1735C24.0264 24.1076 24.8429 23.3721 25.925 23.3563C26.5852 23.3445 27.2494 23.3485 27.9096 23.3563C29.1363 23.3681 29.9958 24.2295 29.9919 25.4685C29.9919 25.8068 30.0817 25.909 30.4099 25.8815C30.7576 25.854 31.1092 25.854 31.4569 25.8815C31.746 25.9051 31.7889 25.791 31.7889 25.5314C31.7772 24.261 31.7733 22.9866 31.7889 21.7161C31.7928 21.4369 31.7108 21.3779 31.4451 21.3779C29.3863 21.3897 27.3275 21.3857 25.2687 21.3857C24.9093 21.3857 24.546 21.3936 24.1865 21.3818C23.6826 21.3661 23.2607 21.3897 22.8583 21.842C22.3113 22.4556 21.323 22.4084 20.6823 21.8931C20.022 21.3582 19.815 20.4457 20.2369 19.7023C20.862 18.6088 21.823 17.9834 23.0731 17.9047C23.9951 17.8457 24.9249 17.8929 25.8547 17.889C26.2063 17.889 26.3704 18.0935 26.4446 18.4121C26.3196 18.8841 26.1985 18.9825 25.718 18.9825C24.8898 18.9864 24.0576 18.9589 23.2294 18.9943C22.3856 19.0257 21.7019 19.3994 21.2526 20.1349C21.0339 20.4889 21.1081 20.8587 21.405 21.0632C21.7019 21.2677 22.0691 21.2048 22.3192 20.8587C22.6239 20.4378 23.0224 20.2844 23.5302 20.2883C26.2024 20.3001 28.8706 20.3159 31.5428 20.2805C32.414 20.2687 32.8984 20.9137 32.8828 21.6296C32.8555 22.9355 32.8789 24.2452 32.8711 25.555C32.8711 25.7989 32.9258 25.913 33.1875 25.8894C33.4024 25.8697 33.6212 25.8697 33.836 25.8894C34.1134 25.913 34.1837 25.7989 34.1798 25.5354C34.1681 24.1902 34.1798 22.845 34.172 21.5037C34.1603 20.0523 33.0938 18.9943 31.6483 18.9864C30.613 18.9825 29.5778 18.9903 28.5425 18.9825C28.1206 18.9746 27.9448 18.8133 27.8901 18.3885ZM34.1642 31.1286C34.1681 29.8699 34.1642 28.6073 34.1837 27.3486C34.1876 27.0536 34.1173 26.9632 33.8126 26.9632C30.2145 26.975 26.6126 26.971 23.0145 26.9671C22.2996 26.9671 21.5964 27.0458 20.9206 27.2778C18.9672 27.9386 17.553 29.1894 16.7678 31.1286C16.631 31.3449 16.5764 31.5966 16.5021 31.8366C16.3615 32.2889 16.3693 32.2889 16.8264 32.2889C22.4715 32.2889 28.1167 32.2889 33.7618 32.2889C33.8204 32.2889 33.8829 32.281 33.9415 32.2889C34.1407 32.3125 34.1915 32.2181 34.1837 32.0332C34.1681 31.7304 34.172 31.4275 34.1642 31.1286ZM19.5728 10.3646C19.5571 5.22372 15.4083 1.07014 10.2983 1.08194C5.21185 1.09767 1.0864 5.27486 1.09812 10.4C1.10984 15.5133 5.28217 19.6944 10.3491 19.6669C15.4551 19.6393 19.5845 15.474 19.5728 10.3646ZM25.2374 33.3784C22.1785 33.3784 19.1196 33.3784 16.0607 33.3784C15.8302 33.3784 15.6036 33.3784 15.3731 33.3784C14.8262 33.3823 14.4941 33.6655 14.498 34.1218C14.5019 34.5741 14.834 34.8416 15.3887 34.8455C15.4239 34.8455 15.459 34.8455 15.4981 34.8455C21.9637 34.8455 28.4292 34.8455 34.8947 34.8455C35.0158 34.8455 35.1369 34.8534 35.2541 34.8416C35.6331 34.8062 35.9183 34.4837 35.9144 34.1061C35.9105 33.7442 35.6331 33.4295 35.2737 33.3902C35.1565 33.3784 35.0315 33.3823 34.9143 33.3823C31.6913 33.3784 28.4644 33.3784 25.2374 33.3784ZM26.929 25.8815C27.5033 25.8815 28.0815 25.8736 28.6558 25.8854C28.8589 25.8894 28.9214 25.8225 28.9293 25.614C28.9527 24.847 28.5776 24.4458 27.8041 24.4419C27.2142 24.438 26.6282 24.438 26.0383 24.4419C25.3312 24.4498 24.9288 24.8824 24.9405 25.5865C24.9444 25.8068 25.0148 25.8854 25.2335 25.8815C25.8 25.8736 26.3626 25.8815 26.929 25.8815Z" fill="#030303"/>
<path d="M27.8898 18.3885C27.9445 18.8133 28.1164 18.9746 28.5501 18.9785C29.5853 18.9825 30.6206 18.9785 31.6559 18.9825C33.0974 18.9864 34.1679 20.0484 34.1796 21.4998C34.1874 22.845 34.1757 24.1902 34.1874 25.5315C34.1913 25.7989 34.1171 25.913 33.8436 25.8854C33.6287 25.8658 33.41 25.8658 33.1951 25.8854C32.9295 25.909 32.8748 25.791 32.8787 25.5511C32.8865 24.2413 32.863 22.9355 32.8904 21.6257C32.906 20.9098 32.4177 20.2647 31.5504 20.2765C28.8782 20.3119 26.21 20.2962 23.5378 20.2844C23.03 20.2805 22.6315 20.4339 22.3268 20.8547C22.0767 21.1969 21.7095 21.2638 21.4126 21.0593C21.1157 20.8547 21.0415 20.485 21.2602 20.131C21.7134 19.3955 22.3971 19.0218 23.237 18.9903C24.0652 18.9589 24.8973 18.9825 25.7256 18.9785C26.2061 18.9785 26.3311 18.8802 26.4522 18.4082C26.9327 18.4161 27.4132 18.4436 27.8898 18.3885Z" fill="#645D66"/>
<path d="M7.29004 21.4447C7.37208 21.1655 7.46193 20.8901 7.53616 20.6109C7.58695 20.4181 7.69633 20.4103 7.86041 20.4496C9.51293 20.8626 11.1694 20.8626 12.8219 20.4457C13.0524 20.3867 13.1383 20.4575 13.2008 20.6777C13.3688 21.2441 13.5602 21.8066 13.74 22.3691C13.8806 22.8135 13.9978 22.9001 14.4627 22.9079C14.5838 23.3721 14.7088 23.8362 14.8299 24.3043C14.4783 24.4734 14.3611 24.7251 14.4549 25.1263C14.9237 27.1402 15.2557 29.1816 15.4589 31.2387C15.4901 31.5691 15.3456 31.8523 15.3143 32.163C15.3026 32.2653 15.2206 32.2889 15.1268 32.2889C14.8182 32.2889 14.5447 32.4148 14.2713 32.5485C14.24 31.9703 14.24 31.3882 14.1697 30.8139C13.9822 29.2996 13.7751 27.7852 13.4626 26.2866C13.1657 24.8471 12.8063 23.4232 12.4 22.0072C12.3492 21.8302 12.2945 21.7712 12.0757 21.7987C11.1889 21.9246 10.2982 22.0229 9.39183 21.9049C8.66909 21.8145 7.9698 21.6886 7.29004 21.4447Z" fill="#5290F6"/>
<path d="M19.5728 10.3646C19.5845 15.4739 15.4552 19.6393 10.3492 19.6669C5.28221 19.6944 1.10989 15.5133 1.09817 10.4C1.08645 5.27485 5.21189 1.09767 10.2984 1.08193C15.4083 1.07013 19.5572 5.22372 19.5728 10.3646ZM3.50077 9.66443C3.48124 10.1404 3.4617 10.6202 3.51249 11.0962C3.09448 11.3046 2.99681 11.5131 3.15308 11.9379C3.58281 13.0904 4.37196 13.8928 5.5674 14.1759C7.25117 14.5732 8.69664 14.054 9.91943 12.8544C10.064 12.7128 10.1851 12.5751 10.4078 12.697C10.2398 13.5152 9.86083 14.2153 9.30218 14.8249C8.76696 15.4071 8.65367 16.0797 8.97011 16.8073C9.27092 17.4917 9.8999 17.8536 10.693 17.8103C12.0017 17.7395 13.2206 17.358 14.3222 16.6382C16.3772 15.2969 16.717 12.8858 15.1231 11.0136C14.4512 10.2269 13.6073 9.7195 12.6111 9.46777C12.4549 9.42843 12.3064 9.38517 12.3025 9.2239C12.2986 9.03904 12.4978 9.07837 12.6072 9.05084C13.3065 8.87384 14.0097 8.8935 14.7168 9.05084C15.4435 9.21603 16.1428 8.93284 16.553 8.33497C16.9671 7.73317 16.971 7.00158 16.5608 6.35651C15.8224 5.20012 14.8418 4.31119 13.6151 3.69759C11.6774 2.72999 9.64206 3.42226 8.68883 5.38105C8.1458 6.49811 8.0833 7.65844 8.41927 8.8463C8.46615 9.00757 8.48178 9.15703 8.34895 9.23177C8.22003 9.3065 8.1458 9.13737 8.07158 9.0587C7.57543 8.54737 7.23945 7.94557 7.02068 7.26118C6.77456 6.48238 6.18465 6.00251 5.46192 5.95532C4.68059 5.90418 4.08677 6.27391 3.71173 7.04484C3.43827 7.61124 3.2273 8.20124 3.10229 8.8227C3.00853 9.30257 3.06713 9.44417 3.50077 9.66443Z" fill="#F9F0E0"/>
<path d="M7.29029 21.4448C7.97005 21.6848 8.66934 21.8146 9.38817 21.905C10.2945 22.0191 11.1813 21.9208 12.0721 21.7988C12.2908 21.7674 12.3455 21.8264 12.3963 22.0073C12.8026 23.4193 13.162 24.8471 13.4589 26.2867C13.7675 27.7853 13.9746 29.2997 14.166 30.814C14.2363 31.3882 14.2363 31.9704 14.2676 32.5486C13.4745 33.1897 13.33 33.6224 13.5175 34.826C13.4589 34.8299 13.4003 34.8417 13.3417 34.8417C10.8532 34.8417 8.36072 34.8456 5.87217 34.8417C5.43071 34.8417 5.27054 34.6647 5.26273 34.1809C5.23147 32.5053 5.36821 30.8415 5.59479 29.1856C5.93858 26.6407 6.46207 24.1352 7.20434 21.6769C7.21997 21.5982 7.25904 21.5235 7.29029 21.4448ZM12.4744 28.9378C12.4744 27.7421 11.5017 26.7627 10.318 26.7745C9.14986 26.7823 8.18882 27.7578 8.18492 28.9339C8.18101 30.1217 9.1694 31.109 10.3453 31.0972C11.5251 31.0814 12.4744 30.1178 12.4744 28.9378Z" fill="#7FB5FA"/>
<path d="M16.7677 31.1286C17.5529 29.1895 18.9672 27.9387 20.9205 27.2779C21.6003 27.0498 22.2995 26.9672 23.0145 26.9672C26.6125 26.9711 30.2145 26.9751 33.8125 26.9633C34.1172 26.9633 34.1915 27.0537 34.1836 27.3487C34.1641 28.6074 34.168 29.87 34.1641 31.1286C28.3666 31.1286 22.5652 31.1286 16.7677 31.1286Z" fill="#DE646D"/>
<path d="M25.2375 33.3784C28.4644 33.3784 31.6913 33.3784 34.9182 33.3784C35.0394 33.3784 35.1605 33.3706 35.2777 33.3863C35.6371 33.4296 35.9144 33.7403 35.9184 34.1022C35.9223 34.4798 35.6371 34.8023 35.2581 34.8377C35.137 34.8495 35.0159 34.8416 34.8987 34.8416C28.4332 34.8416 21.9676 34.8416 15.5021 34.8416C15.4669 34.8416 15.4318 34.8416 15.3927 34.8416C14.838 34.8377 14.5059 34.5702 14.502 34.1179C14.4981 33.6616 14.8301 33.3784 15.3771 33.3745C15.6076 33.3745 15.8342 33.3745 16.0647 33.3745C19.1197 33.3784 22.1786 33.3784 25.2375 33.3784Z" fill="#E2DFE3"/>
<path d="M16.7678 31.1287C22.5653 31.1287 28.3667 31.1287 34.1642 31.1287C34.1681 31.4315 34.1681 31.7344 34.1799 32.0373C34.1877 32.2182 34.1369 32.3165 33.9377 32.2929C33.879 32.2851 33.8165 32.2929 33.7579 32.2929C28.1128 32.2929 22.4677 32.2929 16.8225 32.2929C16.3615 32.2929 16.3576 32.289 16.4983 31.8406C16.5764 31.5928 16.6311 31.345 16.7678 31.1287Z" fill="#D94954"/>
<path d="M26.9292 25.8815C26.3666 25.8815 25.8001 25.8736 25.2376 25.8854C25.0188 25.8893 24.9485 25.8067 24.9446 25.5904C24.9329 24.8864 25.3353 24.4537 26.0424 24.4458C26.6323 24.4419 27.2183 24.4419 27.8082 24.4458C28.5817 24.4498 28.9528 24.847 28.9333 25.6179C28.9255 25.8225 28.863 25.8893 28.6598 25.8893C28.0816 25.8736 27.5035 25.8815 26.9292 25.8815Z" fill="#625B64"/>
<path d="M3.50077 9.66447C3.06713 9.4442 3.00853 9.3026 3.10229 8.8306C3.2273 8.20914 3.43826 7.61914 3.71173 7.05274C4.08677 6.28181 4.68058 5.91208 5.46192 5.96321C6.18856 6.01041 6.77456 6.49028 7.02068 7.26908C7.23554 7.94954 7.57152 8.55527 8.07157 9.0666C8.1497 9.14527 8.22393 9.3144 8.34895 9.23967C8.48177 9.16493 8.46614 9.01154 8.41926 8.8542C8.08329 7.66634 8.1458 6.50601 8.68883 5.38895C9.63815 3.43409 11.6735 2.74183 13.6151 3.70549C14.8418 4.31515 15.8185 5.20802 16.5608 6.36441C16.9749 7.00948 16.9671 7.74107 16.553 8.34287C16.1428 8.94074 15.4435 9.22393 14.7168 9.05874C14.0097 8.89747 13.3104 8.8778 12.6072 9.05874C12.4978 9.08627 12.2947 9.04694 12.3025 9.2318C12.3064 9.39307 12.4549 9.43633 12.6111 9.47567C13.6112 9.72347 14.4551 10.2269 15.127 11.0136C16.7209 12.8859 16.3811 15.297 14.3261 16.6382C13.2206 17.358 12.0056 17.7396 10.6969 17.8104C9.9038 17.8536 9.27092 17.4918 8.97401 16.8074C8.65757 16.0797 8.77086 15.4071 9.30608 14.825C9.86473 14.2153 10.2437 13.5152 10.4117 12.6971C10.189 12.5751 10.0679 12.7167 9.92333 12.8544C8.70054 14.054 7.25508 14.5732 5.5713 14.176C4.37195 13.8928 3.58671 13.0904 3.15698 11.9379C2.99681 11.5092 3.09838 11.3007 3.51639 11.0962C3.89143 11.0687 4.07895 11.2732 4.20006 11.6075C4.49306 12.4178 5.06343 12.9527 5.89165 13.1415C6.98161 13.3854 7.95437 13.0786 8.82947 12.3981C8.97401 12.2841 9.00136 12.2172 8.84119 12.0795C8.41536 11.7137 8.16142 11.2417 8.09892 10.6753C8.08329 10.5455 8.03641 10.4551 7.92702 10.3764C6.96598 9.66053 6.3292 8.72047 5.98932 7.57194C5.89946 7.26514 5.69632 7.07634 5.36816 7.05668C5.05171 7.03701 4.85247 7.20614 4.71965 7.48147C4.46571 7.99281 4.26647 8.5238 4.16099 9.08233C4.08286 9.45993 3.87971 9.65267 3.50077 9.66447ZM12.6033 10.5967C12.49 11.2811 12.197 11.8317 11.6501 12.229C11.5368 12.3116 11.5368 12.4375 11.5212 12.5555C11.3883 13.7001 10.9078 14.6834 10.1343 15.5212C9.9038 15.769 9.81395 16.0364 9.95459 16.3472C10.0991 16.6658 10.3765 16.7484 10.7047 16.7208C11.9314 16.6304 13.0643 16.2567 14.0449 15.5054C14.877 14.8682 15.2325 13.999 14.9551 12.9724C14.6309 11.7609 13.7831 11.0175 12.6033 10.5967ZM9.30217 7.46181C9.31389 7.64274 9.32952 7.82367 9.34124 8.00461C9.35296 8.20914 9.41156 8.30354 9.64987 8.20914C10.1538 8.01641 10.6656 8.05574 11.1617 8.2524C11.3024 8.30747 11.4235 8.335 11.568 8.27207C12.6385 7.79221 13.7441 7.72141 14.8809 7.98494C15.2012 8.05967 15.4864 8.00067 15.674 7.70567C15.8537 7.42641 15.7912 7.15894 15.6154 6.89541C14.9434 5.88455 14.0683 5.11362 12.9705 4.60229C11.8415 4.07522 10.6226 4.41742 9.91552 5.44795C9.50141 6.04975 9.30608 6.72628 9.30217 7.46181ZM10.3492 11.5643C10.9977 11.5564 11.5094 11.0333 11.5094 10.3764C11.5094 9.70773 10.9664 9.16493 10.314 9.17673C9.67721 9.18853 9.13809 9.7392 9.142 10.3725C9.15372 11.0372 9.68893 11.5682 10.3492 11.5643Z" fill="#030304"/>
<path d="M3.50106 9.66449C3.88001 9.65269 4.08315 9.45996 4.15738 9.07843C4.26286 8.5199 4.45819 7.9889 4.71603 7.47757C4.85277 7.20617 5.0481 7.03704 5.36454 7.05277C5.6927 7.07244 5.89585 7.26123 5.9857 7.56803C6.32558 8.71656 6.96237 9.66056 7.92341 10.3725C8.02889 10.4512 8.07968 10.5416 8.0953 10.6714C8.15781 11.2378 8.41174 11.7098 8.83757 12.0756C8.99775 12.2133 8.9704 12.2841 8.82585 12.3942C7.95466 13.0707 6.978 13.3815 5.88803 13.1376C5.05982 12.9527 4.48945 12.4139 4.19645 11.6036C4.07534 11.2693 3.88782 11.0648 3.51278 11.0923C3.46199 10.6203 3.48153 10.1404 3.50106 9.66449Z" fill="#7FB4F9"/>
<path d="M12.4741 28.9378C12.4741 30.1178 11.5248 31.0775 10.345 31.0932C9.16906 31.105 8.18068 30.1178 8.18458 28.9299C8.18849 27.7539 9.14953 26.7823 10.3176 26.7705C11.5013 26.7666 12.4741 27.7421 12.4741 28.9378ZM9.27064 28.9181C9.25892 29.4884 9.73162 29.984 10.3059 29.9998C10.8841 30.0155 11.3685 29.5553 11.3881 28.9692C11.4076 28.3793 10.9232 27.8679 10.3411 27.864C9.7746 27.86 9.28236 28.3438 9.27064 28.9181Z" fill="#030304"/>
<path d="M12.6036 10.5967C13.7834 11.0175 14.6311 11.7609 14.9554 12.9724C15.2328 13.999 14.8734 14.8683 14.0452 15.5055C13.0646 16.2567 11.9316 16.6304 10.7049 16.7209C10.3768 16.7445 10.0994 16.6658 9.95487 16.3472C9.81423 16.0365 9.90408 15.769 10.1346 15.5212C10.9081 14.6834 11.3925 13.7001 11.5214 12.5555C11.5332 12.4375 11.5371 12.3116 11.6504 12.229C12.1973 11.8317 12.4942 11.2811 12.6036 10.5967Z" fill="#7FB4F9"/>
<path d="M9.30225 7.4618C9.30615 6.72627 9.50149 6.05367 9.91559 5.44794C10.6227 4.41741 11.8416 4.07521 12.9706 4.60228C14.0645 5.11361 14.9435 5.88061 15.6154 6.8954C15.7912 7.15894 15.8537 7.4264 15.674 7.70567C15.4865 8.00066 15.2013 8.05966 14.881 7.98493C13.7441 7.72533 12.6385 7.7922 11.5681 8.27206C11.4197 8.33893 11.3025 8.3114 11.1618 8.2524C10.6657 8.05573 10.1539 8.0164 9.64994 8.20913C9.41163 8.2996 9.35694 8.20913 9.34131 8.0046C9.32569 7.82367 9.31397 7.64273 9.30225 7.4618Z" fill="#7FB4F9"/>
<path d="M10.3493 11.5642C9.68904 11.5721 9.14992 11.0372 9.14602 10.3724C9.14211 9.73917 9.68123 9.1885 10.318 9.1767C10.9704 9.1649 11.5135 9.7077 11.5135 10.3764C11.5096 11.0332 11.0017 11.5564 10.3493 11.5642Z" fill="#E5A45F"/>
<path d="M9.27072 28.9181C9.28244 28.3478 9.77468 27.86 10.3411 27.8679C10.9271 27.8718 11.4077 28.3792 11.3881 28.9732C11.3686 29.5553 10.8842 30.0194 10.306 30.0037C9.73171 29.984 9.259 29.4884 9.27072 28.9181Z" fill="#D9E7F8"/>
</svg>
