<svg width="16" height="10" viewBox="0 0 16 10" fill="none" xmlns="http://www.w3.org/2000/svg">
<path d="M8.68051 8.66734L8.68034 8.6675C8.50392 8.84417 8.26433 8.944 8.0141 8.94444C7.76449 8.94488 7.52411 8.84649 7.34674 8.66969L8.68051 8.66734ZM8.68051 8.66734L15.1265 2.20528L15.1266 2.20519C15.494 1.83667 15.4922 1.24057 15.1224 0.874128L15.1223 0.874037C14.7531 0.508447 14.157 0.510561 13.7902 0.878204L13.7902 0.878212L8.01007 6.67274L2.20938 0.898419L2.20933 0.898369C1.84126 0.532098 1.24539 0.532086 0.877477 0.898899L0.877347 0.899028C0.693059 1.08293 0.600601 1.32495 0.601029 1.56605C0.601456 1.80645 0.694141 2.04727 0.877887 2.23029L0.877968 2.23037L7.34641 8.66936L8.68051 8.66734Z" fill="#222222" stroke="#222222" stroke-width="0.8"/>
</svg>
