<svg width="16" height="16" viewBox="0 0 16 16" fill="none" xmlns="http://www.w3.org/2000/svg">
<path d="M7.99249 0C5.93033 0.015573 3.86817 0.0323754 1.806 0.0450797C1.47516 0.0471287 1.15866 0.0934378 0.856917 0.238103C-0.0724907 0.683981 -0.165554 1.62492 0.195221 2.30275C0.380939 2.6515 0.65931 2.91747 0.940961 3.1818C2.35701 4.51042 3.77469 5.837 5.19197 7.16398C5.29897 7.26397 5.40433 7.36643 5.51503 7.46232C5.57283 7.51232 5.59456 7.56601 5.59456 7.64305C5.59456 8.91512 5.59661 10.1876 5.60112 11.4597C5.60194 11.7195 5.61383 11.9789 5.61957 12.2387C5.62203 12.3498 5.65729 12.4416 5.74051 12.5223C6.4514 13.21 7.15492 13.9054 7.86991 14.589C8.31268 15.0123 8.76652 15.4246 9.22364 15.8324C9.50119 16.0799 9.99316 16.0496 10.2383 15.7734C10.2965 15.7078 10.3297 15.5996 10.3343 15.5095C10.3601 15.0009 10.3859 14.4919 10.3896 13.9829C10.4044 11.8748 10.4117 9.76671 10.4179 7.65862C10.4183 7.56232 10.4499 7.50043 10.5179 7.43691C12.0939 5.96568 13.6682 4.49485 15.2404 3.02116C15.497 2.7806 15.7217 2.51053 15.857 2.18186C16.1727 1.41468 15.9964 0.579888 14.9997 0.181958C14.7968 0.100815 14.5894 0.0557349 14.3688 0.0540956C12.783 0.0430306 11.1972 0.026638 9.61188 0.0143435C9.07236 0.0102454 8.53242 0.0135239 7.9929 0.0135239C7.99249 0.00942575 7.99249 0.00450797 7.99249 0ZM14.3028 1.64131C14.3065 1.65319 14.3098 1.66508 14.3134 1.67696C14.2356 1.75811 14.1609 1.84212 14.0798 1.91957C12.9257 3.02075 11.7696 4.11987 10.6167 5.22268C10.0993 5.71774 9.59056 6.2214 9.07359 6.71687C8.98134 6.80539 8.94486 6.90456 8.94158 7.02546C8.93543 7.27832 8.92272 7.53117 8.92067 7.78444C8.90632 9.58926 8.89361 11.3941 8.88049 13.1989C8.88008 13.237 8.88049 13.2751 8.88049 13.3231C8.85712 13.3096 8.84769 13.3063 8.84113 13.3001C8.2725 12.7575 7.70387 12.2149 7.1377 11.6699C7.11351 11.6465 7.1008 11.6002 7.10039 11.5642C7.0967 11.3843 7.09916 11.2043 7.09875 11.0248C7.09342 9.7495 7.08563 8.47416 7.08399 7.19881C7.08358 6.98366 7.0229 6.81318 6.86178 6.65949C5.89261 5.73618 4.93081 4.80467 3.96574 3.87726C3.25239 3.19205 2.53657 2.5093 1.82363 1.82368C1.77362 1.77532 1.73713 1.71262 1.69449 1.65688C1.70023 1.64664 1.70597 1.6368 1.71212 1.62656C1.79124 1.62656 1.87078 1.62697 1.9499 1.62656C3.3024 1.62 4.6549 1.61016 6.0074 1.60688C8.02939 1.60238 10.0518 1.60074 12.0738 1.60115C12.7633 1.60115 13.4529 1.61016 14.1425 1.61672C14.1958 1.61713 14.2495 1.6327 14.3028 1.64131Z" fill="#222222"/>
</svg>
