<svg width="23" height="24" viewBox="0 0 23 24" fill="none" xmlns="http://www.w3.org/2000/svg">
<path d="M18.1458 21.1058C16.852 21.1058 15.5583 21.1058 14.2645 21.1034C14.1756 21.1034 14.1194 21.1151 14.0914 21.2176C13.586 23.0483 11.2161 23.9287 9.54798 22.5755C9.11282 22.2214 8.80868 21.7812 8.65661 21.2432C8.62386 21.1267 8.57239 21.1034 8.46009 21.1034C5.91467 21.1058 3.36925 21.1058 0.823835 21.1058C0.748969 21.1058 0.671764 21.1081 0.596899 21.0988C0.220233 21.0429 -0.0183996 20.7378 0.00499584 20.3418C0.0260517 19.9785 0.299778 19.7106 0.669425 19.692C0.730253 19.6896 0.793421 19.6896 0.854249 19.6896C3.38563 19.6896 5.91701 19.6896 8.44839 19.692C8.57239 19.692 8.62386 19.6594 8.66129 19.5359C9.0169 18.3551 10.1282 17.5585 11.3986 17.5655C12.6315 17.5725 13.7451 18.3923 14.082 19.5522C14.1148 19.6687 14.1662 19.692 14.2785 19.692C16.8239 19.6896 19.3694 19.6896 21.9148 19.6896C21.9896 19.6896 22.0669 19.6873 22.1417 19.699C22.5324 19.7595 22.7617 20.06 22.7336 20.4676C22.7079 20.8356 22.4271 21.1011 22.0435 21.1034C20.745 21.1081 19.4466 21.1058 18.1458 21.1058ZM9.95272 20.4C9.95506 21.1756 10.5984 21.8138 11.3752 21.8115C12.1542 21.8092 12.7929 21.1687 12.7882 20.393C12.7859 19.6174 12.1425 18.9816 11.3658 18.9816C10.5844 18.9839 9.95038 19.6221 9.95272 20.4Z" fill="#222222"/>
<path d="M6.72867 11.1928C8.71962 11.1928 10.7106 11.1928 12.7015 11.1951C12.8279 11.1951 12.8863 11.1695 12.9285 11.0344C13.504 9.12915 15.8927 8.44438 17.4625 9.72541C17.8953 10.0794 18.2018 10.5197 18.3492 11.06C18.3796 11.1695 18.4311 11.1928 18.5363 11.1928C19.6874 11.1904 20.8408 11.1904 21.9918 11.1904C22.3615 11.1904 22.6212 11.3698 22.7077 11.6772C22.8504 12.178 22.5299 12.6042 21.9989 12.6042C20.8431 12.6066 19.685 12.6066 18.5293 12.6042C18.4428 12.6042 18.3819 12.6089 18.3538 12.7137C17.8392 14.584 15.3897 15.4528 13.7239 14.0017C13.3355 13.664 13.0641 13.2494 12.9238 12.7556C12.8887 12.6299 12.8325 12.5996 12.7085 12.5996C8.74068 12.6019 4.77515 12.6019 0.807292 12.6042C0.592054 12.6042 0.388514 12.5786 0.227086 12.4226C-0.00218914 12.2013 -0.04898 11.9311 0.0469412 11.6423C0.140523 11.3628 0.351082 11.2184 0.643524 11.1904C0.71839 11.1835 0.795594 11.1858 0.87046 11.1858C2.82398 11.1928 4.77515 11.1928 6.72867 11.1928ZM17.0507 11.9032C17.0531 11.1276 16.4097 10.487 15.633 10.487C14.8586 10.487 14.2105 11.1299 14.2105 11.9008C14.2105 12.6718 14.8562 13.317 15.6306 13.317C16.4074 13.3193 17.0484 12.6811 17.0507 11.9032Z" fill="#222222"/>
<path d="M4.30259 2.69867C4.45933 2.38423 4.56929 2.06747 4.75646 1.80893C5.4396 0.86563 6.38244 0.439396 7.53583 0.618741C8.68455 0.798085 9.46829 1.46189 9.8239 2.58454C9.86367 2.70798 9.93152 2.701 10.0228 2.701C13.2841 2.701 16.5454 2.701 19.8067 2.701C20.5413 2.701 21.276 2.69867 22.0106 2.70332C22.5229 2.70565 22.8388 3.12257 22.7101 3.61635C22.6352 3.9005 22.3919 4.09848 22.0901 4.11479C22.0106 4.11944 21.9287 4.11712 21.8491 4.11712C17.9234 4.11712 14 4.11712 10.0742 4.11246C9.91748 4.11246 9.85198 4.14739 9.80285 4.30578C9.22966 6.12251 6.95796 6.82824 5.41153 5.67997C4.91321 5.30964 4.55994 4.83682 4.39383 4.23823C4.36575 4.13575 4.31662 4.11013 4.21602 4.11246C3.05561 4.11479 1.89286 4.11712 0.732446 4.11246C0.215407 4.11246 -0.10511 3.68389 0.0352628 3.18779C0.119486 2.88966 0.379175 2.69867 0.720748 2.69867C1.58404 2.69634 2.44499 2.69867 3.30828 2.69867C3.65453 2.69867 3.99844 2.69867 4.30259 2.69867ZM5.68993 3.40906C5.68993 4.18699 6.32863 4.82285 7.10769 4.82285C7.88208 4.82285 8.5278 4.17767 8.5278 3.40673C8.5278 2.63578 7.87974 1.99061 7.10536 1.99294C6.32629 1.99294 5.68759 2.63112 5.68993 3.40906Z" fill="#222222"/>
</svg>
