<svg width="234" height="210" viewBox="0 0 234 210" fill="none" xmlns="http://www.w3.org/2000/svg">
<path d="M156.208 27.3556L184.396 43.7373C180.443 41.4346 175.155 41.4196 169.282 44.1049L141.093 27.7231C146.967 25.0378 152.247 25.0528 156.208 27.3556Z" fill="#BFBEED"/>
<path d="M143.659 33.0563C143.779 32.4637 143.801 31.8486 143.719 31.2486L145.676 30.521C145.646 30.806 145.631 31.0986 145.639 31.3911C145.646 31.9837 146.284 31.8936 146.742 31.8036C147.109 31.7361 147.477 31.6386 147.844 31.5486L147.837 33.2063L149.262 33.2138C148.639 33.9414 147.394 33.8814 146.554 34.2114C145.826 34.5039 145.091 35.179 144.251 34.9615C143.981 34.894 143.741 34.6989 143.629 34.4439C143.426 34.0164 143.569 33.5138 143.659 33.0563Z" fill="#FFBFA2"/>
<path d="M144.198 33.4838C145.443 34.0239 147.926 33.3338 147.784 31.5561C147.979 31.5111 148.166 31.4661 148.361 31.4286C148.459 31.4136 148.556 31.3986 148.654 31.3836C148.729 31.3761 148.834 31.3461 148.909 31.3686C149.194 31.4436 149.426 31.6911 149.524 31.9611C149.622 32.2387 149.607 32.5462 149.501 32.8162C149.494 32.8387 149.486 32.8612 149.479 32.8762C149.419 33.0113 149.314 33.1313 149.224 33.2363C149.134 33.3338 149.029 33.4163 148.916 33.4913C148.684 33.6413 148.421 33.7313 148.159 33.8063C147.626 33.9489 147.056 34.0014 146.539 34.2039C145.811 34.4964 145.076 35.1715 144.236 34.954C143.966 34.8865 143.726 34.6914 143.613 34.4364C143.418 34.0089 143.561 33.5138 143.651 33.0488C143.681 32.9137 143.696 32.7712 143.718 32.6287C143.876 33.0263 143.943 33.4838 144.198 33.4838Z" fill="#3A2C99"/>
<path d="M135.295 20.5748L163.483 36.9566C162.861 36.5965 162.201 36.289 161.511 36.0415C157.07 34.4513 151.474 35.3964 145.751 38.7043C144.176 39.6118 142.616 40.6845 141.093 41.8921L112.904 25.5103C114.427 24.2952 115.987 23.2301 117.562 22.3225C123.286 19.0221 128.881 18.077 133.322 19.6597C134.012 19.9072 134.672 20.2148 135.295 20.5748Z" fill="#D3D3F5"/>
<path d="M103.266 25.3678C122.641 14.1841 138.73 21.6699 141.093 41.8995C142.616 40.6844 144.176 39.6193 145.751 38.7117C151.474 35.4113 157.07 34.4662 161.511 36.0489C165.044 37.309 167.729 40.1218 169.282 44.1048C181.808 38.3891 191.635 44.9374 191.68 59.7214C191.725 75.5256 180.571 94.8477 166.814 102.784L61.4179 163.638C43.1531 174.184 28.2487 165.685 28.1887 144.698C28.1287 123.711 42.9355 98.0655 61.2004 87.5194C62.7006 86.6568 64.1858 85.9067 65.6635 85.2842C67.9738 62.4367 83.9283 36.5289 103.266 25.3678Z" fill="#F4F4FA"/>
<path d="M184.111 59.7439C184.149 72.9078 174.495 89.6196 163.034 96.2353L57.6376 157.082C53.6546 159.385 49.8291 160.6 46.5887 160.6C44.2334 160.6 42.3806 159.947 40.933 158.882C36.3949 155.574 35.7723 148.298 35.7648 144.668C35.7123 126.419 49.1015 103.241 64.9885 94.0676C66.2112 93.3625 67.4339 92.7549 68.6115 92.2524L72.7445 90.5047L73.1946 86.0417C75.2724 65.4445 90.1468 41.6745 107.046 31.9159C111.787 29.1781 116.363 27.7305 120.286 27.7305C120.458 27.7305 120.631 27.738 120.803 27.738C130.404 28.0605 132.932 37.249 133.577 42.7696L134.47 50.3754L135.16 56.2785L145.804 47.8101C147.034 46.835 148.287 45.9724 149.539 45.2523C151.482 44.1272 153.41 43.3771 155.12 43.0471C155.773 42.9196 156.395 42.8596 156.98 42.8596C157.723 42.8596 158.391 42.9571 158.968 43.1671C160.386 43.6697 161.481 44.9073 162.231 46.8425L163.671 50.5554L165.126 54.3208L172.417 50.9905C173.662 50.4204 174.878 50.0229 175.995 49.8128C176.64 49.6853 177.255 49.6253 177.826 49.6253C183.271 49.6178 184.104 55.9635 184.111 59.7439Z" fill="#F4F4FA"/>
<path d="M175.995 49.8053C174.878 50.0228 173.67 50.4203 172.417 50.9829L165.126 54.3133L163.671 50.5478L162.231 46.8349C161.481 44.8997 160.386 43.6621 158.968 43.1596C158.391 42.957 157.723 42.852 156.98 42.852C156.395 42.852 155.773 42.912 155.12 43.0395C153.402 43.3696 151.482 44.1272 149.539 45.2448C148.294 45.9649 147.034 46.8274 145.804 47.8026L135.16 56.271L134.47 50.3678L133.577 42.762C132.932 37.2414 130.404 28.0454 120.803 27.7304C120.631 27.7229 120.458 27.7229 120.286 27.7229C116.363 27.7229 111.787 29.1706 107.046 31.9083C90.1468 41.6669 75.2724 65.4444 73.1946 86.0341L72.7446 90.4971L68.6116 92.2598C67.4264 92.7624 66.2113 93.3699 64.9886 94.075C49.0941 103.248 35.7048 126.426 35.7648 144.675C35.7724 148.306 36.3949 155.582 40.933 158.889C44.1134 158.822 47.8189 157.614 51.6744 155.387L157.07 94.5401C168.539 87.9169 178.186 71.2051 178.148 58.0486C178.141 55.5584 177.781 51.9805 175.995 49.8053Z" fill="#3A2C99"/>
<path d="M102.103 6.3533C95.187 2.33287 85.6158 2.88793 75.0694 8.97858C55.7395 20.1473 39.7849 46.055 37.4746 68.9025L65.6632 85.2842C67.9735 62.4368 83.9281 36.5215 103.266 25.3603C113.812 19.2697 123.383 18.7146 130.299 22.7351L102.103 6.3533Z" fill="#DADAF9"/>
<path d="M37.8649 165.925L9.67625 149.544C3.72798 146.086 0.0300089 138.743 0.00750597 128.316C-0.0525017 107.329 14.7544 81.684 33.0192 71.1378C34.5194 70.2752 36.0046 69.5252 37.4823 68.9026L65.6709 85.2843C64.1932 85.9069 62.708 86.6495 61.2079 87.5196C42.943 98.0657 28.1361 123.711 28.1961 144.698C28.2186 155.124 31.9166 162.468 37.8649 165.925Z" fill="#D3D3F5"/>
<path d="M89.6665 93.0025V108.642C89.6665 111.297 91.5342 112.377 93.8295 111.042L110.347 101.508C112.649 100.181 114.51 96.9479 114.51 94.2926V78.6534C114.51 76.8907 113.692 75.8331 112.469 75.6981V72.3603C112.469 65.7521 107.811 63.0593 102.088 66.3671C96.3649 69.675 91.7068 77.7383 91.7068 84.3465V87.6844C90.4916 89.2371 89.6665 91.2398 89.6665 93.0025ZM109.349 74.1755V76.8382L94.8422 85.2166V82.5539C94.8422 77.9334 98.0976 72.3003 102.096 69.99C106.094 67.6723 109.349 69.555 109.349 74.1755ZM98.5326 94.7427C98.5326 92.4699 100.123 89.7096 102.096 88.577C104.061 87.4444 105.659 88.3595 105.659 90.6322C105.659 92.0124 105.066 93.565 104.166 94.8327V99.5882L100.033 101.973V97.2179C99.1252 96.9929 98.5326 96.1228 98.5326 94.7427Z" fill="#F4F5FA"/>
<path d="M112.725 171.296L112.74 176.839C112.74 176.261 113.122 175.676 113.887 175.234C115.41 174.356 117.87 174.356 119.385 175.234C120.136 175.669 120.511 176.239 120.518 176.816L120.503 171.273C120.503 170.703 120.128 170.126 119.37 169.691C117.855 168.813 115.395 168.813 113.872 169.691C113.107 170.133 112.725 170.718 112.725 171.296Z" fill="#FFDE38"/>
<path d="M112.725 171.296L112.74 176.839C112.74 176.741 112.747 176.651 112.77 176.554L112.755 171.011C112.732 171.108 112.725 171.198 112.725 171.296Z" fill="#FFDE38"/>
<path d="M112.754 171.011L112.769 176.554C112.874 176.074 113.249 175.601 113.887 175.234C114.765 174.724 115.965 174.514 117.105 174.589L117.09 169.046C115.942 168.963 114.75 169.181 113.872 169.691C113.234 170.058 112.859 170.531 112.754 171.011Z" fill="#FFC400"/>
<path d="M117.098 169.046L117.113 174.589C117.945 174.649 118.755 174.859 119.393 175.234C120.143 175.669 120.518 176.239 120.526 176.816L120.511 171.273C120.511 170.703 120.136 170.126 119.378 169.691C118.74 169.323 117.93 169.106 117.098 169.046Z" fill="#FFB700"/>
<path d="M125.169 173.194L125.191 178.737L125.206 175.024L125.191 169.481L125.169 173.194Z" fill="#FFDE38"/>
<path d="M90.792 170.171L90.807 175.714L107.354 185.33L107.339 179.787L90.792 170.171Z" fill="#E19908"/>
<path d="M113.752 179.787L113.767 185.33L125.191 178.737L125.169 173.194L113.752 179.787Z" fill="#FFC400"/>
<path d="M107.339 179.787L107.354 185.33H113.768L113.753 179.787H107.339Z" fill="#FFB700"/>
<path d="M102.231 159.865C104.736 159.865 106.139 159.865 108.644 159.865L125.191 169.481L125.176 173.194L113.752 179.787H107.339L90.792 170.171C90.7995 168.723 90.807 167.906 90.8145 166.458L102.231 159.865ZM119.356 172.879C120.878 172.001 120.886 170.576 119.371 169.691C117.855 168.813 115.395 168.813 113.872 169.691C112.35 170.568 112.335 171.994 113.85 172.879C115.365 173.756 117.833 173.756 119.356 172.879Z" fill="#FFDE38"/>
<path d="M97.31 175.084L51.4341 201.742C51.8091 201.524 52.3267 201.554 52.9043 201.884L98.7802 175.226C98.2026 174.896 97.685 174.866 97.31 175.084Z" fill="#FFC400"/>
<path d="M52.8967 201.891L98.7725 175.234L98.765 175.226L52.8892 201.884C52.8892 201.884 52.8967 201.884 52.8967 201.891Z" fill="#FFC400"/>
<path d="M52.8893 201.884L98.7651 175.226C98.1951 174.904 97.6775 174.874 97.31 175.091L51.4341 201.749C51.8016 201.532 52.3192 201.562 52.8893 201.884Z" fill="#FFC400"/>
<path d="M54.3597 206.782L100.236 180.124C100.603 179.907 100.836 179.449 100.836 178.804C100.843 177.492 99.9205 175.894 98.7729 175.234L52.897 201.892C54.0371 202.552 54.9597 204.149 54.9597 205.462C54.9597 206.107 54.7272 206.565 54.3597 206.782Z" fill="#FFB700"/>
<path d="M54.3599 206.782L100.236 180.125C100.453 179.997 100.626 179.787 100.723 179.502L54.8474 206.16C54.7424 206.445 54.5774 206.655 54.3599 206.782Z" fill="#FFB700"/>
<path d="M54.8472 206.16L100.723 179.502C100.798 179.307 100.836 179.067 100.836 178.804C100.836 178.789 100.836 178.782 100.836 178.767L54.9597 205.425C54.9597 205.44 54.9597 205.447 54.9597 205.462C54.9597 205.725 54.9222 205.957 54.8472 206.16Z" fill="#FFB700"/>
<path d="M54.9596 205.417L100.836 178.759C100.836 178.429 100.768 178.077 100.663 177.732L54.7871 204.397C54.8921 204.742 54.9521 205.087 54.9596 205.417Z" fill="#FFB700"/>
<path d="M54.7874 204.397L100.663 177.739C100.528 177.297 100.311 176.861 100.048 176.471L54.1724 203.129C54.4349 203.519 54.6449 203.954 54.7874 204.397Z" fill="#FFC400"/>
<path d="M54.172 203.129L100.048 176.472C99.8754 176.209 99.6728 175.969 99.4628 175.759L53.5869 202.417C53.7969 202.627 53.992 202.867 54.172 203.129Z" fill="#FFDE38"/>
<path d="M53.5796 202.417L99.4554 175.759C99.2454 175.549 99.0129 175.369 98.7729 175.234L52.897 201.892C53.137 202.027 53.3695 202.207 53.5796 202.417Z" fill="#FFDE38"/>
<path d="M52.8969 201.892C51.7568 201.232 50.8267 201.764 50.8267 203.077C50.8267 204.389 51.7418 205.98 52.8819 206.64C54.0221 207.3 54.9522 206.767 54.9522 205.462C54.9597 204.149 54.0446 202.552 52.8969 201.892Z" fill="#E19908"/>
<path d="M61.7857 201.779L61.7707 204.907L60.5181 204.18L60.5256 201.052L61.7857 201.779Z" fill="#FFB700"/>
<path d="M74.4623 203.077L74.4473 206.205L73.3896 205.59L73.3972 202.462L74.4623 203.077Z" fill="#E19908"/>
<path d="M75.4149 202.514L75.4074 205.65L74.4473 206.205L74.4623 203.077L75.4149 202.514Z" fill="#FFB700"/>
<path d="M73.3972 202.462L73.3897 205.59L72.0396 206.37L72.0471 203.242L73.3972 202.462Z" fill="#FFB700"/>
<path d="M69.3839 204.787L69.3764 207.915L68.0337 208.703L68.0412 205.567L69.3839 204.787Z" fill="#FFB700"/>
<path d="M62.2882 205.59L62.2807 208.718L58.7402 206.67L58.7477 203.542L62.2882 205.59Z" fill="#E19908"/>
<path d="M63.9985 204.6L63.9835 207.727L62.2808 208.718L62.2883 205.59L63.9985 204.6Z" fill="#FFB700"/>
<path d="M73.9373 204.337L73.9298 207.465L71.2744 209.01L71.2819 205.882L73.9373 204.337Z" fill="#FFB700"/>
<path d="M71.2817 205.882L71.2742 209.01L69.3765 207.915L69.384 204.787L71.2817 205.882Z" fill="#E19908"/>
<path d="M67.9289 206.865L67.9214 210L63.9834 207.727L63.9984 204.6L67.9289 206.865Z" fill="#E19908"/>
<path d="M75.4147 202.514L74.4621 203.077L73.3969 202.462L72.0468 203.242L73.937 204.337L71.2817 205.882L69.3839 204.787L68.0413 205.567L69.1064 206.182L67.9287 206.865L63.9982 204.6L62.288 205.59L58.7476 203.542L61.7855 201.779L60.5253 201.052L65.5659 198.119L66.8261 198.846L67.9362 198.201L75.4147 202.514Z" fill="#FFC400"/>
<path d="M69.1065 206.182L69.099 209.318L67.9214 210L67.9289 206.865L69.1065 206.182Z" fill="#FFB700"/>
<path d="M77.6346 197.534L77.6271 200.286L75.4443 201.554L75.4518 198.801L77.6346 197.534Z" fill="#FFC400"/>
<path d="M75.4521 198.801L75.4446 201.554L69.9014 198.359L69.9089 195.606L75.4521 198.801Z" fill="#E19908"/>
<path d="M77.6347 197.534L75.4519 198.801L69.9087 195.606L72.099 194.338L77.6347 197.534Z" fill="#FFC400"/>
<path d="M217.363 41.022L222.854 44.2098C225.734 45.8825 229.649 45.7625 233.992 43.5047L228.502 40.3169C224.159 42.5746 220.243 42.6946 217.363 41.022Z" fill="#FFB700"/>
<path d="M234 43.5047L228.509 40.3169C224.166 42.5746 220.243 42.6946 217.37 41.022L222.861 44.2098C225.734 45.8825 229.649 45.7625 234 43.5047Z" fill="#FFB700"/>
<path d="M217.94 33.4012L212.45 30.2133C211.497 30.1908 193.352 29.8083 174.862 40.4894L180.353 43.6773C198.843 32.9961 216.988 33.3787 217.94 33.4012Z" fill="#FFB700"/>
<path d="M217.94 33.4012L212.45 30.2133C211.497 30.1908 193.352 29.8083 174.862 40.4894L180.353 43.6773C198.843 32.9961 216.988 33.3787 217.94 33.4012Z" fill="#FFB700"/>
<path d="M154.122 167.913L159.613 171.101C146.261 163.345 130.832 145.651 126.886 105.341L121.396 102.154C125.341 142.463 140.77 160.157 154.122 167.913Z" fill="#FFB700"/>
<path d="M126.886 105.341L121.396 102.154C125.341 142.463 140.77 160.157 154.122 167.913L159.613 171.101C146.261 163.345 130.832 145.651 126.886 105.341Z" fill="#FFB700"/>
<path d="M142.833 76.7633L137.343 73.5754C137.373 83.9415 130.307 96.4979 121.396 102.154L126.886 105.341C135.79 99.6932 142.863 87.1369 142.833 76.7633Z" fill="#FFB700"/>
<path d="M142.833 76.7633L137.343 73.5754C137.373 83.9415 130.307 96.4979 121.396 102.154L126.886 105.341C135.79 99.6932 142.863 87.1369 142.833 76.7633Z" fill="#FFB700"/>
<path d="M180.353 43.6773L174.863 40.4895C156.373 51.1631 138.288 72.4579 137.343 73.583L142.833 76.7709C143.786 75.6458 161.863 54.351 180.353 43.6773Z" fill="#FFB700"/>
<path d="M180.353 43.6773L174.863 40.4895C156.373 51.1631 138.288 72.4579 137.343 73.583L142.833 76.7709C143.786 75.6458 161.863 54.351 180.353 43.6773Z" fill="#FFB700"/>
<path d="M180.353 43.6774C161.863 54.351 143.778 75.6458 142.833 76.7709C142.863 87.137 135.797 99.6934 126.886 105.349C134.005 177.994 178.395 177.184 180.736 177.147C183.068 174.491 227.317 124.116 234 43.5123C225.089 48.1478 217.97 43.7824 217.94 33.4163C216.988 33.3788 198.843 32.9962 180.353 43.6774Z" fill="#FFDE38"/>
<path d="M177.953 170.778C186.931 159.85 219.155 116.69 226.919 51.5756C220.798 51.4331 214.692 47.7577 212.532 39.8818C206.149 40.4894 194.86 42.4921 183.466 49.0703C168.539 57.6887 153.702 73.8155 148.961 79.201C148.129 89.7622 141.918 101.328 133.464 108.252C135.107 122.038 138.31 133.829 142.998 143.34C146.981 151.434 152.059 157.899 158.075 162.572C166.071 168.761 173.962 170.366 177.953 170.778Z" fill="#FFC400"/>
<path d="M175.507 170.426C176.43 170.591 177.255 170.703 177.96 170.771C186.939 159.85 219.163 116.69 226.926 51.5757C226.116 51.5607 225.306 51.4781 224.504 51.3281C216.313 114.32 186.189 156.992 175.507 170.426Z" fill="#FFB700"/>
<path d="M180.195 138.802C170.377 144.473 162.388 139.86 162.388 128.519V105.844C162.388 94.5026 170.377 80.6711 180.195 75.0005C190.014 69.3299 198.003 73.9429 198.003 85.2841V107.959C198.003 119.293 190.014 133.132 180.195 138.802ZM180.195 76.0507C170.879 81.4287 163.296 94.5626 163.296 105.319V127.994C163.296 138.75 170.879 143.13 180.195 137.752C189.512 132.374 197.095 119.24 197.095 108.484V85.8092C197.095 75.0455 189.512 70.6726 180.195 76.0507Z" fill="white"/>
<path d="M180.195 138.802C170.377 144.473 162.388 139.86 162.388 128.519V105.844C162.388 94.5026 170.377 80.6711 180.195 75.0005C190.014 69.3299 198.003 73.9429 198.003 85.2841V107.959C198.003 119.293 190.014 133.132 180.195 138.802ZM180.195 76.0507C170.879 81.4287 163.296 94.5626 163.296 105.319V127.994C163.296 138.75 170.879 143.13 180.195 137.752C189.512 132.374 197.095 119.24 197.095 108.484V85.8092C197.095 75.0455 189.512 70.6726 180.195 76.0507Z" fill="white"/>
<path d="M180.24 134.842L180.195 134.864C177.863 136.207 175.552 136.89 173.497 136.822C173.272 136.815 173.189 136.545 173.309 136.222C173.429 135.899 173.699 135.644 173.924 135.652C175.845 135.712 178.013 135.082 180.195 133.822L180.24 133.799C180.315 133.754 180.39 133.732 180.458 133.739C180.518 133.657 180.593 133.589 180.675 133.544C181.763 132.869 182.851 132.052 183.893 131.106C184.133 130.889 184.388 130.904 184.456 131.144C184.523 131.384 184.381 131.752 184.141 131.969C183.023 132.982 181.876 133.852 180.705 134.572C180.623 134.624 180.54 134.647 180.473 134.639C180.405 134.722 180.323 134.789 180.24 134.842ZM170.939 136.147C170.834 136.207 170.722 136.23 170.639 136.192C170.527 136.14 170.407 136.087 170.294 136.027C170.114 135.929 170.107 135.607 170.279 135.299C170.452 134.992 170.737 134.812 170.924 134.909C171.029 134.962 171.134 135.014 171.247 135.067C171.434 135.149 171.449 135.472 171.284 135.787C171.194 135.937 171.067 136.072 170.939 136.147ZM189.812 124.866C189.692 124.933 189.572 124.948 189.481 124.896C189.309 124.783 189.316 124.453 189.497 124.146C189.602 123.973 189.707 123.793 189.804 123.613C189.977 123.306 190.269 123.133 190.449 123.238C190.629 123.336 190.629 123.666 190.457 123.973C190.352 124.161 190.239 124.356 190.127 124.543C190.037 124.686 189.924 124.798 189.812 124.866ZM192.182 120.05C192.099 120.095 192.024 120.118 191.949 120.11C191.732 120.088 191.664 119.803 191.792 119.48C192.902 116.675 193.555 113.832 193.667 111.259C193.675 111.169 193.697 111.064 193.735 110.974C193.697 110.922 193.682 110.839 193.682 110.749C193.682 110.644 193.682 110.547 193.682 110.449V106.864C193.682 106.571 193.885 106.219 194.14 106.076C194.387 105.934 194.597 106.046 194.597 106.339V109.924C194.597 110.029 194.597 110.142 194.597 110.247C194.597 110.344 194.575 110.449 194.53 110.547C194.567 110.607 194.582 110.689 194.582 110.787C194.462 113.54 193.772 116.57 192.587 119.563C192.489 119.788 192.339 119.968 192.182 120.05ZM166.994 131.587C166.806 131.699 166.626 131.662 166.566 131.481C166.191 130.431 165.951 129.246 165.846 127.971C165.838 127.881 165.853 127.776 165.891 127.671C165.846 127.619 165.823 127.544 165.816 127.454C165.801 127.161 165.793 126.861 165.793 126.553V119.645C165.793 119.353 165.996 119 166.251 118.858C166.499 118.715 166.709 118.828 166.709 119.12V126.028C166.709 126.313 166.716 126.598 166.731 126.869C166.739 126.959 166.716 127.056 166.686 127.146C166.724 127.191 166.754 127.259 166.761 127.349C166.859 128.549 167.084 129.651 167.436 130.641C167.519 130.866 167.391 131.241 167.151 131.474C167.091 131.519 167.046 131.557 166.994 131.587ZM166.251 116.007C166.003 116.15 165.793 116.037 165.793 115.745V115.227C165.793 114.935 165.996 114.582 166.251 114.44C166.499 114.297 166.709 114.41 166.709 114.702V115.22C166.701 115.512 166.499 115.865 166.251 116.007ZM194.14 99.333C193.892 99.4756 193.682 99.3631 193.682 99.0705V98.553C193.682 98.2604 193.885 97.9079 194.14 97.7654C194.387 97.6229 194.597 97.7354 194.597 98.0279V98.5455C194.597 98.838 194.387 99.1905 194.14 99.333ZM194.14 94.9226C193.892 95.0651 193.682 94.9526 193.682 94.6601V87.7743C193.682 87.4818 193.675 87.1893 193.66 86.9117C193.652 86.8217 193.675 86.7242 193.705 86.6342C193.667 86.5892 193.637 86.5217 193.63 86.4317C193.532 85.2315 193.307 84.1289 192.954 83.1463C192.872 82.9213 192.999 82.5463 193.239 82.3137C193.48 82.0812 193.735 82.0812 193.817 82.3062C194.192 83.3563 194.44 84.534 194.537 85.8166C194.545 85.9066 194.53 86.0116 194.492 86.1166C194.537 86.1691 194.567 86.2442 194.567 86.3342C194.582 86.6342 194.59 86.9492 194.59 87.2568V94.1425C194.597 94.42 194.387 94.7726 194.14 94.9226ZM166.251 107.696C166.003 107.839 165.793 107.726 165.793 107.434V103.879C165.793 103.759 165.793 103.646 165.793 103.526C165.793 103.428 165.823 103.323 165.861 103.218C165.823 103.158 165.808 103.076 165.808 102.978C165.928 100.226 166.626 97.1878 167.819 94.195C167.946 93.8725 168.224 93.6324 168.441 93.6549C168.659 93.6774 168.726 93.9625 168.599 94.285C167.481 97.0903 166.829 99.9331 166.716 102.506C166.709 102.596 166.686 102.701 166.649 102.791C166.686 102.843 166.701 102.926 166.701 103.016C166.701 103.128 166.701 103.233 166.701 103.346V106.901C166.701 107.201 166.499 107.554 166.251 107.696ZM170.272 90.5046C170.159 90.5721 170.039 90.5871 169.949 90.5346C169.769 90.4371 169.769 90.0996 169.941 89.792C170.047 89.6045 170.159 89.417 170.272 89.2295C170.452 88.9219 170.737 88.7644 170.917 88.8769C171.089 88.9894 171.082 89.3195 170.902 89.627C170.797 89.7995 170.692 89.9795 170.594 90.1596C170.512 90.3171 170.392 90.4371 170.272 90.5046ZM189.759 78.8559C189.647 78.9234 189.534 78.9384 189.444 78.8934C189.339 78.8409 189.234 78.7884 189.121 78.7434C188.934 78.6608 188.919 78.3383 189.084 78.0233C189.249 77.7082 189.534 77.5282 189.722 77.6107C189.834 77.6632 189.954 77.7157 190.067 77.7757C190.247 77.8658 190.254 78.1958 190.082 78.5033C189.999 78.6608 189.879 78.7884 189.759 78.8559ZM186.661 78.0908C186.586 78.1283 186.519 78.1508 186.451 78.1508C184.538 78.0908 182.371 78.7283 180.195 79.981C180.113 80.026 180.03 80.0485 179.963 80.041C179.895 80.1235 179.82 80.1985 179.738 80.251C178.65 80.9261 177.562 81.7437 176.52 82.6888C176.28 82.9063 176.025 82.8913 175.957 82.6513C175.89 82.4112 176.032 82.0437 176.272 81.8262C177.39 80.8211 178.538 79.9435 179.708 79.2234C179.79 79.1709 179.873 79.1484 179.94 79.1559C180.008 79.0734 180.083 78.9984 180.173 78.9459L180.195 78.9309C182.521 77.5882 184.823 76.9132 186.871 76.9732C187.096 76.9807 187.179 77.2507 187.059 77.5732C186.984 77.7982 186.826 77.9933 186.661 78.0908Z" fill="white"/>
<path d="M180.203 130.927C176.835 132.869 173.707 132.937 171.6 131.107C171.442 130.972 171.472 130.619 171.675 130.327C171.87 130.034 172.155 129.906 172.312 130.042C174.24 131.722 177.113 131.662 180.196 129.884L180.241 129.861C180.488 129.719 180.698 129.831 180.698 130.124C180.698 130.417 180.496 130.769 180.241 130.912L180.203 130.927ZM182.468 129.329C182.258 129.449 182.071 129.389 182.026 129.171C181.973 128.916 182.123 128.549 182.371 128.346C185.334 125.879 187.907 122.053 189.249 118.123C189.362 117.8 189.632 117.538 189.857 117.53C190.082 117.53 190.172 117.785 190.067 118.115C188.604 122.406 185.799 126.569 182.566 129.261C182.536 129.291 182.506 129.314 182.468 129.329ZM170.744 129.606C170.579 129.704 170.414 129.689 170.339 129.554C169.582 128.234 169.199 126.561 169.199 124.588V119.248C169.199 118.955 169.402 118.603 169.657 118.46C169.904 118.318 170.114 118.43 170.114 118.723V124.063C170.114 125.871 170.467 127.409 171.157 128.616C171.269 128.811 171.179 129.179 170.954 129.441C170.887 129.509 170.812 129.569 170.744 129.606ZM190.427 115.76C190.389 115.782 190.352 115.797 190.314 115.805C190.074 115.88 189.924 115.677 189.984 115.362C190.179 114.342 190.277 113.352 190.277 112.415V104.419C190.277 104.126 190.479 103.774 190.734 103.631C190.982 103.489 191.192 103.601 191.192 103.894V111.89C191.192 112.917 191.087 113.997 190.877 115.107C190.817 115.377 190.637 115.64 190.427 115.76ZM169.657 116.908C169.409 117.05 169.199 116.938 169.199 116.645V105.716C169.199 105.424 169.402 105.071 169.657 104.929C169.904 104.786 170.114 104.899 170.114 105.191V116.12C170.107 116.405 169.904 116.758 169.657 116.908ZM190.734 102.086C190.487 102.229 190.277 102.116 190.277 101.823V90.8948C190.277 90.6023 190.479 90.2497 190.734 90.1072C190.982 89.9647 191.192 90.0772 191.192 90.3698V101.298C191.185 101.591 190.982 101.944 190.734 102.086ZM169.657 103.376C169.409 103.519 169.199 103.406 169.199 103.114V101.906C169.199 98.4556 170.384 94.5402 172.53 90.8873C172.71 90.5798 172.995 90.4223 173.175 90.5273C173.347 90.6323 173.347 90.9698 173.167 91.2774C171.194 94.6302 170.114 98.2156 170.114 101.381V102.589C170.107 102.881 169.904 103.234 169.657 103.376ZM190.659 88.5996C190.434 88.7271 190.239 88.6446 190.209 88.3971C189.849 85.0817 188.132 82.9665 185.499 82.5989C185.289 82.5689 185.221 82.2839 185.349 81.9614C185.484 81.6388 185.761 81.3988 185.971 81.4288C188.837 81.8263 190.712 84.1291 191.11 87.752C191.14 88.022 190.96 88.3896 190.712 88.5621C190.697 88.5771 190.674 88.5921 190.659 88.5996ZM174.615 88.9896C174.465 89.0796 174.315 89.0721 174.232 88.9671C174.097 88.8021 174.165 88.4346 174.375 88.1645C176.115 85.8993 178.133 84.0691 180.196 82.8765C181.456 82.1489 182.686 81.6838 183.864 81.4888C184.104 81.4513 184.224 81.6763 184.141 81.9989C184.059 82.3214 183.796 82.6139 183.564 82.6514C182.483 82.8315 181.351 83.259 180.203 83.9266C178.313 85.0217 176.468 86.6944 174.87 88.7721C174.78 88.8621 174.697 88.9371 174.615 88.9896Z" fill="white"/>
<path d="M180.203 126.989C179.19 127.574 178.208 127.911 177.293 128.001C177.06 128.024 176.948 127.784 177.045 127.454C177.143 127.124 177.405 126.854 177.638 126.831C178.448 126.749 179.31 126.456 180.195 125.946L180.225 125.931C180.263 125.908 180.3 125.893 180.33 125.886C180.368 125.856 180.398 125.826 180.435 125.803C182.131 124.753 183.728 123.021 184.929 120.928C185.101 120.62 185.394 120.455 185.574 120.553C185.754 120.65 185.754 120.988 185.574 121.295C184.208 123.673 182.393 125.638 180.465 126.831C180.42 126.861 180.383 126.876 180.338 126.891C180.3 126.929 180.255 126.959 180.21 126.981L180.203 126.989ZM173.7 125.908C173.527 126.006 173.362 125.991 173.287 125.841C173.257 125.773 173.22 125.706 173.19 125.638C173.092 125.428 173.205 125.053 173.437 124.813C173.67 124.566 173.932 124.543 174.03 124.753C174.06 124.813 174.09 124.873 174.12 124.933C174.225 125.136 174.12 125.503 173.895 125.758C173.82 125.818 173.76 125.871 173.7 125.908ZM186.796 118.07C186.736 118.1 186.676 118.123 186.624 118.13C186.391 118.153 186.279 117.913 186.376 117.59C186.406 117.5 186.429 117.403 186.459 117.313C186.549 116.99 186.811 116.697 187.044 116.667C187.276 116.63 187.396 116.862 187.314 117.185C187.284 117.29 187.254 117.403 187.224 117.508C187.141 117.748 186.976 117.965 186.796 118.07ZM173.062 122.878C172.815 123.021 172.604 122.908 172.604 122.616V116.412C172.604 116.367 172.612 116.315 172.619 116.27C172.612 116.232 172.604 116.187 172.604 116.142V112.91C172.604 112.617 172.807 112.264 173.062 112.122C173.31 111.979 173.52 112.092 173.52 112.385V115.617C173.52 115.662 173.512 115.715 173.505 115.76C173.512 115.797 173.52 115.842 173.52 115.887V122.091C173.52 122.376 173.31 122.728 173.062 122.878ZM187.321 111.372C187.074 111.514 186.864 111.402 186.864 111.109V107.877C186.864 107.832 186.871 107.779 186.879 107.734C186.871 107.697 186.864 107.652 186.864 107.606V101.403C186.864 101.111 187.066 100.758 187.321 100.616C187.569 100.473 187.779 100.586 187.779 100.878V107.081C187.779 107.126 187.771 107.179 187.764 107.224C187.771 107.261 187.779 107.306 187.779 107.351V110.584C187.779 110.877 187.576 111.229 187.321 111.372ZM173.062 106.969C172.815 107.111 172.604 106.999 172.604 106.706V106.436C172.604 106.144 172.807 105.791 173.062 105.649C173.31 105.506 173.52 105.619 173.52 105.911V106.181C173.52 106.474 173.31 106.826 173.062 106.969ZM187.321 98.4255C187.074 98.568 186.864 98.4555 186.864 98.163V97.8929C186.864 97.6004 187.066 97.2479 187.321 97.1054C187.569 96.9629 187.779 97.0754 187.779 97.3679V97.6379C187.779 97.9305 187.576 98.283 187.321 98.4255ZM173.062 103.466C172.815 103.609 172.604 103.496 172.604 103.204V99.9482C172.604 98.8981 172.762 97.7729 173.085 96.6103C173.1 96.5578 173.122 96.4978 173.145 96.4453C173.152 96.3928 173.16 96.3403 173.175 96.2878C173.557 95.0051 174.105 93.7225 174.817 92.4924C174.997 92.1848 175.282 92.0198 175.462 92.1173C175.642 92.2223 175.642 92.5524 175.462 92.8599C174.84 93.9475 174.352 95.0651 174.015 96.1978C174 96.2503 173.985 96.2953 173.962 96.3403C173.955 96.3853 173.947 96.4303 173.94 96.4828C173.662 97.5029 173.52 98.493 173.52 99.4231V102.678C173.52 102.963 173.31 103.316 173.062 103.466ZM187.321 91.9598C187.074 92.1023 186.864 91.9898 186.864 91.6973C186.864 90.6772 186.691 89.7846 186.354 89.042C186.339 89.012 186.331 88.9745 186.324 88.937C186.301 88.9145 186.279 88.892 186.264 88.862C185.559 87.4818 184.298 86.8068 182.731 86.9643C182.498 86.9868 182.386 86.7468 182.483 86.4242C182.581 86.1017 182.843 85.8242 183.076 85.7942C184.861 85.6141 186.286 86.3792 187.089 87.9469C187.104 87.9844 187.119 88.0219 187.126 88.0669C187.149 88.0894 187.171 88.1194 187.186 88.1569C187.569 88.997 187.764 90.0171 187.771 91.1722C187.779 91.4573 187.576 91.8098 187.321 91.9598ZM179.948 87.9994C179.7 88.1419 179.505 88.0369 179.49 87.7519C179.483 87.4668 179.678 87.1143 179.925 86.9568C180.008 86.9043 180.098 86.8518 180.173 86.8068C180.42 86.6642 180.623 86.7768 180.631 87.0693C180.631 87.3618 180.428 87.7144 180.18 87.8569C180.105 87.9019 180.03 87.9469 179.963 87.9844C179.955 87.9919 179.948 87.9994 179.948 87.9994Z" fill="white"/>
<path d="M180.21 123.058C179.385 123.538 178.568 123.726 177.878 123.591C177.667 123.553 177.615 123.253 177.75 122.938C177.893 122.616 178.17 122.391 178.38 122.428C178.92 122.533 179.543 122.391 180.195 122.016C180.443 121.873 180.66 121.986 180.66 122.271C180.653 122.563 180.458 122.908 180.21 123.058ZM182.618 120.621C182.491 120.696 182.363 120.703 182.273 120.636C182.108 120.508 182.131 120.17 182.318 119.87C182.813 119.098 183.166 118.25 183.338 117.433C183.406 117.118 183.653 116.81 183.901 116.743C184.141 116.683 184.283 116.893 184.216 117.208C183.991 118.25 183.541 119.33 182.911 120.321C182.828 120.456 182.723 120.561 182.618 120.621ZM176.61 122.008C176.415 122.121 176.227 122.076 176.175 121.881C176.07 121.513 176.017 121.101 176.017 120.658V119.315C176.017 119.023 176.22 118.67 176.475 118.528C176.722 118.385 176.932 118.498 176.932 118.79V120.133C176.932 120.486 176.977 120.808 177.052 121.093C177.12 121.333 176.977 121.701 176.737 121.918C176.692 121.956 176.655 121.986 176.61 122.008ZM183.916 114.747C183.668 114.89 183.458 114.777 183.458 114.485V111.957C183.458 111.665 183.661 111.312 183.916 111.17C184.163 111.027 184.373 111.14 184.373 111.432V113.96C184.373 114.252 184.171 114.605 183.916 114.747ZM176.467 116.54C176.22 116.683 176.01 116.57 176.01 116.278V113.75C176.01 113.457 176.212 113.105 176.467 112.962C176.715 112.82 176.925 112.932 176.925 113.225V115.753C176.925 116.038 176.722 116.39 176.467 116.54ZM183.916 109.182C183.668 109.324 183.458 109.212 183.458 108.919V106.392C183.458 106.099 183.661 105.746 183.916 105.604C184.163 105.461 184.373 105.574 184.373 105.866V108.394C184.373 108.687 184.171 109.039 183.916 109.182ZM176.467 110.975C176.22 111.117 176.01 111.005 176.01 110.712V108.184C176.01 107.892 176.212 107.539 176.467 107.397C176.715 107.254 176.925 107.367 176.925 107.659V110.187C176.925 110.472 176.722 110.824 176.467 110.975ZM183.916 103.616C183.668 103.759 183.458 103.646 183.458 103.354V100.826C183.458 100.533 183.661 100.181 183.916 100.038C184.163 99.8958 184.373 100.008 184.373 100.301V102.829C184.373 103.121 184.171 103.474 183.916 103.616ZM176.467 105.401C176.22 105.544 176.01 105.431 176.01 105.139V102.611C176.01 102.319 176.212 101.966 176.467 101.824C176.715 101.681 176.925 101.794 176.925 102.086V104.614C176.925 104.906 176.722 105.259 176.467 105.401ZM183.916 98.0506C183.668 98.1931 183.458 98.0806 183.458 97.7881V95.2603C183.458 94.9678 183.661 94.6152 183.916 94.4727C184.163 94.3302 184.373 94.4427 184.373 94.7353V97.263C184.373 97.5556 184.171 97.9081 183.916 98.0506ZM176.467 99.8358C176.22 99.9783 176.01 99.8658 176.01 99.5733V97.9681C176.01 97.6231 176.04 97.2555 176.107 96.8805C176.16 96.5655 176.407 96.2504 176.647 96.1679C176.895 96.0854 177.045 96.2804 176.992 96.5955C176.94 96.888 176.917 97.173 176.917 97.4506V99.0557C176.925 99.3408 176.722 99.6933 176.467 99.8358ZM183.706 92.635C183.518 92.7401 183.346 92.71 183.278 92.53C183.061 91.9525 182.678 91.5624 182.161 91.4124C181.958 91.3524 181.921 91.0449 182.071 90.7298C182.221 90.4148 182.506 90.1973 182.708 90.2573C183.368 90.4523 183.863 90.9474 184.141 91.6899C184.223 91.915 184.103 92.29 183.863 92.5225C183.811 92.5675 183.758 92.605 183.706 92.635ZM177.945 93.9627C177.81 94.0452 177.675 94.0452 177.585 93.9627C177.435 93.8202 177.472 93.4676 177.675 93.1751C178.335 92.215 179.123 91.4274 179.948 90.8874C180.203 90.7223 180.413 90.8198 180.428 91.1049C180.443 91.3824 180.255 91.7424 180 91.9075C179.355 92.3275 178.74 92.9426 178.223 93.6927C178.133 93.8127 178.043 93.9027 177.945 93.9627Z" fill="white"/>
<path d="M178.583 103.444C178.335 103.586 178.125 103.474 178.125 103.181C178.125 101.861 179.055 100.256 180.195 99.6033C180.57 99.3858 180.945 99.2883 181.268 99.3333C181.485 99.3633 181.553 99.6408 181.418 99.9633C181.29 100.286 181.005 100.526 180.795 100.503C180.615 100.481 180.405 100.533 180.195 100.653C179.558 101.021 179.033 101.921 179.033 102.664C179.033 102.949 178.83 103.301 178.583 103.444Z" fill="white"/>
<path d="M181.808 110.059C181.561 110.202 181.351 110.089 181.351 109.797V107.284C181.351 106.992 181.553 106.639 181.808 106.497C182.056 106.354 182.266 106.467 182.266 106.759V109.272C182.258 109.557 182.056 109.909 181.808 110.059ZM181.808 102.521C181.561 102.664 181.351 102.551 181.351 102.259V101.921C181.351 101.629 181.553 101.276 181.808 101.133C182.056 100.991 182.266 101.103 182.266 101.396V101.734C182.258 102.019 182.056 102.371 181.808 102.521Z" fill="white"/>
<path d="M180.195 114.2C179.948 114.342 179.738 114.23 179.738 113.937C179.738 113.645 179.94 113.292 180.195 113.15C180.833 112.782 181.358 111.882 181.358 111.139V110.127C181.358 109.834 181.561 109.482 181.816 109.339C182.063 109.197 182.273 109.309 182.273 109.602V110.614C182.258 111.935 181.335 113.54 180.195 114.2Z" fill="white"/>
<path d="M129.309 60.4115L126.301 58.6638L126.249 41.2319L129.256 42.9796L129.309 60.4115Z" fill="#CBC3D0"/>
<path d="M129.256 42.9796L126.249 41.2319L197.665 0L200.681 1.74769L129.256 42.9796Z" fill="#F1F1F1"/>
<path d="M200.681 1.7478L200.726 19.1797L129.309 60.4116L129.256 42.9797L200.681 1.7478Z" fill="#DADAF9"/>
<path d="M133.284 51.5156V54.7634L131.642 55.716V46.4976L134.754 44.6974C135.355 44.3523 135.88 44.1723 136.337 44.1648C136.795 44.1573 137.14 44.3148 137.387 44.6374C137.635 44.9599 137.755 45.4249 137.755 46.0175C137.755 46.9176 137.485 47.7877 136.952 48.6203C136.42 49.4529 135.677 50.1354 134.732 50.683L133.284 51.5156ZM133.284 49.9779L134.754 49.1303C135.19 48.8828 135.52 48.5678 135.752 48.2002C135.977 47.8327 136.097 47.4277 136.097 46.9926C136.097 46.5426 135.985 46.2425 135.752 46.1C135.52 45.9575 135.205 45.995 134.8 46.22L133.292 47.0901V49.9779H133.284Z" fill="#3A2C99"/>
<path d="M141.828 46.4526L140.515 47.2102V50.5855L138.873 51.5381V42.3196L141.835 40.6094C142.781 40.0619 143.508 39.8894 144.018 40.0769C144.528 40.2644 144.783 40.8045 144.783 41.6896C144.783 42.3196 144.663 42.9122 144.431 43.4673C144.198 44.0223 143.838 44.5624 143.358 45.0874L145.083 47.8552V47.9452L143.321 48.9653L141.828 46.4526ZM140.523 45.6725L141.85 44.9074C142.263 44.6674 142.586 44.3599 142.811 43.9923C143.036 43.6173 143.148 43.2197 143.148 42.7922C143.148 42.3571 143.043 42.0796 142.826 41.9521C142.608 41.8246 142.286 41.8921 141.843 42.1471L140.523 42.9122V45.6725Z" fill="#3A2C99"/>
<path d="M152.592 39.2143C152.592 40.1219 152.449 40.9995 152.172 41.8396C151.894 42.6872 151.497 43.4373 150.979 44.1124C150.462 44.7799 149.869 45.3125 149.202 45.695C148.541 46.0776 147.949 46.2351 147.431 46.1676C146.914 46.1001 146.509 45.8075 146.224 45.29C145.939 44.7724 145.796 44.0749 145.789 43.1898V42.7322C145.789 41.8246 145.931 40.947 146.216 40.0919C146.501 39.2368 146.899 38.4793 147.416 37.8117C147.934 37.1441 148.526 36.6191 149.187 36.2365C149.854 35.854 150.439 35.6965 150.957 35.764C151.474 35.8315 151.872 36.1315 152.157 36.6566C152.442 37.1816 152.584 37.8942 152.584 38.8018V39.2143H152.592ZM150.927 39.7544C150.927 38.7868 150.777 38.1417 150.477 37.8117C150.177 37.4817 149.749 37.4817 149.194 37.7967C148.639 38.1117 148.219 38.6068 147.919 39.2743C147.619 39.9419 147.469 40.7595 147.461 41.7196V42.1697C147.461 43.1073 147.611 43.7523 147.911 44.0974C148.211 44.4424 148.639 44.4574 149.202 44.1274C149.757 43.8123 150.177 43.3098 150.477 42.6422C150.769 41.9746 150.919 41.157 150.927 40.1969V39.7544Z" fill="#3A2C99"/>
<path d="M159.328 32.0436L156.882 33.4537V41.1271L155.24 42.0797V34.4063L152.824 35.8015V34.2638L159.328 30.5134V32.0436Z" fill="#3A2C99"/>
<path d="M165.066 32.4184L161.908 34.2411V36.7089L165.613 34.5711V36.0938L160.265 39.1841V29.9656L165.606 26.8828V28.4205L161.915 30.5507V32.7484L165.073 30.9257V32.4184H165.066Z" fill="#3A2C99"/>
<path d="M172.844 28.848C172.784 29.8756 172.462 30.8357 171.892 31.7358C171.321 32.6359 170.564 33.356 169.634 33.8961C168.614 34.4886 167.804 34.5561 167.218 34.0986C166.633 33.641 166.341 32.7184 166.341 31.3308V30.7682C166.341 29.8831 166.476 29.0205 166.746 28.1955C167.016 27.3629 167.406 26.6278 167.909 25.9752C168.411 25.3227 168.996 24.8051 169.656 24.4226C170.579 23.89 171.321 23.7475 171.884 23.995C172.447 24.2425 172.769 24.8501 172.859 25.8327L171.216 26.7853C171.179 26.2152 171.036 25.8627 170.789 25.7427C170.541 25.6152 170.166 25.6977 169.664 25.9902C169.116 26.3053 168.704 26.7703 168.434 27.3779C168.164 27.9929 168.021 28.773 168.014 29.7331V30.4307C168.014 31.4283 168.141 32.0809 168.404 32.3884C168.666 32.6959 169.079 32.6884 169.641 32.3659C170.151 32.0734 170.526 31.7208 170.781 31.3083C171.029 30.8958 171.179 30.4007 171.209 29.8156L172.844 28.848Z" fill="#3A2C99"/>
<path d="M179.775 20.2447L177.33 21.6548V29.3282L175.687 30.2808V22.6074L173.272 23.9951V22.4574L179.775 18.707V20.2447Z" fill="#3A2C99"/>
<path d="M182.461 26.3728L180.818 27.3254V18.1069L182.461 17.1543V26.3728Z" fill="#3A2C99"/>
<path d="M190.539 17.312C190.539 18.2196 190.404 19.0972 190.126 19.9373C189.849 20.7774 189.451 21.5349 188.934 22.21C188.416 22.8776 187.824 23.4101 187.156 23.7927C186.496 24.1752 185.903 24.3327 185.386 24.2652C184.868 24.1977 184.463 23.9052 184.178 23.3876C183.893 22.8701 183.751 22.1725 183.743 21.2874V20.8299C183.743 19.9223 183.886 19.0447 184.171 18.1896C184.456 17.3345 184.853 16.5769 185.371 15.9093C185.888 15.2418 186.481 14.7167 187.141 14.3342C187.809 13.9516 188.394 13.7941 188.911 13.8616C189.429 13.9291 189.826 14.2292 190.111 14.7542C190.397 15.2793 190.539 15.9919 190.539 16.8995V17.312ZM188.866 17.8521C188.866 16.8844 188.716 16.2394 188.416 15.9093C188.116 15.5793 187.689 15.5793 187.134 15.8943C186.579 16.2094 186.158 16.7044 185.858 17.372C185.558 18.0396 185.408 18.8572 185.401 19.8173V20.2673C185.401 21.2049 185.551 21.85 185.851 22.195C186.151 22.5401 186.579 22.5476 187.141 22.225C187.696 21.9025 188.116 21.4074 188.416 20.7399C188.709 20.0723 188.859 19.2547 188.866 18.2946V17.8521Z" fill="#3A2C99"/>
<path d="M198.22 17.2744L196.578 18.227L193.375 14.0115V20.0722L191.732 21.0248V11.8063L193.375 10.8537L196.578 15.0767V9.00101L198.22 8.05591V17.2744Z" fill="#3A2C99"/>
</svg>
