<svg width="29" height="29" viewBox="0 0 29 29" fill="none" xmlns="http://www.w3.org/2000/svg">
<path d="M14.5084 0.00370254C15.2161 0.00370254 15.9237 -0.00196476 16.6313 0.00483599C17.387 0.0127702 17.8778 0.480889 17.8621 1.16323C17.8465 1.8195 17.3635 2.25475 16.6335 2.26949C15.6286 2.28989 15.6286 2.28989 15.6286 3.30093C15.6286 4.10002 15.6286 4.10002 16.3787 4.21677C22.2689 5.1326 26.7326 10.2978 26.8019 16.2768C26.8735 22.4734 22.6545 27.7179 16.7308 28.797C9.89598 30.0426 3.46807 25.4283 2.35464 18.4779C1.24793 11.5752 6.08395 5.06573 12.978 4.19637C13.3167 4.15329 13.4207 4.03315 13.3984 3.70104C13.3704 3.2692 13.5314 2.74894 13.3458 2.42137C13.1278 2.03599 12.5711 2.33296 12.1653 2.27175C11.5773 2.18334 11.1447 1.70276 11.157 1.11109C11.1704 0.518293 11.612 0.032039 12.2167 0.0127702C12.9791 -0.0121659 13.7438 0.00710291 14.5073 0.00710291C14.5084 0.00596945 14.5084 0.00483599 14.5084 0.00370254ZM14.5498 6.34994C9.02737 6.3318 4.47641 10.9178 4.46188 16.5125C4.44735 22.1141 8.97148 26.7295 14.4861 26.7397C20.023 26.7499 24.5527 22.1821 24.5673 16.576C24.5807 10.9631 20.08 6.36694 14.5498 6.34994Z" fill="#1D1D1D"/>
<path d="M4.13823 2.63904C4.60567 2.63076 4.93909 2.8459 5.13195 3.26792C5.33135 3.70529 5.33898 4.18641 5.02408 4.54104C3.953 5.74442 2.8623 6.92771 1.75198 8.08853C1.38914 8.46681 0.778961 8.41007 0.395418 8.06489C-0.0022897 7.7079 -0.117788 7.13339 0.130643 6.62627C0.22217 6.4395 0.352923 6.26691 0.491304 6.1156C1.39786 5.12264 2.30986 4.13558 3.22296 3.14852C3.48337 2.86718 3.75796 2.60948 4.13823 2.63904Z" fill="#FFBB38"/>
<path d="M27.8363 8.3472C27.5856 8.36493 27.3273 8.23841 27.1126 8.00548C26.0978 6.907 25.0776 5.81326 24.0727 4.70297C23.6171 4.19926 23.6182 3.47088 24.0389 3.00619C24.4531 2.54859 25.0994 2.49302 25.5583 2.96954C26.6199 4.07274 27.6554 5.2055 28.68 6.3489C29.0026 6.70954 29.0974 7.17778 28.8892 7.66257C28.6952 8.11544 28.3617 8.34838 27.8363 8.3472Z" fill="#FFBB38"/>
<path d="M13.186 14.2797C13.186 13.5843 13.1799 12.889 13.1872 12.1936C13.1956 11.4521 13.6953 10.9688 14.4231 10.9853C15.1231 11.0007 15.5938 11.4741 15.5986 12.1936C15.6059 13.3284 15.6119 14.462 15.5938 15.5968C15.589 15.8967 15.6855 16.1087 15.9233 16.313C16.4785 16.7908 17.0132 17.2874 17.5466 17.7861C18.1272 18.3287 18.1682 18.9747 17.6685 19.4393C17.164 19.9073 16.4423 19.8842 15.8533 19.3602C15.1062 18.6956 14.376 18.0146 13.6325 17.3456C13.3127 17.0578 13.1703 16.7238 13.1823 16.3119C13.1992 15.6341 13.186 14.9563 13.186 14.2797Z" fill="#FFBB38"/>
</svg>
