<svg width="28" height="28" viewBox="0 0 28 28" fill="none" xmlns="http://www.w3.org/2000/svg">
<circle cx="14.0002" cy="15.9311" r="10.1379" fill="#FFBB38"/>
<path d="M14.0082 0.00357486C14.6914 0.00357486 15.3747 -0.00189701 16.0579 0.00466924C16.7875 0.0123299 17.2614 0.464306 17.2462 1.12312C17.2311 1.75676 16.7649 2.177 16.06 2.19123C15.0897 2.21093 15.0897 2.21093 15.0897 3.18711C15.0897 3.95864 15.0897 3.95864 15.814 4.07136C21.501 4.95562 25.8109 9.94268 25.8778 15.7155C25.9469 21.6984 21.8734 26.7621 16.1539 27.804C9.55481 29.0067 3.34855 24.5515 2.27352 17.8408C1.20496 11.176 5.87423 4.89105 12.5306 4.05166C12.8576 4.01008 12.958 3.89407 12.9364 3.57342C12.9094 3.15647 13.0648 2.65415 12.8857 2.33787C12.6752 1.96579 12.1377 2.25251 11.7459 2.19342C11.1781 2.10806 10.7604 1.64404 10.7723 1.07278C10.7853 0.500421 11.2116 0.0309342 11.7955 0.0123299C12.5317 -0.0117464 13.2699 0.00685798 14.0071 0.00685798C14.0082 0.00576361 14.0082 0.00466924 14.0082 0.00357486ZM14.0481 6.13097C8.71615 6.11346 4.32212 10.5413 4.30809 15.9431C4.29406 21.3515 8.66218 25.8078 13.9866 25.8177C19.3326 25.8275 23.7062 21.4172 23.7202 16.0044C23.7331 10.5851 19.3877 6.14739 14.0481 6.13097Z" fill="#1D1D1D"/>
<path d="M3.99553 2.54814C4.44686 2.54015 4.76878 2.74787 4.95499 3.15533C5.14751 3.57763 5.15488 4.04215 4.85084 4.38455C3.81669 5.54644 2.7636 6.68892 1.69157 7.80972C1.34124 8.17495 0.7521 8.12016 0.381783 7.78689C-0.00221075 7.44221 -0.113727 6.88752 0.126138 6.39788C0.214509 6.21755 0.340754 6.05091 0.474362 5.90482C1.34966 4.94609 2.23021 3.99307 3.11182 3.04005C3.36326 2.76842 3.62837 2.5196 3.99553 2.54814Z" fill="#FFBB38"/>
<path d="M26.8763 8.05946C26.6342 8.07659 26.3848 7.95443 26.1775 7.72953C25.1977 6.66893 24.2127 5.61291 23.2424 4.5409C22.8025 4.05455 22.8036 3.3513 23.2098 2.90263C23.6097 2.46081 24.2337 2.40715 24.6768 2.86724C25.7018 3.9324 26.7016 5.0261 27.6908 6.13007C28.0023 6.47828 28.0939 6.93037 27.8929 7.39845C27.7056 7.8357 27.3835 8.0606 26.8763 8.05946Z" fill="#FFBB38"/>
<path d="M12.7312 13.7869C12.7312 13.1155 12.7254 12.4442 12.7324 11.7728C12.7406 11.0569 13.223 10.5902 13.9257 10.6061C14.6016 10.621 15.056 11.0781 15.0607 11.7728C15.0677 12.8684 15.0735 13.963 15.056 15.0586C15.0514 15.3481 15.1446 15.5528 15.3742 15.7501C15.9102 16.2115 16.4265 16.6909 16.9415 17.1724C17.5021 17.6964 17.5417 18.32 17.0592 18.7686C16.5721 19.2205 15.8753 19.1982 15.3066 18.6923C14.5853 18.0506 13.8802 17.393 13.1624 16.7471C12.8536 16.4692 12.7161 16.1468 12.7277 15.7491C12.744 15.0947 12.7312 14.4402 12.7312 13.7869Z" fill="#1D1D1D"/>
</svg>
