<svg width="28" height="28" viewBox="0 0 28 28" fill="none" xmlns="http://www.w3.org/2000/svg">
<path d="M2.69631 15.0377L2.69631 15.0378C2.7001 16.1353 2.69917 17.2336 2.69824 18.3305C2.69782 18.8176 2.69741 19.3044 2.69741 19.7908C2.69741 20.2725 2.69664 20.7533 2.69587 21.2338C2.69405 22.3729 2.69223 23.5096 2.70067 24.6487L2.69631 15.0377ZM2.69631 15.0377C2.69252 13.9818 3.1062 13.1766 3.96382 12.5586M2.69631 15.0377L3.96382 12.5586M15.7571 6.59114L15.7569 6.59105C15.1488 6.15387 14.562 5.95718 14.0001 5.95752C13.4382 5.95786 12.8523 6.15528 12.246 6.59096L15.7571 6.59114ZM15.7571 6.59114C17.0372 7.51073 18.3189 8.436 19.6012 9.36163C21.066 10.4191 22.5314 11.477 23.996 12.5275L23.9961 12.5275M15.7571 6.59114L23.9961 12.5275M23.9961 12.5275C24.8898 13.1684 25.3103 13.9943 25.3065 15.0957C25.2998 17.015 25.3009 18.9364 25.302 20.8567C25.3027 22.0685 25.3034 23.2799 25.3022 24.4902C25.3012 25.4066 24.9925 26.142 24.4901 26.6472C23.9879 27.1522 23.2574 27.4624 22.3473 27.4643H22.3472M23.9961 12.5275L22.3472 27.4643M22.3472 27.4643C20.381 27.4687 18.4146 27.4665 16.4473 27.4643H16.4463C16.0098 27.4638 15.8375 27.3737 15.7606 27.2964C15.683 27.2183 15.5934 27.0433 15.5929 26.604C15.5925 26.0814 15.5927 25.5577 15.593 25.0336C15.5934 24.2465 15.5938 23.4585 15.5918 22.6718V22.6716M22.3472 27.4643L15.5918 22.6716M15.5918 22.6716C15.5905 22.2036 15.4628 21.7686 15.1831 21.4401C14.8971 21.1042 14.4917 20.9269 14.0383 20.9162L14.0379 20.9162M15.5918 22.6716L14.0379 20.9162M14.0379 20.9162C13.569 20.9056 13.1436 21.073 12.8414 21.4122M14.0379 20.9162L12.8414 21.4122M5.49102 27.4611H5.49116C7.30906 27.4755 9.127 27.4704 10.9481 27.4652C11.1856 27.4645 11.4231 27.4639 11.6607 27.4632C11.991 27.4623 12.1538 27.3777 12.2372 27.2939C12.3211 27.2096 12.4053 27.0451 12.4067 26.7141C12.4088 26.0421 12.4083 25.3697 12.4077 24.6961V24.6954C12.4072 24.0223 12.4067 23.348 12.4088 22.6739L5.49102 27.4611ZM5.49102 27.4611C3.9197 27.449 2.71289 26.2332 2.70068 24.6488L5.49102 27.4611ZM12.9274 7.57608L12.9279 7.57575C13.2593 7.3379 13.6083 7.15353 14.0122 7.15694C14.4133 7.16033 14.763 7.34832 15.0981 7.58899C16.1422 8.33906 17.1855 9.08963 18.2285 9.84008C19.918 11.0556 21.6071 12.2708 23.2988 13.4831L12.9274 7.57608ZM12.9274 7.57608C11.7752 8.40505 10.6247 9.23459 9.47446 10.0639C7.8793 11.214 6.28476 12.3637 4.68702 13.5108L4.68687 13.5109M12.9274 7.57608L4.68687 13.5109M4.68687 13.5109C4.43128 13.6946 4.22532 13.9173 4.08639 14.191C3.94761 14.4645 3.88954 14.7617 3.89022 15.0745L3.89022 15.0746M4.68687 13.5109L3.89022 15.0746M3.89022 15.0746C3.89455 16.8546 3.89434 18.633 3.89412 20.412C3.89395 21.7813 3.89379 23.1509 3.89569 24.522C3.89635 25.014 4.02423 25.472 4.35909 25.8047C4.6929 26.1363 5.15163 26.263 5.64245 26.2663L5.64258 26.2663M3.89022 15.0746L5.64258 26.2663M5.64258 26.2663C6.22373 26.27 6.80094 26.2701 7.37632 26.2703C8.34656 26.2706 9.31164 26.2709 10.2818 26.2881L10.2821 26.2881L5.64258 26.2663ZM16.7705 25.3146L16.7705 25.314C16.7922 24.3955 16.7847 23.4743 16.7759 22.5455C16.7609 20.9445 15.5408 19.7277 14.0011 19.7268C12.4605 19.7259 11.2344 20.947 11.2204 22.5398C11.2127 23.4681 11.2063 24.3899 11.2257 25.3091C11.2257 25.3093 11.2258 25.3095 11.2258 25.3097L10.7259 25.3203L16.7705 25.3146ZM16.7705 25.3146C16.7669 25.4782 16.7664 25.7833 16.9726 26.0173C17.1947 26.2693 17.5141 26.29 17.7195 26.287L17.7198 26.287L16.7705 25.3146ZM3.96382 12.5586C5.17625 11.6858 6.38737 10.8125 7.59833 9.93936C9.14695 8.82276 10.6953 7.70634 12.2459 6.59107L3.96382 12.5586ZM12.8414 21.4122C12.546 21.7437 12.4102 22.1911 12.4088 22.6736L12.8414 21.4122ZM24.1154 18.4608C24.1162 18.9018 24.117 19.3432 24.117 19.7853C24.117 20.1761 24.1172 20.5672 24.1174 20.9584C24.118 22.1328 24.1186 23.3085 24.1137 24.4819C24.1123 24.9928 23.9946 25.4719 23.6465 25.8162C23.2994 26.1596 22.8182 26.2748 22.3049 26.2761C22.3048 26.2761 22.3048 26.2761 22.3047 26.2761L24.1154 18.4608ZM24.1154 18.4608C24.1134 17.3367 24.1115 16.2157 24.1224 15.0939M24.1154 18.4608L24.1224 15.0939M24.1224 15.0939C24.1259 14.765 24.0644 14.457 23.9187 14.1757M24.1224 15.0939L23.9187 14.1757M23.9187 14.1757C23.7735 13.8952 23.5593 13.6696 23.2991 13.4832L23.9187 14.1757Z" fill="#FFBB38" stroke="#FFBB38"/>
<path d="M14.0114 0C14.7802 0.0273252 15.4462 0.280903 16.0543 0.718106C19.3058 3.05386 22.5595 5.38415 25.8132 7.71663C26.3753 8.11995 26.9429 8.51453 27.4952 8.92987C28.0552 9.35068 28.1525 9.93981 27.7709 10.4502C27.3629 10.9957 26.7581 11.0929 26.1905 10.6852C22.5518 8.07842 18.9154 5.46941 15.2778 2.8604C15.1302 2.75438 14.9825 2.64726 14.8327 2.54452C14.1481 2.07562 13.8396 2.06797 13.1517 2.55873C10.5597 4.4081 7.97318 6.26512 5.38555 8.11995C4.18798 8.97905 2.99478 9.84362 1.79393 10.6973C1.25038 11.0842 0.609483 10.9935 0.244196 10.4972C-0.154995 9.95511 -0.0631263 9.33756 0.507771 8.92768C4.36516 6.158 8.22692 3.39379 12.0876 0.628479C12.6683 0.213136 13.3191 0.0196741 14.0114 0Z" fill="black"/>
<path d="M13.2326 7L3.51163 14L3 19.5L3.51163 26L5.04651 27H8.94767L11.6977 26V23L12.2093 21.5L13.7442 20.5L15.7907 21L16.3023 22V23V25.5L16.814 26.5L17.3256 27L24.4884 26.5L25 25V14L22.4419 12C21.4186 11.6667 19.0651 10.6 17.8372 9C16.6093 7.4 14.2558 7 13.2326 7Z" fill="#FFBB38" stroke="#FFBB38"/>
</svg>
