<svg width="28" height="28" viewBox="0 0 28 28" fill="none" xmlns="http://www.w3.org/2000/svg">
<path d="M2.19619 19.8148C2.19619 18.2293 2.20056 16.6438 2.1951 15.0582C2.19072 13.8381 2.68073 12.8796 3.66949 12.1672C6.44547 10.1659 9.21707 8.15686 11.9952 6.15879C13.287 5.23088 14.7078 5.2265 16.0039 6.1566C18.7842 8.15249 21.5537 10.1637 24.3296 12.165C25.337 12.8916 25.8106 13.8699 25.8062 15.1107C25.7953 18.2457 25.8051 21.3796 25.8018 24.5146C25.7996 26.5827 24.4029 27.9899 22.3499 27.9943C20.3822 27.9986 18.4156 27.9964 16.448 27.9943C15.4756 27.9932 15.0939 27.6091 15.0928 26.6352C15.0906 25.3232 15.095 24.0112 15.0917 22.6982C15.0895 21.9103 14.6509 21.4223 13.9739 21.4376C13.3231 21.4518 12.9107 21.9322 12.9085 22.696C12.9042 24.0441 12.9107 25.3933 12.9063 26.7414C12.9031 27.5653 12.4852 27.9899 11.6638 27.9921C9.60536 27.9975 7.54689 28.0063 5.48842 27.9899C3.63996 27.9757 2.21369 26.5345 2.20057 24.6787C2.18635 23.0593 2.19619 21.4376 2.19619 19.8148ZM23.6154 19.7952C23.6154 18.2282 23.6088 16.6602 23.6198 15.0932C23.6231 14.6183 23.471 14.2463 23.0816 13.9651C20.2882 11.956 17.4969 9.94375 14.7056 7.93254C14.2342 7.59224 13.7693 7.59114 13.2957 7.93364C10.5066 9.94922 7.71642 11.9637 4.92513 13.976C4.57404 14.2299 4.39247 14.5614 4.39247 14.9958C4.39356 18.2041 4.3881 21.4113 4.39575 24.6196C4.39794 25.344 4.83107 25.7883 5.54858 25.7959C7.15204 25.8134 8.75441 25.8003 10.3579 25.8178C10.6466 25.8211 10.7297 25.7358 10.7254 25.4502C10.709 24.5026 10.7144 23.5549 10.721 22.6073C10.733 20.7285 12.1473 19.2666 13.9607 19.2535C15.8147 19.2404 17.2606 20.6891 17.277 22.5844C17.2847 23.5134 17.2967 24.4435 17.2705 25.3725C17.2606 25.7369 17.3744 25.8244 17.7266 25.82C19.2567 25.8014 20.7869 25.8156 22.3171 25.8102C23.2085 25.8069 23.6132 25.3976 23.6154 24.4993C23.6176 22.9301 23.6154 21.3621 23.6154 19.7952Z" fill="#1D1D1D"/>
<path d="M14.0996 0C14.734 0.0382983 15.3662 0.233072 15.9306 0.639034C19.7599 3.38775 23.5935 6.131 27.4195 8.88519C28.1261 9.39401 28.1862 10.091 27.6076 10.636C27.1822 11.0376 26.691 11.0583 26.1726 10.6863C23.3321 8.64993 20.4938 6.61247 17.6544 4.57391C16.7225 3.90533 15.7961 3.23018 14.8598 2.56817C14.1488 2.06592 13.8448 2.06263 13.1349 2.57036C9.39096 5.25014 5.65028 7.9354 1.90851 10.6196C1.25444 11.089 0.624431 11.0441 0.233957 10.4948C-0.177299 9.91706 -0.0427659 9.32727 0.609118 8.85893C4.37933 6.15179 8.15063 3.44794 11.9187 0.736421C12.5585 0.276842 13.253 0.00547118 14.0996 0Z" fill="#FFBB38"/>
</svg>
