<svg width="30" height="29" viewBox="0 0 30 29" fill="none" xmlns="http://www.w3.org/2000/svg">
<path d="M0.00171581 20.2085C0.00171581 18.4169 -0.00281585 16.6242 0.0028501 14.8325C0.0130488 11.5551 2.49247 9.0851 5.78212 9.07944C8.57656 9.07378 11.3699 9.07378 14.1643 9.07944C17.4517 9.08624 19.947 11.5574 19.9334 14.8359C19.9266 16.4928 20.0977 18.161 19.8337 19.8065C19.4076 22.4679 17.0676 24.4429 14.3649 24.469C12.5722 24.4871 10.7784 24.4848 8.98451 24.4633C8.61849 24.4588 8.40091 24.5766 8.19353 24.8654C7.53175 25.7827 6.84731 26.6842 6.1606 27.5834C5.33564 28.6626 4.23645 29.1553 2.89135 28.9571C1.43747 28.743 0.572846 27.7917 0.0606439 26.4814C-0.0118803 26.2968 0.0051187 26.0737 0.0051187 25.8676C-0.000547253 23.9809 0.00171581 22.0941 0.00171581 20.2085ZM5.89771 11.366C4.06194 11.2516 2.35648 12.5506 2.31116 14.3648C2.21484 18.1462 2.26923 21.9333 2.28396 25.717C2.28623 26.1847 2.59672 26.5143 3.04773 26.6717C3.50667 26.8314 3.90555 26.7011 4.22964 26.3614C4.38375 26.2006 4.49708 26.0035 4.62966 25.8223C5.38096 24.8325 6.1436 23.8506 6.8779 22.8495C7.20879 22.3988 7.60768 22.1961 8.17088 22.2006C10.2265 22.2187 12.2821 22.2221 14.3366 22.2029C16.1349 22.1847 17.6285 20.7272 17.6659 18.9446C17.6965 17.4939 17.6965 16.0421 17.6647 14.5925C17.6285 12.905 16.2313 11.3977 14.5507 11.366C11.6668 11.3116 8.78167 11.3603 5.89771 11.366Z" fill="#FFBB38"/>
<path d="M3.5 10.5L1.5 13L1 15V18V24.5L2 27.5L4 28L6.5 25.5L7.5 24L10 23.5H15L17.5 22L18.5 19.5L19 14.5L17.5 11.5L15.5 10.5H12.5L7.5 10L3.5 10.5Z" fill="#FDBA38" stroke="#FFBB38" stroke-width="0.4"/>
<path d="M29.0011 11.4327C29.0022 13.2991 28.9988 15.1654 29.0022 17.0329C29.0045 18.4995 28.2543 19.5007 26.9806 20.0862C25.657 20.6943 24.4026 20.4554 23.3023 19.4995C22.9159 19.1632 22.6246 18.7374 22.3538 18.3081C22.0388 17.8076 22.1849 17.2153 22.6677 16.8585C23.1459 16.5052 23.7487 16.5437 24.1488 16.9763C24.3403 17.1824 24.4966 17.4214 24.6723 17.6434C25.0111 18.0703 25.4349 18.2504 25.9687 18.059C26.4933 17.8699 26.7336 17.4791 26.7336 16.9299C26.7336 14.931 26.7336 12.9333 26.7336 10.9344C26.7336 9.21869 26.7381 7.50295 26.7324 5.78722C26.7256 3.76344 25.2582 2.29459 23.2331 2.29006C20.271 2.28439 17.3088 2.28326 14.3455 2.29006C12.4259 2.29459 10.9777 3.68077 10.8757 5.59016C10.8349 6.3546 10.3578 6.84611 9.68926 6.81439C9.02181 6.78268 8.59913 6.2606 8.6116 5.48484C8.65919 2.61848 11.1126 0.0873452 13.9988 0.0397802C17.2057 -0.0123148 20.4149 -0.0145798 23.6207 0.0409127C26.533 0.0918752 28.9569 2.61622 28.9943 5.55166C29.0203 7.51088 29.0011 9.47124 29.0011 11.4327Z" fill="#1D1D1D"/>
<path d="M4.53906 17.1056C4.53906 16.8847 4.53906 16.6649 4.53906 16.444C4.98224 15.7519 5.45036 15.5073 5.99781 15.6976C6.51806 15.8788 6.80481 16.2549 6.79234 16.802C6.77987 17.3514 6.47158 17.7252 5.94453 17.8645C5.43902 17.9982 5.02192 17.8192 4.72269 17.3854C4.65809 17.2947 4.59913 17.1996 4.53906 17.1056Z" fill="#1D1D1D"/>
<path d="M9.98726 17.9068C9.36274 17.917 8.83115 17.3891 8.83796 16.765C8.84362 16.1635 9.35026 15.6537 9.95212 15.6447C10.5766 15.6345 11.1082 16.1623 11.1014 16.7865C11.0969 17.388 10.5903 17.8977 9.98726 17.9068Z" fill="#1D1D1D"/>
<path d="M15.4082 16.7663C15.4139 17.3904 14.88 17.9183 14.2566 17.907C13.6548 17.8968 13.1481 17.3859 13.1436 16.7844C13.1379 16.1603 13.6707 15.6324 14.2952 15.6437C14.897 15.6551 15.4025 16.1648 15.4082 16.7663Z" fill="#1D1D1D"/>
</svg>
