<svg width="23" height="23" viewBox="0 0 23 23" fill="none" xmlns="http://www.w3.org/2000/svg">
<path d="M6.06734 5.99268H5.78651L5.26172 8.61727H6.59213L6.06734 5.99268Z" fill="#FF5200"/>
<path d="M16.6826 11.2421C16.9659 12.0032 17.3428 12.6192 17.7598 13.1435C18.1769 12.6192 18.5975 12.0031 18.8808 11.2421H16.6826Z" fill="#FF5200"/>
<path d="M20.4285 3.98083H12.2798L13.9789 17.6147C14.009 18.1723 13.8565 18.6974 13.4926 19.1084L10.6152 22.3968H20.4285C21.5139 22.3968 22.3969 21.5138 22.3969 20.4283V5.99303C22.3969 4.90758 21.5139 3.98083 20.4285 3.98083ZM20.4285 11.2422H20.2532C19.8799 12.44 19.2878 13.3773 18.6725 14.1162C19.1545 14.5569 19.67 14.9184 20.1824 15.3233C20.465 15.5495 20.5112 15.9621 20.2843 16.2454C20.0585 16.5282 19.6442 16.574 19.3622 16.3472C18.8054 15.9078 18.2828 15.5399 17.7601 15.0603C17.2375 15.5399 16.7586 15.9078 16.2018 16.3472C15.9198 16.574 15.5055 16.5282 15.2797 16.2454C15.0529 15.9621 15.099 15.5495 15.3816 15.3233C15.894 14.9184 16.3657 14.5569 16.8477 14.1162C16.2324 13.3774 15.6841 12.4401 15.3108 11.2422H15.1355C14.7729 11.2422 14.4794 10.9488 14.4794 10.5861C14.4794 10.2234 14.7729 9.92993 15.1355 9.92993H17.104V9.27378C17.104 8.9111 17.3975 8.61763 17.7601 8.61763C18.1228 8.61763 18.4163 8.9111 18.4163 9.27378V9.92993H20.4285C20.7912 9.92993 21.0846 10.2234 21.0846 10.5861C21.0846 10.9488 20.7912 11.2422 20.4285 11.2422Z" fill="#FF5200"/>
<path d="M10.6805 1.72432C10.5581 0.741361 9.7181 0 8.72749 0H1.96845C0.883002 0 0 0.883002 0 1.96845V16.4912C0 17.5767 0.883002 18.4597 1.96845 18.4597C5.89091 18.4597 8.71266 18.4597 12.316 18.4597C12.5074 18.2409 12.6678 18.1039 12.6746 17.8183C12.6763 17.7467 10.6894 1.79536 10.6805 1.72432ZM8.04632 12.5415C7.69838 12.6131 7.34594 12.3872 7.27421 12.027L6.85484 9.92973H4.99964L4.58027 12.027C4.5098 12.3819 4.1676 12.6152 3.80816 12.5415C3.45318 12.4704 3.22248 12.125 3.29361 11.7694L4.60586 5.2079C4.66737 4.90161 4.93652 4.68053 5.2492 4.68053H6.60524C6.91792 4.68053 7.18707 4.90161 7.24857 5.2079L8.56087 11.7694C8.632 12.125 8.40134 12.4704 8.04632 12.5415Z" fill="#FF5200"/>
<path d="M7.66602 19.7719L7.77861 20.6721C7.85367 21.275 8.25428 21.8899 8.91322 22.1968C10.1568 20.8279 9.40442 21.6561 11.1161 19.7719H7.66602Z" fill="#FF5200"/>
</svg>
