<svg width="39" height="39" viewBox="0 0 39 39" fill="none" xmlns="http://www.w3.org/2000/svg">
<path d="M38.0521 13.0434C37.9022 13.2376 37.924 13.4816 37.8694 13.7017C37.5933 14.8032 36.9884 15.7425 36.4153 16.6956C35.5233 18.1786 34.5003 19.5591 33.2091 20.7244C30.7598 22.9364 28.0125 23.4215 24.9582 22.1695C23.9511 21.7572 23.0006 21.2273 22.0242 20.7522C21.6359 20.563 21.2455 20.3728 20.8105 20.312C20.4092 20.2562 20.1996 20.4734 20.2572 20.8777C20.3198 21.313 20.5115 21.7044 20.6992 22.0938C21.1988 23.1296 21.759 24.1346 22.1772 25.2102C23.3581 28.247 22.8019 30.9471 20.6317 33.3345C18.9482 35.188 16.8763 36.5116 14.6623 37.6162C13.6463 38.1231 12.5388 38.2426 11.4055 38.1132C9.83519 37.9329 8.43571 37.3034 7.10775 36.4887C5.96354 35.7876 4.91965 34.9509 3.95819 34.0147C3.78438 33.8454 3.6185 33.8026 3.39602 33.8434C3.17751 33.8832 2.95601 33.9081 2.73452 33.9281C2.18526 33.9759 1.71148 33.8314 1.33604 33.3992C1.12547 33.1562 0.882132 32.941 0.655674 32.712C-0.120046 31.9261 -0.204468 31.0088 0.38651 30.0836C2.66897 26.509 5.63876 23.6097 9.07338 21.1646C10.5761 20.0949 12.0819 19.0302 13.5718 17.9426C15.6884 16.3968 17.3659 14.4337 18.8617 12.2984C20.2473 10.3193 21.5932 8.31145 23.1486 6.45594C25.1639 4.05364 27.4851 2.00391 30.1221 0.313734C30.3049 0.196208 30.5025 0.103582 30.6932 0C30.9654 0 31.2385 0 31.5107 0C32.1801 0.180272 32.6449 0.646391 33.0969 1.13243C33.1475 1.18721 33.1982 1.24298 33.2548 1.28979C33.7405 1.68918 33.8994 2.21108 33.8289 2.81862C33.805 3.02778 33.7822 3.23793 33.7454 3.44509C33.7107 3.6413 33.7494 3.7897 33.8994 3.94109C34.397 4.44307 34.8539 4.98289 35.285 5.54362C36.457 7.06747 37.4294 8.69391 37.8714 10.5952C37.928 10.8393 37.9081 11.1032 38.0511 11.3263C38.0521 11.9 38.0521 12.4717 38.0521 13.0434ZM11.8684 36.663C13.0523 36.669 13.6959 36.4847 14.8302 35.8533C16.6349 34.8483 18.3482 33.7199 19.712 32.1353C21.1164 30.5029 21.6617 28.6613 21.0538 26.5369C20.73 25.4074 20.1828 24.3806 19.6573 23.3418C19.3335 22.7004 18.9958 22.0639 18.832 21.3568C18.5092 19.9644 19.3594 18.8031 20.6992 18.8121C21.175 18.8151 21.624 18.9535 22.062 19.1368C23.2151 19.6188 24.2838 20.2782 25.438 20.7602C27.5536 21.6436 29.5937 21.6277 31.4799 20.2045C33.7166 18.5163 35.1956 16.2265 36.2931 13.7007C36.8811 12.3462 36.5553 10.9388 36.0071 9.61021C35.2373 7.74474 34.0126 6.19101 32.6221 4.76078C32.2894 4.41916 32.1046 4.0387 32.2427 3.58752C32.485 2.79273 32.2566 2.19713 31.5941 1.73699C31.5742 1.72305 31.5583 1.70313 31.5414 1.6852C31.3309 1.46608 31.1183 1.44118 30.8502 1.61448C28.6114 3.06463 26.6011 4.7807 24.8311 6.78063C23.1833 8.64311 21.7938 10.6988 20.3764 12.7346C18.8608 14.9118 17.215 16.9665 15.1232 18.6268C13.53 19.8917 11.8465 21.0291 10.1858 22.1994C6.82965 24.5639 3.8976 27.3436 1.68069 30.8345C1.40755 31.2648 1.45324 31.3206 1.77009 31.7329C2.23989 32.3435 2.78418 32.5596 3.5311 32.3375C4.02573 32.1901 4.42898 32.3893 4.79549 32.7568C5.75297 33.7159 6.80382 34.5635 7.96094 35.2726C9.23229 36.0525 10.5742 36.6232 11.8684 36.663Z" fill="#030302"/>
</svg>
