<svg width="22" height="22" viewBox="0 0 22 22" fill="none" xmlns="http://www.w3.org/2000/svg">
<path d="M11.0001 15.5236C13.5314 15.5236 15.5834 13.4795 15.5834 10.9579C15.5834 8.43626 13.5314 6.39209 11.0001 6.39209C8.46878 6.39209 6.41675 8.43626 6.41675 10.9579C6.41675 13.4795 8.46878 15.5236 11.0001 15.5236Z" fill="#222222"/>
<path d="M21.0833 10.0447H20.1199C19.6891 5.73736 16.2406 2.30207 11.9167 1.87288V0.913156C11.9167 0.409094 11.5069 0 11 0C10.4931 0 10.0833 0.409094 10.0833 0.913156V1.87288C5.75942 2.30207 2.31092 5.73736 1.88008 10.0447H0.916667C0.40975 10.0447 0 10.4538 0 10.9579C0 11.4619 0.40975 11.871 0.916667 11.871H1.88008C2.31183 16.1784 5.75942 19.6137 10.0833 20.0429V21.0026C10.0833 21.5066 10.4931 21.9157 11 21.9157C11.5069 21.9157 11.9167 21.5066 11.9167 21.0026V20.0429C16.2406 19.6128 19.6891 16.1784 20.1199 11.871H21.0833C21.5903 11.871 22 11.4619 22 10.9579C22 10.4538 21.5903 10.0447 21.0833 10.0447ZM11.9038 18.2019C11.8708 17.728 11.4849 17.35 11 17.35C10.5151 17.35 10.1292 17.728 10.0962 18.2019C6.776 17.7928 4.13967 15.1666 3.729 11.8592C4.20475 11.8254 4.58333 11.44 4.58333 10.9579C4.58333 10.4757 4.20475 10.0904 3.72808 10.0575C4.13875 6.75005 6.77508 4.12381 10.0953 3.71472C10.1292 4.18773 10.5151 4.56578 11 4.56578C11.4849 4.56578 11.8708 4.18773 11.9038 3.7138C15.224 4.1229 17.8603 6.74913 18.271 10.0566C17.7952 10.0904 17.4167 10.4757 17.4167 10.9579C17.4167 11.44 17.7953 11.8254 18.2719 11.8582C17.8603 15.1666 15.2249 17.7919 11.9038 18.2019Z" fill="#222222"/>
</svg>
