<svg width="189" height="47" viewBox="0 0 189 47" fill="none" xmlns="http://www.w3.org/2000/svg">
<path d="M60.6893 38.6972C57.5943 38.6972 54.9904 38.0127 52.8775 36.6438C50.7646 35.2451 49.2766 33.3554 48.4136 30.9746L53.681 27.8946C54.9011 31.0788 57.2968 32.6709 60.8679 32.6709C62.5939 32.6709 63.8587 32.3585 64.6622 31.7335C65.4657 31.1086 65.8675 30.3199 65.8675 29.3676C65.8675 28.2665 65.3764 27.4184 64.3944 26.8232C63.4123 26.1983 61.6565 25.5287 59.127 24.8145C57.7283 24.3978 56.5379 23.9812 55.5558 23.5646C54.6035 23.1479 53.6363 22.5974 52.6543 21.9129C51.702 21.1987 50.9729 20.3059 50.467 19.2346C49.9611 18.1632 49.7081 16.9133 49.7081 15.4849C49.7081 12.6577 50.705 10.4109 52.6989 8.74438C54.7226 7.04809 57.148 6.19995 59.9751 6.19995C62.5047 6.19995 64.7217 6.8249 66.6263 8.07479C68.5607 9.29493 70.0635 11.0061 71.1349 13.2083L65.9567 16.1991C64.7068 13.5208 62.713 12.1816 59.9751 12.1816C58.6954 12.1816 57.6836 12.4792 56.9396 13.0744C56.2254 13.6398 55.8683 14.3838 55.8683 15.3063C55.8683 16.2884 56.2701 17.0919 57.0736 17.7168C57.9068 18.312 59.4841 18.9667 61.8053 19.681C62.7576 19.9786 63.4718 20.2166 63.948 20.3952C64.4539 20.544 65.1235 20.7969 65.9567 21.154C66.8198 21.4814 67.4745 21.7939 67.9209 22.0915C68.397 22.3891 68.9327 22.7908 69.5279 23.2967C70.1231 23.8026 70.5694 24.3234 70.867 24.8591C71.1944 25.3948 71.4622 26.0495 71.6705 26.8232C71.9086 27.5672 72.0277 28.3856 72.0277 29.2784C72.0277 32.165 70.9712 34.4565 68.8583 36.1528C66.7751 37.8491 64.0521 38.6972 60.6893 38.6972Z" fill="#FFBB38"/>
<path d="M88.1874 15.1278C90.6276 15.1278 92.6364 15.9462 94.2136 17.5829C95.8206 19.2197 96.6241 21.4814 96.6241 24.3681V38.0723H90.8657V25.0823C90.8657 23.5943 90.464 22.4635 89.6604 21.6897C88.8569 20.8862 87.7856 20.4845 86.4464 20.4845C84.9585 20.4845 83.7681 20.9457 82.8753 21.8683C81.9825 22.7908 81.5361 24.1746 81.5361 26.0197V38.0723H75.7777V6.8249H81.5361V18.2525C82.9348 16.1694 85.1519 15.1278 88.1874 15.1278Z" fill="#FFBB38"/>
<path d="M120.557 35.3046C118.266 37.5664 115.468 38.6972 112.165 38.6972C108.862 38.6972 106.065 37.5664 103.773 35.3046C101.511 33.0132 100.38 30.2158 100.38 26.9125C100.38 23.6092 101.511 20.8267 103.773 18.565C106.065 16.2735 108.862 15.1278 112.165 15.1278C115.468 15.1278 118.266 16.2735 120.557 18.565C122.849 20.8267 123.995 23.6092 123.995 26.9125C123.995 30.2158 122.849 33.0132 120.557 35.3046ZM107.835 31.3318C108.996 32.4924 110.439 33.0727 112.165 33.0727C113.891 33.0727 115.335 32.4924 116.495 31.3318C117.656 30.1711 118.236 28.6981 118.236 26.9125C118.236 25.1269 117.656 23.6538 116.495 22.4932C115.335 21.3326 113.891 20.7523 112.165 20.7523C110.439 20.7523 108.996 21.3326 107.835 22.4932C106.704 23.6538 106.139 25.1269 106.139 26.9125C106.139 28.6981 106.704 30.1711 107.835 31.3318Z" fill="#FFBB38"/>
<path d="M141.036 15.1278C144.041 15.1278 146.601 16.2735 148.713 18.565C150.856 20.8267 151.927 23.6092 151.927 26.9125C151.927 30.2158 150.856 33.0132 148.713 35.3046C146.601 37.5664 144.041 38.6972 141.036 38.6972C137.911 38.6972 135.5 37.611 133.804 35.4386V47.0001H128.046V15.7527H133.804V18.3864C135.5 16.214 137.911 15.1278 141.036 15.1278ZM135.545 31.4657C136.706 32.6263 138.179 33.2066 139.964 33.2066C141.75 33.2066 143.223 32.6263 144.383 31.4657C145.574 30.2753 146.169 28.7576 146.169 26.9125C146.169 25.0674 145.574 23.5646 144.383 22.4039C143.223 21.2136 141.75 20.6184 139.964 20.6184C138.179 20.6184 136.706 21.2136 135.545 22.4039C134.384 23.5646 133.804 25.0674 133.804 26.9125C133.804 28.7576 134.384 30.2753 135.545 31.4657Z" fill="#FFBB38"/>
<path d="M184.191 27.8102C181.036 30.9349 177.197 32.4973 172.674 32.4973C168.15 32.4973 164.311 30.9349 161.157 27.8102C158.032 24.6557 156.47 20.8018 156.47 16.2486C156.47 11.6954 158.032 7.85648 161.157 4.73174C164.311 1.57725 168.15 0 172.674 0C177.197 0 181.036 1.57725 184.191 4.73174C187.345 7.85648 188.922 11.6954 188.922 16.2486C188.922 20.8018 187.345 24.6557 184.191 27.8102ZM165.487 23.6141C167.421 25.5187 169.817 26.471 172.674 26.471C175.531 26.471 177.926 25.5187 179.861 23.6141C181.795 21.6797 182.762 19.2246 182.762 16.2486C182.762 13.2727 181.795 10.8175 179.861 8.88318C177.926 6.94882 175.531 5.98164 172.674 5.98164C169.817 5.98164 167.421 6.94882 165.487 8.88318C163.552 10.8175 162.585 13.2727 162.585 16.2486C162.585 19.2246 163.552 21.6797 165.487 23.6141Z" fill="#001B38"/>
<circle cx="19.8396" cy="23.1929" r="18.3396" stroke="#FFBB38" stroke-width="3"/>
<path d="M19.5854 13.3148C19.4418 13.3807 19.3137 13.5166 19.2594 13.6601C19.2361 13.7222 19.2167 14.0288 19.2167 14.347C19.2167 15.0067 19.2555 14.9446 18.8093 14.9873C18.4173 15.0261 17.7111 15.1813 17.2532 15.3365C15.1228 16.0467 13.3843 17.564 12.4064 19.5663C12.0144 20.3735 11.7001 21.4096 11.6303 22.1469C11.5876 22.6164 11.6613 22.566 10.9357 22.5815C10.2372 22.5931 10.1906 22.6087 10.0043 22.8609C9.89179 23.0122 9.89179 23.377 10.0043 23.5283C10.1906 23.7806 10.2372 23.7961 10.9357 23.8077C11.6613 23.8233 11.5876 23.7728 11.6303 24.2424C11.7001 24.9797 12.0144 26.0158 12.4064 26.8229C13.3882 28.8292 15.1189 30.3387 17.2687 31.0605C17.7111 31.2079 18.4057 31.3632 18.8131 31.402C19.2478 31.4446 19.209 31.3787 19.2245 32.1005C19.2361 32.7912 19.2516 32.8416 19.5039 33.0279C19.6552 33.1404 20.02 33.1404 20.1713 33.0279C20.4236 32.8416 20.4391 32.7912 20.4507 32.1082C20.4585 31.6814 20.4779 31.4718 20.5089 31.4524C20.5361 31.4369 20.6215 31.4214 20.6991 31.4214C20.9785 31.4214 21.9059 31.2235 22.4104 31.0566C24.2847 30.4396 25.8835 29.1668 26.9235 27.4632C27.5055 26.5086 27.944 25.2358 28.0449 24.2191C28.0876 23.7845 28.0217 23.8233 28.7434 23.8077C29.4342 23.7961 29.4846 23.7806 29.6709 23.5283C29.7834 23.377 29.7834 23.0122 29.6709 22.8609C29.4846 22.6087 29.4342 22.5931 28.7434 22.5815C28.0217 22.566 28.0876 22.6048 28.0449 22.1702C28.0023 21.7394 27.8431 21.0448 27.6763 20.552C26.9623 18.4565 25.4489 16.7335 23.462 15.7595C22.6704 15.3715 21.6188 15.0571 20.8659 14.9873C20.4197 14.9407 20.4662 15.0183 20.4507 14.2927C20.4391 13.5981 20.4236 13.5476 20.1791 13.3652C20.0472 13.2682 19.7406 13.241 19.5854 13.3148ZM19.3021 17.0905C19.4612 17.3738 19.8764 17.4786 20.1636 17.3001C20.3848 17.1604 20.4585 16.978 20.4585 16.5473V16.1864L20.7379 16.2174C21.8555 16.3532 23.0313 16.8228 23.9898 17.5213C25.5071 18.6272 26.5432 20.358 26.7993 22.2012L26.8497 22.5737H26.4772C26.1629 22.5737 26.0814 22.5893 25.9533 22.663C25.5303 22.8997 25.542 23.5206 25.9727 23.7379C26.0891 23.8 26.1978 23.8155 26.485 23.8155H26.8497L26.7993 24.188C26.3724 27.2498 23.8928 29.7294 20.831 30.1563L20.4585 30.2068V29.842C20.4585 29.5548 20.443 29.4462 20.3809 29.3298C20.1636 28.899 19.5427 28.8874 19.306 29.3103C19.2322 29.4384 19.2167 29.5199 19.2167 29.8342V30.2068L18.9761 30.1718C17.5791 29.9894 16.3529 29.4462 15.2625 28.5304C13.9896 27.4593 13.0583 25.7403 12.8604 24.0949L12.8294 23.8155H13.1902C13.4774 23.8155 13.5861 23.8 13.7025 23.7379C14.141 23.5167 14.141 22.8725 13.7025 22.6513C13.5861 22.5893 13.4774 22.5737 13.1902 22.5737H12.8294L12.8604 22.2943C13.0583 20.649 13.9896 18.9299 15.2625 17.8589C16.2248 17.0517 17.3385 16.5162 18.4988 16.295C18.7355 16.2485 18.9878 16.2058 19.0615 16.2019L19.1973 16.1903L19.2167 16.5783C19.2284 16.8422 19.2594 17.0052 19.3021 17.0905Z" fill="black"/>
<path d="M19.2992 20.7692C18.8723 20.8623 18.4222 21.1146 18.0923 21.4483C17.1222 22.4184 17.1145 23.9668 18.0729 24.9214C18.5464 25.3909 19.0664 25.6315 19.6989 25.6665C20.832 25.7285 21.872 25.0068 22.2174 23.9124C22.3377 23.5283 22.3377 22.8608 22.2174 22.4767C21.8254 21.2426 20.5565 20.4976 19.2992 20.7692ZM20.4245 22.1119C20.6845 22.2516 20.8048 22.3758 20.9562 22.6668C21.0416 22.8337 21.0571 22.9152 21.0571 23.1945C21.061 23.4972 21.0493 23.5438 20.929 23.7689C20.7816 24.0405 20.6574 24.1569 20.3663 24.3121C20.1995 24.3975 20.118 24.413 19.8386 24.413C19.5592 24.413 19.4777 24.3975 19.3108 24.3121C19.0198 24.1569 18.8956 24.0405 18.7482 23.7689C18.6279 23.5438 18.6162 23.4972 18.6201 23.1945C18.6201 22.8065 18.7132 22.5737 18.9655 22.3214C19.3535 21.9334 19.9317 21.8519 20.4245 22.1119Z" fill="#FFBB38"/>
</svg>
