<svg width="38" height="32" viewBox="0 0 38 32" fill="none" xmlns="http://www.w3.org/2000/svg">
<path d="M38 28.0892C37.6438 28.8195 37.0395 29.0577 36.2655 28.9743C36.0819 28.9545 35.8944 28.9783 35.7088 28.9703C35.0569 28.9416 34.4724 28.9436 33.9763 29.5578C33.5516 30.0837 32.848 30.2444 32.1554 30.2405C31.7238 30.2385 31.2901 30.2772 30.8595 30.1988C30.15 30.0698 29.5606 29.7304 29.1091 29.1728C28.9851 29.02 28.864 28.9455 28.6745 28.9703C28.601 28.9803 28.5256 28.9793 28.4522 28.9703C27.8816 28.9078 27.4202 29.0051 26.9985 29.4963C26.5361 30.0341 25.8425 30.2385 25.1221 30.2395C24.6785 30.2405 24.233 30.2772 23.7894 30.1958C23.0919 30.0678 22.5144 29.7344 22.0658 29.1926C21.9339 29.0339 21.8108 28.9624 21.6034 28.9664C20.8493 28.9783 20.0942 28.9743 19.34 28.9684C19.1743 28.9674 19.0929 29.0031 19.0255 29.1827C18.5651 30.4171 17.6254 31.068 16.3056 31.076C14.9452 31.0839 13.5838 31.074 12.2233 31.0809C11.9108 31.0829 11.6528 30.9897 11.4067 30.7952C7.85032 27.9771 4.29396 25.16 0.728673 22.3538C0.134292 21.8854 -0.0959194 21.3387 0.0360549 20.5766C0.751495 16.4506 1.44114 12.3217 2.13971 8.19283C2.24588 7.56471 2.64577 7.22237 3.29175 7.22038C4.82583 7.21741 6.35991 7.21245 7.89398 7.22535C8.15793 7.22733 8.21945 7.1539 8.21846 6.89591C8.20655 5.04033 8.21151 3.18475 8.21251 1.32917C8.2135 0.45298 8.65805 0.00248072 9.52927 0.00148843C12.3007 -0.000496144 15.0722 -0.000496144 17.8427 0.00148843C18.7318 0.00248072 19.1743 0.45298 19.1783 1.35398C19.1813 1.99599 19.1793 2.638 19.1793 3.37824C19.5057 3.10239 19.7885 2.89401 20.0346 2.64792C20.3105 2.37306 20.6201 2.26787 21.0041 2.29665C21.3365 2.32146 21.6719 2.30558 22.0053 2.30062C22.2236 2.29764 22.432 2.32146 22.566 2.51793C22.6543 2.64594 22.7753 2.62311 22.8964 2.62311C25.5438 2.62311 28.1912 2.62311 30.8387 2.62212C30.923 2.62212 31.053 2.63899 31.0857 2.59334C31.3636 2.20933 31.7714 2.34627 32.1386 2.29566C32.9641 2.18155 33.6002 2.46435 34.1916 3.04583C34.8425 3.68585 35.5719 4.2465 36.2784 4.82798C37.1506 5.54639 37.7172 6.44342 37.9226 7.56074C37.9315 7.61134 37.9375 7.656 37.998 7.66691C38 14.476 38 21.2821 38 28.0892ZM31.1731 24.9665C30.9032 24.9605 30.6333 24.9565 30.3633 24.9466C30.0081 24.9337 29.7452 25.0697 29.6043 25.408C29.4286 25.5608 29.2262 25.6253 28.992 25.6224C28.473 25.6164 27.9531 25.6184 27.4341 25.6214C27.1543 25.6234 26.929 25.536 26.7772 25.286C26.6462 25.0716 26.4508 24.9486 26.1948 24.9506C25.5031 24.9536 24.8105 24.9605 24.1189 24.9665C23.848 24.9605 23.5771 24.9456 23.3062 24.9486C22.7704 24.9555 22.5084 25.2096 22.4985 25.7424C22.4886 26.2733 22.4846 26.8052 22.4995 27.3351C22.5253 28.246 23.1187 28.9515 23.9998 29.0954C24.4503 29.1688 24.9177 29.1738 25.3652 29.0964C26.0717 28.9743 26.5788 28.5804 26.7802 27.86C26.9241 27.5831 26.8636 27.2835 26.8725 26.9917C26.8903 26.4003 27.1642 26.1195 27.7606 26.1076C28.0553 26.1016 28.35 26.1126 28.6437 26.1046C28.9404 26.0967 29.2004 26.1721 29.4098 26.3924C29.5914 26.6573 29.5497 26.959 29.5556 27.2537C29.5755 28.2232 30.146 28.9436 31.055 29.0924C31.5174 29.1678 31.9967 29.1748 32.4581 29.0884C33.1497 28.9584 33.6429 28.5665 33.8373 27.859C34.0279 27.0572 33.9455 26.2435 33.8909 25.4388C33.8711 25.1431 33.5952 24.9565 33.2757 24.9536C32.5762 24.9496 31.8746 24.9615 31.1731 24.9665ZM14.1553 14.857C13.6909 14.7042 13.5937 14.5713 13.5907 14.0781C13.5887 13.6822 13.5738 13.2852 13.5957 12.8913C13.6106 12.6244 13.5163 12.5648 13.2623 12.5658C9.78628 12.5738 6.31029 12.5728 2.8353 12.5668C2.61303 12.5668 2.52372 12.6145 2.48304 12.8576C2.05437 15.4524 1.6128 18.0453 1.1623 20.6371C1.10574 20.9616 1.08589 21.2136 1.39053 21.4528C4.91811 24.2272 8.43676 27.0145 11.9584 29.7979C12.0338 29.8575 12.1221 29.9428 12.2065 29.9448C12.8286 29.9577 13.4498 29.9517 14.1295 29.9517C13.7703 29.395 13.5927 28.8483 13.5927 28.2559C13.5897 24.3969 13.5897 20.5369 13.5917 16.6779C13.5917 16.2135 13.7118 16.0696 14.1583 15.9446C14.6316 16.0855 14.705 16.1857 14.705 16.7205C14.706 20.4565 14.7051 24.1925 14.708 27.9284C14.708 28.1626 14.7229 28.3988 14.7596 28.63C14.8688 29.3077 15.5048 29.8882 16.1826 29.9478C16.9635 30.0162 17.6134 29.6511 17.8605 28.9723C17.5807 28.9723 17.3128 28.9763 17.0449 28.9713C16.2858 28.9574 15.7499 28.4474 15.741 27.6943C15.7271 26.569 15.737 25.4428 15.737 24.3175C15.737 23.9325 15.8948 23.6765 16.3016 23.6219C16.7452 23.733 16.8543 23.8611 16.8563 24.3125C16.8603 25.3763 16.8573 26.439 16.8583 27.5028C16.8583 27.6784 16.8345 27.859 17.1054 27.859C18.4777 27.855 19.8501 27.856 21.2224 27.86C21.3851 27.86 21.4169 27.8123 21.4099 27.6437C21.3841 27.0145 21.3772 26.3834 21.3812 25.7533C21.3871 24.6073 22.1413 23.8432 23.2814 23.8303C24.2211 23.8194 25.1608 23.8293 26.1005 23.8273C26.4795 23.8263 26.8894 23.8541 27.1464 24.124C27.6008 24.6013 28.1486 24.4941 28.6904 24.5041C28.7965 24.506 28.8819 24.4773 28.9513 24.3949C29.1309 24.1826 29.38 24.0665 29.6112 23.9256C29.8761 23.864 30.1431 23.8214 30.4159 23.8214C31.306 23.8224 32.1971 23.8164 33.0872 23.8233C34.1688 23.8313 34.8138 24.3592 35.0529 25.415C35.0479 26.1532 35.0499 26.8925 35.0331 27.6308C35.0291 27.8143 35.0827 27.8649 35.2573 27.861C35.7128 27.852 36.1682 27.854 36.6237 27.86C36.8122 27.862 36.8876 27.7875 36.8847 27.597C36.8747 26.8955 36.8747 26.1939 36.8698 25.4924C36.8738 23.4145 36.8807 21.3357 36.8817 19.2578C36.8837 15.6697 36.8797 12.0816 36.8837 8.49349C36.8847 7.57662 36.6465 6.72523 35.9767 6.09811C35.0122 5.19413 33.9832 4.35763 32.9691 3.50823C32.6903 3.27505 32.1604 3.4229 32.1316 3.70768C31.8974 6.02071 30.1123 7.97353 27.8221 8.39029C27.5482 8.43991 27.4897 8.53417 27.4907 8.79018C27.5006 10.5594 27.4966 12.3287 27.4956 14.0979C27.4956 14.221 27.4996 14.347 27.4798 14.4681C27.4272 14.7776 27.2416 14.9553 26.9211 14.9493C26.6204 14.9444 26.4408 14.7737 26.3902 14.48C26.3694 14.3589 26.3714 14.2339 26.3714 14.1108C26.3704 12.3416 26.3694 10.5723 26.3724 8.80308C26.3724 8.6076 26.3793 8.46074 26.1094 8.41609C23.5999 8.00528 21.8743 6.18146 21.5895 3.66601C21.5806 3.58563 21.6203 3.4487 21.5161 3.44473C21.2641 3.43381 20.9852 3.32962 20.764 3.5132C20.2132 3.97064 19.6764 4.44495 19.1346 4.91232C18.8568 5.13757 18.5849 5.36778 18.3021 5.58608C17.2751 6.37694 16.8424 7.42182 16.8484 8.7108C16.8672 13.059 16.8563 17.4072 16.8553 21.7544C16.8553 22.2813 16.7799 22.3816 16.3006 22.5264C15.8353 22.3736 15.736 22.2426 15.736 21.7475C15.735 17.2951 15.7261 12.8417 15.741 8.3893C15.746 6.97827 16.2788 5.76966 17.409 4.90438C17.9191 4.51342 18.1255 4.0917 18.059 3.46854C18.0312 3.20658 17.9588 3.14307 17.7097 3.14406C15.0256 3.152 12.3414 3.152 9.65827 3.14307C9.40028 3.14208 9.32089 3.21253 9.32387 3.4745C9.33677 4.61265 9.34074 5.75081 9.32189 6.88797C9.31693 7.18665 9.43005 7.22733 9.68705 7.22535C10.9611 7.21344 12.2352 7.21741 13.5083 7.22138C14.2952 7.22336 14.6991 7.62028 14.7011 8.40319C14.706 10.3084 14.6961 12.2126 14.708 14.1178C14.713 14.5286 14.5641 14.7776 14.1553 14.857ZM23.7299 3.73944C23.4918 3.73944 23.3032 3.75829 23.1206 3.73547C22.7912 3.69379 22.7207 3.81386 22.7912 4.12544C23.2159 5.99987 24.9336 7.36625 26.8864 7.36823C28.7757 7.37022 30.5181 5.96415 30.9428 4.11155C31.0133 3.80294 30.9538 3.68585 30.6253 3.73448C30.4556 3.75928 30.279 3.7315 30.1063 3.74043C29.8007 3.7573 29.4137 3.60945 29.2123 3.80096C29.0248 3.97957 29.1657 4.36359 29.1547 4.6573C29.1299 5.30328 28.7757 5.66845 28.1337 5.6744C27.3051 5.68134 26.4756 5.68035 25.647 5.67539C24.9623 5.67142 24.6279 5.33206 24.6021 4.65333C24.5912 4.35962 24.7331 3.98156 24.5376 3.79501C24.3451 3.6154 23.971 3.76424 23.7299 3.73944ZM8.02497 8.33572C7.52981 8.33572 7.03466 8.34365 6.5405 8.33175C6.33907 8.32678 6.2577 8.37938 6.26068 8.59768C6.27159 9.46395 6.27159 10.3302 6.26068 11.1955C6.2577 11.4207 6.35098 11.4575 6.54646 11.4565C7.51195 11.4485 8.47646 11.4465 9.44195 11.4575C9.66323 11.4594 9.74361 11.4049 9.73964 11.1707C9.72674 10.3173 9.72476 9.46295 9.74063 8.60959C9.7446 8.36152 9.64537 8.32579 9.43501 8.33175C8.96466 8.34365 8.49432 8.33572 8.02497 8.33572ZM13.5927 9.91445C13.5927 9.4699 13.5838 9.02536 13.5967 8.5818C13.6026 8.39029 13.5461 8.32877 13.3496 8.33075C12.5964 8.34167 11.8443 8.33968 11.0911 8.33175C10.9195 8.32976 10.853 8.37541 10.854 8.55799C10.8619 9.44708 10.8609 10.3352 10.855 11.2243C10.854 11.3989 10.9056 11.4594 11.0862 11.4575C11.8393 11.4485 12.5925 11.4475 13.3446 11.4575C13.5361 11.4604 13.6026 11.4068 13.5967 11.2094C13.5838 10.7787 13.5927 10.3461 13.5927 9.91445ZM13.7207 1.12277C12.4605 1.12277 11.2013 1.12277 9.94107 1.12277C9.31891 1.12277 9.32883 1.12277 9.32486 1.74494C9.32288 1.96324 9.36555 2.05652 9.60568 2.03766C9.88749 2.01484 10.1733 2.0327 10.4571 2.0327C12.8782 2.0327 15.2994 2.02774 17.7196 2.03965C18.0004 2.04064 18.1056 1.9682 18.058 1.69235C18.0481 1.63281 18.0481 1.56732 18.058 1.50778C18.1076 1.20811 18.0054 1.10987 17.6849 1.11484C16.3642 1.13369 15.0424 1.12277 13.7207 1.12277ZM5.13641 9.88567C5.13641 9.46593 5.1255 9.0452 5.14038 8.62646C5.14832 8.41113 5.10466 8.31885 4.86155 8.32976C4.418 8.3506 3.97147 8.3506 3.52792 8.32976C3.30465 8.31885 3.23221 8.39625 3.19848 8.60363C3.05856 9.48082 2.90972 10.356 2.75195 11.2292C2.71722 11.4197 2.76981 11.4594 2.94941 11.4565C3.59142 11.4475 4.23443 11.4436 4.87644 11.4584C5.09573 11.4634 5.14634 11.385 5.13939 11.1826C5.12748 10.75 5.13641 10.3183 5.13641 9.88567ZM26.8814 4.56006C27.0908 4.56006 27.3002 4.56006 27.5095 4.56006C28.0593 4.56006 28.0523 4.56006 28.0404 3.99942C28.0364 3.82081 28.0067 3.7315 27.7993 3.73646C27.1841 3.74837 26.5679 3.73944 25.9516 3.74241C25.8733 3.74241 25.7492 3.70471 25.7393 3.82477C25.7214 4.04407 25.6837 4.28321 25.7492 4.48266C25.8028 4.64738 26.031 4.54914 26.1809 4.55708C26.4131 4.56998 26.6472 4.56006 26.8814 4.56006ZM27.9749 27.6446C27.9461 27.7707 27.9838 27.8907 28.1972 27.855C28.3073 27.8362 28.5246 27.9324 28.4651 27.6953C28.4254 27.5335 28.601 27.2448 28.2329 27.2249C27.9184 27.208 28.0067 27.4323 27.9749 27.6446Z" fill="#020303"/>
<path d="M19.1374 4.91144C19.6792 4.44408 20.216 3.96976 20.7668 3.51232C20.988 3.32875 21.2669 3.43294 21.5189 3.44385C21.6241 3.44782 21.5834 3.58575 21.5923 3.66513C21.8771 6.18058 23.6027 8.00341 26.1122 8.41521C26.3821 8.45987 26.3752 8.60573 26.3752 8.80221C26.3722 10.5715 26.3732 12.3407 26.3742 14.11C26.3742 14.233 26.3722 14.359 26.393 14.4791C26.4436 14.7728 26.6232 14.9435 26.9239 14.9484C27.2434 14.9534 27.43 14.7768 27.4826 14.4672C27.5034 14.3461 27.4984 14.2211 27.4984 14.0971C27.4994 12.3278 27.5044 10.5586 27.4935 8.78931C27.4915 8.5333 27.551 8.43903 27.8249 8.38941C30.1151 7.97265 31.9002 6.01983 32.1344 3.70681C32.1632 3.42202 32.6931 3.27318 32.9719 3.50736C33.986 4.35775 35.014 5.19425 35.9795 6.09723C36.6493 6.72435 36.8875 7.57574 36.8865 8.49261C36.8825 12.0807 36.8865 15.6688 36.8845 19.257C36.8835 21.3348 36.8766 23.4136 36.8726 25.4915C36.2643 25.5163 35.659 25.4716 35.0547 25.4151C34.8156 24.3593 34.1706 23.8314 33.089 23.8235C32.1989 23.8165 31.3078 23.8225 30.4178 23.8215C30.1449 23.8215 29.8779 23.8641 29.613 23.9257C29.4086 23.8135 29.2062 23.6945 28.9988 23.5893C27.5421 22.8461 26.1956 21.9351 24.9949 20.8277C23.6454 19.5844 22.5033 18.1704 21.5814 16.5738C19.966 13.7775 19.1602 10.7709 19.1434 7.54795C19.1354 6.66879 19.1374 5.78962 19.1374 4.91144ZM35.4625 15.3037C35.4625 14.5743 35.4685 13.845 35.4606 13.1147C35.4526 12.4499 35.0845 12.0738 34.4256 12.0698C33.0156 12.0619 31.6065 12.0619 30.1965 12.0698C29.5277 12.0738 29.1625 12.4439 29.1605 13.1048C29.1566 14.5634 29.1645 16.0231 29.1566 17.4817C29.1536 17.9412 29.3431 18.2547 29.7519 18.4592C30.4356 18.8025 31.1153 19.1538 31.7911 19.512C32.1374 19.6955 32.4718 19.6965 32.8161 19.5179C33.4839 19.1716 34.1507 18.8223 34.8245 18.4869C35.274 18.2637 35.4745 17.9144 35.4665 17.4163C35.4536 16.7137 35.4625 16.0092 35.4625 15.3037ZM24.9145 11.1639C24.6099 11.1728 24.3509 11.4397 24.3539 11.7404C24.3578 12.0599 24.6397 12.3199 24.9631 12.302C25.2688 12.2851 25.5208 12.0113 25.5049 11.7106C25.4901 11.408 25.2172 11.1549 24.9145 11.1639ZM24.9423 10.4683C25.243 10.4603 25.5069 10.1884 25.5049 9.88975C25.502 9.59008 25.235 9.32117 24.9354 9.3182C24.6218 9.31423 24.341 9.60397 24.3539 9.91456C24.3678 10.2162 24.6436 10.4762 24.9423 10.4683ZM24.9155 14.1407C25.2331 14.1477 25.4901 13.9135 25.5049 13.6019C25.5208 13.2844 25.2519 13.0105 24.9264 13.0125C24.6158 13.0145 24.3569 13.2675 24.3529 13.5721C24.3499 13.8768 24.6039 14.1338 24.9155 14.1407Z" fill="#FCA85B"/>
<path d="M19.1372 4.91138C19.1382 5.78955 19.1353 6.66773 19.1402 7.5459C19.1581 10.7689 19.9638 13.7755 21.5783 16.5718C22.5001 18.1683 23.6422 19.5814 24.9917 20.8257C26.1934 21.9331 27.5389 22.844 28.9956 23.5872C29.204 23.6934 29.4054 23.8115 29.6099 23.9236C29.3786 24.0645 29.1296 24.1806 28.95 24.393C28.8805 24.4753 28.7952 24.5041 28.689 24.5021C28.1472 24.4922 27.5995 24.5994 27.145 24.1221C26.888 23.8522 26.4792 23.8244 26.0991 23.8254C25.1594 23.8274 24.2197 23.8174 23.28 23.8284C22.1389 23.8413 21.3858 24.6053 21.3798 25.7514C21.3758 26.3815 21.3828 27.0126 21.4086 27.6417C21.4155 27.8104 21.3838 27.859 21.2211 27.858C19.8487 27.8541 18.4764 27.8541 17.104 27.857C16.8331 27.858 16.857 27.6764 16.857 27.5008C16.857 26.4371 16.859 25.3743 16.855 24.3106C16.853 23.8591 16.7438 23.7311 16.3003 23.62C16.3003 23.2548 16.3003 22.8897 16.3003 22.5245C16.7796 22.3806 16.855 22.2794 16.855 21.7525C16.856 17.4043 16.8669 13.0561 16.848 8.70886C16.8421 7.41988 17.2757 6.375 18.3017 5.58415C18.5865 5.36783 18.8594 5.13663 19.1372 4.91138Z" fill="#FB9537"/>
<path d="M14.1571 15.9447C13.7106 16.0697 13.5915 16.2136 13.5905 16.678C13.5885 20.537 13.5885 24.397 13.5915 28.256C13.5915 28.8484 13.7691 29.3951 14.1283 29.9518C13.4486 29.9518 12.8264 29.9578 12.2053 29.9449C12.1219 29.9429 12.0336 29.8575 11.9572 29.798C8.43557 27.0156 4.91692 24.2283 1.38933 21.4529C1.0847 21.2137 1.10454 20.9607 1.16111 20.6372C1.6116 18.0453 2.05317 15.4525 2.48184 12.8577C2.52252 12.6146 2.61084 12.5659 2.8341 12.5669C6.31009 12.5729 9.78607 12.5739 13.2611 12.5659C13.5151 12.5649 13.6094 12.6255 13.5945 12.8914C13.5726 13.2863 13.5865 13.6823 13.5895 14.0782C13.5925 14.5704 13.6907 14.7033 14.1541 14.8571C14.1551 15.2193 14.1561 15.5815 14.1571 15.9447ZM7.72708 13.837C6.81119 13.837 5.89531 13.8351 4.97943 13.838C4.21835 13.84 3.82044 14.2002 3.81151 14.9623C3.79464 16.5093 3.80654 18.0563 3.80555 19.6032C3.80555 20.1143 4.0318 20.4606 4.50115 20.6828C5.38329 21.0996 6.25849 21.5332 7.12873 21.9758C7.51274 22.1713 7.87493 22.1852 8.26093 21.9917C9.15498 21.5422 10.053 21.0996 10.955 20.665C11.4075 20.4467 11.6168 20.0924 11.6168 19.6003C11.6168 18.0533 11.6238 16.5063 11.6139 14.9593C11.6089 14.231 11.2011 13.842 10.4747 13.839C9.55785 13.8351 8.64296 13.838 7.72708 13.837Z" fill="#028FCD"/>
<path d="M14.1573 15.9446C14.1563 15.5824 14.1553 15.2192 14.1553 14.857C14.5641 14.7777 14.713 14.5296 14.711 14.1168C14.6991 12.2126 14.709 10.3074 14.7041 8.40221C14.7021 7.6183 14.2982 7.22238 13.5113 7.22039C12.2372 7.21742 10.9631 7.21345 9.69003 7.22436C9.43203 7.22635 9.3199 7.18666 9.32486 6.88698C9.34372 5.74982 9.33975 4.61167 9.32685 3.47351C9.32387 3.21155 9.40325 3.14209 9.66125 3.14209C12.3454 3.15102 15.0295 3.15003 17.7127 3.14308C17.9617 3.14209 18.0342 3.2056 18.062 3.46756C18.1284 4.09072 17.922 4.51244 17.412 4.9034C16.2828 5.76868 15.7489 6.97728 15.744 8.38832C15.7291 12.8407 15.738 17.2941 15.739 21.7465C15.739 22.2416 15.8373 22.3726 16.3036 22.5254C16.3036 22.8906 16.3036 23.2558 16.3036 23.6209C15.8968 23.6745 15.739 23.9305 15.739 24.3165C15.739 25.4428 15.7291 26.568 15.743 27.6933C15.7529 28.4474 16.2878 28.9565 17.0469 28.9704C17.3148 28.9753 17.5817 28.9713 17.8625 28.9713C17.6144 29.6501 16.9655 30.0152 16.1846 29.9468C15.5058 29.8872 14.8708 29.3067 14.7616 28.629C14.7239 28.3988 14.71 28.1616 14.71 27.9275C14.707 24.1915 14.708 20.4555 14.707 16.7196C14.7041 16.1847 14.6306 16.0845 14.1573 15.9446Z" fill="#0179AB"/>
<path d="M23.7301 3.73943C23.9703 3.76424 24.3454 3.61539 24.5369 3.79599C24.7333 3.98155 24.5905 4.3606 24.6014 4.65432C24.6272 5.33304 24.9616 5.67141 25.6462 5.67637C26.4748 5.68134 27.3044 5.68332 28.1329 5.67538C28.7749 5.66943 29.1292 5.30427 29.154 4.65829C29.1649 4.36457 29.024 3.97956 29.2115 3.80194C29.413 3.61043 29.8 3.75828 30.1056 3.74141C30.2782 3.73149 30.4549 3.76027 30.6245 3.73546C30.954 3.68684 31.0135 3.80393 30.9421 4.11253C30.5174 5.96513 28.7759 7.3712 26.8856 7.36922C24.9328 7.36723 23.2151 5.99986 22.7904 4.12642C22.72 3.81484 22.7904 3.69478 23.1199 3.73645C23.3044 3.75828 23.492 3.73943 23.7301 3.73943Z" fill="#F9830A"/>
<path d="M8.02499 8.33573C8.49533 8.33573 8.96567 8.34367 9.43503 8.33176C9.6444 8.32581 9.74462 8.36153 9.74065 8.6096C9.72577 9.46297 9.72676 10.3173 9.73966 11.1707C9.74363 11.4049 9.66226 11.4595 9.44197 11.4575C8.47747 11.4466 7.51197 11.4485 6.54648 11.4565C6.351 11.4585 6.25772 11.4208 6.2607 11.1955C6.27161 10.3292 6.27161 9.46297 6.2607 8.5977C6.25772 8.37939 6.33909 8.32779 6.54052 8.33176C7.03468 8.34367 7.52983 8.33573 8.02499 8.33573Z" fill="#DC7E65"/>
<path d="M26.7813 27.86C26.5789 28.5804 26.0718 28.9744 25.3663 29.0964C24.9178 29.1738 24.4514 29.1689 24.0009 29.0954C23.1197 28.9516 22.5264 28.246 22.5006 27.3351C22.4857 26.8042 22.4896 26.2734 22.4996 25.7425C22.5095 25.2096 22.7715 24.9556 23.3073 24.9487C23.5782 24.9447 23.8491 24.9596 24.12 24.9665C24.1309 25.2602 24.0882 25.5559 24.1507 25.8487C24.4345 27.1833 25.3296 27.868 26.7813 27.86Z" fill="#01CDF7"/>
<path d="M29.605 25.408C29.7459 25.0697 30.0078 24.9337 30.3641 24.9466C30.634 24.9566 30.9039 24.9605 31.1738 24.9665C31.1649 25.3723 31.1698 25.7752 31.2859 26.1691C31.6064 27.2547 32.5283 27.8659 33.8401 27.86C33.6456 28.5675 33.1524 28.9594 32.4608 29.0894C32.0004 29.1758 31.5201 29.1698 31.0577 29.0934C30.1478 28.9446 29.5772 28.2242 29.5583 27.2547C29.5524 26.96 29.5941 26.6583 29.4125 26.3934C29.607 26.0907 29.6308 25.7544 29.605 25.408Z" fill="#01CDF7"/>
<path d="M13.5928 9.91447C13.5928 10.3461 13.5838 10.7787 13.5967 11.2104C13.6027 11.4069 13.5362 11.4605 13.3447 11.4585C12.5915 11.4485 11.8384 11.4495 11.0862 11.4585C10.9056 11.4605 10.854 11.3999 10.855 11.2253C10.862 10.3362 10.862 9.44809 10.854 8.559C10.8521 8.37543 10.9185 8.33078 11.0912 8.33276C11.8444 8.3407 12.5975 8.34268 13.3497 8.33177C13.5461 8.32879 13.6017 8.39031 13.5967 8.58282C13.5838 9.02538 13.5928 9.46992 13.5928 9.91447Z" fill="#96E2F7"/>
<path d="M29.6053 25.408C29.6311 25.7543 29.6073 26.0907 29.4118 26.3934C29.2034 26.1741 28.9424 26.0977 28.6457 26.1056C28.351 26.1135 28.0563 26.1026 27.7626 26.1086C27.1663 26.1205 26.8924 26.4003 26.8745 26.9927C26.8656 27.2834 26.9261 27.5831 26.7822 27.86C25.3305 27.8679 24.4345 27.1822 24.1507 25.8486C24.0882 25.5559 24.1308 25.2602 24.1199 24.9664C24.8115 24.9605 25.5042 24.9535 26.1958 24.9506C26.4518 24.9496 26.6473 25.0716 26.7783 25.286C26.9301 25.536 27.1553 25.6233 27.4352 25.6214C27.9541 25.6184 28.4741 25.6164 28.9931 25.6223C29.2272 25.6253 29.4297 25.5608 29.6053 25.408Z" fill="#69D7E5"/>
<path d="M13.7206 1.12274C15.0423 1.12274 16.3641 1.13465 17.6858 1.1148C18.0053 1.10984 18.1085 1.20808 18.0589 1.50775C18.049 1.56828 18.049 1.63278 18.0589 1.69231C18.1065 1.96817 18.0013 2.04061 17.7205 2.03961C15.2993 2.02771 12.8781 2.03267 10.458 2.03267C10.1742 2.03267 9.88838 2.01481 9.60657 2.03763C9.36544 2.05748 9.32376 1.96321 9.32575 1.7449C9.32972 1.12274 9.3198 1.12274 9.94196 1.12274C11.2002 1.12274 12.4604 1.12274 13.7206 1.12274Z" fill="#98E5FB"/>
<path d="M33.8395 27.8599C32.5277 27.8659 31.6059 27.2546 31.2853 26.1691C31.1692 25.7751 31.1633 25.3713 31.1732 24.9664C31.8748 24.9614 32.5763 24.9495 33.2779 24.9555C33.5974 24.9575 33.8732 25.144 33.8931 25.4407C33.9477 26.2455 34.03 27.0581 33.8395 27.8599Z" fill="#69D7E5"/>
<path d="M5.13622 9.88565C5.13622 10.3183 5.12729 10.7509 5.14019 11.1826C5.14614 11.385 5.09653 11.4634 4.87723 11.4584C4.23522 11.4445 3.59321 11.4485 2.95021 11.4564C2.7706 11.4584 2.71801 11.4197 2.75274 11.2292C2.91151 10.356 3.05936 9.47981 3.19927 8.60362C3.23202 8.39623 3.30545 8.31883 3.52871 8.32974C3.97227 8.35157 4.4188 8.35157 4.86235 8.32974C5.10546 8.31784 5.14912 8.41111 5.14118 8.62644C5.1263 9.04518 5.13622 9.46591 5.13622 9.88565Z" fill="#98E5FB"/>
<path d="M35.0527 25.4141C35.6571 25.4706 36.2623 25.5153 36.8706 25.4905C36.8746 26.192 36.8756 26.8936 36.8855 27.5951C36.8885 27.7856 36.8131 27.861 36.6245 27.8581C36.1691 27.8521 35.7136 27.8501 35.2582 27.8591C35.0835 27.862 35.0299 27.8124 35.0339 27.6288C35.0508 26.8916 35.0478 26.1523 35.0527 25.4141Z" fill="#FB9537"/>
<path d="M26.8812 4.56007C26.647 4.56007 26.4128 4.56999 26.1796 4.5561C26.0298 4.54717 25.8015 4.6464 25.748 4.48168C25.6825 4.28223 25.7202 4.04408 25.738 3.82379C25.748 3.70373 25.872 3.74143 25.9504 3.74143C26.5666 3.73845 27.1818 3.74739 27.798 3.73548C28.0064 3.73151 28.0352 3.82081 28.0392 3.99843C28.0511 4.56007 28.058 4.55908 27.5083 4.55908C27.2999 4.56007 27.0905 4.56007 26.8812 4.56007Z" fill="#6AF1BF"/>
<path d="M27.9753 27.6446C28.007 27.4323 27.9187 27.208 28.2332 27.2249C28.6014 27.2447 28.4258 27.5335 28.4654 27.6952C28.524 27.9324 28.3077 27.8371 28.1975 27.855C27.9842 27.8907 27.9465 27.7707 27.9753 27.6446Z" fill="#FB9537"/>
<path d="M35.4626 15.3035C35.4626 16.008 35.4537 16.7136 35.4656 17.4181C35.4745 17.9172 35.2731 18.2655 34.8236 18.4888C34.1498 18.8241 33.483 19.1734 32.8152 19.5197C32.4709 19.6984 32.1365 19.6974 31.7902 19.5138C31.1144 19.1556 30.4347 18.8043 29.751 18.461C29.3422 18.2556 29.1537 17.942 29.1557 17.4836C29.1636 16.0249 29.1557 14.5652 29.1596 13.1066C29.1616 12.4457 29.5268 12.0746 30.1956 12.0716C31.6056 12.0637 33.0147 12.0637 34.4247 12.0716C35.0846 12.0756 35.4527 12.4517 35.4597 13.1165C35.4686 13.8448 35.4626 14.5742 35.4626 15.3035ZM30.275 15.3363C30.275 15.9544 30.2859 16.5726 30.269 17.1908C30.2631 17.4101 30.3375 17.5213 30.531 17.6145C31.0529 17.8666 31.5669 18.1355 32.0779 18.4094C32.2327 18.4927 32.3588 18.5066 32.5205 18.4193C33.0415 18.1375 33.5684 17.8676 34.0982 17.6036C34.2699 17.5183 34.3513 17.4201 34.3493 17.2097C34.3374 15.9733 34.3374 14.7369 34.3483 13.5015C34.3503 13.2584 34.2838 13.182 34.0377 13.185C32.8757 13.1959 31.7138 13.1969 30.5518 13.184C30.3117 13.181 30.265 13.2653 30.269 13.4837C30.2839 14.0999 30.276 14.7181 30.275 15.3363Z" fill="#030302"/>
<path d="M24.9147 11.1638C25.2173 11.1558 25.4902 11.4079 25.5051 11.7105C25.52 12.0102 25.2689 12.285 24.9633 12.3019C24.6408 12.3198 24.358 12.0598 24.354 11.7403C24.3511 11.4396 24.611 11.1717 24.9147 11.1638Z" fill="#030302"/>
<path d="M24.9424 10.4682C24.6437 10.4762 24.3679 10.2162 24.355 9.91452C24.3411 9.60294 24.6229 9.31419 24.9365 9.31816C25.2361 9.32113 25.5031 9.59004 25.506 9.88971C25.508 10.1894 25.2431 10.4613 24.9424 10.4682Z" fill="#030302"/>
<path d="M24.9157 14.1406C24.6041 14.1336 24.3511 13.8766 24.354 13.572C24.357 13.2674 24.617 13.0143 24.9276 13.0123C25.253 13.0104 25.522 13.2842 25.5061 13.6018C25.4902 13.9133 25.2332 14.1475 24.9157 14.1406Z" fill="#030302"/>
<path d="M7.72735 13.837C8.64323 13.837 9.55911 13.834 10.475 13.838C11.2013 13.841 11.6092 14.23 11.6141 14.9583C11.6241 16.5053 11.6171 18.0522 11.6171 19.5992C11.6171 20.0914 11.4087 20.4456 10.9553 20.6639C10.0533 21.0986 9.15624 21.5411 8.2612 21.9906C7.8752 22.1851 7.51302 22.1702 7.129 21.9748C6.25876 21.5322 5.38456 21.0976 4.50142 20.6818C4.03207 20.4605 3.80583 20.1132 3.80583 19.6022C3.80682 18.0552 3.79392 16.5082 3.81178 14.9613C3.82071 14.1982 4.21763 13.839 4.9797 13.837C5.89559 13.836 6.81147 13.837 7.72735 13.837ZM7.7214 14.9543C6.90474 14.9543 6.08809 14.9633 5.27144 14.9494C5.01543 14.9444 4.93208 15.0178 4.93406 15.2808C4.94597 16.6422 4.94498 18.0026 4.93406 19.3641C4.93208 19.5853 5.01245 19.6915 5.20495 19.7828C5.96405 20.142 6.7172 20.5151 7.46935 20.8902C7.62415 20.9676 7.75613 20.9894 7.92184 20.9061C8.69483 20.5181 9.47179 20.138 10.2517 19.7639C10.4194 19.6836 10.4809 19.5794 10.4809 19.3918C10.474 18.0185 10.47 16.6452 10.4829 15.2719C10.4859 14.995 10.3768 14.9464 10.1336 14.9504C9.33089 14.9623 8.52614 14.9543 7.7214 14.9543Z" fill="#000304"/>
<path d="M30.2763 15.3363C30.2763 14.7181 30.2852 14.0999 30.2713 13.4817C30.2664 13.2644 30.314 13.1801 30.5541 13.182C31.7161 13.1949 32.8781 13.1939 34.04 13.183C34.2861 13.181 34.3526 13.2575 34.3506 13.4996C34.3387 14.736 34.3387 15.9724 34.3516 17.2078C34.3536 17.4181 34.2722 17.5164 34.1006 17.6017C33.5707 17.8656 33.0438 18.1355 32.5228 18.4174C32.3611 18.5047 32.2351 18.4908 32.0803 18.4074C31.5693 18.1336 31.0552 17.8646 30.5333 17.6126C30.3398 17.5193 30.2654 17.4082 30.2713 17.1889C30.2862 16.5727 30.2753 15.9545 30.2763 15.3363Z" fill="#6AF1BF"/>
<path d="M7.72144 14.9543C8.52619 14.9543 9.32994 14.9623 10.1347 14.9494C10.3778 14.9454 10.486 14.994 10.484 15.2709C10.4711 16.6442 10.475 18.0175 10.482 19.3909C10.483 19.5774 10.4215 19.6826 10.2528 19.763C9.47283 20.1371 8.69587 20.5171 7.92288 20.9051C7.75716 20.9885 7.62519 20.9666 7.47039 20.8892C6.71824 20.5141 5.96509 20.141 5.20599 19.7818C5.01349 19.6905 4.93311 19.5844 4.93509 19.3631C4.94601 18.0017 4.947 16.6412 4.93509 15.2798C4.93311 15.0169 5.01646 14.9444 5.27247 14.9484C6.08813 14.9643 6.90479 14.9543 7.72144 14.9543Z" fill="#0179AC"/>
</svg>
