<svg width="18" height="16" viewBox="0 0 18 16" fill="none" xmlns="http://www.w3.org/2000/svg">
<g clip-path="url(#clip0_111_1957)">
<path d="M14.548 2.90837C14.9614 2.90837 15.3633 2.90837 15.7658 2.90837C16.2773 2.90837 16.7893 2.91321 17.3008 2.90655C17.7015 2.9011 18.0031 2.5741 17.9973 2.16959C17.9915 1.77356 17.694 1.45988 17.3002 1.45685C16.4641 1.4514 15.628 1.45504 14.7925 1.45504C14.7141 1.45504 14.6362 1.45504 14.548 1.45504C14.518 1.0693 14.4091 0.732002 14.1588 0.459501C13.8913 0.167623 13.5643 0.010179 13.1786 0.00351787C12.7749 -0.00314324 12.3713 0.0017012 11.9677 0.0017012C11.0105 0.0017012 10.5152 0.446179 10.3682 1.45504C10.2863 1.45504 10.2015 1.45504 10.1162 1.45504C7.02442 1.45504 3.93322 1.45504 0.841442 1.45564C0.754951 1.45564 0.667305 1.4508 0.582544 1.46533C0.235426 1.52407 -0.0171299 1.86076 0.0042057 2.22712C0.0249634 2.585 0.301159 2.87809 0.646549 2.90595C0.725544 2.912 0.805115 2.90837 0.884111 2.90837C3.96147 2.90837 7.03826 2.90837 10.1156 2.90837C10.201 2.90837 10.2857 2.90837 10.3676 2.90837C10.4916 3.74404 10.8681 4.25331 11.5381 4.32537C12.1505 4.39138 12.7796 4.39077 13.3913 4.32355C14.0585 4.24968 14.4604 3.7077 14.548 2.90837Z" fill="#797979"/>
<path d="M9.01083 7.26901C8.90762 6.3201 8.36907 5.81628 7.48974 5.81567C7.13685 5.81567 6.78339 5.81567 6.43051 5.81567C5.47391 5.81567 4.97918 6.25955 4.83099 7.26901C4.75661 7.26901 4.67877 7.26901 4.60093 7.26901C3.31105 7.26901 2.02118 7.26598 0.731306 7.27022C0.169689 7.27204 -0.173393 7.85216 0.0918465 8.34448C0.236576 8.61274 0.465488 8.72476 0.75783 8.72355C2.03329 8.72053 3.30875 8.72234 4.58478 8.72234C4.6632 8.72234 4.74162 8.72234 4.82984 8.72234C4.84945 8.83376 4.86444 8.9355 4.8852 9.03602C5.0207 9.68094 5.55118 10.1557 6.1768 10.1714C6.67384 10.1842 7.17145 10.1848 7.66849 10.1714C8.39386 10.1521 8.91339 9.59192 9.01199 8.72174C9.09271 8.72174 9.17747 8.72174 9.26166 8.72174C11.921 8.72174 14.5803 8.72234 17.239 8.72113C17.7857 8.72113 18.1334 8.23669 17.9523 7.7365C17.8445 7.43917 17.596 7.26901 17.2552 7.26901C16.0443 7.2678 14.834 7.2684 13.6231 7.2684C12.1672 7.2684 10.7118 7.2684 9.25589 7.2684C9.1769 7.26901 9.09848 7.26901 9.01083 7.26901Z" fill="#797979"/>
<path d="M10.3745 14.5369C10.4789 15.4852 11.0174 15.9896 11.8956 15.9903C12.2416 15.9909 12.5893 15.9685 12.9329 15.9951C13.7044 16.055 14.4483 15.6039 14.5549 14.5369C14.6305 14.5369 14.7077 14.5369 14.7856 14.5369C15.5997 14.5369 16.4145 14.5381 17.2287 14.5363C17.6853 14.5357 17.9996 14.2347 17.9979 13.8054C17.9956 13.3761 17.6836 13.0842 17.2217 13.083C16.3499 13.0812 15.4781 13.0812 14.6057 13.08C14.5918 13.08 14.5786 13.0727 14.5567 13.0672C14.5301 12.9328 14.5128 12.7917 14.4748 12.6573C14.3041 12.0614 13.7817 11.6436 13.1861 11.6315C12.7611 11.623 12.3356 11.629 11.9106 11.629C11.0128 11.629 10.4841 12.1214 10.3739 13.0824C10.2926 13.0824 10.2085 13.0824 10.1243 13.0824C7.00366 13.0824 3.88363 13.0818 0.763029 13.083C0.216982 13.083 -0.131866 13.568 0.0491886 14.067C0.154131 14.3553 0.404957 14.5333 0.72555 14.5351C1.30216 14.5381 1.87877 14.5363 2.45538 14.5363C5.00629 14.5363 7.55778 14.5363 10.1087 14.5363C10.1935 14.5369 10.2788 14.5369 10.3745 14.5369Z" fill="#797979"/>
</g>
<defs>
<clipPath id="clip0_111_1957">
<rect width="18" height="16" fill="white" transform="matrix(-1 0 0 1 18 0)"/>
</clipPath>
</defs>
</svg>
