<svg width="22" height="35" viewBox="0 0 22 35" fill="none" xmlns="http://www.w3.org/2000/svg">
<path d="M10.8845 34.9787C8.60225 34.9805 6.32005 35.0307 4.03967 34.9705C1.7775 34.9111 0.0134878 32.9541 0.0052915 30.5971C-0.00472615 27.7844 0.00255674 24.9727 0.00255674 22.16C0.00255674 16.2625 0.00073624 10.3641 0.00346833 4.46657C0.00437902 2.55157 1.01343 1.01829 2.71279 0.305989C3.00148 0.185445 3.32568 0.177226 3.59252 0.000976562C6.02316 0.000976562 8.45381 0.000976562 10.8845 0.000976562C10.8854 2.14062 10.8863 4.27936 10.8872 6.41901C10.0366 6.41992 9.18237 6.46923 8.33542 6.41079C6.82093 6.30668 5.56144 4.94235 5.49587 3.4109C5.464 2.65841 5.15709 2.21368 4.56423 2.07853C4.24549 2.00638 3.9322 2.06391 3.62621 2.16163C2.62171 2.48308 2.04798 3.34149 2.04798 4.53049C2.04707 13.1722 2.04707 21.8148 2.04889 30.4565C2.04889 30.6263 2.05982 30.798 2.08076 30.967C2.22465 32.1286 3.21731 32.9687 4.39393 32.9285C4.56332 32.9322 4.73362 32.9386 4.90301 32.9395C6.89652 32.9441 8.89094 32.9468 10.8845 32.9505C10.8845 33.6262 10.8845 34.302 10.8845 34.9787Z" fill="#0C4A4E"/>
<path d="M10.8851 6.41803C10.8842 4.27838 10.8833 2.13965 10.8824 0C13.2902 0 15.6981 0 18.106 0C18.2098 0.133328 18.3746 0.0831015 18.5058 0.118717C20.4419 0.633766 21.7706 2.3232 21.7752 4.335C21.7834 8.02253 21.7779 11.711 21.7779 15.3994C21.7779 20.4531 21.7797 25.5068 21.777 30.5614C21.7761 31.9048 21.2934 33.0444 20.2798 33.9339C19.5039 34.6152 18.595 34.9877 17.5559 34.9887C15.3311 34.9914 13.1072 34.9832 10.8824 34.9795C10.8824 34.3037 10.8824 33.6271 10.8824 32.9513L10.8787 32.9294C13.0525 32.9294 15.2273 32.9303 17.4011 32.9303C17.5705 32.9449 17.739 32.9485 17.9074 32.9075C19.0476 32.6335 19.7343 31.7459 19.7343 30.5276C19.7352 22.674 19.7352 14.8205 19.7352 6.96687C19.7352 6.09019 19.7434 5.2135 19.7325 4.33774C19.7188 3.20536 18.9484 2.28393 17.8519 2.06933C16.984 1.89856 16.2891 2.41452 16.2673 3.24463C16.2172 5.0683 14.8384 6.41985 13.0197 6.42807C12.3049 6.43172 11.5909 6.43903 10.876 6.44542L10.8851 6.41803Z" fill="#152433"/>
<path d="M4.39294 32.9275C3.21632 32.9677 2.22366 32.1285 2.07977 30.966C2.05882 30.797 2.0479 30.6253 2.0479 30.4555C2.04607 21.8138 2.04607 13.1712 2.04698 4.52951C2.04698 3.34051 2.61981 2.48301 3.62522 2.16064C3.93121 2.06293 4.24449 2.0054 4.56323 2.07754C5.1561 2.21178 5.463 2.65743 5.49487 3.40991C5.55953 4.94136 6.81902 6.3057 8.33442 6.4098C9.18137 6.46825 10.0356 6.41893 10.8862 6.41802L10.878 6.44268C10.8816 7.21342 10.8853 7.98326 10.888 8.75401C10.8844 8.77136 10.8807 8.78962 10.8789 8.80697C9.06206 8.80789 7.24523 8.80697 5.4284 8.81063C4.81732 8.81154 4.40659 9.22522 4.40659 9.84073C4.40477 13.1201 4.40477 16.3994 4.40659 19.6787C4.40659 20.2906 4.81641 20.7043 5.43477 20.7061C7.25161 20.7097 9.06844 20.7052 10.8844 20.7033L10.8807 20.7189C10.8816 21.4896 10.8816 22.2594 10.8825 23.0302C10.7077 23.0832 10.531 23.1005 10.3471 23.1005C8.6905 23.0969 7.03304 23.0987 5.37648 23.0978C5.21711 23.0978 5.06048 23.0959 4.9175 23.1873C4.50951 23.4484 4.30369 23.9388 4.43118 24.3626C4.56506 24.8091 4.95574 25.0803 5.46755 25.0813C7.27164 25.0822 9.07664 25.0822 10.8807 25.0831C10.8844 25.8621 10.8871 26.641 10.8907 27.42C10.888 27.4346 10.8844 27.4501 10.8816 27.4647C9.11124 27.4629 7.33994 27.4602 5.56955 27.4593C4.77998 27.4593 4.3984 27.8391 4.39658 28.6254C4.39384 30.0592 4.39385 31.4938 4.39294 32.9275Z" fill="#F1EFEF"/>
<path d="M4.39307 32.9275C4.39398 31.4928 4.39397 30.0591 4.3958 28.6244C4.39671 27.8391 4.77829 27.4583 5.56877 27.4583C7.33916 27.4583 9.11047 27.4619 10.8809 27.4637C10.8809 29.2847 10.8809 31.1065 10.8799 32.9275L10.8836 32.9494C8.88917 32.9457 6.89565 32.9421 4.90214 32.9384C4.73275 32.9384 4.56337 32.9311 4.39307 32.9275Z" fill="#FE7038"/>
<path d="M10.888 8.754C10.8843 7.98326 10.8807 7.21342 10.8779 6.44267C11.5928 6.43719 12.3068 6.42898 13.0217 6.42532C14.8404 6.4171 16.2192 5.06555 16.2693 3.24188C16.292 2.41086 16.9869 1.89581 17.8539 2.06658C18.9503 2.2821 19.7217 3.20261 19.7345 4.33499C19.7454 5.21167 19.7372 6.08744 19.7372 6.96412C19.7372 14.8177 19.7381 22.6713 19.7363 30.5249C19.7363 31.7431 19.0496 32.6307 17.9094 32.9047C17.7409 32.9458 17.5725 32.9422 17.4031 32.9275C17.404 31.6198 17.4049 30.313 17.4058 29.0053C17.4058 27.7159 17.1135 27.4236 15.823 27.4227C14.1792 27.4209 12.5354 27.42 10.8916 27.4182C10.8879 26.6392 10.8852 25.8602 10.8816 25.0813L10.8843 25.0785C11.2568 25.0785 11.6302 25.0813 12.0026 25.0785C12.5381 25.0749 12.9507 24.6922 12.9944 24.1635C13.0363 23.6576 12.6656 23.201 12.1666 23.0886C11.7395 22.9927 11.3123 23.0503 10.8861 23.0311L10.8834 23.0284C10.8825 22.2576 10.8825 21.4878 10.8816 20.717C12.6511 20.7143 14.4205 20.6851 16.1891 20.7216C16.8831 20.7353 17.3849 20.2495 17.3785 19.5226C17.3493 16.3492 17.3666 13.1758 17.3657 10.0014C17.3657 9.14029 16.9832 8.75218 16.1281 8.75218C14.3814 8.75218 12.6347 8.754 10.888 8.754ZM16.3184 25.0813C16.925 25.084 17.3584 24.6694 17.3575 24.0859C17.3566 23.516 16.8876 23.0439 16.3294 23.0521C15.8248 23.0603 15.2848 23.5936 15.3221 24.0968C15.354 24.5251 15.6263 25.1068 16.3184 25.0813Z" fill="#E5DEDC"/>
<path d="M10.8903 27.4192C12.5341 27.421 14.1779 27.4219 15.8217 27.4238C17.1122 27.4247 17.4054 27.7169 17.4045 29.0063C17.4045 30.3141 17.4027 31.6209 17.4018 32.9286C15.228 32.9286 13.0532 32.9277 10.8794 32.9277C10.8794 31.1067 10.8803 29.2849 10.8803 27.4639C10.8849 27.4493 10.8876 27.4347 10.8903 27.4192Z" fill="#FE415D"/>
<path d="M10.8885 8.75399C12.6352 8.75399 14.3819 8.75216 16.1286 8.75399C16.9829 8.7549 17.3663 9.1421 17.3663 10.0033C17.3663 13.1767 17.3499 16.351 17.379 19.5244C17.3854 20.2513 16.8836 20.7371 16.1897 20.7234C14.4211 20.6878 12.6516 20.7161 10.8821 20.7188L10.8858 20.7033C10.8839 16.7382 10.8821 12.7721 10.8794 8.80695C10.8812 8.7896 10.8849 8.77134 10.8885 8.75399Z" fill="#7DD4F3"/>
<path d="M10.879 8.80701C10.8808 12.7722 10.8826 16.7382 10.8854 20.7034C9.06855 20.7052 7.25172 20.7098 5.43579 20.7061C4.81743 20.7043 4.40853 20.2906 4.40762 19.6788C4.40579 16.3994 4.40579 13.1201 4.40762 9.84076C4.40762 9.22617 4.81834 8.81249 5.42942 8.81066C7.24534 8.80701 9.06217 8.80792 10.879 8.80701Z" fill="#97F8FE"/>
<path d="M10.8812 25.0822C9.07714 25.0813 7.27214 25.0813 5.46805 25.0804C4.95715 25.0804 4.56646 24.8082 4.43168 24.3617C4.30418 23.9379 4.50909 23.4475 4.91799 23.1864C5.06097 23.095 5.21761 23.0969 5.37698 23.0969C7.03354 23.0978 8.691 23.096 10.3476 23.0996C10.5306 23.0996 10.7082 23.0823 10.883 23.0293L10.8858 23.032C10.8849 23.7142 10.884 24.3964 10.884 25.0795L10.8812 25.0822Z" fill="#E6DEDC"/>
<path d="M10.8848 25.0795C10.8857 24.3973 10.8866 23.7142 10.8866 23.0321C11.3128 23.0513 11.7399 22.9928 12.167 23.0896C12.6661 23.2019 13.0368 23.6595 12.9949 24.1645C12.9511 24.6932 12.5377 25.0758 12.0031 25.0795C11.6306 25.0822 11.2572 25.0804 10.8848 25.0795Z" fill="#D9CFCA"/>
<path d="M16.3189 25.0813C15.6268 25.1068 15.3545 24.5251 15.3226 24.0968C15.2853 23.5946 15.8253 23.0603 16.3299 23.0521C16.8872 23.0439 17.3571 23.516 17.358 24.0859C17.3589 24.6694 16.9264 25.084 16.3189 25.0813Z" fill="#D0C8C3"/>
</svg>
