<svg width="45" height="45" viewBox="0 0 45 45" fill="none" xmlns="http://www.w3.org/2000/svg">
<path d="M31.5993 27.1328C35.014 29.1384 38.2388 29.4808 41.1566 27.1328C42.9144 27.1328 44.3405 25.7068 44.3405 23.9489V21.7127C44.3405 19.9549 42.9145 18.5288 41.1566 18.5288C36.9998 15.8511 32.408 15.9118 27.4101 18.5288C27.2454 21.3672 27.9752 24.4976 31.5993 27.1328Z" fill="#FFC93C"/>
<path d="M30.7074 35.7369C34.2576 37.1532 37.7459 37.2622 41.1568 35.7369C42.9146 35.7369 44.3407 34.3109 44.3407 32.553V30.3169C44.3407 28.5591 42.9147 27.1331 41.1568 27.1331H31.5996C30.7444 29.9455 30.4069 32.9298 30.7074 35.7369Z" fill="#FFE950"/>
<path d="M28.5095 35.7369C28.8622 36.7378 29.5059 36.9719 30.7075 35.7369C31.7885 32.9342 32.0515 29.9494 31.5997 27.1331H29.5403C27.8338 29.8307 27.8518 32.8727 28.5095 35.7369Z" fill="#FFC93C"/>
<path d="M23.1626 44.3408H41.1569C42.9147 44.3408 44.3408 42.9147 44.3408 41.1568V38.9207C44.3408 37.1629 42.9148 35.7368 41.1569 35.7368H30.7075C26.7301 38.5035 24.6482 41.753 23.1626 44.3408Z" fill="#FFC93C"/>
<path d="M30.7074 35.7368H28.5095C21.8054 38.6424 17.5141 42.4435 15.2197 44.3407H23.1626C26.5103 42.5134 29.2443 39.5303 30.7074 35.7368Z" fill="#FFAA4E"/>
<path d="M29.54 27.133H31.5994C31.0847 23.9254 29.6254 20.9297 27.4102 18.529C26.1804 17.5866 25.1675 17.4713 24.4624 18.529C25.294 21.3663 26.6352 24.5878 29.54 27.133Z" fill="#FFAA4E"/>
<path d="M44.3409 15.3451V13.109C44.3409 11.3512 42.9148 9.92505 41.1569 9.92505H19.7274C17.9695 9.92505 16.5435 11.3511 16.5435 13.109V13.2433C19.7273 14.6983 23.4849 16.7042 27.4104 18.529H41.1569C42.9148 18.529 44.3409 17.1029 44.3409 15.3451Z" fill="#FFE950"/>
<path d="M24.4627 18.5289H27.4104C24.5861 15.4684 20.729 13.5711 16.5435 13.2432V15.2788C18.5622 17.3514 21.4089 18.3148 24.4627 18.5289Z" fill="#FFC93C"/>
<path fill-rule="evenodd" clip-rule="evenodd" d="M40.4977 35.7368C40.4977 35.3728 40.7928 35.0776 41.1568 35.0776C43.2787 35.0776 44.9999 36.7988 44.9999 38.9207V41.1568C44.9999 43.2787 43.2788 45 41.1568 45H15.2197C14.8557 45 14.5605 44.7048 14.5605 44.3408C14.5605 43.9767 14.8557 43.6816 15.2197 43.6816H41.1568C42.5507 43.6816 43.6816 42.5506 43.6816 41.1568V38.9207C43.6816 37.5269 42.5506 36.396 41.1568 36.396C40.7928 36.396 40.4977 36.1009 40.4977 35.7368Z" fill="black"/>
<path fill-rule="evenodd" clip-rule="evenodd" d="M40.4975 27.1328C40.4975 26.7688 40.7926 26.4736 41.1566 26.4736C43.2785 26.4736 44.9997 28.1948 44.9997 30.3167V32.5528C44.9997 34.6747 43.2786 36.3959 41.1566 36.3959H28.5093C28.1452 36.3959 27.8501 36.1008 27.8501 35.7368C27.8501 35.3727 28.1452 35.0776 28.5093 35.0776H41.1566C42.5505 35.0776 43.6814 33.9466 43.6814 32.5528V30.3167C43.6814 28.9229 42.5504 27.792 41.1566 27.792C40.7926 27.792 40.4975 27.4969 40.4975 27.1328Z" fill="black"/>
<path fill-rule="evenodd" clip-rule="evenodd" d="M40.4975 18.5288C40.4975 18.1648 40.7927 17.8696 41.1567 17.8696C43.2787 17.8696 44.9998 19.5909 44.9998 21.7127V23.9488C44.9998 26.0708 43.2786 27.7919 41.1567 27.7919H29.54C29.176 27.7919 28.8809 27.4968 28.8809 27.1328C28.8809 26.7687 29.176 26.4736 29.54 26.4736H41.1567C42.5505 26.4736 43.6815 25.3427 43.6815 23.9488V21.7127C43.6815 20.319 42.5505 19.188 41.1567 19.188C40.7927 19.188 40.4975 18.8929 40.4975 18.5288Z" fill="black"/>
<path fill-rule="evenodd" clip-rule="evenodd" d="M23.8032 18.5291C23.8032 18.165 24.0983 17.8699 24.4624 17.8699H34.8871C35.2512 17.8699 35.5463 18.165 35.5463 18.5291C35.5463 18.8931 35.2512 19.1882 34.8871 19.1882H24.4624C24.0983 19.1882 23.8032 18.8931 23.8032 18.5291Z" fill="black"/>
<path fill-rule="evenodd" clip-rule="evenodd" d="M32.4297 9.92456C32.4297 9.56051 32.7248 9.26538 33.0889 9.26538H41.1563C43.2782 9.26538 44.9998 10.987 44.9998 13.1088V15.3448C44.9998 17.4666 43.2782 19.1882 41.1563 19.1882H37.9633C37.5992 19.1882 37.3041 18.8931 37.3041 18.529C37.3041 18.165 37.5992 17.8699 37.9633 17.8699H41.1563C42.5501 17.8699 43.6814 16.7385 43.6814 15.3448V13.1088C43.6814 11.7151 42.5501 10.5837 41.1563 10.5837H33.0889C32.7248 10.5837 32.4297 10.2886 32.4297 9.92456Z" fill="black"/>
<path d="M29.7801 29.7803C29.7801 20.8957 21.9168 14.1202 13.1513 15.3667C3.5711 22.8309 6.57141 39.6637 19.8881 43.5757C25.7016 41.6094 29.7801 36.1269 29.7801 29.7803Z" fill="#FFE950"/>
<path d="M13.1515 15.3667C6.0895 16.371 0.65918 22.4407 0.65918 29.7803C0.65918 37.8221 7.17785 44.3408 15.2197 44.3408C16.8527 44.3408 18.4227 44.0715 19.8883 43.5758C10.0041 37.7582 6.97983 25.0149 13.1515 15.3667Z" fill="#FFC93C"/>
<path d="M25.8092 29.7803C25.8092 23.9323 21.0678 19.1909 15.2197 19.1909C13.6878 19.1909 12.2321 19.5168 10.9174 20.1022C6.92197 27.5093 8.23945 35.4055 15.7471 40.3566C21.3502 40.0818 25.8092 35.4515 25.8092 29.7803Z" fill="#FFC93C"/>
<path d="M10.9174 20.1021C7.2133 21.7513 4.63037 25.4642 4.63037 29.7802C4.63037 35.8125 9.67221 40.6545 15.7471 40.3565C10.507 35.063 8.61111 27.2576 10.9174 20.1021Z" fill="#FFAA4E"/>
<path fill-rule="evenodd" clip-rule="evenodd" d="M15.2197 15.8789C7.54218 15.8789 1.31836 22.1027 1.31836 29.7802C1.31836 37.4577 7.54218 43.6815 15.2197 43.6815C22.8971 43.6815 29.1209 37.4577 29.1209 29.7802C29.1209 22.1027 22.8971 15.8789 15.2197 15.8789ZM0 29.7802C0 21.3746 6.81407 14.5605 15.2197 14.5605C23.6252 14.5605 30.4393 21.3746 30.4393 29.7802C30.4393 38.1858 23.6252 44.9999 15.2197 44.9999C6.81407 44.9999 0 38.1858 0 29.7802Z" fill="black"/>
<path fill-rule="evenodd" clip-rule="evenodd" d="M3.9707 29.78C3.9707 23.5685 9.00756 18.5317 15.2198 18.5317C21.4312 18.5317 26.468 23.5686 26.468 29.78C26.468 35.9922 21.4313 41.0291 15.2198 41.0291C12.6138 41.0291 10.2124 40.1418 8.30499 38.6527C8.01803 38.4286 7.96702 38.0144 8.19106 37.7274C8.41509 37.4405 8.82933 37.3895 9.11629 37.6135C10.8001 38.9281 12.918 39.7107 15.2198 39.7107C20.7031 39.7107 25.1497 35.2642 25.1497 29.78C25.1497 24.2967 20.7031 19.8501 15.2198 19.8501C9.7356 19.8501 5.28906 24.2967 5.28906 29.78C5.28906 31.9254 5.9688 33.9106 7.12501 35.5341C7.3362 35.8306 7.26701 36.2422 6.97048 36.4534C6.67394 36.6646 6.26234 36.5954 6.05115 36.2989C4.74115 34.4595 3.9707 32.2084 3.9707 29.78Z" fill="black"/>
<path fill-rule="evenodd" clip-rule="evenodd" d="M11.9131 27.1329C11.9131 25.3067 13.3933 23.8264 15.2196 23.8264H17.867C18.231 23.8264 18.5261 24.1215 18.5261 24.4856C18.5261 24.8496 18.231 25.1448 17.867 25.1448H15.2196C14.1214 25.1448 13.2314 26.0348 13.2314 27.1329C13.2314 28.2302 14.1223 29.1211 15.2196 29.1211C17.0449 29.1211 18.5261 30.6022 18.5261 32.4276C18.5261 34.253 17.045 35.7342 15.2196 35.7342H12.5723C12.2082 35.7342 11.9131 35.4391 11.9131 35.075C11.9131 34.7109 12.2082 34.4158 12.5723 34.4158H15.2196C16.3169 34.4158 17.2078 33.5249 17.2078 32.4276C17.2078 31.3304 16.3168 30.4395 15.2196 30.4395C13.3942 30.4395 11.9131 28.9583 11.9131 27.1329Z" fill="black"/>
<path fill-rule="evenodd" clip-rule="evenodd" d="M15.2197 21.8408C15.5838 21.8408 15.8789 22.1359 15.8789 22.5V24.4855C15.8789 24.8496 15.5838 25.1447 15.2197 25.1447C14.8557 25.1447 14.5605 24.8496 14.5605 24.4855V22.5C14.5605 22.1359 14.8557 21.8408 15.2197 21.8408Z" fill="black"/>
<path fill-rule="evenodd" clip-rule="evenodd" d="M15.2197 34.4158C15.5838 34.4158 15.8789 34.7109 15.8789 35.075V37.0605C15.8789 37.4245 15.5838 37.7197 15.2197 37.7197C14.8557 37.7197 14.5605 37.4245 14.5605 37.0605V35.075C14.5605 34.7109 14.8557 34.4158 15.2197 34.4158Z" fill="black"/>
<path fill-rule="evenodd" clip-rule="evenodd" d="M19.7274 10.5842C18.3335 10.5842 17.2026 11.7152 17.2026 13.109V15.2789C17.2026 15.643 16.9075 15.9381 16.5435 15.9381C16.1794 15.9381 15.8843 15.643 15.8843 15.2789V13.109C15.8843 10.9871 17.6054 9.26587 19.7274 9.26587H27.7948C28.1588 9.26587 28.4539 9.56099 28.4539 9.92505C28.4539 10.2891 28.1588 10.5842 27.7948 10.5842H19.7274Z" fill="black"/>
<path d="M35.0051 4.85723C35.7719 5.7088 35.1674 7.066 34.0211 7.066H32.7583C32.7583 8.5053 32.7583 12.323 32.7583 13.8962C32.7583 14.6268 32.1662 15.2198 31.4346 15.2198H29.4491C28.7183 15.2198 28.1253 14.6268 28.1253 13.8962C28.1253 12.3241 28.1253 8.50433 28.1253 7.066H26.8626C25.7163 7.066 25.1118 5.7088 25.8787 4.85723L29.1297 1.24361C29.8303 0.46437 31.0525 0.46437 31.7532 1.24361L35.0051 4.85723Z" fill="#52768B"/>
<path fill-rule="evenodd" clip-rule="evenodd" d="M31.2631 1.68435C30.8243 1.19636 30.0587 1.19636 29.6199 1.68435L26.3686 5.29833C25.9839 5.72545 26.2867 6.40683 26.8627 6.40683H28.1254C28.4894 6.40683 28.7846 6.70195 28.7846 7.066V13.8962C28.7846 14.2627 29.0824 14.5606 29.4491 14.5606H31.4346C31.8019 14.5606 32.0992 14.263 32.0992 13.8962V7.066C32.0992 6.70195 32.3943 6.40683 32.7584 6.40683H34.0212C34.5971 6.40683 34.8998 5.72542 34.5153 5.29833L34.5151 5.29816L31.2632 1.68455L31.2631 1.68435ZM32.2432 0.802669C31.2807 -0.267579 29.6022 -0.267556 28.6397 0.802735C28.6396 0.802779 28.6396 0.802822 28.6395 0.802866L25.3889 4.41612C25.3888 4.4162 25.3887 4.41628 25.3887 4.41636M32.2434 0.802866C32.2433 0.8028 32.2433 0.802735 32.2432 0.802669L32.2434 0.802866Z" fill="black"/>
</svg>
