<svg width="1350" height="584" viewBox="0 0 1350 584" fill="none" xmlns="http://www.w3.org/2000/svg">
<path d="M419.289 244.239C430.377 234.003 442.318 230.592 456.818 231.445C468.759 232.297 478.994 236.562 486.671 245.092C489.23 248.503 490.936 249.356 494.347 245.945C507.994 231.445 524.2 228.886 542.965 232.297C561.73 235.709 572.818 248.503 575.377 267.268C579.641 296.268 576.229 325.268 577.082 354.268C577.082 356.826 576.229 358.532 572.818 358.532C564.288 358.532 554.906 358.532 546.377 358.532C541.259 358.532 542.112 355.121 542.112 351.709C542.112 331.238 542.112 310.768 542.112 290.297C542.112 286.033 542.112 281.768 541.259 277.503C539.553 267.268 532.73 261.297 523.347 260.444C512.259 259.592 504.583 264.709 500.318 274.944C498.612 280.062 497.759 286.033 497.759 292.003C497.759 312.474 497.759 332.091 497.759 352.562C497.759 357.679 496.906 359.385 490.936 359.385C484.112 358.532 476.436 358.532 468.759 358.532C463.642 358.532 462.789 356.826 462.789 351.709C462.789 330.385 462.789 309.062 462.789 287.738C462.789 283.474 462.789 279.209 461.083 274.944C458.524 266.415 452.553 261.297 444.024 260.444C433.789 260.444 426.965 263.856 422.701 273.239C420.142 278.356 419.289 284.327 419.289 290.297C419.289 310.768 419.289 331.238 419.289 351.709C419.289 356.826 418.436 358.532 412.465 358.532C404.789 357.679 397.112 358.532 390.289 358.532C385.171 358.532 384.318 356.826 384.318 352.562C384.318 315.033 384.318 277.503 384.318 239.121C384.318 234.003 386.024 233.15 391.142 233.15C397.112 233.15 403.083 234.003 409.054 233.15C417.583 232.297 420.995 235.709 419.289 244.239Z" fill="#090A0B"/>
<path d="M192.41 36.1221C131.851 36.1221 71.2927 36.1221 9.88119 36.1221C1.35181 36.1221 -1.207 33.5632 0.498875 25.8868C1.35181 19.9162 1.35181 14.7986 0.498875 8.82803C0.498875 2.85746 3.05769 -0.554293 9.88119 0.298645C16.7047 1.15158 24.3811 0.298645 31.2046 0.298645C144.645 0.298645 258.939 0.298645 372.38 0.298645C386.88 0.298645 385.174 -1.40723 385.174 13.9457C385.174 18.2103 384.321 23.328 385.174 27.5927C386.027 34.4162 382.615 36.1221 376.645 36.1221C315.233 36.1221 253.822 36.1221 192.41 36.1221Z" fill="#53ABD9"/>
<path d="M193.266 94.1207C132.707 94.1207 72.1483 94.1207 11.5897 94.1207C3.06034 94.1207 0.50153 91.5619 1.35447 83.0325C2.20741 77.0619 1.35447 71.0914 1.35447 65.1208C1.35447 60.8561 2.20741 58.2973 7.32504 59.1502C10.7368 59.1502 15.0015 59.1502 18.4132 59.1502C136.972 59.1502 255.53 59.1502 374.088 59.1502C385.177 59.1502 385.177 59.1502 385.177 70.2384C385.177 75.3561 384.324 80.4737 385.177 84.7384C386.883 92.4148 382.618 94.1207 375.794 94.1207C315.236 94.1207 253.824 94.1207 193.266 94.1207Z" fill="#53ABD9"/>
<path d="M193.266 117.152C253.825 117.152 314.383 117.152 375.795 117.152C383.471 117.152 386.03 118.857 385.177 126.534C384.324 132.504 384.324 138.475 385.177 143.593C386.03 151.269 382.618 152.122 376.648 152.122C254.677 152.122 131.854 152.122 9.88425 152.122C3.91368 152.122 0.501927 150.416 1.35486 144.446C2.2078 135.916 -2.05689 124.828 3.06074 119.71C8.17837 113.74 19.2666 118.004 27.7959 118.004C83.2369 117.152 138.678 117.152 193.266 117.152Z" fill="#53ABD9"/>
<path d="M1189.5 568.355C1161.35 589.679 1129.79 587.12 1108.47 564.943C1086.29 541.914 1084.59 499.267 1105.06 475.385C1124.67 452.356 1157.09 443.826 1187.79 466.003C1185.23 455.767 1191.2 455.767 1198.88 455.767C1204.85 455.767 1211.67 455.767 1217.65 455.767C1221.06 455.767 1222.76 456.62 1222.76 460.885C1222.76 499.267 1222.76 537.649 1222.76 576.032C1222.76 581.149 1221.06 582.002 1216.79 582.002C1210.82 582.002 1204.85 581.149 1199.73 582.002C1191.2 582.002 1185.23 580.296 1189.5 568.355ZM1157.94 551.296C1175.85 551.296 1190.35 536.797 1190.35 518.032C1190.35 500.12 1175.85 485.62 1159.65 484.767C1140.03 484.767 1125.53 499.267 1125.53 518.032C1125.53 536.797 1140.03 551.296 1157.94 551.296Z" fill="#090A0B"/>
<path d="M1273.94 479.651C1284.17 467.71 1294.41 462.592 1308.06 462.592C1331.94 463.445 1348.14 477.092 1349 500.974C1349.85 525.71 1349 551.298 1349.85 576.033C1349.85 579.445 1349 581.151 1345.58 580.298C1335.35 580.298 1325.11 580.298 1315.73 580.298C1310.61 580.298 1311.47 576.886 1311.47 574.327C1311.47 555.563 1311.47 537.651 1311.47 518.886C1311.47 516.327 1311.47 513.769 1311.47 511.21C1309.76 500.122 1304.64 494.151 1295.26 494.151C1285.88 494.151 1278.2 500.122 1275.64 510.357C1274.79 514.622 1273.94 518.886 1273.94 523.151C1273.94 540.21 1273.94 558.121 1273.94 575.18C1273.94 579.445 1273.08 582.004 1267.97 581.151H1267.11C1257.73 581.151 1244.94 584.562 1239.82 579.445C1233.85 574.327 1238.11 561.533 1238.11 552.151C1238.11 503.533 1238.11 454.916 1238.11 406.298C1238.11 399.475 1239.82 397.769 1246.64 398.622C1256.03 399.475 1267.97 394.357 1273.08 400.328C1277.35 405.445 1274.79 417.387 1274.79 425.916C1273.94 442.975 1273.94 460.033 1273.94 479.651Z" fill="#090A0B"/>
<path d="M595.851 569.208C567.704 588.826 537.851 587.12 516.528 564.944C495.205 541.914 493.499 500.973 512.263 476.238C532.734 450.65 563.44 446.385 595.851 465.15C594.998 454.915 601.822 455.767 608.645 455.767C615.469 455.767 625.704 453.209 629.969 457.473C634.233 460.885 630.822 470.267 630.822 477.944C630.822 509.503 630.822 541.061 630.822 572.62C630.822 579.444 628.263 581.149 622.292 581.149C618.028 580.296 614.616 581.149 610.351 581.149C597.557 581.149 597.557 581.149 595.851 569.208ZM565.145 551.297C583.057 552.149 597.557 537.65 597.557 518.885C597.557 500.12 583.91 485.62 565.998 484.767C548.087 484.767 533.587 498.414 532.734 517.179C532.734 535.944 547.234 551.297 565.145 551.297Z" fill="#090A0B"/>
<path d="M146.354 210.975C101.149 210.975 56.7959 210.975 11.5901 210.975C2.20783 210.975 0.501953 207.563 0.501953 199.887C0.501953 193.916 0.501953 187.093 0.501953 181.122C0.501953 176.858 2.20783 174.299 6.47252 175.152C8.1784 175.152 9.03134 175.152 10.7372 175.152C100.296 175.152 189.001 175.152 278.56 175.152C289.648 175.152 289.648 175.152 289.648 186.24C289.648 193.916 293.06 203.299 287.942 208.416C283.677 214.387 273.442 210.975 265.766 210.975C225.678 210.975 185.59 210.975 146.354 210.975Z" fill="#53ABD9"/>
<path d="M144.649 268.974C100.296 268.974 55.09 268.974 10.7372 268.974C2.20783 268.974 0.501953 266.415 0.501953 258.739C1.35489 252.768 0.501953 245.945 0.501953 239.974C0.501953 234.857 2.20783 233.151 7.32546 233.151C15.0019 233.151 23.5313 233.151 31.2077 233.151C113.943 233.151 195.825 233.151 278.56 233.151C287.089 233.151 289.648 234.857 288.795 243.386C287.942 268.974 288.795 268.974 263.207 268.974C224.825 268.974 184.737 268.974 144.649 268.974Z" fill="#53ABD9"/>
<path d="M386.031 489.884C386.031 462.59 386.031 434.444 386.031 407.149C386.031 400.326 387.737 398.62 394.56 398.62C423.56 398.62 451.707 398.62 480.707 398.62C486.677 398.62 490.089 399.473 489.236 406.297C488.383 414.826 492.648 425.914 487.53 431.032C482.413 434.444 471.324 431.885 463.648 431.885C450.854 431.885 438.913 431.885 426.119 431.885C421.854 431.885 421.001 432.738 421.001 437.002C421.001 446.385 421.854 456.62 421.001 466.002C421.001 471.12 422.707 471.973 427.825 471.973C445.736 471.973 464.501 471.973 482.413 471.973C487.53 471.973 490.089 472.826 490.089 478.796C489.236 487.326 492.648 498.414 488.383 503.532C483.266 509.502 471.324 506.09 462.795 506.09C450.854 506.09 438.913 506.09 427.825 506.09C421.854 506.09 421.001 507.796 421.001 512.914C421.001 533.384 421.001 553.002 421.001 573.472C421.001 580.296 419.295 582.002 412.472 581.149C406.501 580.296 399.678 580.296 393.707 581.149C386.031 582.002 385.178 578.59 385.178 572.62C386.031 544.473 386.031 517.179 386.031 489.884Z" fill="#090A0B"/>
<path d="M929.345 582.856C893.522 582.856 865.375 553.856 865.375 518.885C865.375 482.209 893.522 453.209 930.198 453.209C965.169 453.209 995.022 482.209 995.022 518.032C995.022 555.562 966.875 582.856 929.345 582.856ZM929.345 550.444C946.404 550.444 960.904 535.944 960.904 518.885C960.904 500.974 946.404 486.474 929.345 486.474C913.14 486.474 898.64 500.974 898.64 518.885C899.492 535.944 913.14 550.444 929.345 550.444Z" fill="#090A0B"/>
<path d="M792.025 582.856C756.202 582.856 728.055 553.856 728.055 517.179C728.055 482.209 757.055 453.209 792.025 453.209C827.848 453.209 856.848 482.209 856.848 518.885C856.848 554.709 828.701 582.856 792.025 582.856ZM761.319 518.032C761.319 535.944 774.966 550.444 791.172 550.444C809.084 550.444 822.731 536.797 822.731 518.885C822.731 500.974 809.084 486.474 791.172 486.474C775.819 485.621 761.319 500.974 761.319 518.032Z" fill="#090A0B"/>
<path d="M646.172 309.916C655.555 286.033 663.231 263.857 671.76 241.681C673.466 235.71 676.025 233.151 682.849 233.151C690.525 234.004 698.201 233.151 705.025 233.151C709.29 233.151 710.143 234.004 708.437 238.269C685.407 294.563 663.231 351.71 641.055 408.857C638.496 414.827 635.937 417.386 629.966 416.533C623.996 415.68 618.025 415.68 612.908 416.533C605.231 417.386 602.672 415.68 606.084 408.004C613.761 391.798 619.731 375.592 626.555 359.386C628.261 355.121 628.261 350.857 626.555 346.592C612.055 311.622 597.555 277.504 583.055 242.534C579.643 234.004 579.643 233.151 589.025 234.004C597.555 234.004 607.79 231.445 614.613 234.857C621.437 238.269 622.29 249.357 624.849 257.034C631.672 274.092 638.496 290.298 646.172 309.916Z" fill="#090A0B"/>
<path d="M664.939 515.472C664.939 507.796 664.939 500.119 664.939 493.296C664.939 488.178 664.086 487.325 658.968 487.325C643.615 487.325 643.615 487.325 643.615 471.972C643.615 471.119 643.615 470.266 643.615 469.414C643.615 456.619 643.615 455.767 656.409 456.619C663.233 456.619 664.939 454.061 664.939 448.09C664.086 439.561 664.939 431.031 664.939 422.502C664.939 418.237 665.792 417.384 670.056 417.384C677.733 417.384 686.262 417.384 693.939 417.384C698.203 417.384 699.056 419.09 699.056 423.355C699.056 432.737 699.056 442.119 699.056 451.502C699.056 455.767 700.762 457.472 705.027 457.472C722.086 458.325 722.086 458.325 722.086 475.384C722.086 476.237 722.086 477.09 722.086 477.943C723.791 485.619 721.233 489.031 711.85 488.178C699.056 487.325 699.056 488.178 699.056 500.972C699.056 512.06 699.056 523.149 699.056 533.384C699.056 544.472 702.468 547.884 713.556 548.737C720.38 548.737 722.938 551.296 722.086 558.119C721.233 561.531 722.086 564.09 722.086 567.501C722.086 582.001 722.086 582.001 707.586 581.148C680.292 580.296 665.792 566.648 664.939 538.502C664.939 530.825 664.939 523.149 664.939 515.472Z" fill="#090A0B"/>
<path d="M98.5898 408.002C127.59 408.002 155.737 408.002 184.737 408.002C191.56 408.002 193.266 409.707 193.266 416.531C193.266 443.825 193.266 443.825 166.825 443.825C114.796 443.825 63.6194 443.825 11.5901 443.825C3.91368 443.825 0.501927 442.119 1.35486 433.59C2.2078 425.06 -2.05689 414.825 3.06074 409.707C8.17837 403.737 19.2666 408.002 27.7959 408.002C51.6782 407.149 74.7076 408.002 98.5898 408.002Z" fill="#53ABD9"/>
<path d="M97.7325 349.151C125.879 349.151 154.879 349.151 183.026 349.151C190.703 349.151 194.114 350.857 193.262 359.386C192.409 364.504 192.409 370.474 193.262 375.592C194.114 383.268 190.703 384.974 183.026 384.974C125.879 384.974 67.8796 384.974 10.7328 384.974C3.90927 385.827 0.497516 383.268 1.35045 375.592C2.20339 367.063 -2.0613 355.974 3.90927 350.857C9.0269 345.739 19.2622 350.004 27.7915 350.004C50.8209 349.151 74.7031 349.151 97.7325 349.151Z" fill="#53ABD9"/>
<path d="M96.884 326.975C67.8841 326.975 38.8842 326.975 9.88425 326.975C3.06074 326.975 0.501927 325.269 1.35486 318.445C2.2078 309.916 -2.05689 298.828 3.06074 293.71C9.03131 288.592 19.2666 292.004 27.796 292.004C79.8252 292.004 131.001 292.004 183.031 292.004C191.56 292.004 194.972 294.563 193.266 302.239C192.413 309.916 196.678 320.151 191.56 325.269C186.442 330.386 176.207 326.975 168.531 326.975C144.649 326.975 120.766 326.975 96.884 326.975Z" fill="#53ABD9"/>
<path d="M1040.23 474.533C1051.32 458.327 1064.97 455.768 1081.17 455.768C1086.29 455.768 1087.14 457.474 1086.29 461.739V462.592C1086.29 471.121 1088.85 481.356 1085.44 487.327C1081.17 493.297 1070.94 489.033 1063.26 489.886C1049.61 491.591 1042.79 497.562 1041.08 511.209C1038.52 531.68 1040.23 552.15 1040.23 573.474C1040.23 581.15 1037.67 582.856 1030.85 582.003C1024.02 581.15 1017.2 582.003 1011.23 582.003C1006.97 582.003 1005.26 581.15 1005.26 576.032C1005.26 538.503 1005.26 500.121 1005.26 462.592C1005.26 457.474 1006.97 456.621 1011.23 456.621C1015.5 456.621 1019.76 456.621 1024.02 456.621C1040.23 455.768 1040.23 455.768 1040.23 474.533Z" fill="#090A0B"/>
</svg>
