<svg width="14" height="24" viewBox="0 0 14 24" fill="none" xmlns="http://www.w3.org/2000/svg">
<path d="M3.88379 22.8244C3.88379 23.1112 4.11845 23.3459 4.40525 23.3459H12.1124C12.3992 23.3459 12.6339 23.1112 12.6339 22.8244V21.6302H3.88379V22.8244Z" fill="#FF5200"/>
<path d="M3.70863 8.41899L3.71126 4.6045C3.71126 4.16387 3.87811 3.75191 4.18319 3.44425C4.52213 3.1053 5.00709 2.91236 5.51812 2.91236C5.91704 2.91236 6.30031 3.0349 6.59752 3.25392C6.95735 3.51986 7.18156 3.92139 7.22849 4.38027C7.22849 4.3907 7.43446 6.38007 7.61958 8.16086C8.91541 7.39953 9.78886 5.99159 9.78886 4.38027C9.78886 1.96069 7.82817 0 5.40859 0C2.98902 0 1.02832 1.96069 1.02832 4.38027C1.02572 6.19496 2.13121 7.75412 3.70863 8.41899Z" fill="#FF5200"/>
<path d="M14 13.3964C14 12.888 13.6741 12.4369 13.1891 12.2805C11.7421 11.8086 8.8219 10.8673 8.37603 10.7787C8.23784 10.7526 8.10226 10.7396 7.97189 10.7396C7.61991 10.7396 7.31225 10.836 7.12715 11.0003H7.12452C7.12452 11.0003 7.12452 11.0003 7.12452 10.9977C7.12191 10.9768 6.44926 4.4716 6.44926 4.46117C6.39448 3.93971 5.96169 3.69202 5.51582 3.69202C5.01003 3.69202 4.48856 4.01011 4.49115 4.60197L4.48593 15.1433C4.48593 15.2684 4.39468 15.3727 4.26953 15.391C4.26692 15.391 4.26692 15.391 4.26431 15.391C4.25391 15.3936 4.24087 15.3936 4.23042 15.3936C4.22781 15.3936 4.2252 15.3936 4.22259 15.3936C3.868 15.3832 3.06756 15.3727 2.28798 14.2438C2.18368 14.0952 2.08982 13.9596 2.00378 13.8344C1.73262 13.4459 1.37021 13.2791 1.02865 13.2791C0.428971 13.2791 -0.11074 13.7979 0.0196247 14.5723C0.20735 15.7013 1.44321 18.332 3.87843 20.7985H12.6285L13.5124 19.3046C13.8279 18.7753 13.9947 18.1704 13.9947 17.5524L14 13.3964Z" fill="#FF5200"/>
</svg>
