<svg width="29" height="28" viewBox="0 0 29 28" fill="none" xmlns="http://www.w3.org/2000/svg">
<path d="M14.9454 27.9844C12.1565 27.9844 9.36759 27.9877 6.57977 27.9833C2.80943 27.9778 0.26778 24.7445 1.15621 21.0694C2.57309 15.2041 3.99764 9.3399 5.42875 3.47788C5.96268 1.29206 7.61152 0.0072528 9.85228 0.00397244C13.2791 -0.000401384 16.7059 -0.00258723 20.1326 0.00506696C22.2727 0.0105342 23.9577 1.31503 24.4654 3.38931C25.9227 9.3388 27.3801 15.2883 28.8036 21.2454C29.6307 24.7062 27.0355 27.9647 23.4763 27.98C20.6327 27.9953 17.789 27.9844 14.9454 27.9844ZM14.9531 25.7887C14.9531 25.792 14.9531 25.7953 14.9531 25.7986C17.7409 25.7986 20.5287 25.8019 23.3165 25.7975C25.6361 25.7942 27.1854 23.92 26.6514 21.6817C25.2378 15.7618 23.7936 9.84835 22.3493 3.93604C22.0725 2.80213 21.2596 2.19307 20.0867 2.19198C16.661 2.19088 13.2364 2.19416 9.81071 2.20182C8.66298 2.20401 7.8577 2.80431 7.58526 3.91745C6.13446 9.84616 4.68256 15.7749 3.26786 21.7123C2.74596 23.9025 4.27664 25.7734 6.536 25.7855C9.34133 25.7997 12.1478 25.7887 14.9531 25.7887Z" fill="#FFBB38"/>
<path d="M7 2L2 21L3 25.5L4.5 27H6.5H15.5H24.5L27 25.5L28 22.5L27 18L25 11.5L24 5.5L22.5 1.5L20.5 1H16.5H13.5H10C9.2 1 7.66667 1.66667 7 2Z" fill="#FDBA38" stroke="#FFBB38" stroke-width="0.4"/>
<path d="M20.4238 6.99111C20.5146 8.25842 20.2717 9.62195 19.3975 10.8401C18.1491 12.5808 15.9127 13.4611 13.8175 13.0029C11.6413 12.5262 9.96945 10.8007 9.58651 8.64878C9.39285 7.56298 9.50554 6.46952 9.49789 5.38044C9.4946 4.81403 10.034 4.37118 10.592 4.37665C11.1828 4.38321 11.6511 4.83153 11.6697 5.45808C11.6905 6.16773 11.673 6.87848 11.6763 7.58813C11.6861 9.47762 13.1358 10.9429 14.9838 10.9319C16.8001 10.9221 18.2268 9.45684 18.2366 7.58813C18.2399 6.91456 18.2301 6.24099 18.2388 5.56743C18.2487 4.85231 18.6819 4.38321 19.3198 4.37556C19.9588 4.369 20.4074 4.83699 20.4227 5.54446C20.4314 5.96435 20.4238 6.38315 20.4238 6.99111Z" fill="#1D1D1D"/>
</svg>
