<svg width="29" height="28" viewBox="0 0 29 28" fill="none" xmlns="http://www.w3.org/2000/svg">
<path d="M27.9026 13.5891C27.7886 13.4666 27.6287 13.397 27.4613 13.397H23.9813V13.1069C23.9813 11.0507 22.3085 9.37793 20.2524 9.37793C19.9194 9.37793 19.6495 9.64788 19.6495 9.98086C19.6495 10.3138 19.9194 10.5838 20.2524 10.5838C21.6436 10.5838 22.7754 11.7156 22.7754 13.1069V13.397H19.9174C19.5941 13.397 19.7096 13.6519 19.6962 13.9749L18.9853 27.3719C18.9785 27.536 18.8104 27.6958 18.9241 27.8144C19.0378 27.933 19.1949 27.9999 19.3592 27.9999H26.5043C26.8206 27.9999 27.0832 27.7555 27.1057 27.44L28.0627 14.0429C28.0746 13.876 28.0166 13.7116 27.9026 13.5891ZM25.9429 26.7941H19.7639L20.2321 14.6029H22.7754V15.7862C22.7754 16.1192 23.0453 16.3892 23.3783 16.3892C23.7113 16.3892 23.9813 16.1192 23.9813 15.7862V14.6029H26.8138L25.9429 26.7941Z" fill="#FFBB38"/>
<path d="M8.19571 15.496C7.86272 15.496 7.59277 15.226 7.59277 14.893V13.9999C7.59277 13.6669 7.86272 13.397 8.19571 13.397C8.52869 13.397 8.79864 13.6669 8.79864 13.9999V14.893C8.79864 15.226 8.52869 15.496 8.19571 15.496Z" fill="#FFBB38"/>
<path d="M12.6596 21.7479C12.3266 21.7479 12.0566 21.478 12.0566 21.145V20.2519C12.0566 19.9189 12.3266 19.6489 12.6596 19.6489C12.9926 19.6489 13.2625 19.9189 13.2625 20.2519V21.145C13.2625 21.478 12.9926 21.7479 12.6596 21.7479Z" fill="#FFBB38"/>
<path d="M8.19426 21.748C8.08513 21.748 7.97463 21.7184 7.87525 21.6563C7.59292 21.4798 7.50702 21.1079 7.68352 20.8255L12.1492 13.6804C12.3257 13.398 12.6976 13.3123 12.98 13.4886C13.2624 13.6651 13.3483 14.0371 13.1718 14.3195L8.7061 21.4646C8.5917 21.6476 8.3952 21.748 8.19426 21.748Z" fill="#FFBB38"/>
<path d="M20.6871 5.54437C20.5734 5.42581 20.4163 5.35883 20.2519 5.35883H15.496V5.06865C15.496 2.27378 13.2223 0 10.4274 0C7.63258 0 5.3588 2.27378 5.3588 5.06865V5.35883H0.602966C0.438694 5.35883 0.281547 5.42586 0.167812 5.54437C0.0541313 5.66292 -0.00632658 5.82276 0.000524943 5.98686L0.893635 27.4222C0.907119 27.7451 1.17285 28 1.49608 28H19.3588C19.6821 28 19.9478 27.7451 19.9612 27.4222L20.8543 5.98686C20.8612 5.8227 20.8008 5.66292 20.6871 5.54437ZM6.56473 5.0686C6.56473 2.93865 8.29756 1.20581 10.4275 1.20581C12.5574 1.20581 14.2902 2.93865 14.2902 5.0686V5.35877H6.56473V5.0686ZM18.7806 26.7941H2.0744L1.23155 6.56464H5.35886V8.64109C5.35886 8.97408 5.62881 9.24403 5.96179 9.24403C6.29478 9.24403 6.56473 8.97408 6.56473 8.64109V6.56464H14.2902V8.64109C14.2902 8.97408 14.5602 9.24403 14.8932 9.24403C15.2262 9.24403 15.4961 8.97408 15.4961 8.64109V6.56464H19.6234L18.7806 26.7941Z" fill="#797979"/>
</svg>
