<svg width="24" height="24" viewBox="0 0 24 24" fill="none" xmlns="http://www.w3.org/2000/svg">
<path d="M11.24 23.5203C8.3 23.5203 5.36 23.5203 2.42 23.5203C0.86 23.5203 0 22.6603 0 21.1203C0 17.0203 0 12.9103 0 8.81027C0 7.28027 0.86 6.36027 2.38 6.44027C3.51 6.50027 4.44 6.18027 5.39 5.61027C8.31 3.85027 11.27 2.16027 14.22 0.450268C15.63 -0.369732 16.76 -0.0697321 17.57 1.35027C18.48 2.93027 19.37 4.51027 20.29 6.08027C20.4 6.26027 20.62 6.43027 20.83 6.49027C21.78 6.77027 22.38 7.49027 22.43 8.49027C22.45 8.99027 22.45 9.50027 22.44 10.0103C22.43 10.5303 22.27 10.6803 21.74 10.6903C20.59 10.7003 19.44 10.6803 18.3 10.7003C15.94 10.7303 14.21 12.2803 13.93 14.5703C13.65 16.8403 15.47 19.0803 17.76 19.2103C19.03 19.2803 20.3 19.2403 21.57 19.2503C22.32 19.2503 22.44 19.3803 22.45 20.1303C22.45 20.5303 22.46 20.9303 22.45 21.3203C22.41 22.6503 21.54 23.5203 20.2 23.5203C17.74 23.5303 15.27 23.5203 12.81 23.5203C12.28 23.5203 11.76 23.5203 11.24 23.5203ZM6.18 6.42027C6.69 6.42027 7.08 6.40027 7.47 6.43027C7.98 6.46027 8.41 6.33027 8.85 6.07027C11.24 4.65027 13.65 3.26027 16.05 1.86027C16.19 1.78027 16.32 1.69027 16.46 1.60027C16.02 1.00027 15.54 0.920268 14.88 1.31027C12.1 2.92027 9.33 4.54027 6.56 6.15027C6.46 6.21027 6.37 6.28027 6.18 6.42027ZM18.08 4.38027C16.94 5.05027 15.85 5.68027 14.76 6.32027C14.77 6.35027 14.79 6.37027 14.8 6.40027C16.25 6.40027 17.71 6.40027 19.23 6.40027C18.83 5.70027 18.47 5.06027 18.08 4.38027Z" fill="#FF5200"/>
<path d="M19.9499 18.1203C19.1699 18.1203 18.3799 18.2103 17.6199 18.1003C15.9899 17.8703 14.8799 16.3903 14.9899 14.7103C15.0899 13.1203 16.4599 11.8003 18.0899 11.7703C19.3599 11.7403 20.6299 11.7503 21.8999 11.7703C22.8499 11.7803 23.5199 12.4503 23.5299 13.4003C23.5499 14.4403 23.5399 15.4803 23.5299 16.5203C23.5199 17.5003 22.8699 18.1603 21.8899 18.1903C21.2499 18.2103 20.5999 18.1903 19.9599 18.1903C19.9499 18.1603 19.9499 18.1403 19.9499 18.1203ZM19.2299 14.9603C19.2299 14.3803 18.7699 13.9103 18.1999 13.9003C17.6199 13.8903 17.1099 14.3903 17.1099 14.9703C17.1099 15.5603 17.6099 16.0403 18.1999 16.0303C18.7799 16.0103 19.2299 15.5503 19.2299 14.9603Z" fill="#FF5200"/>
</svg>
