<svg width="29" height="34" viewBox="0 0 29 34" fill="none" xmlns="http://www.w3.org/2000/svg">
<path d="M7.64448 29.997C5.50034 29.9943 3.35621 29.9697 1.21207 29.9997C0.31017 30.0133 -0.120926 29.5613 0.0293902 28.6408C0.395255 26.3832 0.763956 24.1256 1.13833 21.8707C1.52688 19.5341 1.92962 17.1976 2.31534 14.861C2.64433 12.8566 2.95064 10.8496 3.27963 8.84798C3.63699 6.67208 4.0142 4.49617 4.38006 2.32027C4.44246 1.95808 4.51336 1.59588 4.55307 1.23096C4.62397 0.580097 5.4181 -0.00540886 6.07609 3.77006e-05C10.1205 0.0272705 14.1677 -0.0244718 18.212 0.0299938C20.342 0.0572266 22.4379 0.411253 24.2417 1.60405C25.9888 2.76144 26.8907 4.40358 26.9928 6.44877C27.0296 7.16227 26.9162 7.86487 26.8623 8.5702C26.8368 8.60561 26.8084 8.64101 26.7829 8.67641C26.7205 8.51301 26.5617 8.46944 26.4199 8.40953C25.0131 7.79134 23.51 7.54353 21.9869 7.52174C18.8757 7.47817 15.7616 7.50812 12.6503 7.50812C11.8477 7.50812 11.3116 7.90572 11.1783 8.66552C10.9288 10.0871 10.7104 11.5141 10.475 12.9383C10.1687 14.8065 9.84534 16.672 9.55889 18.5429C9.51351 18.8342 9.30647 19.142 9.52769 19.447C9.4738 19.6294 9.38305 19.7956 9.35185 19.9916C9.18452 21.081 9.003 22.1703 8.82432 23.2596C8.54638 24.9535 8.27695 26.6473 7.97631 28.3358C7.88556 28.8886 7.88556 29.4687 7.64448 29.997Z" fill="#263B80"/>
<path d="M7.41976 30.3085C7.65485 29.7805 7.65485 29.2064 7.75165 28.654C8.04206 26.9751 8.30757 25.2881 8.57862 23.6064C8.75286 22.5233 8.92987 21.4401 9.09305 20.357C9.12071 20.1647 9.20922 19.9968 9.26453 19.8154C9.63791 19.2846 10.1717 19.0842 10.8106 19.0897C11.4218 19.0951 12.0358 19.0842 12.6471 19.0924C14.2485 19.1113 15.8415 19.0842 17.4208 18.7566C22.5955 17.6897 25.3309 14.0611 26.0887 9.10561C26.1136 9.07041 26.1413 9.0352 26.1662 9C28.5392 10.2998 29.1504 12.4228 28.9706 14.8789C28.86 16.379 28.4949 17.8359 27.8726 19.2169C26.5755 22.0927 24.2937 23.7608 21.1878 24.3999C19.9293 24.6598 18.6543 24.7194 17.371 24.7113C16.3809 24.7059 15.9411 25.0741 15.789 26.0219C15.4267 28.2505 15.0561 30.4791 14.7076 32.7104C14.5886 33.4659 14.0687 34.021 13.1753 33.9994C11.4357 33.9561 9.69323 33.9858 7.95079 33.9858C7.22339 33.9858 6.92469 33.6853 7.01596 32.9704C7.11553 32.1878 7.26211 31.4106 7.38657 30.6335C7.40317 30.5251 7.4087 30.4168 7.41976 30.3085Z" fill="#199CD8"/>
<path d="M26 8.18337C25.2387 13.1883 22.4878 16.8531 17.2918 17.9306C15.7052 18.2588 14.1047 18.2889 12.4959 18.2698C11.8818 18.2616 11.265 18.2725 10.6509 18.267C10.0091 18.2616 9.47278 18.464 9.09766 19C8.88093 18.691 9.08655 18.3819 9.12823 18.092C9.40609 16.2131 9.72285 14.3397 10.0257 12.4635C10.2563 11.0332 10.4703 9.60006 10.7148 8.17243C10.8454 7.41212 11.3678 7.01008 12.1569 7.01008C15.2051 7.01008 18.256 6.98 21.3041 7.02376C22.7963 7.04564 24.2689 7.29452 25.6471 7.91534C25.7805 7.97551 25.9389 8.01927 26 8.18337Z" fill="#232D65"/>
</svg>
