<svg width="27" height="25" viewBox="0 0 27 25" fill="none" xmlns="http://www.w3.org/2000/svg">
<path d="M19.5232 7.65161C18.9365 7.65161 18.5908 7.98686 18.5908 8.69921V11.4755C18.5908 11.9574 18.7374 12.2612 19.0203 12.4183V11.9574C19.0203 11.6116 19.2718 11.465 19.5232 11.465C19.7747 11.465 20.0261 11.6116 20.0261 11.9574V12.4183C20.2985 12.2612 20.4661 11.9574 20.4661 11.4755V8.69921C20.4661 7.98686 20.1099 7.65161 19.5232 7.65161Z" fill="#FF5200"/>
<path d="M12.0947 11.0145H13.6243L12.8595 8.20679L12.0947 11.0145Z" fill="#FF5200"/>
<path d="M20.796 0.95874H6.02402C2.70238 0.95874 0 3.66112 0 6.98276V12.7449C0 15.8004 2.2864 18.3318 5.23828 18.7179V24.0505C5.23828 24.3683 5.42969 24.6548 5.72335 24.7764C5.82052 24.8167 5.92266 24.8362 6.02387 24.8362C6.22832 24.8362 6.42931 24.7564 6.5796 24.6061L12.4168 18.7689H20.796C24.1176 18.7689 26.82 16.0665 26.82 12.7449V6.98276C26.82 3.66112 24.1176 0.95874 20.796 0.95874ZM8.43892 9.42218C8.75322 9.42218 8.93132 9.726 8.93132 10.0612C8.93132 10.3441 8.7846 10.6794 8.43892 10.6794H6.85701V13.3823C6.85701 13.7176 6.44838 13.8852 6.03984 13.8852C5.6312 13.8852 5.22267 13.7176 5.22267 13.3823V6.72975C5.22267 6.3945 5.57882 6.22688 5.93508 6.22688H9.57034C9.91607 6.22688 10.0627 6.59356 10.0627 6.92881C10.0627 7.31644 9.88464 7.65169 9.57034 7.65169H6.85696V9.42218H8.43892ZM14.8611 13.8851C14.5992 13.8851 14.3897 13.8013 14.3269 13.5813L13.9706 12.2718H11.7601L11.4039 13.5813C11.341 13.8013 11.1315 13.8851 10.8696 13.8851C10.4191 13.8851 9.82193 13.6023 9.82193 13.2146C9.82193 13.1832 9.83246 13.1413 9.84289 13.0994L11.7915 6.7088C11.9068 6.34212 12.3782 6.16402 12.8601 6.16402C13.342 6.16402 13.8134 6.34212 13.9287 6.7088L15.8877 13.0994C15.8981 13.1413 15.9087 13.1832 15.9087 13.2146C15.9088 13.6023 15.3116 13.8851 14.8611 13.8851ZM22.1003 11.4755C22.1003 13.068 21.2203 13.7698 20.0259 13.9166V14.5242C20.0259 14.8595 19.7745 15.0271 19.523 15.0271C19.2716 15.0271 19.0201 14.8595 19.0201 14.5242V13.9166C17.8259 13.7699 16.9564 13.068 16.9564 11.4755V8.6993C16.9564 6.88685 18.0773 6.22688 19.523 6.22688C20.9688 6.22688 22.1002 6.8869 22.1002 8.6993V11.4755H22.1003Z" fill="#FF5200"/>
</svg>
