<svg width="24" height="24" viewBox="0 0 24 24" fill="none" xmlns="http://www.w3.org/2000/svg">
<path d="M15.6415 16.4712C15.6415 18.4662 13.9736 20.1518 11.9992 20.1518C10.0253 20.1518 8.35839 18.4662 8.35792 16.4702C4.18787 16.5072 0.000468756 19.557 0 23.9975L11.9988 23.9989L24.0003 24.0003C24.0008 19.8649 20.2643 16.5087 15.6415 16.4712ZM7.96839 21.0636L5.19147 21.0631V19.6568L7.96886 19.6573L7.96839 21.0636Z" fill="#FF5200"/>
<path d="M19.2944 11.6097C19.2944 12.3981 19.1955 12.94 18.9733 13.3671C18.7422 13.81 18.2594 14.3388 17.2684 14.3383H17.2544V12.932H17.2684C17.5731 12.932 17.8881 12.932 17.8881 11.6097L17.8886 9.95404H17.23L17.2291 5.7957C17.2291 5.58429 17.2131 5.37335 17.1813 5.16429H17.4972C16.6282 2.91745 14.4066 1.40721 12.001 1.40627C9.59608 1.40627 7.37197 2.91735 6.50346 5.16288H6.81565C6.78331 5.37242 6.76737 5.58336 6.76737 5.79523L6.76643 9.9531L5.42063 9.95263C5.02219 9.95263 4.69922 9.62966 4.69922 9.23075L4.69969 5.8843C4.69969 5.65648 4.80563 5.45304 4.97063 5.32085C5.79376 2.08643 8.6574 0.000468756 12.001 0C15.3447 0.00140627 18.2078 2.08784 19.03 5.32226C19.1955 5.45445 19.3014 5.65789 19.3014 5.88617L19.2944 11.6097Z" fill="#FF5200"/>
<path d="M14.2371 14.9771L14.2366 16.4719C14.2378 17.6005 13.3408 18.616 12.2163 18.7355C10.9212 18.8625 9.76562 17.7578 9.76562 16.471L9.76609 14.9775C10.1177 15.0881 10.5161 15.1847 11.0036 15.1856H12.9982C13.4857 15.1847 13.8846 15.0877 14.2371 14.9771Z" fill="#FF5200"/>
<path d="M15.8507 5.8406C15.8547 5.43649 15.7729 5.03593 15.6172 4.66309C13.6226 6.32497 10.4038 6.32497 8.40918 4.66309C8.25356 5.03593 8.17176 5.43649 8.17574 5.8406L8.1748 10.9585C8.1748 12.4991 9.46332 13.7653 10.9977 13.7795H13.0288C14.5631 13.7653 15.8516 12.4991 15.8516 10.9585L15.8507 5.8406Z" fill="#FF5200"/>
<path d="M14.7437 3.56106C14.2679 3.19356 13.6716 2.97512 13.0238 2.97559H11.0011C10.3533 2.97512 9.75704 3.19356 9.28125 3.56106C10.7952 4.81086 13.2297 4.81091 14.7437 3.56106Z" fill="#FF5200"/>
</svg>
