<svg width="21" height="25" viewBox="0 0 21 25" fill="none" xmlns="http://www.w3.org/2000/svg">
<path d="M20.1862 17.6175C18.6112 16.2862 17.7081 14.3404 17.7081 12.279V9.37487C17.7081 5.7093 14.9852 2.67496 11.4582 2.16664V1.04165C11.4582 0.465619 10.9915 0 10.4165 0C9.84153 0 9.37487 0.465619 9.37487 1.04165V2.16664C5.8468 2.67496 3.12496 5.7093 3.12496 9.37487V12.279C3.12496 14.3404 2.22184 16.2862 0.637491 17.6258C0.232289 17.9727 0 18.4768 0 19.0102C0 20.0154 0.817697 20.8331 1.82289 20.8331H19.0102C20.0154 20.8331 20.8331 20.0154 20.8331 19.0102C20.8331 18.4768 20.6008 17.9727 20.1862 17.6175Z" fill="#FF5200"/>
<path d="M10.4159 25.0001C12.3023 25.0001 13.8804 23.6553 14.2429 21.8751H6.58887C6.95136 23.6553 8.52947 25.0001 10.4159 25.0001Z" fill="#FF5200"/>
</svg>
