<svg width="30" height="30" viewBox="0 0 30 30" fill="none" xmlns="http://www.w3.org/2000/svg">
<path d="M15.2267 0C7.06773 0 0.454102 6.61421 0.454102 14.7726C0.454102 22.931 7.06831 29.5452 15.2267 29.5452C23.3851 29.5452 29.9993 22.931 29.9993 14.7726C29.9993 6.61421 23.3851 0 15.2267 0Z" fill="#E03757"/>
<path d="M0.454102 14.772V14.7732C0.454102 17.5107 1.19966 20.0735 2.49745 22.2715C4.0682 22.7885 5.74628 23.0684 7.48956 23.0684C16.3064 23.0684 23.4538 15.921 23.4538 7.10413C23.4538 5.31006 23.1566 3.58525 22.6107 1.97526C20.4381 0.719011 17.9164 0 15.2267 0C7.06831 0 0.454102 6.61363 0.454102 14.772Z" fill="#F04760"/>
<path d="M15.2271 23.4758L13.826 22.481C12.4203 21.425 11.5501 20.7631 10.4445 19.7573C9.38734 18.7942 8.20091 17.6112 7.47382 16.1934C7.47382 16.1928 7.11028 15.4201 6.94466 14.7577C6.84137 14.3047 6.7929 13.8286 6.81309 13.3248C6.94928 10.6115 9.31463 8.13768 11.7619 7.99688C12.354 7.96918 12.912 8.08286 13.4267 8.31253C13.7337 8.44987 14.0251 8.62876 14.2969 8.84284L15.2266 9.63399L16.1562 8.84284C16.8844 8.26925 17.7471 7.95187 18.6912 7.9963C21.1385 8.13768 23.5038 10.6109 23.64 13.3243C23.6602 13.828 23.6118 14.3041 23.5085 14.7571C23.5096 14.7571 23.2961 15.6227 22.9793 16.1928C22.2522 17.6106 21.0664 18.7942 20.0092 19.7567C19.6335 20.0977 19.2908 20.3961 18.9445 20.6834C18.2688 21.2449 17.5769 21.766 16.6277 22.4804L15.2266 23.4758H15.2271Z" fill="white"/>
</svg>
