<svg width="29" height="28" viewBox="0 0 29 28" fill="none" xmlns="http://www.w3.org/2000/svg">
<path d="M14.0102 1.31527e-06C21.8606 0.00218823 28.0084 6.15834 28.0019 14.0115C27.9953 21.8527 21.8277 27.9914 13.9665 27.9804C6.12272 27.9695 -0.0120177 21.8035 1.7678e-05 13.9405C0.0131471 6.12991 6.17634 -0.00327905 14.0102 1.31527e-06ZM13.9851 2.18691C7.39846 2.19457 2.20139 7.39941 2.20029 13.9875C2.1992 20.5974 7.42473 25.8088 14.0365 25.7924C20.6373 25.7771 25.8136 20.5898 25.8136 13.9908C25.8136 7.3688 20.6133 2.17926 13.9851 2.18691Z" fill="#1D1D1D"/>
<path d="M13.0563 15.1004C12.7346 14.8368 12.3134 14.8336 11.9468 14.6838C9.73451 13.7817 8.3209 11.4909 8.5441 9.11698C8.77167 6.69388 10.6251 4.67536 13.0136 4.25329C15.983 3.72734 18.8387 5.66057 19.3628 8.55166C19.9186 11.621 18.0356 14.3874 14.9874 14.9855C14.902 15.002 14.8222 15.0512 14.7401 15.0851C14.1788 15.0894 13.6175 15.0949 13.0563 15.1004ZM14.0038 12.896C15.7948 12.896 17.273 11.4296 17.2828 9.64402C17.2927 7.8267 15.8156 6.3396 14.0016 6.3396C12.2105 6.3396 10.7323 7.80593 10.7225 9.59154C10.7116 11.4089 12.1886 12.896 14.0038 12.896Z" fill="#FFBB38"/>
<path d="M13.0558 15.1008C13.6171 15.0953 14.1784 15.0909 14.7386 15.0854C16.3951 15.3271 17.8919 15.9219 19.1435 17.0657C19.9335 17.7874 20.5517 18.6315 20.9893 19.6058C21.3274 20.3581 21.1392 21.0109 20.5199 21.2733C19.905 21.5336 19.3514 21.2591 19.0024 20.5199C17.4728 17.2822 13.5734 16.2598 10.733 18.3538C9.92337 18.9508 9.34786 19.7283 8.94304 20.6479C8.69796 21.2055 8.2625 21.422 7.71544 21.3313C7.23731 21.2514 6.87515 20.8567 6.82592 20.3592C6.79747 20.0749 6.90469 19.8201 7.02395 19.5774C8.23951 17.1083 10.1652 15.5873 12.9224 15.1817C12.9705 15.1751 13.0121 15.1281 13.0558 15.1008Z" fill="#1D1D1D"/>
</svg>
