<svg width="26" height="26" viewBox="0 0 26 26" fill="none" xmlns="http://www.w3.org/2000/svg">
<path fill-rule="evenodd" clip-rule="evenodd" d="M13 26C5.82144 26 0 20.1786 0 13C0 5.82144 5.82144 0 13 0C20.1786 0 26 5.82144 26 13C26 20.1786 20.1786 26 13 26ZM13 4.54427C16.5563 4.54427 19.4391 7.42709 19.4391 10.9834C19.4391 14.5395 13 21.4556 13 21.4556C13 21.4556 6.56091 14.5395 6.56091 10.9834C6.56091 7.42709 9.44373 4.54427 13 4.54427ZM13 8.42502C14.3483 8.42502 15.4417 9.51846 15.4417 10.8669C15.4417 12.2152 14.3483 13.3086 13 13.3086C11.6517 13.3086 10.5583 12.2152 10.5583 10.8669C10.5583 9.51846 11.6517 8.42502 13 8.42502Z" fill="#FF5200"/>
</svg>
