<svg width="24" height="27" viewBox="0 0 24 27" fill="none" xmlns="http://www.w3.org/2000/svg">
<path d="M23.5385 16.7437V15.0509H15.7352C15.7352 17.2412 13.9596 19.0169 11.7693 19.0169C9.57891 19.0169 7.80332 17.2413 7.80332 15.0509H0V16.7437L3.38848 17.1025C3.59984 17.9689 3.94205 18.784 4.393 19.5258L2.25017 22.1761L4.64407 24.57L7.29443 22.4272C8.03616 22.8781 8.85132 23.2204 9.71772 23.4317L10.0765 26.8202H13.462L13.8208 23.4317C14.6872 23.2204 15.5023 22.8781 16.2441 22.4272L18.8944 24.57L21.2883 22.1761L19.1455 19.5258C19.5965 18.784 19.9387 17.9689 20.15 17.1025L23.5385 16.7437Z" fill="#FF5200"/>
<path d="M11.7703 0.000244141C10.0942 0.000244141 8.73047 1.36395 8.73047 3.04012C8.73047 4.71629 10.0942 6.07994 11.7703 6.07994C13.4465 6.07994 14.8102 4.71629 14.8102 3.04012C14.8102 1.36395 13.4465 0.000244141 11.7703 0.000244141Z" fill="#FF5200"/>
<path d="M15.0067 6.92065H8.53364C7.04343 6.92071 5.83105 8.13303 5.83105 9.62324V13.4793H17.7093V9.62324C17.7093 8.13303 16.4969 6.92065 15.0067 6.92065Z" fill="#FF5200"/>
<path d="M5.31888 1.40552C3.8173 1.40552 2.5957 2.62717 2.5957 4.12869C2.5957 5.61817 3.79792 6.83149 5.28289 6.85092C5.89785 6.13162 6.74639 5.61822 7.71042 5.42991C7.92173 5.04307 8.04205 4.59971 8.04205 4.12869C8.04205 2.62711 6.82045 1.40552 5.31888 1.40552Z" fill="#FF5200"/>
<path d="M2.42104 7.60373C1.08609 7.60373 0 8.68976 0 10.0248V13.4791H4.2587V9.623C4.2587 8.89306 4.44298 8.20544 4.76696 7.60373H2.42104Z" fill="#FF5200"/>
<path d="M18.2183 1.40512C16.7167 1.40512 15.4951 2.62677 15.4951 4.1283C15.4951 4.59926 15.6154 5.04267 15.8267 5.42951C16.7908 5.61783 17.6393 6.13122 18.2543 6.85053C19.7392 6.83115 20.9415 5.61777 20.9415 4.1283C20.9415 2.62672 19.7199 1.40512 18.2183 1.40512Z" fill="#FF5200"/>
<path d="M21.1184 7.60376H18.7725C19.0964 8.20547 19.2807 8.89309 19.2807 9.62303V13.4791H23.5394V10.0247C23.5394 8.68979 22.4533 7.60376 21.1184 7.60376Z" fill="#FF5200"/>
</svg>
