<svg width="30" height="30" viewBox="0 0 30 30" fill="none" xmlns="http://www.w3.org/2000/svg">
<path d="M27.0818 3.94434L25.3934 20.8272H6.80663L5.11816 3.94434H27.0818Z" fill="#4ABBEF"/>
<path d="M27.0823 3.94434L25.3938 20.8272H15.8037V3.94434H27.0823Z" fill="#009BE5"/>
<path d="M29.5451 6.33145C29.5451 9.82783 26.7106 12.6623 23.2143 12.6623C19.7173 12.6623 16.8828 9.82783 16.8828 6.33145C16.8828 2.8345 19.7173 0 23.2143 0C26.7106 0 29.5451 2.8345 29.5451 6.33145Z" fill="#83E470"/>
<path d="M29.5457 6.33145C29.5457 9.82783 26.7112 12.6623 23.2148 12.6623V0C26.7112 0 29.5457 2.8345 29.5457 6.33145Z" fill="#01B763"/>
<path d="M26.5267 5.30597L23.2138 8.61884L22.6397 9.19301L19.9004 6.45373L21.1249 5.22979L22.6397 6.74456L23.2138 6.17039L25.3022 4.08203L26.5267 5.30597Z" fill="#F3FDFF"/>
<path d="M26.5277 5.30597L23.2148 8.61884V6.17039L25.3032 4.08203L26.5277 5.30597Z" fill="#D7F3F7"/>
<path d="M18.9229 15.8936H20.654V17.6247H18.9229V15.8936Z" fill="#224370"/>
<path d="M14.9375 15.894H16.6687V17.6252H14.9375V15.894Z" fill="#39689E"/>
<path d="M15.8037 15.894H16.6693V17.6252H15.8037V15.894Z" fill="#224370"/>
<path d="M10.9521 15.8936H12.6833V17.6247H10.9521V15.8936Z" fill="#39689E"/>
<path d="M5.70535 22.6783C5.68226 23.3153 6.19411 23.8405 6.82599 23.8405H25.4868C25.4885 23.8405 25.4891 23.8416 25.4891 23.8428V25.5693C25.4891 25.5705 25.4885 25.5716 25.4868 25.5716H6.87561C5.29795 25.5716 3.98168 24.3119 3.9736 22.7343C3.96726 21.4849 4.76821 20.4197 5.88366 20.0279C5.88481 20.0273 5.88539 20.0267 5.88539 20.0256L4.05612 1.73347C4.05554 1.73232 4.05497 1.73117 4.05381 1.73117H0.00230822C0.00115411 1.73117 0 1.73001 0 1.72886V0.00230822C0 0.00115411 0.00115411 0 0.00230822 0H5.62052C5.62167 0 5.62225 0.00115411 5.62283 0.00230822L7.60905 19.8651C7.60905 19.8663 7.61021 19.8674 7.61136 19.8674H25.4868C25.4885 19.8674 25.4891 19.868 25.4891 19.8697V21.5963C25.4891 21.5975 25.4885 21.5986 25.4868 21.5986H6.85542C6.2472 21.5986 5.72727 22.0706 5.70535 22.6783Z" fill="#39689E"/>
<path d="M25.4896 19.8695V21.596C25.4896 21.5972 25.489 21.5984 25.4873 21.5984H15.8037V19.8672H25.4873C25.489 19.8672 25.4896 19.8678 25.4896 19.8695Z" fill="#224370"/>
<path d="M25.4873 23.8403C25.489 23.8403 25.4896 23.8415 25.4896 23.8426V25.5692C25.4896 25.5703 25.489 25.5715 25.4873 25.5715H15.8037V23.8403H25.4873Z" fill="#224370"/>
<path d="M10.4775 29.5454C11.6431 29.5454 12.5879 28.6006 12.5879 27.4351C12.5879 26.2695 11.6431 25.3247 10.4775 25.3247C9.31202 25.3247 8.36719 26.2695 8.36719 27.4351C8.36719 28.6006 9.31202 29.5454 10.4775 29.5454Z" fill="#4ABBEF"/>
<path d="M21.0547 29.5454C22.2202 29.5454 23.165 28.6006 23.165 27.4351C23.165 26.2695 22.2202 25.3247 21.0547 25.3247C19.8892 25.3247 18.9443 26.2695 18.9443 27.4351C18.9443 28.6006 19.8892 29.5454 21.0547 29.5454Z" fill="#009BE5"/>
</svg>
