<svg width="22" height="22" viewBox="0 0 22 22" fill="none" xmlns="http://www.w3.org/2000/svg">
<path d="M9.68 1.76V7.92C9.68 8.38678 9.49457 8.83444 9.16451 9.16451C8.83444 9.49457 8.38678 9.68 7.92 9.68H1.76C1.29322 9.68 0.845556 9.49457 0.515492 9.16451C0.185428 8.83444 0 8.38678 0 7.92V1.76C0 1.29322 0.185428 0.845556 0.515492 0.515492C0.845556 0.185428 1.29322 0 1.76 0H7.92C8.38678 0 8.83444 0.185428 9.16451 0.515492C9.49457 0.845556 9.68 1.29322 9.68 1.76ZM20.24 0H14.08C13.6132 0 13.1656 0.185428 12.8355 0.515492C12.5054 0.845556 12.32 1.29322 12.32 1.76V7.92C12.32 8.38678 12.5054 8.83444 12.8355 9.16451C13.1656 9.49457 13.6132 9.68 14.08 9.68H20.24C20.7068 9.68 21.1544 9.49457 21.4845 9.16451C21.8146 8.83444 22 8.38678 22 7.92V1.76C22 1.29322 21.8146 0.845556 21.4845 0.515492C21.1544 0.185428 20.7068 0 20.24 0ZM7.92 12.32H1.76C1.29322 12.32 0.845556 12.5054 0.515492 12.8355C0.185428 13.1656 0 13.6132 0 14.08V20.24C0 20.7068 0.185428 21.1544 0.515492 21.4845C0.845556 21.8146 1.29322 22 1.76 22H7.92C8.38678 22 8.83444 21.8146 9.16451 21.4845C9.49457 21.1544 9.68 20.7068 9.68 20.24V14.08C9.68 13.6132 9.49457 13.1656 9.16451 12.8355C8.83444 12.5054 8.38678 12.32 7.92 12.32ZM17.16 12.32C16.2027 12.32 15.267 12.6039 14.471 13.1357C13.6751 13.6675 13.0548 14.4234 12.6884 15.3078C12.3221 16.1922 12.2262 17.1654 12.413 18.1042C12.5998 19.0431 13.0607 19.9055 13.7376 20.5824C14.4145 21.2593 15.2769 21.7202 16.2158 21.907C17.1546 22.0938 18.1278 21.9979 19.0122 21.6316C19.8966 21.2652 20.6525 20.6449 21.1843 19.849C21.7161 19.053 22 18.1173 22 17.16C22 15.8764 21.4901 14.6453 20.5824 13.7376C19.6747 12.8299 18.4436 12.32 17.16 12.32Z" fill="#FF5200"/>
</svg>
