<svg width="25" height="27" viewBox="0 0 25 27" fill="none" xmlns="http://www.w3.org/2000/svg">
<path d="M9.37109 13.5837H14.7261V17.6H9.37109V13.5837Z" fill="#FF5200"/>
<path d="M13.3875 10.9058C13.3875 10.1666 12.7881 9.56714 12.0487 9.56714C11.3094 9.56714 10.71 10.1664 10.71 10.9058V12.2445H13.3873V10.9058H13.3875Z" fill="#FF5200"/>
<path d="M23.4276 4.21277C19.5336 4.21277 14.4102 2.89899 12.5839 0.464352C12.341 0.168521 11.9043 0.125851 11.6087 0.3686C11.5737 0.397387 11.5417 0.42944 11.5129 0.464352C9.68668 2.89858 4.56302 4.21277 0.669243 4.21277C0.29971 4.21277 0 4.51248 0 4.88222V13.5838C0 20.9443 6.3917 25.3813 11.8649 26.945C11.9847 26.9799 12.1121 26.9799 12.2322 26.945C17.7053 25.3813 24.0971 20.9443 24.0971 13.5838V4.88222C24.0971 4.51248 23.7973 4.21277 23.4276 4.21277ZM16.0647 18.2693C16.0647 18.6391 15.765 18.9388 15.3955 18.9388H8.70159C8.33206 18.9388 8.03235 18.6391 8.03235 18.2693V12.9146C8.03235 12.5448 8.33206 12.2451 8.70159 12.2451H9.37104V10.9064C9.37104 9.42768 10.5697 8.22905 12.0484 8.22905C13.5272 8.22905 14.726 9.42768 14.726 10.9064V12.2451H15.3953C15.765 12.2451 16.0645 12.5448 16.0645 12.9146V18.2693H16.0647Z" fill="#FF5200"/>
</svg>
