<svg width="23" height="23" viewBox="0 0 23 23" fill="none" xmlns="http://www.w3.org/2000/svg">
<path d="M5.50586 12.5771C5.50586 12.5772 5.50592 12.5773 5.50592 12.5773C5.52507 12.558 5.5238 12.5591 5.50586 12.5771Z" fill="#FF5200"/>
<path d="M22.306 9.4206L21.1716 9.14783C20.9249 8.07104 20.5001 7.04778 19.9062 6.09633L20.4812 5.13116C20.6378 4.86819 20.5954 4.53273 20.3793 4.31672L18.4953 2.43268C18.2793 2.21734 17.9445 2.17426 17.6809 2.33087L16.7157 2.90578C15.7643 2.31193 14.741 1.88709 13.6642 1.64043L13.3914 0.506042C13.317 0.209122 13.0501 0.000244141 12.7434 0.000244141H10.0704C9.76369 0.000244141 9.4968 0.209077 9.4224 0.506042L9.14962 1.64043C8.07284 1.88709 7.04957 2.31193 6.09813 2.90578L5.13296 2.33087C4.86999 2.17421 4.53453 2.21667 4.31852 2.43268L2.43439 4.31668C2.21838 4.53269 2.17597 4.8681 2.33258 5.13112L2.90748 6.09629C2.31364 7.04773 1.8888 8.071 1.64214 9.14778L0.507751 9.42055C0.210831 9.49496 0.00195312 9.76185 0.00195312 10.0686V12.7416C0.00195312 13.0483 0.210786 13.3158 0.508375 13.3896L1.64277 13.6624C1.80722 14.3759 2.05473 15.0614 2.37259 15.7188C2.86337 15.226 5.32829 12.7506 5.50545 12.5736C5.49671 12.5286 5.40123 11.6727 5.39869 11.5059C5.34184 8.10067 8.08465 5.39141 11.4095 5.39141C14.757 5.39141 17.4264 8.09069 17.4138 11.4259C17.3995 14.5104 15.0973 17.1362 11.882 17.3764C11.7429 17.3871 11.114 17.4799 10.2375 17.3071L7.10112 20.4434C7.7561 20.7593 8.439 21.0052 9.14958 21.1691L9.42235 22.3041C9.49676 22.6011 9.76365 22.8099 10.0704 22.8099H12.7434C13.0501 22.8099 13.317 22.6011 13.3914 22.3041L13.6642 21.1697C14.7409 20.9231 15.7642 20.4982 16.7157 19.9044L17.6808 20.4793C17.9425 20.636 18.2786 20.5929 18.4953 20.3775L20.3793 18.4935C20.5953 18.2775 20.6377 17.942 20.4811 17.679L19.9062 16.7139C20.5007 15.7624 20.9249 14.7391 21.1715 13.6617L22.3053 13.3896C22.6029 13.3158 22.8117 13.0483 22.8117 12.7416V10.0686C22.8117 9.76189 22.6029 9.49496 22.306 9.4206Z" fill="#FF5200"/>
<path d="M15.9295 10.1836C15.8709 9.95356 15.6932 9.77258 15.4642 9.70984C15.2352 9.64702 14.9905 9.71247 14.8226 9.88036L13.2977 11.4054C12.7764 11.9266 11.9291 11.9266 11.4078 11.4054C10.887 10.8846 10.887 10.0363 11.4078 9.51544L12.9333 7.98985C13.1012 7.82197 13.1661 7.57691 13.1033 7.34802C13.0405 7.11914 12.8597 6.94123 12.6297 6.88277C9.80989 6.16618 7.27235 8.00291 6.80696 10.5393C6.65752 11.3747 6.72409 12.2067 6.99748 12.9728C6.61724 13.3531 0.744159 19.2261 0.586297 19.3841C-0.197485 20.1679 -0.197485 21.443 0.598684 22.2392C1.38741 22.9868 2.59536 23.0183 3.42896 22.2268L9.84019 15.8156C10.8669 16.182 12.0119 16.1745 13.1325 15.7792C15.1515 15.0667 16.5646 12.6757 15.9295 10.1836Z" fill="#FF5200"/>
</svg>
