<svg width="27" height="27" viewBox="0 0 27 27" fill="none" xmlns="http://www.w3.org/2000/svg">
<path d="M13.09 26.3953C15.679 26.3953 18.2098 25.6276 20.3624 24.1893C22.515 22.7509 24.1928 20.7065 25.1836 18.3147C26.1743 15.9228 26.4336 13.2908 25.9285 10.7516C25.4234 8.21239 24.1767 5.87998 22.346 4.04931C20.5154 2.21864 18.1829 0.971939 15.6437 0.466859C13.1045 -0.0382218 10.4726 0.221004 8.08067 1.21175C5.68879 2.20251 3.64441 3.88028 2.20606 6.03292C0.767715 8.18556 0 10.7164 0 13.3053C0 16.777 1.37912 20.1065 3.83397 22.5614C5.04949 23.7769 6.49252 24.7411 8.08067 25.3989C9.66882 26.0567 11.371 26.3953 13.09 26.3953ZM13.09 23.7773C12.7017 23.7773 12.322 23.6622 11.9991 23.4464C11.6762 23.2307 11.4246 22.924 11.276 22.5652C11.1273 22.2064 11.0885 21.8117 11.1642 21.4308C11.24 21.0499 11.427 20.7 11.7016 20.4254C11.9762 20.1508 12.3261 19.9638 12.7069 19.8881C13.0878 19.8123 13.4826 19.8512 13.8414 19.9998C14.2002 20.1484 14.5068 20.4001 14.7226 20.723C14.9383 21.0459 15.0535 21.4255 15.0535 21.8138C15.0535 22.3346 14.8466 22.834 14.4784 23.2022C14.1102 23.5705 13.6107 23.7773 13.09 23.7773ZM7.854 9.37048C7.8347 8.3648 8.11239 7.37576 8.65232 6.5271C9.19225 5.67843 9.97046 5.00783 10.8896 4.59918C11.7046 4.23517 12.5982 4.08227 13.4879 4.15456C14.3775 4.22685 15.2347 4.52201 15.9803 5.01282C16.6678 5.46799 17.238 6.07909 17.6447 6.79637C18.0513 7.51364 18.2828 8.3168 18.3203 9.14047C18.3578 9.96414 18.2003 10.785 17.8605 11.5363C17.5208 12.2875 17.0084 12.9479 16.3651 13.4637C15.463 14.1589 14.8141 15.1311 14.5181 16.2309C14.4365 16.5684 14.2242 16.8596 13.9279 17.0405C13.6316 17.2215 13.2756 17.2773 12.9382 17.1957C12.6007 17.1141 12.3095 16.9018 12.1286 16.6055C11.9476 16.3092 11.8918 15.9532 11.9734 15.6157C12.3995 13.9531 13.3666 12.4795 14.7223 11.4269C15.0445 11.1692 15.3013 10.8389 15.4716 10.4631C15.6419 10.0872 15.721 9.67647 15.7023 9.26427C15.6837 8.85206 15.5679 8.4501 15.3644 8.09116C15.1609 7.73222 14.8754 7.42647 14.5312 7.19885C14.1456 6.94649 13.7018 6.79714 13.2422 6.76505C12.7825 6.73297 12.3222 6.81923 11.9054 7.01559C11.4633 7.22717 11.0921 7.56232 10.8365 7.98048C10.581 8.39865 10.4521 8.88191 10.4655 9.37179C10.4429 9.70219 10.2959 10.0118 10.0542 10.2381C9.81248 10.4645 9.49394 10.5908 9.16277 10.5916C8.83161 10.5924 8.51244 10.4677 8.26958 10.2426C8.02671 10.0174 7.87821 9.70861 7.854 9.37833V9.37048Z" fill="#FF5200"/>
</svg>
