<svg width="29" height="29" viewBox="0 0 29 29" fill="none" xmlns="http://www.w3.org/2000/svg">
<path d="M18.0046 11.0796H26.3142V26.7755C26.3142 27.2652 26.1197 27.7349 25.7734 28.0812C25.4271 28.4275 24.9574 28.6221 24.4676 28.6221H17.543V11.0796H18.0046Z" fill="#FFAD39"/>
<path d="M11.0798 11.0796V28.6221H4.15517C3.66543 28.6221 3.19574 28.4275 2.84944 28.0812C2.50314 27.7349 2.30859 27.2652 2.30859 26.7755V11.0796H11.0798Z" fill="#FFAD39"/>
<path d="M10.6178 5.53955V11.0793H0.923289C0.678642 11.0786 0.444224 10.981 0.271232 10.8081C0.0982401 10.6351 0.000730657 10.4006 0 10.156V6.46284C0.000730657 6.21819 0.0982401 5.98377 0.271232 5.81078C0.444224 5.63779 0.678642 5.54028 0.923289 5.53955H10.6178Z" fill="#FEBD55"/>
<path d="M28.6217 6.46284V10.156C28.621 10.4006 28.5235 10.6351 28.3505 10.8081C28.1775 10.981 27.9431 11.0786 27.6984 11.0793H18.0039V5.53955H27.6984C27.9431 5.54028 28.1775 5.63779 28.3505 5.81078C28.5235 5.98377 28.621 6.21819 28.6217 6.46284Z" fill="#FEBD55"/>
<path d="M16.6194 4.61665V5.53994H12.0029V4.61665C12.0037 4.372 12.1012 4.13758 12.2742 3.96459C12.4472 3.7916 12.6816 3.69409 12.9262 3.69336H15.6961C15.9407 3.69409 16.1751 3.7916 16.3481 3.96459C16.5211 4.13758 16.6186 4.372 16.6194 4.61665Z" fill="#CB3541"/>
<path d="M15.6961 4.61643H12.9262C12.765 4.61554 12.6069 4.57245 12.4675 4.49146C12.3281 4.41047 12.2123 4.2944 12.1317 4.15479C12.0484 4.29443 12.0039 4.45382 12.0029 4.61643V5.53972H16.6194V4.61643C16.6184 4.45382 16.5739 4.29443 16.4906 4.15479C16.41 4.2944 16.2942 4.41047 16.1548 4.49146C16.0155 4.57245 15.8573 4.61554 15.6961 4.61643Z" fill="#A81E29"/>
<path d="M12.0033 4.61633V5.53962H5.0786C4.89566 5.54352 4.71382 5.51036 4.54403 5.44215C4.37423 5.37393 4.22 5.27206 4.09061 5.14267C3.96122 5.01328 3.85936 4.85905 3.79114 4.68926C3.72292 4.51946 3.68976 4.33762 3.69367 4.15468C3.69367 2.30811 6.00189 2.30811 6.00189 2.30811C8.21734 2.31752 10.3525 3.13873 12.0033 4.61633Z" fill="#E03E3E"/>
<path d="M8.3092 0C12.0024 0 12.0024 4.61644 12.0024 4.61644C10.3516 3.13885 8.21643 2.31764 6.00098 2.30822C6.00098 2.30822 6.00098 0 8.3092 0Z" fill="#CB3541"/>
<path d="M16.6191 4.61644C16.6191 4.61644 16.6191 0 20.3123 0C22.6205 0 22.6205 2.30822 22.6205 2.30822C20.4051 2.31764 18.2699 3.13885 16.6191 4.61644Z" fill="#CB3541"/>
<path d="M16.6191 4.61633C18.2699 3.13873 20.4051 2.31752 22.6205 2.30811C22.6205 2.30811 24.9287 2.30811 24.9287 4.15468C24.9326 4.33762 24.8995 4.51946 24.8313 4.68926C24.7631 4.85905 24.6612 5.01328 24.5318 5.14267C24.4024 5.27206 24.2482 5.37393 24.0784 5.44215C23.9086 5.51036 23.7267 5.54352 23.5438 5.53962H16.6191V4.61633Z" fill="#E03E3E"/>
<path d="M11.0791 11.0796H17.5421V28.6221H11.0791V11.0796Z" fill="#CB3541"/>
<path d="M18.0045 5.53955V11.0793H17.5428H11.0798H10.6182V5.53955H12.0031H16.6195H18.0045Z" fill="#FF6161"/>
<path d="M27.5282 19.0571C27.6252 19.4956 28.6223 19.8419 28.6223 20.3127C28.6223 20.7836 27.6252 21.1298 27.5282 21.5684C27.4267 22.0208 28.1745 22.7779 27.9853 23.1842C27.7868 23.5996 26.7434 23.4704 26.4618 23.8305C26.1802 24.1905 26.5403 25.2016 26.1895 25.4878C25.8386 25.774 24.9523 25.1923 24.546 25.3954C24.149 25.5939 24.0382 26.665 23.5996 26.7665C23.1703 26.8681 22.6163 25.954 22.1593 25.954C21.7023 25.954 21.1483 26.8681 20.719 26.7665C20.2804 26.665 20.1696 25.5939 19.768 25.3954C19.3664 25.1969 18.4754 25.774 18.1292 25.4878C17.7829 25.2016 18.1338 24.1859 17.8522 23.8305C17.5706 23.475 16.5319 23.5996 16.3334 23.1842C16.1441 22.7779 16.8919 22.0208 16.7904 21.5684C16.6934 21.1298 15.6963 20.7836 15.6963 20.3127C15.6963 19.8419 16.6934 19.4956 16.7904 19.0571C16.8919 18.6047 16.1441 17.8476 16.3334 17.4413C16.5319 17.0258 17.5752 17.1551 17.8568 16.795C18.1384 16.4349 17.7783 15.4239 18.1292 15.1377C18.48 14.8515 19.3664 15.4332 19.7726 15.23C20.1696 15.0315 20.2804 13.9605 20.719 13.859C21.1483 13.7574 21.7023 14.6714 22.1593 14.6714C22.6163 14.6714 23.1703 13.7574 23.5996 13.859C24.0382 13.9605 24.149 15.0315 24.5506 15.23C24.9523 15.4285 25.8432 14.8515 26.1895 15.1377C26.5357 15.4239 26.1848 16.4395 26.4665 16.795C26.7481 17.1505 27.7868 17.0258 27.9853 17.4413C28.1745 17.8476 27.4267 18.6047 27.5282 19.0571Z" fill="#CB3541"/>
<path d="M27.2372 20.3124C27.2372 20.6818 26.4524 20.9546 26.3772 21.299C26.2982 21.6554 26.885 22.249 26.735 22.5703C26.5849 22.8916 25.76 22.7947 25.5411 23.0749C25.3223 23.3551 25.6002 24.1542 25.3256 24.3791C25.0509 24.6039 24.3561 24.1482 24.0362 24.3057C23.7163 24.4631 23.6364 25.3037 23.2892 25.3845C22.9527 25.463 22.5188 24.7433 22.1591 24.7433C21.7995 24.7433 21.3656 25.463 21.029 25.3845C20.6814 25.3037 20.5956 24.4612 20.2821 24.3057C19.9686 24.1501 19.2665 24.603 18.9927 24.3791C18.719 24.1552 18.9964 23.3565 18.7767 23.0749C18.5569 22.7933 17.7366 22.8976 17.5829 22.5699C17.4291 22.2421 18.02 21.6549 17.9411 21.299C17.8658 20.9541 17.0811 20.6818 17.0811 20.3124C17.0811 19.9431 17.8658 19.6703 17.9411 19.3259C18.02 18.9695 17.4333 18.3758 17.5833 18.0545C17.7334 17.7332 18.5583 17.8302 18.7771 17.55C18.996 17.2697 18.718 16.4706 18.9927 16.2458C19.2674 16.021 19.9622 16.4766 20.2821 16.3192C20.602 16.1618 20.6819 15.3211 21.029 15.2404C21.3656 15.1619 21.7995 15.8816 22.1591 15.8816C22.5188 15.8816 22.9527 15.1619 23.2892 15.2404C23.6369 15.3211 23.7227 16.1636 24.0362 16.3192C24.3496 16.4748 25.0518 16.0219 25.3256 16.2458C25.5993 16.4697 25.3219 17.2684 25.5416 17.55C25.7614 17.8316 26.5817 17.7286 26.7354 18.055C26.8891 18.3814 26.2982 18.97 26.3772 19.3259C26.4524 19.6708 27.2372 19.9431 27.2372 20.3124Z" fill="#FF6161"/>
<path d="M23.5441 24.0057C23.2702 24.0057 23.0024 23.9245 22.7747 23.7723C22.5469 23.6201 22.3694 23.4038 22.2646 23.1508C22.1598 22.8977 22.1324 22.6192 22.1858 22.3506C22.2392 22.0819 22.3711 21.8352 22.5648 21.6415C22.7585 21.4478 23.0053 21.3159 23.2739 21.2625C23.5426 21.209 23.821 21.2364 24.0741 21.3413C24.3272 21.4461 24.5435 21.6236 24.6956 21.8513C24.8478 22.0791 24.929 22.3469 24.929 22.6208C24.929 22.9881 24.7831 23.3403 24.5234 23.6001C24.2637 23.8598 23.9114 24.0057 23.5441 24.0057ZM23.5441 22.1591C23.4528 22.1591 23.3636 22.1862 23.2876 22.2369C23.2117 22.2877 23.1526 22.3598 23.1176 22.4441C23.0827 22.5285 23.0735 22.6213 23.0913 22.7108C23.1092 22.8004 23.1531 22.8826 23.2177 22.9472C23.2822 23.0118 23.3645 23.0557 23.4541 23.0735C23.5436 23.0914 23.6364 23.0822 23.7208 23.0473C23.8051 23.0123 23.8772 22.9532 23.928 22.8772C23.9787 22.8013 24.0058 22.7121 24.0058 22.6208C24.0058 22.4983 23.9571 22.3809 23.8705 22.2943C23.784 22.2078 23.6665 22.1591 23.5441 22.1591Z" fill="#FBFBFB"/>
<path d="M20.7736 19.389C20.4997 19.389 20.2319 19.3078 20.0042 19.1556C19.7764 19.0034 19.5989 18.7871 19.4941 18.5341C19.3893 18.281 19.3618 18.0025 19.4153 17.7339C19.4687 17.4652 19.6006 17.2185 19.7943 17.0248C19.988 16.8311 20.2348 16.6992 20.5034 16.6458C20.7721 16.5923 21.0505 16.6197 21.3036 16.7246C21.5567 16.8294 21.773 17.0069 21.9251 17.2346C22.0773 17.4624 22.1585 17.7302 22.1585 18.0041C22.1585 18.3714 22.0126 18.7236 21.7529 18.9834C21.4932 19.2431 21.1409 19.389 20.7736 19.389ZM20.7736 17.5424C20.6823 17.5424 20.593 17.5695 20.5171 17.6202C20.4412 17.671 20.382 17.7431 20.3471 17.8274C20.3122 17.9118 20.303 18.0046 20.3208 18.0941C20.3386 18.1837 20.3826 18.2659 20.4472 18.3305C20.5117 18.3951 20.594 18.439 20.6835 18.4568C20.7731 18.4747 20.8659 18.4655 20.9503 18.4306C21.0346 18.3956 21.1067 18.3365 21.1574 18.2605C21.2082 18.1846 21.2352 18.0954 21.2352 18.0041C21.2352 17.8816 21.1866 17.7642 21.1 17.6776C21.0135 17.5911 20.896 17.5424 20.7736 17.5424Z" fill="#FBFBFB"/>
<path d="M19.8502 23.0819C19.7589 23.0819 19.6697 23.0548 19.5938 23.0041C19.5179 22.9534 19.4587 22.8813 19.4238 22.7969C19.3889 22.7126 19.3797 22.6198 19.3975 22.5302C19.4153 22.4407 19.4593 22.3584 19.5238 22.2939L24.1403 17.6774C24.2273 17.5933 24.344 17.5468 24.465 17.5479C24.586 17.5489 24.7018 17.5975 24.7874 17.6831C24.873 17.7687 24.9216 17.8844 24.9226 18.0055C24.9237 18.1265 24.8771 18.2431 24.793 18.3302L20.1766 22.9466C20.09 23.0332 19.9726 23.0819 19.8502 23.0819Z" fill="#FBFBFB"/>
<path d="M26.3142 12.9262V11.0796H18.0046H17.543V12.9262H26.3142Z" fill="#E68C15"/>
<path d="M24.4676 26.7753H17.543V28.6219H24.4676C24.9574 28.6219 25.4271 28.4273 25.7734 28.081C26.1197 27.7347 26.3142 27.265 26.3142 26.7753V24.9287C26.3142 25.4185 26.1197 25.8881 25.7734 26.2344C25.4271 26.5807 24.9574 26.7753 24.4676 26.7753Z" fill="#E68C15"/>
<path d="M4.61682 18.4659V14.7727C4.61682 14.283 4.81136 13.8133 5.15767 13.467C5.50397 13.1207 5.97365 12.9262 6.46339 12.9262H11.0798V11.0796H2.30859V26.7755C2.30859 27.2652 2.50314 27.7349 2.84944 28.0812C3.19574 28.4275 3.66543 28.6221 4.15517 28.6221H11.0798V26.5627C9.24485 26.1444 7.60618 25.1157 6.43207 23.6448C5.25796 22.1739 4.61796 20.3479 4.61682 18.4659Z" fill="#E68C15"/>
<path d="M12.9257 26.7753C12.3041 26.7735 11.6848 26.7021 11.0791 26.5625V28.6219H17.5421V26.7753H12.9257Z" fill="#A81E29"/>
<path d="M11.0791 11.0796H17.5421V12.9262H11.0791V11.0796Z" fill="#A81E29"/>
<path d="M4.84727 8.77106C4.41874 8.77106 4.00777 8.60083 3.70475 8.29782C3.40174 7.9948 3.23151 7.58383 3.23151 7.15531C3.23151 6.72678 3.40174 6.31581 3.70475 6.01279C4.00777 5.70978 4.41874 5.53955 4.84727 5.53955H0.923289C0.678642 5.54028 0.444224 5.63779 0.271232 5.81078C0.0982401 5.98377 0.000730657 6.21819 0 6.46284V10.156C0.000730657 10.4006 0.0982401 10.6351 0.271232 10.8081C0.444224 10.981 0.678642 11.0786 0.923289 11.0793H10.6178V8.77106H4.84727Z" fill="#FFA930"/>
<path d="M27.6984 8.77143H18.0039V11.0797H27.6984C27.9431 11.0789 28.1775 10.9814 28.3505 10.8084C28.5235 10.6354 28.621 10.401 28.6217 10.1564V7.84814C28.6217 8.09302 28.5245 8.32786 28.3513 8.50101C28.1782 8.67416 27.9433 8.77143 27.6984 8.77143Z" fill="#FFA930"/>
<path d="M10.6182 8.77148V11.0797H11.0798H17.5428H18.0045V8.77148H10.6182Z" fill="#CB3541"/>
<path d="M10.1558 2.30829C10.1558 2.30829 7.46208 1.41224 6.06007 1.83141C6.02646 1.98834 6.00669 2.14791 6.00098 2.30829C8.21643 2.31771 10.3516 3.13892 12.0024 4.61651C12.0024 4.61651 12.0024 2.57928 10.9175 1.21143C10.9189 1.79541 10.7513 2.30829 10.1558 2.30829Z" fill="#A81E29"/>
<path d="M18.9274 2.30821C18.161 2.30821 18.1024 1.46017 18.2021 0.702148C16.6191 1.99383 16.6191 4.61643 16.6191 4.61643C18.2699 3.13884 20.4051 2.31763 22.6205 2.30821C22.6138 2.11609 22.5872 1.92518 22.5411 1.73854C21.0823 1.59081 18.9274 2.30821 18.9274 2.30821Z" fill="#A81E29"/>
<path d="M10.1 3.59185C10.1144 3.65939 10.1137 3.72932 10.0978 3.79654C10.0818 3.86376 10.0511 3.92659 10.0079 3.98047C9.96468 4.03435 9.91 4.07793 9.84783 4.10805C9.78566 4.13817 9.71757 4.15407 9.64849 4.15459H5.07821C4.83334 4.15459 4.5985 4.05732 4.42535 3.88416C4.2522 3.71101 4.15492 3.47617 4.15492 3.2313V2.9834C4.00194 3.13665 3.88203 3.31966 3.80263 3.52111C3.72322 3.72257 3.686 3.93817 3.69328 4.15459C3.68937 4.33753 3.72253 4.51937 3.79075 4.68916C3.85896 4.85896 3.96083 5.01319 4.09022 5.14258C4.21961 5.27197 4.37384 5.37384 4.54363 5.44205C4.71343 5.51027 4.89527 5.54343 5.07821 5.53952H12.0029V4.61623C11.4067 4.06928 10.7333 3.61292 10.0044 3.26177C10.0448 3.36915 10.0767 3.47951 10.1 3.59185Z" fill="#CB3541"/>
<path d="M24.0054 4.1546H19.4352C19.366 4.15421 19.2978 4.13841 19.2355 4.10835C19.1732 4.07829 19.1184 4.03473 19.0751 3.98083C19.0318 3.92693 19.001 3.86405 18.985 3.79677C18.9691 3.72948 18.9683 3.65948 18.9828 3.59185C19.0259 3.38521 19.099 3.18597 19.1997 3.00049C18.2507 3.38217 17.377 3.92923 16.6191 4.61624V5.53953H23.5438C23.7267 5.54344 23.9086 5.51028 24.0784 5.44206C24.2482 5.37384 24.4024 5.27198 24.5318 5.14259C24.6612 5.0132 24.7631 4.85896 24.8313 4.68917C24.8995 4.51938 24.9326 4.33754 24.9287 4.1546C24.9292 3.96971 24.9014 3.78584 24.8461 3.6094C24.7733 3.77155 24.6553 3.90924 24.5062 4.00595C24.357 4.10266 24.1832 4.15428 24.0054 4.1546Z" fill="#CB3541"/>
<path d="M22.6206 14.4493V5.53955H21.6973V14.4493C21.7528 14.5183 21.8231 14.5741 21.903 14.6123C21.9828 14.6506 22.0703 14.6705 22.1589 14.6705C22.2475 14.6705 22.335 14.6506 22.4149 14.6123C22.4948 14.5741 22.565 14.5183 22.6206 14.4493Z" fill="#A81E29"/>
<path d="M16.3325 23.1837C16.1433 22.7775 16.8911 22.0204 16.7896 21.568C16.6926 21.1294 15.6955 20.7832 15.6955 20.3123C15.6955 19.8414 16.6926 19.4952 16.7896 19.0566C16.8644 18.7229 16.4784 18.2257 16.3459 17.8208C15.9618 18.0516 15.1235 17.9958 14.9476 18.3642C14.7583 18.7704 15.5062 19.5275 15.4046 19.9799C15.3077 20.4185 14.3105 20.7647 14.3105 21.2356C14.3105 21.7065 15.3077 22.0527 15.4046 22.4913C15.5062 22.9437 14.7583 23.7008 14.9476 24.107C15.1461 24.5225 16.1894 24.3932 16.4664 24.7533C16.7434 25.1134 16.3926 26.1244 16.7434 26.4106C16.9165 26.5537 17.2258 26.4799 17.5421 26.3954V23.6426C17.1224 23.5018 16.4835 23.4999 16.3325 23.1837Z" fill="#961B25"/>
<path d="M20.7181 26.766C20.2795 26.6644 20.1687 25.5934 19.7671 25.3949C19.3655 25.1964 18.4745 25.7735 18.1283 25.4872C17.782 25.201 18.1329 24.1854 17.8513 23.8299C17.7685 23.7389 17.661 23.6738 17.542 23.6425V26.3953C17.8071 26.2823 18.101 26.2553 18.3822 26.3182C18.5414 26.431 18.6614 26.5908 18.7252 26.7752C18.902 27.1538 19.0483 27.6237 19.3332 27.6893C19.7625 27.7909 20.3165 26.8768 20.7735 26.8768C21.2305 26.8768 21.7845 27.7909 22.2138 27.6893C22.4977 27.6237 22.6445 27.1538 22.8204 26.7752C22.8666 26.6719 22.9229 26.5734 22.9885 26.4812C22.7073 26.2453 22.4174 25.9535 22.1575 25.9535C21.7014 25.9535 21.1474 26.8676 20.7181 26.766Z" fill="#E68C15"/>
<path d="M24.9614 25.3714C24.8237 25.3364 24.6787 25.3447 24.5459 25.3949C24.2865 25.5246 24.1484 26.0237 23.9619 26.3847C24.2925 26.4733 24.6211 26.5601 24.8044 26.4105C25.0209 26.2337 24.9678 25.7776 24.9614 25.3714Z" fill="#E68C15"/>
<path d="M19.7717 15.2297C19.8414 15.1885 19.9008 15.1318 19.9452 15.064C19.7296 14.8844 19.5196 14.7376 19.3331 14.7819C19.1812 14.817 19.0695 14.9716 18.9707 15.1632C19.2238 15.2699 19.5044 15.2932 19.7717 15.2297Z" fill="#E68C15"/>
<path d="M20.7178 13.8587C20.8137 13.8543 20.9094 13.8704 20.9986 13.906C21.0878 13.9416 21.1683 13.9958 21.2348 14.065V11.0796H20.3115V14.3263C20.4209 14.0946 20.5423 13.8993 20.7178 13.8587Z" fill="#E68C15"/>
<path d="M17.5421 16.0746C17.2268 15.9906 16.9185 15.9177 16.7435 16.0603C16.5021 16.2574 16.5925 16.799 16.5838 17.232C16.8497 17.1143 17.2467 17.0806 17.5421 16.9827V16.0746Z" fill="#961B25"/>
</svg>
