<svg width="30" height="30" viewBox="0 0 30 30" fill="none" xmlns="http://www.w3.org/2000/svg">
<path d="M13.4807 24.3204L10.2961 27.7169C7.78763 30.3923 3.46098 30.0868 1.34105 27.094C1.20135 26.8968 1.06591 26.6963 0.934865 26.4927C0.924304 26.4762 0.913744 26.4598 0.903184 26.4433C-0.809805 23.7609 -0.011564 20.1949 2.66638 18.475L6.54182 15.9858L13.4807 24.3204Z" fill="#F2A98C"/>
<path d="M20.6132 8.71357C21.1556 9.69041 22.3872 10.0425 23.364 9.5001L28.514 6.64033C29.4908 6.0979 29.8429 4.86629 29.3005 3.88945C28.7581 2.91261 27.5265 2.56049 26.5496 3.10292L21.3997 5.96269C20.4229 6.50518 20.0707 7.73679 20.6132 8.71357Z" fill="#FFC5AB"/>
<path d="M6.88789 2.653C8.7006 2.24416 10.5015 3.38217 10.9103 5.19488L11.9362 9.74346C16.0667 8.22407 20.5684 9.59908 22.4276 13.1387C24.4755 17.0372 22.5425 22.0849 18.1101 24.4132C13.6778 26.7414 8.42459 25.4684 6.37674 21.57C5.29689 19.5143 5.32419 17.1392 6.24101 15.0117C7.07688 13.0721 7.26044 10.9136 6.79574 8.85329L5.78935 4.39121C5.61283 3.60792 6.1046 2.8297 6.88789 2.653Z" fill="#FFC5AB"/>
<path d="M24.1142 1.99788V23.6683C24.1142 24.7714 23.2201 25.6662 22.1163 25.6662H11.8416C10.7385 25.6662 9.84375 24.7714 9.84375 23.6683V1.99788C9.84369 0.894147 10.7385 0 11.8416 0H22.1163C23.2201 0 24.1142 0.894147 24.1142 1.99788Z" fill="#424242"/>
<path d="M23.0633 2.13046V23.5356C23.0633 24.0735 22.6275 24.5093 22.0895 24.5093H11.8692C11.3313 24.5093 10.8955 24.0735 10.8955 23.5356V2.13046C10.8955 1.59253 11.3313 1.15674 11.8692 1.15674H22.0896C22.6275 1.15674 23.0633 1.59253 23.0633 2.13046Z" fill="white"/>
<path d="M23.0634 2.13046V16.8792H10.8955V2.13046C10.8955 1.59253 11.3313 1.15674 11.8692 1.15674H22.0896C22.6276 1.15674 23.0634 1.59253 23.0634 2.13046Z" fill="#AC6BAD"/>
<path d="M20.5401 19.2231H13.4205C12.8954 19.2231 12.4697 19.6488 12.4697 20.1739V21.0362C12.4697 21.5613 12.8954 21.987 13.4205 21.987H20.5401C21.0651 21.987 21.4908 21.5613 21.4908 21.0362V20.1739C21.4908 19.6488 21.0651 19.2231 20.5401 19.2231Z" fill="#AC6BAD"/>
<path d="M16.9796 15.1895C19.3242 15.1895 21.2248 14.7144 21.2248 14.1282C21.2248 13.5421 19.3242 13.0669 16.9796 13.0669C14.635 13.0669 12.7344 13.5421 12.7344 14.1282C12.7344 14.7144 14.635 15.1895 16.9796 15.1895Z" fill="#913E98"/>
<path d="M17.1172 7.6943L17.106 7.4363H15.7435L15.7342 6.70667L15.6931 3.40003L15.6924 3.34295C15.6904 3.21029 15.7966 3.10151 15.9292 3.10019L16.8201 3.08894C16.9123 3.08824 16.9932 3.13937 17.0344 3.21496C17.0522 3.24814 17.0622 3.28525 17.0629 3.32576L17.1053 6.70667L17.1139 7.4363L17.1172 7.6943Z" fill="#FC933A"/>
<path d="M14.7999 6.54157C14.7297 6.43874 14.6122 6.37439 14.4842 6.37439H13.4136C13.3963 6.13099 13.3791 5.88817 13.3618 5.64477L13.3432 5.38076L13.2099 3.49962C13.196 3.30925 13.3392 3.1441 13.5303 3.13019L14.2075 3.08241C14.3349 3.07381 14.451 3.13481 14.518 3.23296C14.5518 3.28138 14.5724 3.33978 14.577 3.40279L14.723 5.46369L14.7614 6.00231L14.7648 6.05274L14.7999 6.54157Z" fill="#FEB33C"/>
<path d="M19.9808 3.49961L19.8296 5.63483L19.7772 6.37444H19.474C19.4588 6.37444 19.4442 6.37513 19.4296 6.3771C19.2863 6.39366 19.1623 6.49118 19.1138 6.62979C19.1138 6.63048 19.1132 6.63112 19.1132 6.63181L18.9533 7.09547L18.8359 7.43576H18.3271L18.3789 6.70613L18.4154 6.18875L18.613 3.40284C18.6269 3.21247 18.7921 3.06918 18.9825 3.08246L19.6604 3.13024C19.7984 3.14016 19.9112 3.22972 19.9583 3.35044C19.9762 3.39684 19.9848 3.44721 19.9808 3.49961Z" fill="#FC933A"/>
<path d="M15.7961 7.4365H15.1215L15.0041 7.09621L14.8442 6.63255C14.8442 6.63185 14.8435 6.63122 14.8435 6.63053C14.8323 6.59867 14.8177 6.56884 14.7991 6.5423C14.7288 6.43946 14.6114 6.37512 14.4833 6.37512H14.4316V3.43208C14.4316 3.35314 14.4648 3.28349 14.5172 3.23375C14.5802 3.17402 14.6711 3.14419 14.7647 3.16473L15.5766 3.34316C15.6204 3.35308 15.6601 3.37299 15.6927 3.40023C15.7537 3.45061 15.7915 3.52695 15.7922 3.61051L15.7955 6.70687L15.7961 7.4365Z" fill="#FFD23E"/>
<path d="M21.1762 3.56192L20.9221 5.48819L20.8996 5.66067L20.7994 6.41754C20.7297 6.38967 20.6528 6.37443 20.5712 6.37443H19.4741C19.4589 6.37443 19.4443 6.37513 19.4297 6.37709L19.5265 5.65075L19.5624 5.37947L19.8045 3.56065C19.8171 3.46711 19.8768 3.38886 19.9584 3.35037C19.9876 3.33577 20.0194 3.32718 20.0533 3.32383L20.8817 3.25349C21.0561 3.23889 21.1994 3.38881 21.1762 3.56192Z" fill="#FFD23E"/>
<path d="M18.4383 6.70665L18.4714 7.43628H17.113L17.1163 7.69428L17.1051 7.43628L17.0732 6.70665L16.9299 3.44115C16.926 3.34894 16.9677 3.26735 17.0334 3.21495C17.0918 3.1685 17.1694 3.14599 17.251 3.1599L18.0702 3.30249C18.1969 3.32436 18.291 3.43117 18.297 3.55985L18.4151 6.18921L18.4383 6.70665Z" fill="#FFD23E"/>
<path d="M21.1674 7.06759L20.248 13.1594C20.1698 13.6782 19.6742 14.0695 19.1044 14.0695H14.8513C14.2815 14.0695 13.786 13.6782 13.7077 13.1594L13.6739 12.9319L13.668 12.8928L12.7884 7.06759C12.7327 6.69747 13.0093 6.37512 13.3854 6.37512H14.4825C14.6443 6.37512 14.7889 6.47795 14.8427 6.63047C14.8427 6.63116 14.8434 6.6318 14.8434 6.63249L15.0032 7.09615L15.1206 7.43644H18.8352L18.9526 7.09615L19.1125 6.63249C19.1125 6.6318 19.1132 6.63116 19.1132 6.63047C19.1669 6.4779 19.3115 6.37512 19.4734 6.37512H20.5705C20.9465 6.37512 21.223 6.69747 21.1674 7.06759Z" fill="#DB4646"/>
<path d="M19.9641 6.37512L19.1117 12.0226C19.0335 12.5419 18.5373 12.9333 17.9675 12.9333H13.715C13.6977 12.9187 13.6851 12.9074 13.6679 12.8928L12.7884 7.06759C12.7327 6.69747 13.0093 6.37512 13.3854 6.37512H14.4825C14.6443 6.37512 14.7889 6.47795 14.8427 6.63047C14.8427 6.63116 14.8434 6.6318 14.8434 6.63249L15.0032 7.09615C15.0735 7.2998 15.2652 7.43644 15.4808 7.43644H18.475C18.6906 7.43644 18.8823 7.2998 18.9526 7.09615L19.1124 6.63249C19.1124 6.6318 19.1131 6.63116 19.1131 6.63047C19.1668 6.4779 19.3114 6.37512 19.4733 6.37512H19.9641Z" fill="#EE5351"/>
<path d="M14.9603 9.23248H19.0507C19.3611 9.23248 19.5846 9.53019 19.4981 9.82824L19.274 10.6003C19.2162 10.7993 19.0339 10.9362 18.8266 10.9362H15.1845C14.9772 10.9362 14.7948 10.7993 14.7371 10.6003L14.5129 9.82824C14.4263 9.53019 14.6499 9.23248 14.9603 9.23248Z" fill="#FEC110"/>
<path d="M25.0813 20.8106L22.9275 22.0065C22.1408 22.4437 21.1485 22.1597 20.7114 21.373C20.3359 20.6971 20.4918 19.8706 21.041 19.3738C21.1312 19.2916 21.2334 19.218 21.3449 19.1563L23.4987 17.9603C23.7494 17.821 24.0207 17.7554 24.288 17.7554C24.8612 17.7554 25.417 18.0579 25.7148 18.5945C25.7997 18.7477 25.8581 18.9089 25.8899 19.072C26.0218 19.7466 25.7147 20.4584 25.0813 20.8106Z" fill="#F2AEA0"/>
<path d="M25.8898 19.072C25.799 19.1543 25.6974 19.2279 25.586 19.2896L23.4322 20.4855C22.6449 20.922 21.6525 20.6387 21.2155 19.8514C21.1306 19.6982 21.0728 19.537 21.041 19.3738C21.1312 19.2916 21.2334 19.218 21.3448 19.1563L23.4986 17.9603C23.7494 17.821 24.0206 17.7554 24.288 17.7554C24.8611 17.7554 25.4169 18.0579 25.7148 18.5945C25.7996 18.7477 25.858 18.9088 25.8898 19.072Z" fill="#FFC5AB"/>
<path d="M25.0813 16.4493L22.9275 17.6452C22.1408 18.0823 21.1485 17.7984 20.7114 17.0117C20.3359 16.3358 20.4918 15.5093 21.041 15.0125C21.1312 14.9303 21.2334 14.8566 21.3449 14.795L23.4987 13.599C23.7494 13.4597 24.0207 13.394 24.288 13.394C24.8612 13.394 25.417 13.6965 25.7148 14.2331C25.7997 14.3863 25.8581 14.5476 25.8899 14.7107C26.0218 15.3853 25.7147 16.0971 25.0813 16.4493Z" fill="#F2AEA0"/>
<path d="M25.8898 14.7107C25.799 14.7929 25.6974 14.8666 25.586 14.9283L23.4322 16.1242C22.6449 16.5607 21.6525 16.2774 21.2155 15.4901C21.1306 15.3369 21.0728 15.1756 21.041 15.0125C21.1312 14.9303 21.2334 14.8566 21.3448 14.795L23.4986 13.599C23.7494 13.4597 24.0206 13.394 24.288 13.394C24.8611 13.394 25.4169 13.6965 25.7148 14.2331C25.7996 14.3863 25.858 14.5476 25.8898 14.7107Z" fill="#FFC5AB"/>
<path d="M25.0813 12.8677L22.9275 14.0637C22.1408 14.5008 21.1485 14.2169 20.7114 13.4302C20.3359 12.7543 20.4918 11.9278 21.041 11.431C21.1312 11.3487 21.2334 11.2751 21.3449 11.2134L23.4987 10.0175C23.7494 9.87817 24.0207 9.8125 24.288 9.8125C24.8612 9.8125 25.417 10.115 25.7148 10.6516C25.7997 10.8048 25.8581 10.966 25.8899 11.1292C26.0218 11.8037 25.7147 12.5155 25.0813 12.8677Z" fill="#F2AEA0"/>
<path d="M25.8898 11.1292C25.799 11.2114 25.6974 11.285 25.586 11.3467L23.4322 12.5427C22.6449 12.9791 21.6525 12.6959 21.2155 11.9085C21.1306 11.7553 21.0728 11.5941 21.041 11.431C21.1312 11.3487 21.2334 11.2751 21.3448 11.2134L23.4986 10.0175C23.7494 9.87817 24.0206 9.8125 24.288 9.8125C24.8611 9.8125 25.4169 10.115 25.7148 10.6516C25.7996 10.8048 25.858 10.966 25.8898 11.1292Z" fill="#FFC5AB"/>
<path d="M22.7694 27.925C25.7001 27.925 28.0759 25.5492 28.0759 22.6185C28.0759 19.6878 25.7001 17.312 22.7694 17.312C19.8387 17.312 17.4629 19.6878 17.4629 22.6185C17.4629 25.5492 19.8387 27.925 22.7694 27.925Z" fill="#09CC66"/>
<path d="M22.1087 25.2997C22.0969 25.2997 22.085 25.2994 22.073 25.2988C21.8905 25.2893 21.7193 25.2075 21.5972 25.0715L19.459 22.6888C19.2055 22.4063 19.229 21.9718 19.5115 21.7183C19.7939 21.4648 20.2286 21.4883 20.482 21.7707L22.1594 23.6398L25.4966 20.6205C25.778 20.3659 26.2126 20.3875 26.4673 20.6691C26.722 20.9506 26.7003 21.3851 26.4188 21.6399L22.5699 25.1222C22.4432 25.2367 22.2787 25.2997 22.1087 25.2997Z" fill="white"/>
</svg>
