<svg width="24" height="24" viewBox="0 0 24 24" fill="none" xmlns="http://www.w3.org/2000/svg">
<path d="M0.9564 4.17294V20.2715C0.95757 20.7375 1.11162 21.1905 1.39521 21.5617C1.67879 21.9329 2.07645 22.2021 2.52789 22.3285L5.32208 23.1111H1.74027C1.27872 23.1111 0.836078 22.9289 0.509714 22.6047C0.18335 22.2804 0 21.8406 0 21.382V3.06243C0 2.60385 0.18335 2.16404 0.509714 1.83977C0.836078 1.5155 1.27872 1.33333 1.74027 1.33333H5.33333L2.52789 2.11962C2.07706 2.24588 1.67986 2.51455 1.39633 2.885C1.11281 3.25545 0.958383 3.70755 0.9564 4.17294Z" fill="#FF5200"/>
<path d="M15.9999 3.00872V9.26638H15.4315C15.1719 9.26877 14.9192 9.36182 14.7079 9.53285C14.4966 9.70389 14.3369 9.9446 14.2506 10.2222V1.69132C14.2517 1.57121 14.2422 1.45127 14.2222 1.33333H14.5379C14.731 1.33427 14.922 1.37837 15.1001 1.46312C15.2781 1.54787 15.4397 1.67159 15.5755 1.82722C15.7113 1.98284 15.8186 2.1673 15.8915 2.37004C15.9643 2.57278 16.0012 2.78981 15.9999 3.00872Z" fill="#FF5200"/>
<path d="M15.4357 14.783H15.9999V21.3642C15.9991 21.8272 15.8448 22.2709 15.5706 22.5983C15.2965 22.9257 14.925 23.1101 14.5374 23.1111H14.2222C14.2411 22.9932 14.2506 22.8735 14.2505 22.7534V13.7778C14.3371 14.0709 14.4974 14.3249 14.7096 14.5049C14.9218 14.6849 15.1755 14.782 15.4357 14.783Z" fill="#FF5200"/>
<path d="M13.3332 1.4029V22.5907C13.3364 22.8079 13.289 23.0228 13.1948 23.2181C13.1005 23.4134 12.9622 23.5836 12.7908 23.7151C12.5502 23.8992 12.2567 23.9992 11.9548 24C11.829 24.0007 11.7039 23.9831 11.5832 23.9475L2.78847 21.4401C2.49828 21.3552 2.24309 21.1779 2.06095 20.9348C1.87882 20.6916 1.7795 20.3955 1.77783 20.0907V3.89911C1.7797 3.59483 1.87916 3.29933 2.06132 3.0568C2.24349 2.81426 2.49858 2.63772 2.78847 2.55356L11.5758 0.053602C11.7819 -0.00587547 11.999 -0.0160166 12.2097 0.023985C12.4205 0.0639866 12.619 0.153028 12.7897 0.284029C12.9603 0.415031 13.0983 0.58438 13.1926 0.778614C13.287 0.972848 13.3351 1.18661 13.3332 1.4029Z" fill="#FF5200"/>
<path d="M23.7886 12.5105L20.8655 15.3459C20.7246 15.4796 20.5355 15.5548 20.3385 15.5556C20.2409 15.5551 20.1443 15.5364 20.0541 15.5004C19.9178 15.4467 19.8012 15.3545 19.7194 15.2359C19.6376 15.1172 19.5944 14.9775 19.5953 14.8347V13.8602H15.4248C15.2237 13.8602 15.0308 13.7827 14.8886 13.6448C14.7464 13.5068 14.6665 13.3197 14.6665 13.1247V10.8409C14.6665 10.6458 14.7464 10.4587 14.8886 10.3208C15.0308 10.1829 15.2237 10.1054 15.4248 10.1054H19.5953L19.5764 9.14553C19.5831 9.00583 19.6308 8.87089 19.7138 8.75654C19.7968 8.64218 19.9117 8.55315 20.045 8.49989C20.1783 8.44662 20.3245 8.43132 20.4665 8.45579C20.6084 8.48025 20.7403 8.54347 20.8465 8.63802L23.7697 11.4734C23.9135 11.6088 23.9962 11.7939 23.9997 11.9882C24.0033 12.1825 23.9274 12.3703 23.7886 12.5105Z" fill="#FF5200"/>
</svg>
