<svg width="26" height="26" viewBox="0 0 26 26" fill="none" xmlns="http://www.w3.org/2000/svg">
<path d="M12.9994 0C5.8207 0 0 5.8207 0 12.9994C0 20.1782 5.8207 26 12.9994 26C20.1782 26 26 20.1782 26 12.9994C26 5.8207 20.1782 0 12.9994 0ZM15.7057 20.1474C15.0365 20.4115 14.5039 20.6118 14.1044 20.7505C13.706 20.8891 13.2427 20.9585 12.7155 20.9585C11.9055 20.9585 11.2749 20.7604 10.8259 20.3653C10.3769 19.9702 10.1535 19.4695 10.1535 18.8609C10.1535 18.6243 10.17 18.3821 10.203 18.1356C10.2371 17.8891 10.291 17.6118 10.3648 17.3003L11.2023 14.3421C11.276 14.0582 11.3399 13.7885 11.3905 13.5376C11.4411 13.2845 11.4653 13.0523 11.4653 12.841C11.4653 12.4646 11.3872 12.2005 11.232 12.0519C11.0746 11.9033 10.7786 11.8307 10.3373 11.8307C10.1216 11.8307 9.89926 11.8626 9.67145 11.9297C9.44584 11.9991 9.24995 12.0618 9.08927 12.1234L9.31048 11.2122C9.85854 10.9888 10.3835 10.7973 10.8842 10.6388C11.385 10.4781 11.8582 10.3989 12.3039 10.3989C13.1084 10.3989 13.7291 10.5948 14.166 10.9822C14.6007 11.3707 14.8197 11.8758 14.8197 12.4965C14.8197 12.6253 14.8043 12.852 14.7746 13.1755C14.7449 13.5002 14.6888 13.7962 14.6073 14.0681L13.7742 17.0175C13.706 17.2541 13.6455 17.5248 13.5904 17.8275C13.5365 18.1301 13.5101 18.3612 13.5101 18.5164C13.5101 18.9082 13.597 19.1756 13.7731 19.3176C13.947 19.4596 14.2519 19.5311 14.6833 19.5311C14.8869 19.5311 15.1147 19.4948 15.3722 19.4243C15.6275 19.3539 15.8124 19.2912 15.9291 19.2372L15.7057 20.1474ZM15.5582 8.17583C15.1697 8.5368 14.702 8.71729 14.155 8.71729C13.6091 8.71729 13.1381 8.5368 12.7463 8.17583C12.3567 7.81486 12.1597 7.37575 12.1597 6.8629C12.1597 6.35115 12.3578 5.91094 12.7463 5.54667C13.1381 5.18129 13.6091 4.9997 14.155 4.9997C14.702 4.9997 15.1708 5.18129 15.5582 5.54667C15.9467 5.91094 16.1415 6.35115 16.1415 6.8629C16.1415 7.37685 15.9467 7.81486 15.5582 8.17583Z" fill="#FF5200"/>
</svg>
