<svg width="25" height="24" viewBox="0 0 25 24" fill="none" xmlns="http://www.w3.org/2000/svg">
<path d="M10.1303 7.6084C4.57088 7.6084 5.05611e-05 11.1559 5.05611e-05 15.5166C5.05611e-05 17.2597 0.728679 19.0312 2.0649 20.4042L0.177983 22.4051C-0.00767935 22.6021 -0.0527145 22.8821 0.0647706 23.1209C0.181535 23.3598 0.437535 23.5132 0.720229 23.5132H10.8505C14.9553 23.5132 20.2606 20.2333 20.2606 15.5166C20.2606 11.1559 15.6898 7.6084 10.1303 7.6084ZM5.76133 16.7415C4.96731 16.7415 4.32102 16.1417 4.32102 15.405C4.32102 14.6682 4.96736 14.0685 5.76133 14.0685C6.5553 14.0685 7.20164 14.6682 7.20164 15.405C7.20169 16.1417 6.55535 16.7415 5.76133 16.7415ZM10.1303 16.7415C9.3363 16.7415 8.69001 16.1417 8.69001 15.405C8.69001 14.6682 9.33634 14.0685 10.1303 14.0685C10.9243 14.0685 11.5706 14.6682 11.5706 15.405C11.5706 16.1417 10.9243 16.7415 10.1303 16.7415ZM14.4993 16.7415C13.7053 16.7415 13.059 16.1417 13.059 15.405C13.059 14.6682 13.7053 14.0685 14.4993 14.0685C15.2933 14.0685 15.9396 14.6682 15.9396 15.405C15.9396 16.1417 15.2933 16.7415 14.4993 16.7415Z" fill="#FF5200"/>
<path d="M24.4062 14.3013L22.7106 12.4655C23.9209 11.1982 24.58 9.65278 24.58 8.05396C24.5799 4.0007 20.3799 0.703125 15.2178 0.703125C10.5499 0.703125 6.58404 3.40246 5.88379 6.91584C7.18626 6.50517 8.64692 6.27172 10.1287 6.27172C16.4352 6.27172 21.6166 10.3591 21.6923 15.4048H23.8598C24.475 15.4048 24.8053 14.7326 24.4062 14.3013Z" fill="#FF5200"/>
</svg>
