<svg width="16" height="16" viewBox="0 0 16 16" fill="none" xmlns="http://www.w3.org/2000/svg">
<path d="M11.0613 10.0669C11.3661 10.3704 11.6682 10.6711 11.9689 10.9717C13.2382 12.241 14.5074 13.5103 15.7781 14.7796C15.979 14.9805 16.0455 15.2202 15.9693 15.4904C15.8945 15.7537 15.713 15.9227 15.4455 15.9809C15.1864 16.0363 14.9619 15.9615 14.7735 15.7731C14.0003 14.9971 13.2243 14.2239 12.4511 13.4493C11.6765 12.6747 10.9019 11.9001 10.1287 11.1256C10.1093 11.1062 10.0941 11.0812 10.0761 11.0577C8.56294 12.2064 6.88213 12.6345 5.02811 12.2867C3.49279 11.9985 2.24292 11.2142 1.28543 9.97961C-0.610158 7.53807 -0.384295 4.03095 1.79813 1.83329C3.9847 -0.368536 7.49321 -0.620726 9.94583 1.25962C11.3204 2.31411 12.1324 3.70948 12.3472 5.42909C12.562 7.14454 12.1061 8.68817 11.0613 10.0669ZM1.41153 6.19259C1.40737 8.84059 3.53991 10.9828 6.18653 10.9898C8.83315 10.9967 10.9823 8.86138 10.9879 6.2203C10.992 3.56537 8.85947 1.41759 6.21424 1.41343C3.56208 1.40789 1.41568 3.54458 1.41153 6.19259Z" fill="#B6C0C5"/>
</svg>
