<svg width="32" height="28" viewBox="0 0 32 28" fill="none" xmlns="http://www.w3.org/2000/svg">
<path d="M25.2389 16.0435H15.7776C15.4028 16.0435 15.0996 16.3473 15.0996 16.7214V23.5621C15.0996 23.9368 15.4028 24.2401 15.7776 24.2401H25.2389C25.613 24.2401 25.9169 23.9368 25.9169 23.5621V16.7214C25.9169 16.3473 25.6131 16.0435 25.2389 16.0435ZM16.4555 22.7757V17.3994H19.8127C19.6044 21.4012 17.5521 22.4835 16.4555 22.7757ZM18.9979 22.8841C19.5446 22.3861 20.0956 21.6749 20.5079 20.6635C20.9203 21.6743 21.4719 22.3861 22.0179 22.8841H18.9979ZM24.5609 22.7713C24.1998 22.674 23.7344 22.4928 23.2709 22.1575C22.0303 21.2607 21.3209 19.6237 21.2038 17.3994H24.5609V22.7713Z" fill="#FFBB38"/>
<path d="M10.7651 17.3999H7.57054C7.19612 17.3999 6.89258 17.0963 6.89258 16.7219C6.89258 16.3475 7.19612 16.0439 7.57054 16.0439H10.7651C11.1395 16.0439 11.443 16.3475 11.443 16.7219C11.443 17.0963 11.1395 17.3999 10.7651 17.3999Z" fill="#797979"/>
<path d="M31.555 7.95314C31.549 7.85422 31.521 7.75776 31.4743 7.67024L27.7214 0.36795C27.6055 0.141756 27.3726 0 27.1186 0H21.6432C21.2684 0 20.9652 0.303235 20.9652 0.677964C20.9652 1.05208 21.2684 1.35593 21.6432 1.35593H26.7045L29.7676 7.31524H1.78866L4.85182 1.35593H9.77693C10.151 1.35593 10.4549 1.05208 10.4549 0.677964C10.4549 0.303235 10.151 0 9.77693 0H4.43759C4.18366 0 3.95068 0.141756 3.83481 0.36795C3.83481 0.36795 0.0819721 7.67024 0.0819721 7.67031C0.0297688 7.76984 0 7.8806 0 7.99326V10.143C0 11.4879 0.763635 12.6583 1.87981 13.2426V27.322C1.87981 27.6961 2.18305 28 2.55778 28H28.9984C29.3731 28 29.6764 27.6961 29.6764 27.322V13.2426C30.7925 12.6583 31.5562 11.4879 31.5562 10.143C31.5562 10.143 31.5562 7.99339 31.5562 7.99326C31.5562 7.97983 31.5558 7.96645 31.555 7.95314ZM10.7138 26.644H7.62223V21.1593H10.7138V26.644ZM28.3204 26.644H12.0696V20.4813C12.0696 20.1072 11.7664 19.8033 11.3917 19.8033H6.94421C6.56948 19.8033 6.26624 20.1072 6.26624 20.4813V26.644H3.23574V13.6302C3.32203 13.6369 3.40955 13.64 3.49768 13.64C4.24529 13.64 4.95346 13.4089 5.54452 12.9799C6.13496 13.4095 6.84313 13.6406 7.59074 13.6406C8.33896 13.6406 9.04651 13.4089 9.63757 12.9799C10.2286 13.4095 10.9368 13.6406 11.685 13.6406C12.4326 13.64 13.1402 13.4089 13.7312 12.9799C14.0265 13.1944 14.3513 13.3596 14.6958 13.4712C15.0397 13.5827 15.404 13.6406 15.7781 13.6406C16.5263 13.6406 17.2339 13.4089 17.8249 12.9799C18.416 13.4095 19.1235 13.6406 19.8711 13.6406C20.6194 13.6406 21.3275 13.4089 21.9186 12.9799C22.509 13.4095 23.2172 13.6406 23.9648 13.6406C24.713 13.6406 25.4206 13.4095 26.0117 12.9799C26.6027 13.4089 27.3109 13.64 28.0585 13.64C28.1466 13.64 28.2341 13.6369 28.3204 13.6302V26.644V26.644ZM30.2002 10.143C30.2002 11.3239 29.2394 12.2841 28.0585 12.2841C27.4656 12.2841 26.9133 12.0468 26.5041 11.6148C26.3759 11.4798 26.1978 11.4027 26.0117 11.4027C25.8255 11.4027 25.6474 11.4798 25.5198 11.6148C25.1106 12.0468 24.5583 12.2847 23.9648 12.2847C23.3719 12.2847 22.8197 12.0468 22.4104 11.6148C22.3469 11.5476 22.2705 11.4946 22.1867 11.4582C22.1029 11.4219 22.0117 11.4027 21.9186 11.4027C21.7325 11.4027 21.5543 11.4798 21.4261 11.6148C21.0169 12.0468 20.4647 12.2847 19.8711 12.2847C19.2782 12.2847 18.726 12.0468 18.3168 11.6148C18.1892 11.4798 18.0111 11.4027 17.8249 11.4027C17.6388 11.4027 17.4607 11.4798 17.3325 11.6148C17.1279 11.8311 16.8875 11.9981 16.6243 12.1115C16.3611 12.2255 16.0752 12.2847 15.7781 12.2847C15.1846 12.2847 14.6323 12.0468 14.2237 11.6148C14.1596 11.5476 14.0832 11.4946 13.9994 11.4582C13.9155 11.4219 13.8243 11.4027 13.7312 11.4027C13.5451 11.4027 13.367 11.4798 13.2394 11.6148C12.8302 12.0468 12.2779 12.2847 11.685 12.2847C11.0915 12.2847 10.5393 12.0468 10.13 11.6148C10.0018 11.4798 9.82371 11.4027 9.63757 11.4027C9.45144 11.4027 9.27332 11.4798 9.14574 11.6148C8.7365 12.0468 8.18427 12.2847 7.59074 12.2847C6.99783 12.2847 6.44559 12.0468 6.03635 11.6148C5.97225 11.5476 5.89583 11.4946 5.81201 11.4582C5.72818 11.4219 5.63758 11.4027 5.54452 11.4027C5.35839 11.4027 5.18027 11.4798 5.05207 11.6148C4.64282 12.0468 4.09059 12.2841 3.49768 12.2841C2.31679 12.2841 1.35593 11.3239 1.35593 10.143V8.67117H30.2002V10.143V10.143Z" fill="#797979"/>
<path d="M8.44434 0.0185547H21.942V1.37449H8.44434V0.0185547Z" fill="#797979"/>
</svg>
