<svg width="22" height="22" viewBox="0 0 22 22" fill="none" xmlns="http://www.w3.org/2000/svg">
<path d="M21.2403 13.4643C21.1466 13.3709 21.0284 13.3059 20.8993 13.2769C20.7703 13.2479 20.6356 13.2561 20.511 13.3005C18.8364 13.8976 17.0268 14.0072 15.2923 13.6167C13.5579 13.2262 11.9699 12.3515 10.7128 11.0943C9.45569 9.83715 8.58112 8.24908 8.19069 6.51463C7.80026 4.78017 7.90999 2.97053 8.50715 1.29597C8.55152 1.17133 8.55966 1.03667 8.53062 0.907601C8.50158 0.77853 8.43656 0.660332 8.34308 0.56671C8.24961 0.473088 8.13151 0.407877 8.00248 0.378637C7.87346 0.349397 7.73879 0.357325 7.61408 0.401502C6.10434 0.934637 4.73426 1.80137 3.6058 2.93721C1.58284 4.9617 0.446725 7.70673 0.447266 10.5687C0.447807 13.4307 1.58496 16.1753 3.60868 18.199C5.6324 20.2227 8.377 21.3599 11.239 21.3604C14.1009 21.361 16.846 20.2248 18.8705 18.2019C20.0064 17.0732 20.8731 15.7029 21.4062 14.1929C21.4502 14.0682 21.458 13.9336 21.4286 13.8046C21.3992 13.6757 21.334 13.5577 21.2403 13.4643Z" fill="#FF5200"/>
</svg>
