<svg width="42" height="41" viewBox="0 0 42 41" fill="none" xmlns="http://www.w3.org/2000/svg">
<path d="M4.99397 40.3321C2.34853 37.6027 0.809378 33.9891 0.674264 30.1904C0.539149 26.3917 1.81767 22.6779 4.2625 19.7674C6.70734 16.8569 10.1447 14.9565 13.9097 14.434C17.6747 13.9114 21.4997 14.8037 24.6448 16.9383L27.9384 19.9582C28.6937 20.8848 29.3381 21.8965 29.8587 22.9727L28.7116 38.3057C28.2187 39.0268 27.6655 39.7047 27.0578 40.3321H4.99397Z" fill="#2D9739"/>
<path d="M29.8583 22.973C29.3377 21.8968 28.6933 20.8851 27.938 19.9584L24.6444 16.9379L24.5863 16.8985C22.6458 15.6046 20.3656 14.9141 18.0332 14.9141C15.7008 14.9141 13.4206 15.6046 11.48 16.8985C9.61358 18.1503 8.04466 19.7965 6.88397 21.7208C5.72328 23.6452 4.9991 25.8009 4.76255 28.0357C4.52601 30.2705 4.78285 32.53 5.51496 34.6548C6.24707 36.7795 7.4366 38.7176 8.99959 40.3324H27.0574C27.6651 39.705 28.2183 39.0271 28.7112 38.306L29.8583 22.973Z" fill="#44BC59"/>
<path d="M29.0272 21.4784C28.6953 20.9503 28.3317 20.4428 27.9383 19.9588L26.4647 18.6074C25.7554 19.0918 24.9863 19.4821 24.1766 19.7685L21.2576 20.7633C21.0934 20.8207 20.9513 20.9281 20.8512 21.0703C20.7511 21.2126 20.698 21.3826 20.6994 21.5565V26.1434C20.6964 26.2898 20.7329 26.4343 20.805 26.5618C20.8771 26.6892 20.9821 26.7949 21.1091 26.8678C21.2361 26.9406 21.3804 26.978 21.5268 26.9759C21.6732 26.9738 21.8164 26.9323 21.9413 26.8558L24.8743 25.0224C26.4197 24.044 27.818 22.8507 29.0272 21.4784Z" fill="#2D9739"/>
<path d="M19.3641 11.6226H12.6874C11.9499 11.6226 11.3521 12.2204 11.3521 12.9579C11.3521 13.6954 11.9499 14.2932 12.6874 14.2932H19.3641C20.1016 14.2932 20.6994 13.6954 20.6994 12.9579C20.6994 12.2204 20.1016 11.6226 19.3641 11.6226Z" fill="#FFC239"/>
<path d="M16.0257 35.6588C20.4506 35.6588 24.0377 32.0717 24.0377 27.6468C24.0377 23.2219 20.4506 19.6348 16.0257 19.6348C11.6008 19.6348 8.01367 23.2219 8.01367 27.6468C8.01367 32.0717 11.6008 35.6588 16.0257 35.6588Z" fill="#ABE4A3"/>
<path d="M16.0256 19.6348C14.4724 19.6335 12.9528 20.0866 11.6537 20.9381C10.6464 22.4769 10.1996 24.3157 10.3886 26.1452C10.5775 27.9748 11.3906 29.6835 12.6911 30.984C13.9917 32.2846 15.7004 33.0977 17.5299 33.2866C19.3594 33.4755 21.1982 33.0287 22.7371 32.0214C23.5271 30.8129 23.9755 29.4132 24.035 27.9706C24.0945 26.528 23.7628 25.0962 23.075 23.8268C22.3871 22.5573 21.3688 21.4975 20.1279 20.7595C18.8869 20.0216 17.4695 19.6329 16.0256 19.6348Z" fill="#CDF8C8"/>
<path d="M12.6872 11.6228L10.8311 8.28445C10.3737 7.17478 10.9973 5.61377 12.0195 5.61377H20.0315C21.0537 5.61377 21.6773 7.17478 21.22 8.28445L19.3639 11.6228H12.6872Z" fill="#2D9739"/>
<path d="M16.0257 26.9789C15.7616 26.9789 15.5034 26.9005 15.2838 26.7538C15.0642 26.6071 14.893 26.3985 14.792 26.1545C14.6909 25.9105 14.6645 25.642 14.716 25.383C14.7675 25.124 14.8947 24.886 15.0814 24.6993C15.2682 24.5125 15.5061 24.3854 15.7651 24.3338C16.0242 24.2823 16.2927 24.3088 16.5367 24.4098C16.7807 24.5109 16.9892 24.6821 17.136 24.9016C17.2827 25.1212 17.361 25.3794 17.361 25.6435H18.6963C18.6941 25.0532 18.4964 24.4802 18.134 24.0141C17.7716 23.5481 17.265 23.2152 16.6933 23.0677V22.3052H15.358V23.0677C14.7293 23.2295 14.1813 23.6152 13.8168 24.1524C13.4523 24.6896 13.2964 25.3413 13.3783 25.9853C13.4603 26.6293 13.7745 27.2213 14.2619 27.6501C14.7493 28.0789 15.3765 28.315 16.0257 28.3142C16.2898 28.3142 16.5479 28.3925 16.7675 28.5392C16.9871 28.686 17.1583 28.8945 17.2594 29.1385C17.3604 29.3825 17.3869 29.651 17.3353 29.9101C17.2838 30.1691 17.1566 30.407 16.9699 30.5938C16.7831 30.7805 16.5452 30.9077 16.2862 30.9592C16.0271 31.0107 15.7586 30.9843 15.5146 30.8832C15.2706 30.7822 15.0621 30.611 14.9154 30.3914C14.7686 30.1718 14.6903 29.9136 14.6903 29.6495H13.355C13.3572 30.2399 13.555 30.8129 13.9174 31.2789C14.2798 31.745 14.7864 32.0778 15.358 32.2254V32.9879H16.6933V32.2254C17.322 32.0636 17.8701 31.6779 18.2345 31.1407C18.599 30.6035 18.7549 29.9517 18.673 29.3077C18.591 28.6637 18.2769 28.0718 17.7894 27.643C17.302 27.2142 16.6748 26.9781 16.0257 26.9789Z" fill="#2D9739"/>
<path d="M24.0376 27.6465H26.7083V38.3292H24.0376V27.6465Z" fill="#FFC239"/>
<path d="M28.7114 22.9731H31.3821V38.3296H28.7114V22.9731Z" fill="#FFC239"/>
<path d="M33.3848 18.2993H36.0554V38.3294H33.3848V18.2993Z" fill="#FFC239"/>
<path d="M23.7893 25.6999C23.3382 23.9005 22.2762 22.3136 20.7848 21.2104C20.7324 21.3184 20.7039 21.4363 20.7013 21.5563V26.1432C20.6984 26.2896 20.7348 26.4341 20.8069 26.5615C20.879 26.689 20.9841 26.7947 21.1111 26.8675C21.2381 26.9404 21.3824 26.9777 21.5288 26.9756C21.6752 26.9735 21.8183 26.9321 21.9432 26.8556L23.7893 25.6999Z" fill="#ABE4A3"/>
<path d="M38.0586 14.2935H40.7293V38.3296H38.0586V14.2935Z" fill="#FFC239"/>
<path d="M19.3638 30.3174H22.0344V38.3294H19.3638V30.3174Z" fill="#FFC239"/>
<path d="M12.6874 11.6226C12.4591 11.6239 12.2351 11.6844 12.0371 11.7982C12.0795 12.1181 12.2364 12.4119 12.4787 12.6251C12.721 12.8383 13.0323 12.9565 13.3551 12.9579H20.0318C20.2601 12.9565 20.4841 12.896 20.6821 12.7823C20.6397 12.4624 20.4828 12.1686 20.2405 11.9554C19.9982 11.7422 19.6869 11.624 19.3641 11.6226H12.6874Z" fill="#FFD55D"/>
<path d="M21.2203 8.28417C21.6776 7.1745 21.054 5.61349 20.0318 5.61349H13.1127C12.9522 5.61022 12.7933 5.64585 12.6496 5.71733C12.5058 5.78881 12.3815 5.89402 12.2872 6.02397C12.1929 6.15393 12.1315 6.30476 12.1082 6.46361C12.0849 6.62245 12.1004 6.78458 12.1533 6.93614L12.1586 6.94883L13.1475 8.7275C13.4106 9.20064 13.7955 9.59477 14.2623 9.86902C14.7291 10.1433 15.2607 10.2876 15.8021 10.2872H20.1066L21.2203 8.28417Z" fill="#44BC59"/>
<path d="M20.6992 30.3174V36.3264C20.6992 36.6806 20.8399 37.0202 21.0903 37.2706C21.3408 37.5211 21.6804 37.6618 22.0346 37.6618V30.3174H20.6992Z" fill="#FFD55D"/>
<path d="M25.373 27.6465V36.3262C25.373 36.6803 25.5137 37.02 25.7642 37.2704C26.0146 37.5208 26.3542 37.6615 26.7084 37.6615V27.6465H25.373Z" fill="#FFD55D"/>
<path d="M30.0464 22.9731V36.3265C30.0464 36.6807 30.1871 37.0203 30.4375 37.2708C30.6879 37.5212 31.0276 37.6619 31.3817 37.6619V22.9731H30.0464Z" fill="#FFD55D"/>
<path d="M34.7202 18.2993V36.3264C34.7202 36.6806 34.8609 37.0202 35.1113 37.2706C35.3618 37.5211 35.7014 37.6617 36.0556 37.6617V18.2993H34.7202Z" fill="#FFD55D"/>
<path d="M39.394 14.2935V36.3266C39.394 36.6807 39.5347 37.0204 39.7852 37.2708C40.0356 37.5212 40.3752 37.6619 40.7294 37.6619V14.2935H39.394Z" fill="#FFD55D"/>
<path d="M39.0637 8.46378C39.0963 8.57824 39.0978 8.69935 39.0679 8.81457C39.038 8.92978 38.9779 9.03492 38.8937 9.11909C38.8095 9.20325 38.7044 9.26339 38.5892 9.29327C38.474 9.32314 38.3529 9.32168 38.2384 9.28902L34.7205 8.28418C33.0379 13.8772 29.757 19.3154 24.8743 22.3667L21.9413 24.2001C21.8164 24.2766 21.6732 24.318 21.5268 24.3201C21.3804 24.3222 21.2361 24.2849 21.1091 24.212C20.9821 24.1392 20.8771 24.0335 20.805 23.906C20.7329 23.7786 20.6964 23.6341 20.6994 23.4877V18.9001C20.6983 18.7264 20.7515 18.5567 20.8516 18.4147C20.9516 18.2728 21.0936 18.1656 21.2576 18.1083L24.1766 17.1134C28.0825 15.7828 31.9102 11.7454 32.7174 7.61651L29.7403 6.12827C29.6356 6.07596 29.5466 5.99707 29.482 5.8995C29.4174 5.80193 29.3796 5.6891 29.3724 5.57232C29.3652 5.45554 29.3887 5.33891 29.4408 5.23411C29.4928 5.12931 29.5715 5.04003 29.6689 4.9752L35.9617 0.779567C36.0491 0.721289 36.1491 0.684473 36.2534 0.672114C36.3578 0.659755 36.4636 0.672202 36.5622 0.708443C36.6608 0.744683 36.7495 0.803693 36.8211 0.880674C36.8926 0.957654 36.9449 1.05043 36.9738 1.15146L39.0637 8.46378Z" fill="#F3A606"/>
<path d="M21.9412 22.4695L24.8743 20.6361C29.4098 17.8018 32.5632 12.9071 34.3379 7.74203C34.4501 7.42184 34.6808 7.15686 34.9825 7.00161C35.2842 6.84636 35.6339 6.81266 35.9596 6.90744L38.2384 7.55842C38.3296 7.58478 38.4254 7.59103 38.5192 7.57674C38.6131 7.56244 38.7027 7.52795 38.7819 7.47563L36.9738 1.15146C36.9449 1.05043 36.8926 0.957654 36.821 0.880674C36.7495 0.803693 36.6608 0.744683 36.5622 0.708443C36.4636 0.672202 36.3578 0.659755 36.2534 0.672114C36.149 0.684473 36.0491 0.721289 35.9616 0.779567L29.6689 4.9752C29.5714 5.04003 29.4928 5.12931 29.4408 5.23411C29.3887 5.33891 29.3651 5.45554 29.3724 5.57232C29.3796 5.6891 29.4174 5.80193 29.482 5.8995C29.5466 5.99707 29.6356 6.07596 29.7403 6.12827L32.7174 7.61651C31.9102 11.7454 28.0825 15.7828 24.1766 17.1141L21.2575 18.1089C21.0937 18.1662 20.9518 18.2733 20.8517 18.4151C20.7517 18.557 20.6984 18.7265 20.6994 18.9001V21.7578C20.6965 21.9041 20.7331 22.0485 20.8052 22.1759C20.8774 22.3032 20.9824 22.4088 21.1094 22.4816C21.2364 22.5544 21.3806 22.5917 21.527 22.5895C21.6733 22.5874 21.8164 22.5459 21.9412 22.4695Z" fill="#FFC239"/>
<path d="M16.0257 24.3082C16.3798 24.3082 16.7195 24.4489 16.9699 24.6993C17.2203 24.9497 17.361 25.2894 17.361 25.6435H18.6963C18.6941 25.0532 18.4964 24.4802 18.134 24.0141C17.7716 23.5481 17.265 23.2152 16.6933 23.0677V22.3052H15.358V23.0677C14.7293 23.2295 14.1813 23.6152 13.8168 24.1524C13.4523 24.6896 13.2964 25.3413 13.3783 25.9853C13.4603 26.6293 13.7745 27.2213 14.2619 27.6501C14.7493 28.0789 15.3765 28.315 16.0257 28.3142C16.2898 28.3142 16.5479 28.3925 16.7675 28.5392C16.9871 28.686 17.1583 28.8945 17.2594 29.1385C17.3604 29.3825 17.3869 29.651 17.3353 29.9101C17.2838 30.1691 17.1566 30.407 16.9699 30.5938C16.7831 30.7805 16.5452 30.9077 16.2862 30.9592C16.0271 31.0107 15.7586 30.9843 15.5146 30.8832C15.2706 30.7822 15.0621 30.611 14.9154 30.3914C14.7686 30.1718 14.6903 29.9136 14.6903 29.6495H13.355C13.3572 30.2399 13.555 30.8129 13.9174 31.2789C14.2798 31.745 14.7864 32.0778 15.358 32.2254V32.9879H16.6933V32.2254C17.322 32.0636 17.8701 31.6779 18.2345 31.1407C18.599 30.6035 18.7549 29.9517 18.673 29.3077C18.591 28.6637 18.2769 28.0718 17.7894 27.643C17.302 27.2142 16.6748 26.9781 16.0257 26.9789C15.6715 26.9789 15.3319 26.8382 15.0814 26.5878C14.831 26.3373 14.6903 25.9977 14.6903 25.6435C14.6903 25.2894 14.831 24.9497 15.0814 24.6993C15.3319 24.4489 15.6715 24.3082 16.0257 24.3082Z" fill="black"/>
<path d="M33.385 17.6318C33.2079 17.6318 33.0381 17.7022 32.9128 17.8274C32.7876 17.9526 32.7173 18.1224 32.7173 18.2995V38.3296C32.7173 38.5067 32.7876 38.6765 32.9128 38.8017C33.0381 38.9269 33.2079 38.9973 33.385 38.9973H36.0556C36.2327 38.9973 36.4025 38.9269 36.5277 38.8017C36.653 38.6765 36.7233 38.5067 36.7233 38.3296V18.2995C36.7233 18.1224 36.653 17.9526 36.5277 17.8274C36.4025 17.7022 36.2327 17.6318 36.0556 17.6318H33.385ZM35.388 37.6619H34.0526V18.9672H35.388V37.6619Z" fill="black"/>
<path d="M40.7295 13.6255H38.0588C37.8817 13.6255 37.7119 13.6958 37.5867 13.821C37.4615 13.9463 37.3911 14.1161 37.3911 14.2932V38.3293C37.3911 38.5064 37.4615 38.6762 37.5867 38.8014C37.7119 38.9266 37.8817 38.9969 38.0588 38.9969H40.7295C40.9065 38.9969 41.0764 38.9266 41.2016 38.8014C41.3268 38.6762 41.3971 38.5064 41.3971 38.3293V14.2932C41.3971 14.1161 41.3268 13.9463 41.2016 13.821C41.0764 13.6958 40.9065 13.6255 40.7295 13.6255ZM40.0618 37.6616H38.7265V14.9608H40.0618V37.6616Z" fill="black"/>
<path d="M29.0279 38.997H31.3821C31.5591 38.997 31.729 38.9266 31.8542 38.8014C31.9794 38.6762 32.0497 38.5064 32.0497 38.3293V22.9729C32.0497 22.7958 31.9794 22.626 31.8542 22.5008C31.729 22.3756 31.5591 22.3052 31.3821 22.3052H30.263C29.8483 21.5033 29.3668 20.7376 28.8235 20.0165C31.7537 16.9191 33.925 13.1838 35.1664 9.10474L38.0588 9.93199C38.2872 9.99631 38.5286 9.99859 38.7583 9.9386C38.9879 9.87861 39.1973 9.75851 39.3651 9.59067C39.5329 9.42282 39.6529 9.2133 39.7128 8.98367C39.7727 8.75403 39.7703 8.51258 39.7059 8.28418L37.6161 0.968518C37.5583 0.766406 37.4537 0.58078 37.3107 0.426742C37.1677 0.272705 36.9903 0.154607 36.793 0.0820581C36.5957 0.00950892 36.3841 -0.0154426 36.1754 0.00923374C35.9666 0.03391 35.7666 0.107517 35.5917 0.224066L29.2983 4.4197C29.1036 4.54945 28.9465 4.72803 28.8426 4.93759C28.7387 5.14715 28.6917 5.38032 28.7062 5.61377C28.7207 5.84722 28.7963 6.07276 28.9254 6.2678C29.0545 6.46285 29.2326 6.62057 29.4418 6.72517L31.9509 7.97972C31.0829 11.3254 28.0624 14.7339 24.7074 16.1921C23.4941 15.4043 22.1792 14.7854 20.7988 14.3526C21.0126 14.1345 21.1733 13.8699 21.2683 13.5796C21.3633 13.2893 21.3902 12.9809 21.3467 12.6786C21.3032 12.3762 21.1907 12.0879 21.0177 11.8361C20.8448 11.5843 20.6161 11.3757 20.3495 11.2266L21.8037 8.61067C21.8164 8.58797 21.8277 8.56456 21.8377 8.54056C22.0075 8.09911 22.0706 7.62382 22.022 7.15337C21.9734 6.68291 21.8144 6.23057 21.558 5.83316C21.3975 5.56991 21.1739 5.35088 20.9073 5.19593C20.6408 5.04098 20.3398 4.95502 20.0317 4.94583H12.0196C11.7117 4.9548 11.4108 5.04046 11.1443 5.19506C10.8778 5.34965 10.654 5.56828 10.4933 5.83116C10.2369 6.22857 10.0779 6.6809 10.0293 7.15136C9.98069 7.62182 10.0438 8.09711 10.2136 8.53856C10.2236 8.56256 10.235 8.58597 10.2476 8.60866L11.7018 11.2219C11.4351 11.3711 11.2064 11.5797 11.0335 11.8316C10.8605 12.0835 10.748 12.3719 10.7046 12.6744C10.6612 12.9768 10.6881 13.2852 10.7832 13.5756C10.8784 13.866 11.0392 14.1305 11.2531 14.3486C8.76284 15.1253 6.4998 16.4982 4.66058 18.3481C2.82136 20.198 1.46158 22.469 0.699342 24.9637C-0.0628978 27.4585 -0.204548 30.1016 0.286695 32.6636C0.777938 35.2255 1.88722 37.6288 3.51819 39.6647H0.669246V41H40.7294V39.6647H28.5284C28.7027 39.4477 28.8656 39.2227 29.0279 38.997ZM30.7144 37.6617H29.379V23.6406H30.7144V37.6617ZM33.3724 7.74403C33.4004 7.60082 33.3806 7.45238 33.3162 7.32143C33.2519 7.19048 33.1463 7.08424 33.0158 7.01894L30.0387 5.53071L36.3315 1.33507L38.4213 8.64739L34.9033 7.64188C34.7346 7.59375 34.5537 7.61399 34.3998 7.6982C34.2458 7.78241 34.1313 7.92384 34.0808 8.09189C32.2327 14.2345 28.8369 19.1024 24.5204 21.8012L21.5867 23.6339C21.5671 23.6472 21.5441 23.6546 21.5205 23.6553C21.4968 23.656 21.4735 23.65 21.4531 23.6379C21.4261 23.6235 21.4037 23.6018 21.3885 23.5752C21.3732 23.5486 21.3658 23.5183 21.367 23.4877V18.9001C21.3662 18.8659 21.3758 18.8321 21.3947 18.8035C21.4135 18.7749 21.4407 18.7527 21.4725 18.7399L24.3916 17.7451C28.6833 16.2829 32.5438 11.9831 33.3724 7.74403ZM26.0407 28.3143V37.6617H24.7054V28.3143H26.0407ZM23.37 27.6466C23.3686 28.6985 23.1409 29.7377 22.7024 30.6938V30.3173C22.7024 30.1402 22.632 29.9704 22.5068 29.8452C22.3816 29.72 22.2118 29.6496 22.0347 29.6496H19.364C19.1869 29.6496 19.0171 29.72 18.8919 29.8452C18.7667 29.9704 18.6963 30.1402 18.6963 30.3173V34.4795C17.5235 34.9399 16.252 35.0909 15.004 34.9179C13.756 34.7449 12.5735 34.2537 11.5702 33.4916C10.5669 32.7295 9.77646 31.7221 9.27498 30.5663C8.7735 29.4104 8.57781 28.145 8.70671 26.8917C8.83562 25.6384 9.28478 24.4393 10.011 23.4097C10.7373 22.3801 11.7162 21.5547 12.8536 21.0128C13.991 20.4709 15.2488 20.2307 16.5059 20.3153C17.763 20.3999 18.9771 20.8065 20.0317 21.496V23.4877C20.0309 23.7562 20.102 24.02 20.2376 24.2518C20.3732 24.4836 20.5684 24.6748 20.8028 24.8057C21.0319 24.9346 21.2916 24.999 21.5544 24.9921C21.8172 24.9851 22.0731 24.9071 22.2951 24.7663L22.665 24.5346C23.1253 25.5077 23.366 26.5701 23.37 27.6466ZM21.367 30.985V37.6617H20.0317V30.985H21.367ZM11.603 6.57427C11.6453 6.49675 11.7049 6.43 11.7772 6.37918C11.8494 6.32836 11.9324 6.29482 12.0196 6.28117H20.0317C20.1189 6.29482 20.2019 6.32836 20.2741 6.37918C20.3464 6.43 20.406 6.49675 20.4483 6.57427C20.5802 6.7842 20.6637 7.02088 20.6927 7.26711C20.7216 7.51333 20.6954 7.76292 20.6159 7.99775L18.9714 10.9549H13.0799L11.4354 7.99775C11.3559 7.76292 11.3297 7.51333 11.3586 7.26711C11.3876 7.02088 11.4711 6.7842 11.603 6.57427ZM12.6873 13.6255C12.5102 13.6255 12.3404 13.5552 12.2152 13.43C12.09 13.3048 12.0196 13.1349 12.0196 12.9579C12.0196 12.7808 12.09 12.611 12.2152 12.4858C12.3404 12.3605 12.5102 12.2902 12.6873 12.2902H19.364C19.5411 12.2902 19.7109 12.3605 19.8361 12.4858C19.9613 12.611 20.0317 12.7808 20.0317 12.9579C20.0317 13.1349 19.9613 13.3048 19.8361 13.43C19.7109 13.5552 19.5411 13.6255 19.364 13.6255H12.6873ZM1.33692 29.6496C1.33551 27.0977 1.99933 24.5895 3.2629 22.3724C4.52647 20.1553 6.34614 18.3059 8.54245 17.0065C10.7388 15.7071 13.2358 15.0026 15.7874 14.9626C18.339 14.9226 20.857 15.5484 23.0929 16.7783L21.0425 17.4773C20.7465 17.5792 20.4898 17.7711 20.3085 18.0263C20.1272 18.2815 20.0304 18.5871 20.0317 18.9001V19.9484C18.7631 19.2881 17.351 18.9514 15.921 18.9684C14.491 18.9854 13.0873 19.3555 11.8348 20.0458C10.5823 20.7361 9.51972 21.7251 8.74161 22.9251C7.96351 24.125 7.49395 25.4986 7.37469 26.9237C7.25543 28.3489 7.49016 29.7814 8.05802 31.094C8.62588 32.4065 9.50927 33.5584 10.6296 34.4473C11.75 35.3361 13.0727 35.9343 14.48 36.1888C15.8873 36.4432 17.3357 36.346 18.6963 35.9057V38.3293C18.6963 38.5064 18.7667 38.6762 18.8919 38.8014C19.0171 38.9266 19.1869 38.997 19.364 38.997H22.0347C22.2118 38.997 22.3816 38.9266 22.5068 38.8014C22.632 38.6762 22.7024 38.5064 22.7024 38.3293V33.1809C22.9448 32.8896 23.1678 32.5827 23.37 32.2622V38.3293C23.37 38.5064 23.4404 38.6762 23.5656 38.8014C23.6908 38.9266 23.8606 38.997 24.0377 38.997H26.7084C26.8854 38.997 27.0553 38.9266 27.1805 38.8014C27.3057 38.6762 27.376 38.5064 27.376 38.3293V27.6466C27.376 27.4695 27.3057 27.2997 27.1805 27.1745C27.0553 27.0493 26.8854 26.9789 26.7084 26.9789H24.6773C24.593 25.8796 24.3 24.8065 23.814 23.8168L25.2281 22.9329C26.1589 22.3467 27.0375 21.6815 27.8541 20.9445C28.1753 21.3814 28.4722 21.8357 28.7434 22.3052H28.7114C28.5343 22.3052 28.3645 22.3756 28.2393 22.5008C28.1141 22.626 28.0437 22.7958 28.0437 22.9729V38.0843C27.6522 38.64 27.2227 39.1681 26.7584 39.6647H5.29486C2.74777 36.9525 1.33209 33.3703 1.33692 29.6496Z" fill="black"/>
</svg>
