<svg width="43" height="39" viewBox="0 0 43 39" fill="none" xmlns="http://www.w3.org/2000/svg">
<path d="M22.9335 18.7832H6.03763C4.62646 18.7832 3.27308 19.3438 2.27523 20.3416C1.27738 21.3395 0.716797 22.6929 0.716797 24.104V24.104C0.716797 24.8485 0.873028 25.5847 1.17539 26.265L2.15013 28.4582V40.9999H20.7835V25.2332L24.3668 28.0999V20.2165L22.9335 18.7832Z" fill="#ED6445"/>
<path d="M22.9336 15.9165H41.5669V36.6998H22.9336V15.9165Z" fill="#F7C04A"/>
<path d="M15.0503 25.2334L16.4836 32.4001H12.1836L13.6169 25.2334H15.0503Z" fill="#F7C04A"/>
<path d="M13.6169 25.2332L12.1836 23.0832L14.3336 21.6499L16.4836 23.0832L15.0503 25.2332H13.6169Z" fill="#F5A431"/>
<path d="M3.33008 31.1119L8.60075 28.1001L10.7508 32.4001H20.7841L22.6372 30.547C22.8273 30.3569 23.0851 30.2501 23.3539 30.2501C23.487 30.2501 23.6188 30.2763 23.7418 30.3272C23.8647 30.3782 23.9765 30.4528 24.0706 30.5469C24.1647 30.6411 24.2393 30.7528 24.2903 30.8758C24.3412 30.9987 24.3674 31.1305 24.3674 31.2636V34.5501L28.1777 36.4553C28.3249 36.5288 28.4486 36.6419 28.5351 36.7819C28.6216 36.9218 28.6674 37.0831 28.6674 37.2476C28.6674 37.3639 28.6445 37.4791 28.6 37.5866C28.5555 37.6941 28.4902 37.7917 28.408 37.874C28.3257 37.9562 28.2281 38.0215 28.1206 38.066C28.0131 38.1105 27.8979 38.1334 27.7816 38.1334H10.1767C9.06766 38.1334 7.98244 37.8118 7.05252 37.2075C6.12261 36.6031 5.38793 35.7421 4.93751 34.7286L3.33008 31.1119Z" fill="#FFCEB6"/>
<path d="M34.3996 23.7998L32.2496 22.3665L30.0996 23.7998V15.9165H34.3996V23.7998Z" fill="#F7DFA1"/>
<path d="M40.8504 10.9001H30.1004L26.5171 13.0501V10.9001H25.0837C24.7036 10.9001 24.339 10.7491 24.0702 10.4803C23.8014 10.2115 23.6504 9.84694 23.6504 9.4668V0.15013C23.6504 -0.230013 23.8014 -0.594587 24.0702 -0.86339C24.339 -1.13219 24.7036 -1.2832 25.0837 -1.2832H40.8504C41.2305 -1.2832 41.5951 -1.13219 41.8639 -0.86339C42.1327 -0.594587 42.2837 -0.230013 42.2837 0.15013V9.4668C42.2837 9.84694 42.1327 10.2115 41.8639 10.4803C41.5951 10.7491 41.2305 10.9001 40.8504 10.9001Z" fill="#4E96ED"/>
<path d="M17.2001 14.4834V18.7834L14.3335 21.6501L11.4668 18.7834V14.4834H17.2001Z" fill="#FFCEB6"/>
<path d="M11.4668 9.4668V15.2001C11.4668 16.1505 11.8443 17.0619 12.5163 17.7339C13.1883 18.4059 14.0998 18.7835 15.0501 18.7835C16.0005 18.7835 16.9119 18.4059 17.5839 17.7339C18.2559 17.0619 18.6335 16.1505 18.6335 15.2001V9.4668H11.4668Z" fill="#FFCEB6"/>
<path d="M12.8999 10.1831L13.8625 11.1457C14.2389 11.5221 14.6858 11.8207 15.1777 12.0245C15.6696 12.2282 16.1967 12.3331 16.7291 12.3331H16.7291C17.8043 12.3331 18.8355 11.9059 19.5958 11.1457C20.3561 10.3854 20.7832 9.3542 20.7832 8.279V7.31641H12.7837C12.0543 7.31641 11.3546 7.60619 10.8388 8.12202C10.323 8.63784 10.0332 9.33745 10.0332 10.0669C10.0332 10.61 10.1939 11.1408 10.4952 11.5927L11.4665 13.0497L12.8999 10.1831Z" fill="#B36F42"/>
<path d="M28.4976 35.8143L25.0833 34.1072V31.2636C25.0833 30.9214 24.9818 30.5869 24.7917 30.3024C24.6016 30.0178 24.3314 29.7961 24.0152 29.6651C23.6991 29.5342 23.3512 29.4999 23.0156 29.5667C22.68 29.6334 22.3717 29.7982 22.1297 30.0402L20.4865 31.6834H17.0709L15.8109 25.384L16.6821 24.0772L18.2358 25.1131C18.3437 25.185 18.4692 25.2263 18.5987 25.2326C18.7283 25.2388 18.8571 25.2098 18.9715 25.1486C19.0859 25.0874 19.1815 24.9963 19.2481 24.885C19.3148 24.7738 19.35 24.6465 19.35 24.5168V19.5001H20.7833V18.0668H18.2516C18.9594 17.2798 19.3507 16.2586 19.35 15.2001V12.263C20.0103 11.829 20.5524 11.2378 20.9277 10.5425C21.303 9.84714 21.4996 9.06948 21.5 8.27935V7.31676C21.5 7.12669 21.4245 6.94441 21.2901 6.81001C21.1557 6.67561 20.9734 6.6001 20.7833 6.6001H12.7839C12.1563 6.60009 11.5406 6.77041 11.0022 7.0929C10.4638 7.41539 10.0231 7.87794 9.72694 8.43125C9.43082 8.98455 9.29042 9.60785 9.32071 10.2347C9.351 10.8615 9.55086 11.4684 9.89896 11.9905L10.75 13.2671V18.0668H6.03752C5.0316 18.0668 4.04163 18.3181 3.15754 18.7979C2.27345 19.2778 1.52325 19.9709 0.975115 20.8143C0.426977 21.6578 0.098267 22.6248 0.0188481 23.6276C-0.0605708 24.6304 0.111818 25.6371 0.520354 26.5563L1.43333 28.6105V41.0001H2.86667V31.8355L4.28189 35.0197C4.78917 36.1594 5.61581 37.1277 6.66183 37.8075C7.70785 38.4873 8.92843 38.8494 10.1759 38.8501H20.0667V41.0001H21.5V38.8501H27.7808C28.1418 38.8501 28.4922 38.7282 28.7753 38.5042C29.0584 38.2802 29.2575 37.9671 29.3405 37.6158C29.4234 37.2645 29.3853 36.8954 29.2323 36.5685C29.0793 36.2415 28.8204 35.9757 28.4976 35.8143H28.4976ZM14.2042 25.9501H14.4625L15.6091 31.6834H13.0575L14.2042 25.9501ZM14.6665 24.5168H14.0002L13.1772 23.2822L14.3333 22.5114L15.4895 23.2822L14.6665 24.5168ZM10.75 19.5001H11.1698L13.2084 21.5387L10.75 23.1777V19.5001ZM12.1833 18.4017C12.9703 19.1095 13.9915 19.5008 15.05 19.5001C15.1978 19.5001 15.3455 19.4925 15.4925 19.4774L14.3333 20.6366L12.1833 18.4866V18.4017ZM17.9167 23.1777L15.4582 21.5387L17.4969 19.5001H17.9167V23.1777ZM12.7839 8.03343H20.0667V8.27935C20.0667 8.93942 19.8709 9.58468 19.5042 10.1335C19.1375 10.6823 18.6163 11.1101 18.0064 11.3627C17.3966 11.6153 16.7256 11.6814 16.0782 11.5526C15.4308 11.4239 14.8361 11.106 14.3694 10.6393L13.4068 9.67668C13.3265 9.59639 13.2283 9.53632 13.1202 9.50144C13.0121 9.46655 12.8973 9.45785 12.7852 9.47604C12.6731 9.49423 12.567 9.53879 12.4755 9.60606C12.384 9.67332 12.3098 9.76137 12.259 9.86293L11.378 11.625L11.0915 11.1955C10.8873 10.8892 10.7701 10.5332 10.7524 10.1655C10.7346 9.79779 10.817 9.43216 10.9907 9.10759C11.1644 8.78303 11.4229 8.51169 11.7387 8.32252C12.0546 8.13335 12.4158 8.03343 12.7839 8.03343ZM12.1833 13.2192L13.0963 11.3933L13.3559 11.6528C13.9423 12.2389 14.6713 12.6621 15.471 12.8809C16.2707 13.0997 17.1136 13.1064 17.9167 12.9004V15.2001C17.9167 15.9604 17.6146 16.6895 17.077 17.2271C16.5394 17.7647 15.8103 18.0668 15.05 18.0668C14.2897 18.0668 13.5606 17.7647 13.023 17.2271C12.4854 16.6895 12.1833 15.9604 12.1833 15.2001V13.2192ZM6.03752 19.5001H9.31667V24.5168C9.31666 24.6465 9.35187 24.7738 9.41853 24.885C9.48518 24.9963 9.58079 25.0874 9.69516 25.1486C9.80953 25.2098 9.93837 25.2389 10.0679 25.2326C10.1975 25.2263 10.3229 25.185 10.4309 25.1131L11.9846 24.0772L12.8557 25.384L11.5958 31.6834H11.1929L7.80766 24.9129L6.52568 25.5539L7.65583 27.8142L3.66222 30.0963L1.83016 25.9742C1.51861 25.2732 1.38715 24.5055 1.44771 23.7408C1.50827 22.9761 1.75894 22.2386 2.17695 21.5954C2.59496 20.9522 3.16705 20.4236 3.84126 20.0577C4.51546 19.6918 5.27041 19.5001 6.03752 19.5001ZM27.7808 37.4168H10.1759C9.20566 37.4162 8.25632 37.1346 7.44275 36.6058C6.62918 36.0771 5.98624 35.324 5.5917 34.4375L4.24731 31.4127L8.29779 29.0982L10.109 32.7206C10.1685 32.8396 10.26 32.9398 10.3732 33.0097C10.4864 33.0797 10.6169 33.1168 10.75 33.1168H20.7833C20.9734 33.1168 21.1557 33.0413 21.2901 32.9068L23.1433 31.0536C23.1848 31.0121 23.2377 30.9839 23.2953 30.9725C23.3529 30.961 23.4125 30.9669 23.4668 30.9894C23.521 31.0118 23.5674 31.0499 23.6 31.0987C23.6326 31.1475 23.65 31.2049 23.65 31.2636V34.5501C23.65 34.6832 23.6871 34.8136 23.757 34.9269C23.827 35.0401 23.9271 35.1316 24.0461 35.1911L27.8565 37.0963C27.8906 37.1133 27.9179 37.1414 27.9341 37.1759C27.9502 37.2104 27.9542 37.2494 27.9455 37.2865C27.9367 37.3236 27.9157 37.3566 27.8858 37.3803C27.8559 37.4039 27.8189 37.4168 27.7808 37.4168Z" fill="black"/>
<path d="M41.5668 15.2002H22.9335C22.7434 15.2002 22.5611 15.2757 22.4267 15.4101C22.2923 15.5445 22.2168 15.7268 22.2168 15.9169V28.1002H23.6501V16.6335H29.3835V18.7835H25.0835V20.2169H29.3835V23.8002C29.3835 23.9299 29.4187 24.0572 29.4853 24.1685C29.552 24.2797 29.6476 24.3708 29.762 24.432C29.8763 24.4932 30.0052 24.5223 30.1347 24.516C30.2643 24.5097 30.3897 24.4684 30.4977 24.3965L32.2501 23.2282L34.0026 24.3965C34.1105 24.4684 34.236 24.5097 34.3655 24.516C34.4951 24.5223 34.6239 24.4932 34.7383 24.432C34.8526 24.3708 34.9483 24.2797 35.0149 24.1685C35.0816 24.0572 35.1168 23.9299 35.1168 23.8002V20.2169H40.8501V35.9835H30.8168V37.4169H41.5668C41.7569 37.4169 41.9392 37.3414 42.0736 37.207C42.208 37.0726 42.2835 36.8903 42.2835 36.7002V15.9169C42.2835 15.7268 42.208 15.5445 42.0736 15.4101C41.9392 15.2757 41.7569 15.2002 41.5668 15.2002ZM33.6835 22.4611L32.6477 21.7706C32.5299 21.6921 32.3916 21.6502 32.2501 21.6502C32.1086 21.6502 31.9703 21.6921 31.8526 21.7706L30.8168 22.4611V16.6335H33.6835V22.4611ZM35.1168 18.7835V16.6335H40.8501V18.7835H35.1168Z" fill="black"/>
<path d="M31.5332 33.1167H32.9665V34.55H31.5332V33.1167Z" fill="black"/>
<path d="M33.6836 33.1167H35.1169V34.55H33.6836V33.1167Z" fill="black"/>
<path d="M35.833 33.1167H37.2663V34.55H35.833V33.1167Z" fill="black"/>
<path d="M37.9834 33.1167H39.4167V34.55H37.9834V33.1167Z" fill="black"/>
<path d="M33.6836 30.25H36.5503V31.6833H33.6836V30.25Z" fill="black"/>
<path d="M37.9834 30.25H39.4167V31.6833H37.9834V30.25Z" fill="black"/>
<path d="M40.8503 -2H25.0836C24.5136 -1.99935 23.9671 -1.77262 23.564 -1.36956C23.161 -0.966498 22.9342 -0.420015 22.9336 0.15V9.46667C22.9342 10.0367 23.161 10.5832 23.564 10.9862C23.9671 11.3893 24.5136 11.616 25.0836 11.6167H25.8003V13.05C25.8003 13.1768 25.8339 13.3014 25.8978 13.4109C25.9617 13.5205 26.0535 13.6112 26.1638 13.6736C26.2742 13.7361 26.3992 13.7682 26.526 13.7666C26.6528 13.765 26.7769 13.7298 26.8857 13.6645L30.2988 11.6167H40.8503C41.4203 11.616 41.9668 11.3893 42.3698 10.9862C42.7729 10.5832 42.9996 10.0367 43.0003 9.46667V0.15C42.9996 -0.420015 42.7729 -0.966498 42.3698 -1.36956C41.9668 -1.77262 41.4203 -1.99935 40.8503 -2ZM41.5669 9.46667C41.5667 9.65667 41.4911 9.83883 41.3568 9.97319C41.2224 10.1075 41.0403 10.1831 40.8503 10.1833H30.1003C29.9704 10.1833 29.8429 10.2186 29.7315 10.2855L27.2336 11.7842V10.9C27.2336 10.7099 27.1581 10.5276 27.0237 10.3932C26.8893 10.2588 26.707 10.1833 26.5169 10.1833H25.0836C24.8936 10.1831 24.7114 10.1075 24.5771 9.97319C24.4427 9.83883 24.3671 9.65667 24.3669 9.46667V0.15C24.3671 -0.040005 24.4427 -0.222166 24.5771 -0.35652C24.7114 -0.490874 24.8936 -0.566449 25.0836 -0.566667H40.8503C41.0403 -0.566449 41.2224 -0.490874 41.3568 -0.35652C41.4911 -0.222166 41.5667 -0.040005 41.5669 0.15V9.46667Z" fill="black"/>
<path d="M26.5166 0.866699H28.6666V2.30003H26.5166V0.866699Z" fill="black"/>
<path d="M30.0996 0.866699H35.1163V2.30003H30.0996V0.866699Z" fill="black"/>
<path d="M26.5166 3.7334H33.6833V5.16673H26.5166V3.7334Z" fill="black"/>
<path d="M35.1172 3.7334H39.4172V5.16673H35.1172V3.7334Z" fill="black"/>
<path d="M26.5166 6.6001H30.8166V8.03343H26.5166V6.6001Z" fill="black"/>
<path d="M32.25 6.6001H39.4167V8.03343H32.25V6.6001Z" fill="black"/>
</svg>
