<svg width="80" height="80" viewBox="0 0 80 80" fill="none" xmlns="http://www.w3.org/2000/svg">
<path d="M0 36.5258C5.95958 41.7104 11.6118 46.621 17.2574 51.545C24.0855 57.4979 30.907 63.4508 37.7351 69.4037C39.6325 71.0606 40.3808 71.054 42.2983 69.3837C54.4647 58.7807 66.6244 48.1777 78.7907 37.5814C79.098 37.3142 79.4121 37.067 79.9065 36.6661C79.9465 37.3008 79.9933 37.7351 79.9933 38.1694C80 51.0306 80 63.8851 79.9933 76.7463C79.9933 79.2651 79.2651 80 76.753 80C52.2332 80 27.7134 80 3.19359 80C0.76165 80 0 79.2517 0 76.8599C0 63.9452 0 51.0373 0 38.1293C0 37.7217 0 37.3142 0 36.5258Z" fill="#FF5200"/>
<path d="M39.9332 65.0944C35.998 61.6603 32.0828 58.2395 28.1743 54.8188C25.4284 52.4202 22.6557 50.0551 19.9833 47.5831C19.422 47.062 18.9544 46.1199 18.9477 45.3716C18.8876 31.3145 18.9009 17.2574 18.9076 3.20027C18.9076 0.70152 19.6425 0 22.2014 0C34.0738 0 45.9462 0 57.8119 0C60.3507 0 61.0857 0.708201 61.0923 3.22031C61.099 17.2774 61.1057 31.3346 61.0656 45.3917C61.0656 46.0331 60.8117 46.8883 60.3574 47.2891C53.7765 53.1284 47.1421 58.9076 40.5211 64.7002C40.3741 64.8271 40.1937 64.9207 39.9332 65.0944ZM39.9866 23.7448C44.4563 23.7448 48.926 23.7515 53.4023 23.7448C55.3332 23.7381 56.4089 22.8562 56.3688 21.3396C56.3287 19.8898 55.2864 19.068 53.4291 19.068C44.4897 19.0613 35.5436 19.0613 26.6043 19.068C24.6734 19.068 23.5978 19.9566 23.6379 21.4665C23.6779 22.9096 24.7269 23.7381 26.5776 23.7381C31.0406 23.7515 35.5169 23.7448 39.9866 23.7448ZM40.167 28.4416C35.6439 28.4416 31.1207 28.4349 26.5976 28.4416C24.6667 28.4483 23.5911 29.3302 23.6312 30.8402C23.6713 32.2833 24.7135 33.1117 26.5709 33.1184C35.5102 33.1251 44.4563 33.1251 53.3957 33.1184C55.3265 33.1184 56.4022 32.2298 56.3621 30.7199C56.322 29.2701 55.2797 28.4483 53.4291 28.4483C49.0061 28.4349 44.5899 28.4416 40.167 28.4416ZM40.0133 37.8153C37.0536 37.8153 34.0872 37.8019 31.1274 37.8219C29.3302 37.8286 28.2812 38.7506 28.3213 40.2205C28.3614 41.6235 29.3836 42.4854 31.1007 42.4921C37.0269 42.5054 42.9464 42.5054 48.8725 42.4921C50.6698 42.4854 51.7187 41.5701 51.6786 40.0935C51.6385 38.6905 50.623 37.8353 48.8993 37.8219C45.9395 37.8019 42.9731 37.8153 40.0133 37.8153Z" fill="#FF5200"/>
<path d="M77.3543 32.6173C73.7799 35.704 69.9382 39.0179 65.8961 42.5121C65.8961 35.1094 65.8961 27.9873 65.8961 20.7182C69.7712 24.7402 73.5327 28.6487 77.3543 32.6173Z" fill="#FF5200"/>
<path d="M14.144 20.7115C14.144 27.9873 14.144 35.076 14.144 42.5322C10.0952 39.0446 6.27361 35.7441 2.64575 32.6107C6.44064 28.6822 10.2021 24.7937 14.144 20.7115Z" fill="#FF5200"/>
</svg>
