<svg width="22" height="20" viewBox="0 0 22 20" fill="none" xmlns="http://www.w3.org/2000/svg">
<path d="M2 11H4V19C4 19.2652 4.10536 19.5196 4.29289 19.7071C4.48043 19.8946 4.73478 20 5 20H17C17.2652 20 17.5196 19.8946 17.7071 19.7071C17.8946 19.5196 18 19.2652 18 19V11H20C20.5304 11 21.0391 10.7893 21.4142 10.4142C21.7893 10.0391 22 9.53043 22 9V2C22 1.46957 21.7893 0.960859 21.4142 0.585786C21.0391 0.210714 20.5304 0 20 0H2C1.46957 0 0.960859 0.210714 0.585786 0.585786C0.210714 0.960859 0 1.46957 0 2V9C0 9.53043 0.210714 10.0391 0.585786 10.4142C0.960859 10.7893 1.46957 11 2 11ZM14.5 12.25H14.08V13.06C14.08 13.2589 14.001 13.4497 13.8603 13.5903C13.7197 13.731 13.5289 13.81 13.33 13.81C13.1311 13.81 12.9403 13.731 12.7997 13.5903C12.659 13.4497 12.58 13.2589 12.58 13.06V11.06C12.5813 11.0053 12.5717 10.9509 12.5517 10.9C12.5317 10.8491 12.5017 10.8027 12.4635 10.7636C12.4253 10.7245 12.3797 10.6934 12.3292 10.6721C12.2788 10.6509 12.2247 10.64 12.17 10.64C12.0586 10.64 11.9518 10.6842 11.873 10.763C11.7943 10.8418 11.75 10.9486 11.75 11.06V11.84C11.7429 12.3128 11.5615 12.7664 11.2407 13.1138C10.9199 13.4612 10.4821 13.678 10.0113 13.7226C9.54051 13.7672 9.06982 13.6365 8.68945 13.3555C8.30907 13.0746 8.04577 12.6631 7.95 12.2H7.5C7.30109 12.2 7.11032 12.121 6.96967 11.9803C6.82902 11.8397 6.75 11.6489 6.75 11.45C6.75 11.2511 6.82902 11.0603 6.96967 10.9197C7.11032 10.779 7.30109 10.7 7.5 10.7H7.92V9.89C7.92 9.69109 7.99902 9.50032 8.13967 9.35967C8.28032 9.21902 8.47109 9.14 8.67 9.14C8.86891 9.14 9.05968 9.21902 9.20033 9.35967C9.34098 9.50032 9.42 9.69109 9.42 9.89V11.89C9.41867 11.9447 9.42829 11.9991 9.44829 12.05C9.4683 12.1009 9.49829 12.1473 9.53649 12.1864C9.5747 12.2255 9.62035 12.2566 9.67076 12.2779C9.72116 12.2991 9.77531 12.31 9.83 12.31C9.94139 12.31 10.0482 12.2657 10.127 12.187C10.2057 12.1082 10.25 12.0014 10.25 11.89V11.11C10.2571 10.6372 10.4385 10.1836 10.7593 9.83616C11.0801 9.48876 11.5179 9.27199 11.9887 9.22739C12.4595 9.18278 12.9302 9.31349 13.3106 9.59447C13.6909 9.87544 13.9542 10.2869 14.05 10.75H14.5C14.6989 10.75 14.8897 10.829 15.0303 10.9697C15.171 11.1103 15.25 11.3011 15.25 11.5C15.25 11.6989 15.171 11.8897 15.0303 12.0303C14.8897 12.171 14.6989 12.25 14.5 12.25ZM2 2H20V9H18V6C18.2652 6 18.5196 5.89464 18.7071 5.70711C18.8946 5.51957 19 5.26522 19 5C19 4.73478 18.8946 4.48043 18.7071 4.29289C18.5196 4.10536 18.2652 4 18 4H4C3.73478 4 3.48043 4.10536 3.29289 4.29289C3.10536 4.48043 3 4.73478 3 5C3 5.26522 3.10536 5.51957 3.29289 5.70711C3.48043 5.89464 3.73478 6 4 6V9H2V2Z" fill="#FFBB38"/>
</svg>
